<?xml version="1.0"?>
<svg xmlns="http://www.w3.org/2000/svg" version="1.1" width="100" height="100" x="0" y="0" viewBox="0 0 483.013 483.013" xml:space="preserve">
	<defs>
		<linearGradient id="grad1" x1="0%" y1="0%" x2="100%" y2="0%">
			<stop offset="0%" style="stop-color:#ff914d;stop-opacity:1" />
			<stop offset="100%" style="stop-color:#ffb282;stop-opacity:1" />
		</linearGradient>
	</defs>
	<g transform="matrix(6.123233995736766e-17,-1,1,6.123233995736766e-17,-0.0003676414490030311,483.01362466812134)">
		<path d="M477.043,219.205L378.575,48.677c-7.974-13.802-22.683-22.292-38.607-22.292H143.041c-15.923,0-30.628,8.49-38.608,22.292  L5.971,219.205c-7.961,13.801-7.961,30.785,0,44.588l98.462,170.543c7.98,13.802,22.685,22.293,38.608,22.293h196.926  c15.925,0,30.634-8.491,38.607-22.293l98.469-170.543C485.003,249.99,485.003,233.006,477.043,219.205z" fill="url(#grad1)" data-original="#000000" style="" class="" />
	</g>
	<g transform="scale(11) translate(6 6)">
		<g fill="#FFF">
			<path d="M16 27.258c-6.218 0-11.258-5.04-11.258-11.258C4.742 9.782 9.782 4.742 16 4.742c6.218 0 11.258 5.04 11.258 11.258 0 6.218-5.04 11.258-11.258 11.258zm0-.662c5.852 0 10.596-4.744 10.596-10.596S21.852 5.404 16 5.404 5.404 10.148 5.404 16 10.148 26.596 16 26.596z" />
			<path d="M14.09 24.132c.248-.102 1.218-.85 2.155-1.655a51.685 51.685 0 003.348-3.113c1.026-1.026 1.407-1.467 1.47-1.695.222-.801-2.205-9.606-2.699-9.795-.301-.116-2.993 2.123-5.377 4.467-1.398 1.374-1.785 1.831-1.815 2.13-.02.231.06.81.209 1.496.593 2.722 1.672 6.483 2.218 7.718.229.524.255.547.49.447z" />
		</g>
	</g>
</svg>
