<?xml version="1.0"?>
<svg xmlns="http://www.w3.org/2000/svg" version="1.1" width="100" height="100" x="0" y="0" viewBox="0 0 483.013 483.013" xml:space="preserve">
	<defs>
		<linearGradient id="grad1" x1="0%" y1="0%" x2="100%" y2="0%">
			<stop offset="0%" style="stop-color:#3effff;stop-opacity:1" />
			<stop offset="100%" style="stop-color:#77ffff;stop-opacity:1" />
		</linearGradient>
	</defs>
	<g transform="matrix(6.123233995736766e-17,-1,1,6.123233995736766e-17,-0.0003676414490030311,483.01362466812134)">
		<path d="M477.043,219.205L378.575,48.677c-7.974-13.802-22.683-22.292-38.607-22.292H143.041c-15.923,0-30.628,8.49-38.608,22.292  L5.971,219.205c-7.961,13.801-7.961,30.785,0,44.588l98.462,170.543c7.98,13.802,22.685,22.293,38.608,22.293h196.926  c15.925,0,30.634-8.491,38.607-22.293l98.469-170.543C485.003,249.99,485.003,233.006,477.043,219.205z" fill="url(#grad1)" data-original="#000000" style="" class="" />
	</g>
	<g transform="scale(11) translate(6 6)">
		<path fill="#FFF" d="M6.5 10.487L16 5l9.5 5.487v11.026L16 27l-9.5-5.487V10.487zm.912 9.97l3.81-2.205 1.933-3.385-5.743-3.323v8.913zm.457.791l7.702 4.449V21.44l-4.038-2.313-3.664 2.12zm16.719-9.673l-5.692 3.293 1.932 3.382 3.76 2.176v-8.851zm-.43-.808l-7.675-4.433v4.309l1.96 3.431 5.715-3.307zm-6.047 4.555L16.939 16l2.325 1.345-1.153-2.023zm-.453-.794l-1.175-2.06v2.74l1.175-.68zm-4.864 2.815L15.114 16l-1.169-.676-1.15 2.019zm-.346 1.256l3.123 1.788v-3.595l-3.123 1.807zm-4.58-7.847l5.74 3.32 1.963-3.435V6.303l-7.703 4.449zm16.29 10.481l-3.636-2.104-4.039 2.341v4.196l7.675-4.433zm-4.548-2.632l-3.127-1.809v3.622L19.61 18.6zm-5.212-4.071l1.173.678v-2.735l-1.173 2.057z" />
	</g>
</svg>
