<?xml version="1.0"?>
<svg xmlns="http://www.w3.org/2000/svg" version="1.1" width="100" height="100" x="0" y="0" viewBox="0 0 483.013 483.013" xml:space="preserve">
	<defs>
		<linearGradient id="grad1" x1="0%" y1="0%" x2="100%" y2="0%">
			<stop offset="0%" style="stop-color:#ff0000;stop-opacity:1" />
			<stop offset="100%" style="stop-color:#fe4c4c;stop-opacity:1" />
		</linearGradient>
	</defs>
	<g transform="matrix(6.123233995736766e-17,-1,1,6.123233995736766e-17,-0.0003676414490030311,483.01362466812134)">
		<path d="M477.043,219.205L378.575,48.677c-7.974-13.802-22.683-22.292-38.607-22.292H143.041c-15.923,0-30.628,8.49-38.608,22.292  L5.971,219.205c-7.961,13.801-7.961,30.785,0,44.588l98.462,170.543c7.98,13.802,22.685,22.293,38.608,22.293h196.926  c15.925,0,30.634-8.491,38.607-22.293l98.469-170.543C485.003,249.99,485.003,233.006,477.043,219.205z" fill="url(#grad1)" data-original="#000000" style="" class="" />
	</g>
	<g transform="scale(11) translate(6 6)">
		<path d="M4.406 21.711l5.337-9.717c.221-.406.588-.516.96-.296h.039a.703.703 0 00.993-.292l3.749-5.744c.127-.242.289-.465.48-.662.168.206.293.443.367.698l1.62 4.013c.367.922 1.25 1.584 2.172 1.584h.293c.473.018.921.215 1.253.552l1.176 1.25c.349.37.67.763.96 1.179l3.792 5.448c.142.216.277.437.403.662v.036a3.36 3.36 0 01-.552-.542l-5.117-5.309a5.112 5.112 0 01-.811-1.068c-.408-.883-.922-1.253-1.73-1.214h-1.03c-.624 0-.773-.11-.96-.737l-1.469-4.6c-.257-.922-.295-.922-.552 0l-.993 3.12c-.221.623-.296 1.655-.185 1.655.038 0 .295-.48.7-1.325.077-.172.175-.333.293-.48.094.352.144.714.15 1.078-.108.254-.231.5-.37.737l-.036.11c-.442.809-.442.847.036 1.62l.441.735c.168.226.304.474.406.736a5.44 5.44 0 01-.663.48l-2.282 1.472a3 3 0 01-1.325.367c-.811-.036-1.51.37-2.136 1.214l-.883 1.253c-.318.392-.676.75-1.068 1.068l-.809.662a7.68 7.68 0 01-1.325.737l-.441.11c-.32.116-.655.19-.994.219-.151 0-.295 0-.295-.036.115-.268.25-.526.406-.773z" fill="#FFF"/>
	</g>
</svg>
