<?xml version="1.0"?>
<svg xmlns="http://www.w3.org/2000/svg" version="1.1" width="100" height="100" x="0" y="0" viewBox="0 0 483.013 483.013" xml:space="preserve">
	<defs>
		<linearGradient id="grad1" x1="0%" y1="0%" x2="100%" y2="0%">
			<stop offset="0%" style="stop-color:#fec807;stop-opacity:1" />
			<stop offset="100%" style="stop-color:#fed851;stop-opacity:1" />
		</linearGradient>
	</defs>
	<g transform="matrix(6.123233995736766e-17,-1,1,6.123233995736766e-17,-0.0003676414490030311,483.01362466812134)">
		<path d="M477.043,219.205L378.575,48.677c-7.974-13.802-22.683-22.292-38.607-22.292H143.041c-15.923,0-30.628,8.49-38.608,22.292  L5.971,219.205c-7.961,13.801-7.961,30.785,0,44.588l98.462,170.543c7.98,13.802,22.685,22.293,38.608,22.293h196.926  c15.925,0,30.634-8.491,38.607-22.293l98.469-170.543C485.003,249.99,485.003,233.006,477.043,219.205z" fill="url(#grad1)" data-original="#000000" style="" class="" />
	</g>
	<g transform="scale(11) translate(6 6)">
		<path d="M24.984 17.631h-4.928l-.88-2.64h5.8a.748.748 0 100-1.496H18.7l-2.517-7.673a1.074 1.074 0 00-2.12-.07l-6.02 18.303c-.016.1-.016.2 0 .3a1.012 1.012 0 001.989.246l5.051-15.4 1.443 4.294h-1.25a.748.748 0 100 1.496h1.76l.88 2.64h-2.64a.748.748 0 100 1.496h3.16l1.425 4.224h-7.559a1.056 1.056 0 100 2.112h8.941c.554 0 1.003-.449 1.003-1.003a1.03 1.03 0 00-.097-.44l-1.61-4.893h4.4a.748.748 0 100-1.496h.044z" fill="#FFF"/>
	</g>
</svg>
