<?xml version="1.0"?>
<svg xmlns="http://www.w3.org/2000/svg" version="1.1" width="100" height="100" x="0" y="0" viewBox="0 0 483.013 483.013" xml:space="preserve">
	<defs>
		<linearGradient id="grad1" x1="0%" y1="0%" x2="100%" y2="0%">
			<stop offset="0%" style="stop-color:#1b75bc;stop-opacity:1" />
			<stop offset="100%" style="stop-color:#4aa0e5;stop-opacity:1" />
		</linearGradient>
	</defs>
	<g transform="matrix(6.123233995736766e-17,-1,1,6.123233995736766e-17,-0.0003676414490030311,483.01362466812134)">
		<path d="M477.043,219.205L378.575,48.677c-7.974-13.802-22.683-22.292-38.607-22.292H143.041c-15.923,0-30.628,8.49-38.608,22.292  L5.971,219.205c-7.961,13.801-7.961,30.785,0,44.588l98.462,170.543c7.98,13.802,22.685,22.293,38.608,22.293h196.926  c15.925,0,30.634-8.491,38.607-22.293l98.469-170.543C485.003,249.99,485.003,233.006,477.043,219.205z" fill="url(#grad1)" data-original="#000000" style="" class="" />
	</g>
	<g transform="scale(11) translate(6 6)">
		<path fill="#FFF" d="M11.587 8.602L16 13.208l4.305-4.606L23 11.36 18.604 16 23 20.603l-2.695 2.793L16 18.792l-4.413 4.604L9 20.68l4.36-4.706L9 11.36l2.587-2.757zm.355-.376L15.982 4l4.04 4.226-2.126 2.265-1.914-2.114-1.914 2.114-2.126-2.265zm0 15.548l2.126-2.265 1.914 2.114 1.914-2.114 2.126 2.265L15.982 28l-4.04-4.226z"/>
	</g>
</svg>
