<?xml version="1.0"?>
<svg xmlns="http://www.w3.org/2000/svg" version="1.1" width="100" height="100" x="0" y="0" viewBox="0 0 483.013 483.013" xml:space="preserve">
	<defs>
		<linearGradient id="grad1" x1="0%" y1="0%" x2="100%" y2="0%">
			<stop offset="0%" style="stop-color:#de3f6b;stop-opacity:1" />
			<stop offset="100%" style="stop-color:#e77897;stop-opacity:1" />
		</linearGradient>
	</defs>
	<g transform="matrix(6.123233995736766e-17,-1,1,6.123233995736766e-17,-0.0003676414490030311,483.01362466812134)">
		<path d="M477.043,219.205L378.575,48.677c-7.974-13.802-22.683-22.292-38.607-22.292H143.041c-15.923,0-30.628,8.49-38.608,22.292  L5.971,219.205c-7.961,13.801-7.961,30.785,0,44.588l98.462,170.543c7.98,13.802,22.685,22.293,38.608,22.293h196.926  c15.925,0,30.634-8.491,38.607-22.293l98.469-170.543C485.003,249.99,485.003,233.006,477.043,219.205z" fill="url(#grad1)" data-original="#000000" style="" class="" />
	</g>
	<g transform="scale(11) translate(6 6)">
		<path fill="#FFF" fill-rule="nonzero" d="M9.752 11h.904c1.413.134 2.72.821 3.687 1.81 2.009 2.039 3.113 4.916 5.67 6.433 1.848 1.097 4.433.2 5.341-1.654.462-.008.927-.008 1.389-.006-.636 1.883-2.489 3.236-4.515 3.417h-.746c-1.247-.1-2.46-.564-3.403-1.366-1.37-1.123-2.25-2.664-3.315-4.036-.916-1.213-1.85-2.577-3.366-3.128-1.873-.679-4.16.383-4.843 2.187-.6 1.486-.112 3.328 1.23 4.28 1.006.752 2.407 1.033 3.615.595 1.342-.468 2.338-1.532 3.102-2.66.301.417.594.84.884 1.266-1.188 1.447-2.836 2.69-4.796 2.862h-.803C7.317 20.834 5.17 18.804 5 16.406v-.785c.16-2.393 2.28-4.447 4.752-4.621zm11.68 0h.75c2.493.157 4.613 2.228 4.818 4.626v1.23c-2.057.018-4.116.006-6.173.008.002-.36.002-.717 0-1.077 1.626-.004 3.25.007 4.873-.004-.115-.636-.264-1.287-.654-1.826-.95-1.404-2.959-1.978-4.565-1.37-1.28.46-2.244 1.466-2.987 2.54-.286-.397-.57-.8-.845-1.206 1.173-1.468 2.81-2.738 4.783-2.921z" />
	</g>
</svg>
