<?xml version="1.0"?>
<svg xmlns="http://www.w3.org/2000/svg" version="1.1" width="100" height="100" x="0" y="0" viewBox="0 0 483.013 483.013" xml:space="preserve">
	<defs>
		<linearGradient id="grad1" x1="0%" y1="0%" x2="100%" y2="0%">
			<stop offset="0%" style="stop-color:#f49e00;stop-opacity:1" />
			<stop offset="100%" style="stop-color:#febd44;stop-opacity:1" />
		</linearGradient>
	</defs>
	<g transform="matrix(6.123233995736766e-17,-1,1,6.123233995736766e-17,-0.0003676414490030311,483.01362466812134)">
		<path d="M477.043,219.205L378.575,48.677c-7.974-13.802-22.683-22.292-38.607-22.292H143.041c-15.923,0-30.628,8.49-38.608,22.292  L5.971,219.205c-7.961,13.801-7.961,30.785,0,44.588l98.462,170.543c7.98,13.802,22.685,22.293,38.608,22.293h196.926  c15.925,0,30.634-8.491,38.607-22.293l98.469-170.543C485.003,249.99,485.003,233.006,477.043,219.205z" fill="url(#grad1)" data-original="#000000" style="" class="" />
	</g>
	<g transform="scale(11) translate(6 6)">
		<path d="M19.755 17.334C22.001 13.815 23.75 8 23.75 8l-3.745.849-1.371 4.85c-.129-3.636-2.622-4.967-2.622-4.967-1.997-.973-3.777-.545-5.06.124-1.588.826-2.743 2.266-3.296 3.924-.786 2.359-.69 5.006-.586 6.204.042.562.166 1.115.37 1.643 1.378 3.573 5.195 3.37 5.195 3.37 3.497-.124 5.622-4.242 5.622-4.242l1.002 3.028c.898 1.519 2.887.95 3.296.865.072-.016.136-.024.209-.04L25 23.267v-.973c-4.868.132-5.245-4.959-5.245-4.959m-4.739 3.659a2.369 2.369 0 01-1.098.638c-.907.226-1.604-.155-2.085-.622a3.937 3.937 0 01-1.059-1.978c-.882-4.99.337-7.177 1.147-8.182a2.258 2.258 0 011.868-.864c3.144.164 3.85 6.742 3.85 6.742-.89 2.335-2.037 3.69-2.623 4.266" fill="#fff" fill-rule="nonzero" />
	</g>
</svg>
