<?xml version="1.0"?>
<svg xmlns="http://www.w3.org/2000/svg" version="1.1" width="100" height="100" x="0" y="0" viewBox="0 0 483.013 483.013" xml:space="preserve">
	<defs>
		<linearGradient id="grad1" x1="0%" y1="0%" x2="100%" y2="0%">
			<stop offset="0%" style="stop-color:#00bfec;stop-opacity:1" />
			<stop offset="100%" style="stop-color:#3fdaff;stop-opacity:1" />
		</linearGradient>
	</defs>
	<g transform="matrix(6.123233995736766e-17,-1,1,6.123233995736766e-17,-0.0003676414490030311,483.01362466812134)">
		<path d="M477.043,219.205L378.575,48.677c-7.974-13.802-22.683-22.292-38.607-22.292H143.041c-15.923,0-30.628,8.49-38.608,22.292  L5.971,219.205c-7.961,13.801-7.961,30.785,0,44.588l98.462,170.543c7.98,13.802,22.685,22.293,38.608,22.293h196.926  c15.925,0,30.634-8.491,38.607-22.293l98.469-170.543C485.003,249.99,485.003,233.006,477.043,219.205z" fill="url(#grad1)" data-original="#000000" style="" class="" />
	</g>
	<g transform="scale(11) translate(6 6)">
		<g fill="#FFF">
			<path d="M15.971 23.15c-3.957 0-7.176-3.199-7.176-7.13 0-3.932 3.22-7.13 7.176-7.13 3.957 0 7.176 3.198 7.176 7.13 0 3.931-3.219 7.13-7.176 7.13zm0-12.864c-3.181 0-5.77 2.572-5.77 5.734 0 3.161 2.589 5.733 5.77 5.733 3.182 0 5.77-2.572 5.77-5.733 0-3.162-2.588-5.734-5.77-5.734zm5.025-2.415a9.638 9.638 0 00-5.025-1.406 9.67 9.67 0 00-4.666 1.198l-.684-1.22a11.083 11.083 0 015.35-1.376c2.04 0 4.032.558 5.761 1.614l-.736 1.19zm2.095 16.51l-.909-1.067a9.519 9.519 0 003.405-7.294h1.406c0 3.226-1.422 6.273-3.902 8.36zm-7.12 2.59c-2.557 0-5.049-.89-7.016-2.505l.896-1.076a9.667 9.667 0 006.12 2.185c1.56 0 3.048-.36 4.422-1.068l.647 1.24a11.107 11.107 0 01-5.069 1.225z" />
			<path d="M25.35 13.425a9.558 9.558 0 00-1.896-3.59l.9-.746a10.71 10.71 0 012.125 4.025l-1.128.311zM6.86 21.976a10.742 10.742 0 01-1.793-5.956c0-2.962 1.18-5.728 3.323-7.789l.814.837a9.564 9.564 0 00-2.966 6.952c0 1.899.554 3.737 1.6 5.316l-.978.64z" opacity=".5" />
		</g>
	</g>
</svg>
