<?xml version="1.0"?>
<svg xmlns="http://www.w3.org/2000/svg" version="1.1" width="100" height="100" x="0" y="0" viewBox="0 0 483.013 483.013" xml:space="preserve">
	<defs>
		<linearGradient id="grad1" x1="0%" y1="0%" x2="100%" y2="0%">
			<stop offset="0%" style="stop-color:#fd875e;stop-opacity:1" />
			<stop offset="100%" style="stop-color:#fdab8e;stop-opacity:1" />
		</linearGradient>
	</defs>
	<g transform="matrix(6.123233995736766e-17,-1,1,6.123233995736766e-17,-0.0003676414490030311,483.01362466812134)">
		<path d="M477.043,219.205L378.575,48.677c-7.974-13.802-22.683-22.292-38.607-22.292H143.041c-15.923,0-30.628,8.49-38.608,22.292  L5.971,219.205c-7.961,13.801-7.961,30.785,0,44.588l98.462,170.543c7.98,13.802,22.685,22.293,38.608,22.293h196.926  c15.925,0,30.634-8.491,38.607-22.293l98.469-170.543C485.003,249.99,485.003,233.006,477.043,219.205z" fill="url(#grad1)" data-original="#000000" style="" class="" />
	</g>
	<g transform="scale(11) translate(6 6)">
		<path d="M13.66 17.386l2.386-7.112 2.43 7.112zm10.112 4.497l-1.973-5.309h1.178a.849.849 0 00.85-.836c0-.21-.086-.413-.237-.561s-.358-.233-.573-.233h-1.84l-.295-.826h2.095a.839.839 0 00.846-.807c.001-.222-.088-.434-.248-.59s-.376-.244-.602-.243h-2.72L18.78 8.51a3.576 3.576 0 00-1.057-1.461 2.499 2.499 0 00-1.663-.548 2.57 2.57 0 00-1.671.548 3.609 3.609 0 00-1.06 1.46l-1.543 4.004H9.082a.81.81 0 00-.817.797c0 .458.379.829.847.829h2.053l-.316.804h-1.84a.809.809 0 00-.818.8c0 .454.374.821.836.823h1.181l-2.006 5.316c-.123.3-.191.618-.202.941.02.453.222.88.56 1.19a2.04 2.04 0 001.34.483 1.8 1.8 0 001.84-1.305l.776-2.269h7.144l.777 2.323a1.813 1.813 0 001.84 1.24c.31.007.615-.07.884-.22.233-.17.44-.37.614-.598a1.6 1.6 0 00.225-.844 5.446 5.446 0 00-.228-.927z" fill="#fff" />
	</g>
</svg>
