<?xml version="1.0"?>
<svg xmlns="http://www.w3.org/2000/svg" version="1.1" width="100" height="100" x="0" y="0" viewBox="0 0 483.013 483.013" xml:space="preserve">
	<defs>
		<linearGradient id="grad1" x1="0%" y1="0%" x2="100%" y2="0%">
			<stop offset="0%" style="stop-color:#a71435;stop-opacity:1" />
			<stop offset="100%" style="stop-color:#e6355c;stop-opacity:1" />
		</linearGradient>
	</defs>
	<g transform="matrix(6.123233995736766e-17,-1,1,6.123233995736766e-17,-0.0003676414490030311,483.01362466812134)">
		<path d="M477.043,219.205L378.575,48.677c-7.974-13.802-22.683-22.292-38.607-22.292H143.041c-15.923,0-30.628,8.49-38.608,22.292  L5.971,219.205c-7.961,13.801-7.961,30.785,0,44.588l98.462,170.543c7.98,13.802,22.685,22.293,38.608,22.293h196.926  c15.925,0,30.634-8.491,38.607-22.293l98.469-170.543C485.003,249.99,485.003,233.006,477.043,219.205z" fill="url(#grad1)" data-original="#000000" style="" class="" />
	</g>
	<g transform="scale(11) translate(6 6)">
		<g fill="#FFF">
			<path d="M10.755 5.246a11.936 11.936 0 0114.315 18.52c-.595-1.296-1.051-2.655-1.561-3.993l-3.08-8.07c-.297-.818-.796-1.604-1.571-2.029a6.074 6.074 0 00-3.494-.542c-.956.107-1.954.436-2.602 1.19-.616.711-.892 1.625-1.242 2.485L9.3 18.435c-.743 1.784-1.37 3.632-2.177 5.405a11.023 11.023 0 01-2.495-4.407 11.947 11.947 0 016.138-14.198l-.011.01z" />
			<path d="M15.194 13.38c.212-.637 1.062-.85 1.614-.488.297.223.404.605.542.945 1.38 3.61 2.74 7.242 4.11 10.864.18.52.445 1.019.552 1.56a1.256 1.256 0 01-.298.234 11.968 11.968 0 01-9.833.659c-.595-.245-1.21-.457-1.731-.829.053-.488.297-.924.478-1.37 1.529-3.854 3.026-7.72 4.566-11.575z" />
		</g>
	</g>
</svg>
