<?xml version="1.0"?>
<svg xmlns="http://www.w3.org/2000/svg" version="1.1" width="100" height="100" x="0" y="0" viewBox="0 0 483.013 483.013" xml:space="preserve">
	<defs>
		<linearGradient id="grad1" x1="0%" y1="0%" x2="100%" y2="0%">
			<stop offset="0%" style="stop-color:#0061ff;stop-opacity:1" />
			<stop offset="100%" style="stop-color:#4c90fe;stop-opacity:1" />
		</linearGradient>
	</defs>
	<g transform="matrix(6.123233995736766e-17,-1,1,6.123233995736766e-17,-0.0003676414490030311,483.01362466812134)">
		<path d="M477.043,219.205L378.575,48.677c-7.974-13.802-22.683-22.292-38.607-22.292H143.041c-15.923,0-30.628,8.49-38.608,22.292  L5.971,219.205c-7.961,13.801-7.961,30.785,0,44.588l98.462,170.543c7.98,13.802,22.685,22.293,38.608,22.293h196.926  c15.925,0,30.634-8.491,38.607-22.293l98.469-170.543C485.003,249.99,485.003,233.006,477.043,219.205z" fill="url(#grad1)" data-original="#000000" style="" class="" />
	</g>
	<g transform="scale(11) translate(6 6)">
		<path d="M16.01 6L26 16.14l-.375.34a7.99 7.99 0 01-.532.46c-.326.261-.67.521-1.016.752a14.275 14.275 0 01-4.596 2.042c-1.136.28-2.302.42-3.471.42-1.48 0-2.95-.22-4.36-.67a14.27 14.27 0 01-4.033-2.013 17.925 17.925 0 01-1.232-.99L6 16.14l1.095-1.112zm8.738 10.47c.148-.12.295-.24.424-.37L16 6.81 6.829 16.1l.187.16c.306.25.611.5.927.72a13.747 13.747 0 008.067 2.583 13.962 13.962 0 003.343-.41 13.826 13.826 0 004.418-1.962c.338-.222.664-.463.977-.72zm-15.03-.48a15.263 15.263 0 016.134-1.321c2.486 0 4.931.66 7.071 1.922l.139.08-.139.09a12.883 12.883 0 01-4.645 1.832l-.039.01-.03-.02a15.887 15.887 0 00-8.393-2.403h-.542zm8.639 2.002c1.252-.24 2.446-.67 3.55-1.291a13.312 13.312 0 00-6.065-1.452c-1.27 0-2.533.17-3.757.51 2.22.3 4.354 1.06 6.272 2.233zm3.304 1.972a23.88 23.88 0 01-1.42 1.752L16.01 26l-2.978-3.013.63-.04a13.766 13.766 0 005.987-1.792c.552-.27 2.012-1.191 2.012-1.191zm-7.347 3.504l1.696 1.721 2.998-3.043a14.252 14.252 0 01-4.694 1.322z" fill="#fff" fill-rule="nonzero" />
	</g>
</svg>
