<?xml version="1.0"?>
<svg xmlns="http://www.w3.org/2000/svg" version="1.1" width="100" height="100" x="0" y="0" viewBox="0 0 483.013 483.013" xml:space="preserve">
	<defs>
		<linearGradient id="grad1" x1="0%" y1="0%" x2="100%" y2="0%">
			<stop offset="0%" style="stop-color:#346fce;stop-opacity:1" />
			<stop offset="100%" style="stop-color:#709adc;stop-opacity:1" />
		</linearGradient>
	</defs>
	<g transform="matrix(6.123233995736766e-17,-1,1,6.123233995736766e-17,-0.0003676414490030311,483.01362466812134)">
		<path d="M477.043,219.205L378.575,48.677c-7.974-13.802-22.683-22.292-38.607-22.292H143.041c-15.923,0-30.628,8.49-38.608,22.292  L5.971,219.205c-7.961,13.801-7.961,30.785,0,44.588l98.462,170.543c7.98,13.802,22.685,22.293,38.608,22.293h196.926  c15.925,0,30.634-8.491,38.607-22.293l98.469-170.543C485.003,249.99,485.003,233.006,477.043,219.205z" fill="url(#grad1)" data-original="#000000" style="" class="" />
	</g>
	<g transform="scale(11) translate(6 6)">
		<path d="M20.16 18.706l.956 1.797a4.369 4.369 0 01-1.806 5.908l-.124.066a4.369 4.369 0 01-5.909-1.806l-3.223-6.062a4.369 4.369 0 011.592-5.787l-.956-1.797a4.369 4.369 0 011.807-5.908l.124-.066a4.369 4.369 0 015.908 1.806l3.223 6.062a4.369 4.369 0 01-1.591 5.787zm0 0l-2.267-4.265a4.369 4.369 0 00-5.908-1.806l-.124.065c-.073.04-.145.08-.215.122l2.268 4.265a4.369 4.369 0 005.908 1.806l.124-.065c.073-.04.145-.08.215-.122z" fill="#fff" />
	</g>
</svg>
