<?xml version="1.0"?>
<svg xmlns="http://www.w3.org/2000/svg" version="1.1" width="100" height="100" x="0" y="0" viewBox="0 0 483.013 483.013" xml:space="preserve">
	<defs>
		<linearGradient id="grad1" x1="0%" y1="0%" x2="100%" y2="0%">
			<stop offset="0%" style="stop-color:#34318a;stop-opacity:1" />
			<stop offset="100%" style="stop-color:#5b58c3;stop-opacity:1" />
		</linearGradient>
	</defs>
	<g transform="matrix(6.123233995736766e-17,-1,1,6.123233995736766e-17,-0.0003676414490030311,483.01362466812134)">
		<path d="M477.043,219.205L378.575,48.677c-7.974-13.802-22.683-22.292-38.607-22.292H143.041c-15.923,0-30.628,8.49-38.608,22.292  L5.971,219.205c-7.961,13.801-7.961,30.785,0,44.588l98.462,170.543c7.98,13.802,22.685,22.293,38.608,22.293h196.926  c15.925,0,30.634-8.491,38.607-22.293l98.469-170.543C485.003,249.99,485.003,233.006,477.043,219.205z" fill="url(#grad1)" data-original="#000000" style="" class="" />
	</g>
	<g transform="scale(11) translate(6 6)">
		<path d="M10.854 13.264l3.61 1.92 1.92-.96-4.589-2.486V7.36l8.823 4.58 1.92-.96-11.3-5.924A.845.845 0 0010 5.805v6.067c.003.587.332 1.124.854 1.392zm13.757-1.018a.845.845 0 00-.96-.153l-12.797 6.643c-.525.27-.855.811-.854 1.402v6.057a.845.845 0 001.238.749l12.768-6.624c.533-.276.864-.83.855-1.43v-6.048a.835.835 0 00-.25-.596zm-1.536 6.538l-11.28 5.856v-4.378l11.28-5.856v4.378z" fill="#FFF" />
	</g>
</svg>
