<?xml version="1.0"?>
<svg xmlns="http://www.w3.org/2000/svg" version="1.1" width="100" height="100" x="0" y="0" viewBox="0 0 483.013 483.013" xml:space="preserve">
	<defs>
		<linearGradient id="grad1" x1="0%" y1="0%" x2="100%" y2="0%">
			<stop offset="0%" style="stop-color:#3355b5;stop-opacity:1" />
			<stop offset="100%" style="stop-color:#6783d4;stop-opacity:1" />
		</linearGradient>
	</defs>
	<g transform="matrix(6.123233995736766e-17,-1,1,6.123233995736766e-17,-0.0003676414490030311,483.01362466812134)">
		<path d="M477.043,219.205L378.575,48.677c-7.974-13.802-22.683-22.292-38.607-22.292H143.041c-15.923,0-30.628,8.49-38.608,22.292  L5.971,219.205c-7.961,13.801-7.961,30.785,0,44.588l98.462,170.543c7.98,13.802,22.685,22.293,38.608,22.293h196.926  c15.925,0,30.634-8.491,38.607-22.293l98.469-170.543C485.003,249.99,485.003,233.006,477.043,219.205z" fill="url(#grad1)" data-original="#000000" style="" class="" />
	</g>
	<g transform="scale(11) translate(6 6)">
		<g fill="#FFF">
			<path d="M16 4C9.373 4 4 9.373 4 16s5.373 12 12 12 12-5.373 12-12A12 12 0 0016 4zm0 23.77C9.5 27.77 4.23 22.5 4.23 16S9.5 4.23 16 4.23 27.77 9.5 27.77 16A11.77 11.77 0 0116 27.77z" fill-rule="nonzero" />
			<path d="M19.29 13.5l-.03-.11-.03-.11-.03-.12-.04-.1-.03-.11-.04-.1-.05-.11-.04-.1-.05-.09-.05-.1-.05-.09-.06-.09-.05-.08-.06-.09-.06-.07-.07-.08-.06-.07-.06-.07-.07-.06-.07-.06-.07-.06-.07-.05-.08-.05-.07-.04-.08-.05-.07-.03-.08-.04-.08-.03-.08-.03-.09-.02-.08-.02-.08-.02-.09-.01-.09-.01-.08-.01h-.27l-.09.01-.09.01-.1.01-.09.02-.09.02-.09.02-.1.03-.09.03-.1.03-.1.04-.09.04-.1.05-.09.04-.1.05-.1.06-.09.05-.1.06-.1.07-.09.06-.1.07-.1.08-.1.07-.09.08-.1.08-.09.09-.1.09-.1.09-.09.1-.1.1-.09.1-.09.1-.1.11-.09.11-.09.11-.09.12-.09.12-.09.13-.12.17-.12.18-.12.19-.11.18-.11.2-.11.19-.1.19-.1.2-.09.2-.09.2-.08.2-.07.16 7.19-2.35zm-6.49 3.51l6.37-.05.03-.14.03-.14.03-.14.03-.15.02-.14.03-.14.02-.14.01-.14.02-.14.01-.14.01-.13.01-.14.01-.14v-.29z" />
			<path d="M16 4.56C9.682 4.56 4.56 9.682 4.56 16S9.682 27.44 16 27.44 27.44 22.318 27.44 16A11.44 11.44 0 0016 4.56zm6.48 12.36l-.2 1.18h-1.79l-.06.2-.11.3-.11.3-.12.3-.09.3-.13.29-.14.29-.14.29-.15.28-.15.28-.16.27-.16.27-.17.27-.2.26-.09.13-.09.13-.93-1.56.09-.13.09-.13.08-.13.08-.13.08-.13.08-.13.08-.13.07-.13.07-.14.07-.14.07-.14.07-.14.06-.14.06-.14.06-.14.06-.14.06-.14.05-.14v-.12l-7.27.06v1.85l-1.86 1.29V18.2H9.1l-.2.07-.34-1.19 1.68-.55v-.13l.07-.21.1-.19.07-.2.08-.2.08-.2.08-.2.08-.2.09-.2.09-.2.09-.2.09-.19.1-.19.1-.19.1-.19.1-.19.11-.19.11-.18.11-.18.11-.19.11-.18.12-.17.12-.17.11-.19.12-.17.12-.16.13-.16.17-.14.13-.15.13-.15.13-.15.14-.14.14-.14.14-.14.14-.13.14-.13.14-.13.11-.11.15-.12.15-.11.15-.11.15-.11.15-.1.15-.09.15-.09.15-.08.15-.08.13-.11.18-.05.14-.06.14-.06.14-.05h2.41l.11.05.11.05.11.06.11.06.1.07.1.07.1.08.1.08.09.09.09.09.09.1.09.1.08.11.08.11.08.11.08.12.07.12.07.13.07.13.06.14.06.14.06.14.06.15.05.15V13l1-.32.34 1.19-1.28.42v1.63l-.05.3-.06.3-.07.3v.13l1.75-.03z" fill-rule="nonzero" />
		</g>
	</g>
</svg>
