<?xml version="1.0"?>
<svg xmlns="http://www.w3.org/2000/svg" version="1.1" width="100" height="100" x="0" y="0" viewBox="0 0 483.013 483.013" xml:space="preserve">
	<defs>
		<linearGradient id="grad1" x1="0%" y1="0%" x2="100%" y2="0%">
			<stop offset="0%" style="stop-color:#f19f13;stop-opacity:1" />
			<stop offset="100%" style="stop-color:#f5bb59;stop-opacity:1" />
		</linearGradient>
	</defs>
	<g transform="matrix(6.123233995736766e-17,-1,1,6.123233995736766e-17,-0.0003676414490030311,483.01362466812134)">
		<path d="M477.043,219.205L378.575,48.677c-7.974-13.802-22.683-22.292-38.607-22.292H143.041c-15.923,0-30.628,8.49-38.608,22.292  L5.971,219.205c-7.961,13.801-7.961,30.785,0,44.588l98.462,170.543c7.98,13.802,22.685,22.293,38.608,22.293h196.926  c15.925,0,30.634-8.491,38.607-22.293l98.469-170.543C485.003,249.99,485.003,233.006,477.043,219.205z" fill="url(#grad1)" data-original="#000000" style="" class="" />
	</g>
	<g transform="scale(11) translate(6 6)">
		<path d="M22.77 13.95h4.87l.36-2h-4.71a4.78 4.78 0 00-2.59.86c-.28-1-3-.86-3-.86l.36-2H17l-.36 2h-1.11l.31-2h-1.15l-.42 2h-1.19l-.61 3.12-.81-3.06H9l-5 7.35h4.12l.42-1.95H7.7l2.4-3.51.9 3.53h-.9l-.39 1.93h3.06l-.25 1.34h1.2l.28-1.34h1l-.25 1.34H16l.25-1.34h1.56a3 3 0 001.87-.95 3.2 3.2 0 002.2.95h4.71l.31-1.95h-4.23c-2.91-.05-1.67-3.48.1-3.46zm-5.29 3.41h-3.12l.25-.95h3c.76.05.51.95-.13.95zm.47-2.56h-3.12l.25-.95h3c.76.05.48.99-.13.99v-.04z" fill="#FFF" />
	</g>
</svg>
