<?xml version="1.0"?>
<svg xmlns="http://www.w3.org/2000/svg" version="1.1" width="100" height="100" x="0" y="0" viewBox="0 0 483.013 483.013" xml:space="preserve">
	<defs>
		<linearGradient id="grad1" x1="0%" y1="0%" x2="100%" y2="0%">
			<stop offset="0%" style="stop-color:#004ab5;stop-opacity:1" />
			<stop offset="100%" style="stop-color:#1876fe;stop-opacity:1" />
		</linearGradient>
	</defs>
	<g transform="matrix(6.123233995736766e-17,-1,1,6.123233995736766e-17,-0.0003676414490030311,483.01362466812134)">
		<path d="M477.043,219.205L378.575,48.677c-7.974-13.802-22.683-22.292-38.607-22.292H143.041c-15.923,0-30.628,8.49-38.608,22.292  L5.971,219.205c-7.961,13.801-7.961,30.785,0,44.588l98.462,170.543c7.98,13.802,22.685,22.293,38.608,22.293h196.926  c15.925,0,30.634-8.491,38.607-22.293l98.469-170.543C485.003,249.99,485.003,233.006,477.043,219.205z" fill="url(#grad1)" data-original="#000000" style="" class="" />
	</g>
	<g transform="scale(11) translate(6 6)">
		<path d="M12.483 7.793a8.755 8.755 0 1010.75 12.427l-7.662-4.235L18.68 7.8a8.755 8.755 0 00-6.196-.007zm.546 1.573a7.089 7.089 0 015.018.006l-2.517 6.627 6.204 3.43a7.089 7.089 0 11-8.705-10.063zm2.936-4.386c1.191.047 2.366.287 3.48.71L15.53 15.999l9.651 5.335A11.028 11.028 0 1115.965 4.98zm7.529 3.812c.264 0 .51.031.736.095.666.183 1.116.597 1.35 1.241.143.391.174.775.094 1.152-.072.374-.245.71-.519 1.01.514-.023.963.092 1.35.342.383.242.666.613.847 1.111.257.706.18 1.351-.233 1.935-.408.574-1.137 1.053-2.188 1.435l-4.164 1.516-2.931-8.053 3.934-1.432c.644-.234 1.219-.352 1.724-.352zm-.61 1.666c-.24 0-.517.058-.833.173l-1.852.674.69 1.899 1.853-.675c.46-.167.78-.374.958-.622.18-.248.212-.529.097-.843-.114-.314-.318-.505-.612-.572a1.221 1.221 0 00-.301-.034zm1.562 3.122c-.252.003-.548.066-.888.19l-2.174.791.724 1.99 2.174-.791c.49-.179.83-.393 1.016-.644.195-.253.23-.548.108-.886-.16-.437-.48-.654-.96-.65z" fill="#fff" />
	</g>
</svg>
