<?xml version="1.0"?>
<svg xmlns="http://www.w3.org/2000/svg" version="1.1" width="100" height="100" x="0" y="0" viewBox="0 0 483.013 483.013" xml:space="preserve">
	<defs>
		<linearGradient id="grad1" x1="0%" y1="0%" x2="100%" y2="0%">
			<stop offset="0%" style="stop-color:#8dc351;stop-opacity:1" />
			<stop offset="100%" style="stop-color:#afd485;stop-opacity:1" />
		</linearGradient>
	</defs>
	<g transform="matrix(6.123233995736766e-17,-1,1,6.123233995736766e-17,-0.0003676414490030311,483.01362466812134)">
		<path d="M477.043,219.205L378.575,48.677c-7.974-13.802-22.683-22.292-38.607-22.292H143.041c-15.923,0-30.628,8.49-38.608,22.292  L5.971,219.205c-7.961,13.801-7.961,30.785,0,44.588l98.462,170.543c7.98,13.802,22.685,22.293,38.608,22.293h196.926  c15.925,0,30.634-8.491,38.607-22.293l98.469-170.543C485.003,249.99,485.003,233.006,477.043,219.205z" fill="url(#grad1)" data-original="#000000" style="" class="" />
	</g>
	<g transform="scale(11) translate(6 6)">
		<path d="M21.207 10.534c-.776-1.972-2.722-2.15-4.988-1.71l-.807-2.813-1.712.491.786 2.74c-.45.128-.908.27-1.363.41l-.79-2.758-1.711.49.805 2.813c-.368.114-.73.226-1.085.328l-.003-.01-2.362.677.525 1.83s1.258-.388 1.243-.358c.694-.199 1.035.139 1.2.468l.92 3.204c.047-.013.11-.029.184-.04l-.181.052 1.287 4.49c.032.227.004.612-.48.752.027.013-1.246.356-1.246.356l.247 2.143 2.228-.64c.415-.117.825-.227 1.226-.34l.817 2.845 1.71-.49-.807-2.815a65.74 65.74 0 001.372-.38l.802 2.803 1.713-.491-.814-2.84c2.831-.991 4.638-2.294 4.113-5.07-.422-2.234-1.724-2.912-3.471-2.836.848-.79 1.213-1.858.642-3.3zm-.65 6.77c.61 2.127-3.1 2.929-4.26 3.263l-1.081-3.77c1.16-.333 4.704-1.71 5.34.508zm-2.322-5.09c.554 1.935-2.547 2.58-3.514 2.857l-.98-3.419c.966-.277 3.915-1.455 4.494.563z" fill="#fff" fill-rule="nonzero" />
	</g>
</svg>
