<?xml version="1.0"?>
<svg xmlns="http://www.w3.org/2000/svg" version="1.1" width="100" height="100" x="0" y="0" viewBox="0 0 483.013 483.013" xml:space="preserve">
	<defs>
		<linearGradient id="grad1" x1="0%" y1="0%" x2="100%" y2="0%">
			<stop offset="0%" style="stop-color:#404040;stop-opacity:1" />
			<stop offset="100%" style="stop-color:#797979;stop-opacity:1" />
		</linearGradient>
	</defs>
	<g transform="matrix(6.123233995736766e-17,-1,1,6.123233995736766e-17,-0.0003676414490030311,483.01362466812134)">
		<path d="M477.043,219.205L378.575,48.677c-7.974-13.802-22.683-22.292-38.607-22.292H143.041c-15.923,0-30.628,8.49-38.608,22.292  L5.971,219.205c-7.961,13.801-7.961,30.785,0,44.588l98.462,170.543c7.98,13.802,22.685,22.293,38.608,22.293h196.926  c15.925,0,30.634-8.491,38.607-22.293l98.469-170.543C485.003,249.99,485.003,233.006,477.043,219.205z" fill="url(#grad1)" data-original="#000000" style="" class="" />
	</g>
	<g transform="scale(11) translate(6 6)">
		<path d="M16 27C9.925 27 5 22.075 5 16S9.925 5 16 5s11 4.925 11 11-4.925 11-11 11zm0-1.102c5.466 0 9.898-4.432 9.898-9.898S21.466 6.102 16 6.102 6.102 10.534 6.102 16s4.432 9.898 9.898 9.898zm6.043-13.778c.165 2.938-2.55 3.714-2.55 3.714 3.103.443 2.937 3.104 2.937 3.104 0 4.322-4.822 4.491-4.822 4.491h-6.763V8.572h6.098c5.1.222 5.1 3.548 5.1 3.548zm-7.706-.887v3.602h2.44s1.718-.055 1.828-1.441v-.887s0-1.163-1.663-1.274zm4.6 8.15v-.888s0-1.165-1.662-1.276h-2.939v3.605h2.773s1.718-.055 1.829-1.442z" fill="#fff" />
	</g>
</svg>
