<?xml version="1.0"?>
<svg xmlns="http://www.w3.org/2000/svg" version="1.1" width="100" height="100" x="0" y="0" viewBox="0 0 483.013 483.013" xml:space="preserve">
	<defs>
		<linearGradient id="grad1" x1="0%" y1="0%" x2="100%" y2="0%">
			<stop offset="0%" style="stop-color:#e54c40;stop-opacity:1" />
			<stop offset="100%" style="stop-color:#ec8179;stop-opacity:1" />
		</linearGradient>
	</defs>
	<g transform="matrix(6.123233995736766e-17,-1,1,6.123233995736766e-17,-0.0003676414490030311,483.01362466812134)">
		<path d="M477.043,219.205L378.575,48.677c-7.974-13.802-22.683-22.292-38.607-22.292H143.041c-15.923,0-30.628,8.49-38.608,22.292  L5.971,219.205c-7.961,13.801-7.961,30.785,0,44.588l98.462,170.543c7.98,13.802,22.685,22.293,38.608,22.293h196.926  c15.925,0,30.634-8.491,38.607-22.293l98.469-170.543C485.003,249.99,485.003,233.006,477.043,219.205z" fill="url(#grad1)" data-original="#000000" style="" class="" />
	</g>
	<g transform="scale(11) translate(6 6)">
		<path fill="#FFF" fill-rule="nonzero" d="M9.328 8.617c-.02-.147.118-.235.197-.335a436.69 436.69 0 002.968-2.965c-.014 2.716.008 5.432-.011 8.148 2.049-1.13 4.63-1.18 6.736-.168-.002.175-.002.349-.002.525-1.681-.904-3.748-1.02-5.541-.39-2.063.71-3.707 2.457-4.35 4.536.003-3.118-.001-6.234.003-9.351zm13.39 11.662a6.652 6.652 0 01-1.897 4.405 6.697 6.697 0 01-8.503.91c-1.48-.974-2.55-2.554-2.878-4.296-.285-1.38-.092-2.845.501-4.12a6.749 6.749 0 013.268-3.252c1.884-.888 4.18-.813 6.004.192-.011 1.494-.01 2.988.001 4.482-.298-.617-.74-1.169-1.325-1.535-1.157-.747-2.765-.712-3.882.098-1.23.846-1.785 2.524-1.296 3.935.437 1.391 1.82 2.412 3.282 2.396 1.406.035 2.763-.884 3.266-2.195.32-.743.24-1.564.247-2.35.006-4.055-.01-8.11-.008-12.164.001-.51.01-1.02-.02-1.528 1.09 1.074 2.17 2.161 3.25 3.246-.022 3.925 0 7.85-.01 11.777z" />
	</g>
</svg>
