<?xml version="1.0"?>
<svg xmlns="http://www.w3.org/2000/svg" version="1.1" width="100" height="100" x="0" y="0" viewBox="0 0 483.013 483.013" xml:space="preserve">
	<defs>
		<linearGradient id="grad1" x1="0%" y1="0%" x2="100%" y2="0%">
			<stop offset="0%" style="stop-color:#0b76ff;stop-opacity:1" />
			<stop offset="100%" style="stop-color:#549ffe;stop-opacity:1" />
		</linearGradient>
	</defs>
	<g transform="matrix(6.123233995736766e-17,-1,1,6.123233995736766e-17,-0.0003676414490030311,483.01362466812134)">
		<path d="M477.043,219.205L378.575,48.677c-7.974-13.802-22.683-22.292-38.607-22.292H143.041c-15.923,0-30.628,8.49-38.608,22.292  L5.971,219.205c-7.961,13.801-7.961,30.785,0,44.588l98.462,170.543c7.98,13.802,22.685,22.293,38.608,22.293h196.926  c15.925,0,30.634-8.491,38.607-22.293l98.469-170.543C485.003,249.99,485.003,233.006,477.043,219.205z" fill="url(#grad1)" data-original="#000000" style="" class="" />
	</g>
	<g transform="scale(11) translate(6 6)">
		<path d="M27.16 12.66v-2.2L20 14.63l-4.42-7.62v5l2.25 3.9-.91.54-1.34-2.36-1.44 2.56-1-.41 2.44-4.23v-5l-4.84 8.24L4 12.46v2.55l6 1.48-3.8 6.52h9.38v-2.69h-4.79l1.79-3.14 1.08.27-1.08 1.9h6l-.9-1.59 1.19-.09 1.53 2.65h-4.82v2.69H25l-3.24-5.53 5.44-.4v-2.21l-6.12 1.51 6.11-1.57v-2l-6.63 2.69 6.6-2.84zm-8.7 4.35l-1.08.27 1.06-.27h.02zm-.34-.6l-1 .4 1-.41v.01z" fill="#FFF" />
	</g>
</svg>
