<?xml version="1.0"?>
<svg xmlns="http://www.w3.org/2000/svg" version="1.1" width="100" height="100" x="0" y="0" viewBox="0 0 483.013 483.013" xml:space="preserve">
	<defs>
		<linearGradient id="grad1" x1="0%" y1="0%" x2="100%" y2="0%">
			<stop offset="0%" style="stop-color:#13a0f6;stop-opacity:1" />
			<stop offset="100%" style="stop-color:#59bcf8;stop-opacity:1" />
		</linearGradient>
	</defs>
	<g transform="matrix(6.123233995736766e-17,-1,1,6.123233995736766e-17,-0.0003676414490030311,483.01362466812134)">
		<path d="M477.043,219.205L378.575,48.677c-7.974-13.802-22.683-22.292-38.607-22.292H143.041c-15.923,0-30.628,8.49-38.608,22.292  L5.971,219.205c-7.961,13.801-7.961,30.785,0,44.588l98.462,170.543c7.98,13.802,22.685,22.293,38.608,22.293h196.926  c15.925,0,30.634-8.491,38.607-22.293l98.469-170.543C485.003,249.99,485.003,233.006,477.043,219.205z" fill="url(#grad1)" data-original="#000000" style="" class="" />
	</g>
	<g transform="scale(11) translate(6 6)">
		<path d="M8.297 11.568A2.422 2.422 0 017 9.422a2.416 2.416 0 114.553-1.134 8.891 8.891 0 014.501-1.216c4.94 0 8.946 4.014 8.946 8.964S20.995 25 16.054 25s-8.946-4.013-8.946-8.964a8.94 8.94 0 011.189-4.468zm7.757 8.878c2.43 0 4.4-1.974 4.4-4.41s-1.97-4.41-4.4-4.41-4.4 1.975-4.4 4.41 1.97 4.41 4.4 4.41z" fill="#fff" />
	</g>
</svg>
