<?xml version="1.0"?>
<svg xmlns="http://www.w3.org/2000/svg" version="1.1" width="100" height="100" x="0" y="0" viewBox="0 0 483.013 483.013" xml:space="preserve">
	<defs>
		<linearGradient id="grad1" x1="0%" y1="0%" x2="100%" y2="0%">
			<stop offset="0%" style="stop-color:#000;stop-opacity:1" />
			<stop offset="100%" style="stop-color:#4c4c4c;stop-opacity:1" />
		</linearGradient>
	</defs>
	<g transform="matrix(6.123233995736766e-17,-1,1,6.123233995736766e-17,-0.0003676414490030311,483.01362466812134)">
		<path d="M477.043,219.205L378.575,48.677c-7.974-13.802-22.683-22.292-38.607-22.292H143.041c-15.923,0-30.628,8.49-38.608,22.292  L5.971,219.205c-7.961,13.801-7.961,30.785,0,44.588l98.462,170.543c7.98,13.802,22.685,22.293,38.608,22.293h196.926  c15.925,0,30.634-8.491,38.607-22.293l98.469-170.543C485.003,249.99,485.003,233.006,477.043,219.205z" fill="url(#grad1)" data-original="#000000" style="" class="" />
	</g>
	<g transform="scale(11) translate(6 6)">
		<path d="M16.941 24.577c.052.122.08.255.08.395 0 .568-.468 1.028-1.045 1.028s-1.045-.46-1.045-1.028c0-.136.027-.266.076-.385l-6.21-3.527a1.05 1.05 0 01-.752.314c-.577 0-1.045-.46-1.045-1.028 0-.48.333-.882.784-.996v-7.027A1.032 1.032 0 017 11.327c0-.568.468-1.028 1.045-1.028.346 0 .653.166.844.422l6.072-3.45a.975.975 0 01-.03-.243C14.931 6.46 15.4 6 15.976 6a1.037 1.037 0 011.017 1.265l6.108 3.47c.19-.264.501-.436.854-.436.577 0 1.045.46 1.045 1.028 0 .48-.335.884-.787.997l-.018 7.02c.461.107.805.515.805 1.002 0 .568-.468 1.028-1.045 1.028a1.05 1.05 0 01-.776-.34zm-.279-.38l6.287-3.572a1.013 1.013 0 01.02-.622l-6.065-3.9a1.24 1.24 0 01-.904.388 1.24 1.24 0 01-.979-.475l-5.977 4.027a1.013 1.013 0 01-.004.616l6.242 3.545a1.05 1.05 0 01.694-.26c.263 0 .503.095.686.252zm.119-16.513a1.05 1.05 0 01-.547.34l-.016 6.056a1.221 1.221 0 011.017 1.196c0 .151-.028.297-.08.43l6.07 3.904c.135-.13.305-.223.495-.266l.018-7.011a1.033 1.033 0 01-.816-1.16zm-1.605.005l-6.101 3.465a1.033 1.033 0 01-.816 1.18v7.005c.212.044.4.15.544.3l6.005-4.045a1.22 1.22 0 01.935-1.506l.016-6.054a1.047 1.047 0 01-.583-.345z" fill="#fff" fill-rule="nonzero" />
	</g>
</svg>
