<?xml version="1.0"?>
<svg xmlns="http://www.w3.org/2000/svg" version="1.1" width="100" height="100" x="0" y="0" viewBox="0 0 483.013 483.013" xml:space="preserve">
	<defs>
		<linearGradient id="grad1" x1="0%" y1="0%" x2="100%" y2="0%">
			<stop offset="0%" style="stop-color:#fd7a3d;stop-opacity:1" />
			<stop offset="100%" style="stop-color:#fda177;stop-opacity:1" />
		</linearGradient>
	</defs>
	<g transform="matrix(6.123233995736766e-17,-1,1,6.123233995736766e-17,-0.0003676414490030311,483.01362466812134)">
		<path d="M477.043,219.205L378.575,48.677c-7.974-13.802-22.683-22.292-38.607-22.292H143.041c-15.923,0-30.628,8.49-38.608,22.292  L5.971,219.205c-7.961,13.801-7.961,30.785,0,44.588l98.462,170.543c7.98,13.802,22.685,22.293,38.608,22.293h196.926  c15.925,0,30.634-8.491,38.607-22.293l98.469-170.543C485.003,249.99,485.003,233.006,477.043,219.205z" fill="url(#grad1)" data-original="#000000" style="" class="" />
	</g>
	<g transform="scale(11) translate(6 6)">
		<path d="M25.195 19.4c.77.42 1.027 1.386.513 2.142-.427.756-1.41 1.008-2.18.588a1.632 1.632 0 01-.813-1.302H18.78l-1.882 3.191c0 .042-.043.084-.085.126.427.252.727.756.727 1.302 0 .84-.727 1.553-1.583 1.553-.855 0-1.582-.672-1.582-1.553 0-.546.3-1.008.727-1.302 0-.042-.043-.084-.086-.126l-1.881-3.19H9.2c-.043.545-.342 1.007-.813 1.3-.77.42-1.753.169-2.181-.587s-.171-1.721.599-2.141c.513-.294 1.069-.294 1.54-.042.042-.042.042-.126.085-.168L10.355 16l-1.882-3.19a.316.316 0 01-.086-.169c-.47.21-1.069.252-1.54-.042a1.558 1.558 0 01-.598-2.141C6.676 9.702 7.66 9.45 8.43 9.87c.513.294.77.798.813 1.302h3.977l1.882-3.191c0-.042.043-.084.085-.126a1.53 1.53 0 01-.727-1.302c0-.84.727-1.553 1.583-1.553.855 0 1.582.672 1.582 1.553 0 .546-.3 1.008-.727 1.302 0 .042.043.084.086.126l1.881 3.19H22.8c.043-.545.342-1.007.813-1.3.77-.42 1.753-.169 2.181.587a1.558 1.558 0 01-.599 2.141c-.513.294-1.069.294-1.54.042-.042.042-.042.126-.085.168L21.688 16l1.882 3.19a.316.316 0 01.086.169c.47-.21 1.069-.252 1.54.042zm-7.142-4.45c0-.881-.727-1.595-1.625-1.595h-2.053a.38.38 0 00-.385.378v4.534c0 .21.171.378.385.378h2.053c.898 0 1.625-.714 1.625-1.595 0-.378-.128-.756-.385-1.008.214-.336.385-.672.385-1.092z" fill="#fff" />
	</g>
</svg>
