<?xml version="1.0"?>
<svg xmlns="http://www.w3.org/2000/svg" version="1.1" width="100" height="100" x="0" y="0" viewBox="0 0 483.013 483.013" xml:space="preserve">
	<defs>
		<linearGradient id="grad1" x1="0%" y1="0%" x2="100%" y2="0%">
			<stop offset="0%" style="stop-color:#fe5d86;stop-opacity:1" />
			<stop offset="100%" style="stop-color:#fe8daa;stop-opacity:1" />
		</linearGradient>
	</defs>
	<g transform="matrix(6.123233995736766e-17,-1,1,6.123233995736766e-17,-0.0003676414490030311,483.01362466812134)">
		<path d="M477.043,219.205L378.575,48.677c-7.974-13.802-22.683-22.292-38.607-22.292H143.041c-15.923,0-30.628,8.49-38.608,22.292  L5.971,219.205c-7.961,13.801-7.961,30.785,0,44.588l98.462,170.543c7.98,13.802,22.685,22.293,38.608,22.293h196.926  c15.925,0,30.634-8.491,38.607-22.293l98.469-170.543C485.003,249.99,485.003,233.006,477.043,219.205z" fill="url(#grad1)" data-original="#000000" style="" class="" />
	</g>
	<g transform="scale(11) translate(6 6)">
		<path d="M8 9.039C8 8.465 8.472 8 9.054 8h7.588c4.476 0 6.055.528 7.143 1.601a3.43 3.43 0 01.98 2.606c0 1.851-.997 3.106-3.687 3.657 2.598.454 3.917 1.51 3.917 3.634a3.604 3.604 0 01-1.02 2.696C22.91 23.244 21.17 24 16.487 24H9.054A1.047 1.047 0 018 22.961zm5.761 5.962c0-.383.315-.693.703-.693h2.443c1.394 0 2.437-.068 2.92-.568a1.18 1.18 0 00.323-.891c.03-.32-.078-.638-.3-.875-.49-.482-1.532-.567-2.943-.567H12.36v9.232h4.5c1.532 0 2.667-.114 3.197-.642.244-.25.37-.59.346-.937.022-.353-.103-.7-.346-.96-.536-.527-1.67-.567-3.197-.567h-2.38a.708.708 0 01-.516-.205.687.687 0 01-.204-.51z" fill="#fff" fill-rule="nonzero" />
	</g>
</svg>
