<?xml version="1.0"?>
<svg xmlns="http://www.w3.org/2000/svg" version="1.1" width="100" height="100" x="0" y="0" viewBox="0 0 483.013 483.013" xml:space="preserve">
	<defs>
		<linearGradient id="grad1" x1="0%" y1="0%" x2="100%" y2="0%">
			<stop offset="0%" style="stop-color:#272d63;stop-opacity:1" />
			<stop offset="100%" style="stop-color:#4651b3;stop-opacity:1" />
		</linearGradient>
	</defs>
	<g transform="matrix(6.123233995736766e-17,-1,1,6.123233995736766e-17,-0.0003676414490030311,483.01362466812134)">
		<path d="M477.043,219.205L378.575,48.677c-7.974-13.802-22.683-22.292-38.607-22.292H143.041c-15.923,0-30.628,8.49-38.608,22.292  L5.971,219.205c-7.961,13.801-7.961,30.785,0,44.588l98.462,170.543c7.98,13.802,22.685,22.293,38.608,22.293h196.926  c15.925,0,30.634-8.491,38.607-22.293l98.469-170.543C485.003,249.99,485.003,233.006,477.043,219.205z" fill="url(#grad1)" data-original="#000000" style="" class="" />
	</g>
	<g transform="scale(11) translate(6 6)">
		<path d="M20.215 7.2l-.7 2.842c2.164.756 3.757 1.89 3.446 3.99-.09.638-.31 1.277-.764 1.76-.389.417-.997.638-1.516.808a6.459 6.459 0 01-1.93.339c-.44 0-.868-.013-1.308-.052-.712-.053-1.438-.118-2.137-.274-.22-.052-.428-.091-.622-.144l-.946 3.82-.557 2.086-.7 2.856-1.722-.43.713-2.882c-.402-.104-.817-.221-1.231-.326L8 21.033l.855-1.97s1.27.34 1.256.314c.493.117.7-.209.79-.417l.972-3.912.453-1.812.519-2.086c.025-.365-.104-.834-.804-1.004.026-.013-1.256-.313-1.256-.313l.453-1.851 2.37.6c.364.09.726.169 1.102.26L15.41 6l1.722.43-.686 2.79c.453.105.92.209 1.373.326l.673-2.777zm-.142 10.3c.479-.079 1.062-.274 1.476-.444.013-.013.04-.013.052-.026.894.795 1.321 2.086.738 3.742-.92 2.686-3.134 2.907-6.062 2.347L15.565 26l-1.71-.43.66-2.751.026-.091.519-2.113c1.528.34 3.588.561 3.976-1.03.208-.847-.194-1.46-.842-1.903l.674-.04c.48-.025.725-.064 1.205-.143zm-.506-3.495c.506-2.047-2.63-2.49-3.6-2.75l-.856 3.467c.972.248 3.977 1.239 4.456-.717z" fill="#FFF" fill-rule="nonzero" />
	</g>
</svg>
