<?xml version="1.0"?>
<svg xmlns="http://www.w3.org/2000/svg" version="1.1" width="100" height="100" x="0" y="0" viewBox="0 0 483.013 483.013" xml:space="preserve">
	<defs>
		<linearGradient id="grad1" x1="0%" y1="0%" x2="100%" y2="0%">
			<stop offset="0%" style="stop-color:#eba809;stop-opacity:1" />
			<stop offset="100%" style="stop-color:#f8c54b;stop-opacity:1" />
		</linearGradient>
	</defs>
	<g transform="matrix(6.123233995736766e-17,-1,1,6.123233995736766e-17,-0.0003676414490030311,483.01362466812134)">
		<path d="M477.043,219.205L378.575,48.677c-7.974-13.802-22.683-22.292-38.607-22.292H143.041c-15.923,0-30.628,8.49-38.608,22.292  L5.971,219.205c-7.961,13.801-7.961,30.785,0,44.588l98.462,170.543c7.98,13.802,22.685,22.293,38.608,22.293h196.926  c15.925,0,30.634-8.491,38.607-22.293l98.469-170.543C485.003,249.99,485.003,233.006,477.043,219.205z" fill="url(#grad1)" data-original="#000000" style="" class="" />
	</g>
	<g transform="scale(11) translate(6 6)">
		<path fill="#FFF" d="M16 27C9.925 27 5 22.075 5 16S9.925 5 16 5s11 4.925 11 11-4.925 11-11 11zm-.988-20.26c.002.875.002 1.75.002 2.625l1.31.002c.003-.897.005-1.795 0-2.692-.437.015-.876.036-1.312.065zm3.152 2.667c1.152.155 2.39.331 3.307 1.108 1.401 1.257 1.22 3.896-.495 4.807 1.027.24 2.044.923 2.297 2.002.33 1.414.068 3.11-1.069 4.106-1.126.925-2.65 1.047-4.043 1.18.006.818.004 1.636.002 2.456 2.93-.715 5.46-2.895 6.535-5.715 1.02-2.602.78-5.663-.662-8.06-1.273-2.16-3.437-3.75-5.867-4.358-.006.825-.006 1.65-.004 2.474zm-8.746-.035c1.27.06 2.54.048 3.81.046 0-.772.003-1.544-.004-2.316-1.422.461-2.688 1.288-3.807 2.27h.001zm-1.482 1.99c-1.493 2.54-1.661 5.799-.416 8.472 1.075 2.396 3.208 4.26 5.705 5.063.005-.77.003-1.542.003-2.312-1.275-.013-2.553.034-3.825-.035.014-.71.18-1.404.423-2.071.624-.013 1.275.096 1.878-.107.352-.296.252-.785.27-1.19-.018-2.314.01-4.629-.012-6.943.023-.373-.211-.776-.6-.85-.64-.127-1.297-.077-1.944-.081-.076-.52-.084-1.047-.093-1.574a.388.388 0 00-.071-.308c-.366.694-.948 1.243-1.318 1.935zm7.13.101v3.412c1.141-.02 2.406.106 3.404-.556.828-.541.775-1.914-.08-2.4-.998-.592-2.216-.424-3.323-.456zm0 5.248v3.785c1.408-.114 2.988.123 4.213-.726.876-.581.771-2.019-.132-2.522-1.227-.733-2.718-.5-4.08-.537zm-.051 5.925c0 .875-.002 1.75-.005 2.627.456.03.912.048 1.368.06.004-.895.002-1.791.002-2.687h-1.365z" />
	</g>
</svg>
