<?xml version="1.0"?>
<svg xmlns="http://www.w3.org/2000/svg" version="1.1" width="100" height="100" x="0" y="0" viewBox="0 0 483.013 483.013" xml:space="preserve">
	<defs>
		<linearGradient id="grad1" x1="0%" y1="0%" x2="100%" y2="0%">
			<stop offset="0%" style="stop-color:#504c4c;stop-opacity:1" />
			<stop offset="100%" style="stop-color:#867f7f;stop-opacity:1" />
		</linearGradient>
	</defs>
	<g transform="matrix(6.123233995736766e-17,-1,1,6.123233995736766e-17,-0.0003676414490030311,483.01362466812134)">
		<path d="M477.043,219.205L378.575,48.677c-7.974-13.802-22.683-22.292-38.607-22.292H143.041c-15.923,0-30.628,8.49-38.608,22.292  L5.971,219.205c-7.961,13.801-7.961,30.785,0,44.588l98.462,170.543c7.98,13.802,22.685,22.293,38.608,22.293h196.926  c15.925,0,30.634-8.491,38.607-22.293l98.469-170.543C485.003,249.99,485.003,233.006,477.043,219.205z" fill="url(#grad1)" data-original="#000000" style="" class="" />
	</g>
	<g transform="scale(11) translate(6 6)">
		<path fill="#FFF" d="M10.827 15.376l-1.745 3.698.812 3.032 2.066.552 2.564 2.567-.772.775-6.112-1.64L6 18.248l1.23-1.228 5.342-5.343-1.745 3.699-1.745 3.698 5.442-5.442-1.952-1.955-1.745 3.699zm2.805 2.1l5.442 5.442 3.032-.812.554-2.066 2.565-2.564.775.772-1.638 6.114L18.248 26l-6.569-6.572 1.953-1.952zm4.736-2.952l-5.442-5.442-3.034.812-.552 2.063-2.565 2.567L6 13.752l1.64-6.114L13.752 6l1.228 1.23 5.34 5.34-1.952 1.954zM20.04 9.34l-2.564-2.565.772-.775 6.114 1.638L26 13.752l-6.572 6.569-1.952-1.953 5.444-5.444-.814-3.032-2.066-.552z" />
	</g>
</svg>
