<?xml version="1.0"?>
<svg xmlns="http://www.w3.org/2000/svg" version="1.1" width="100" height="100" x="0" y="0" viewBox="0 0 483.013 483.013" xml:space="preserve">
	<defs>
		<linearGradient id="grad1" x1="0%" y1="0%" x2="100%" y2="0%">
			<stop offset="0%" style="stop-color:#2d2d2d;stop-opacity:1" />
			<stop offset="100%" style="stop-color:#6c6c6c;stop-opacity:1" />
		</linearGradient>
	</defs>
	<g transform="matrix(6.123233995736766e-17,-1,1,6.123233995736766e-17,-0.0003676414490030311,483.01362466812134)">
		<path d="M477.043,219.205L378.575,48.677c-7.974-13.802-22.683-22.292-38.607-22.292H143.041c-15.923,0-30.628,8.49-38.608,22.292  L5.971,219.205c-7.961,13.801-7.961,30.785,0,44.588l98.462,170.543c7.98,13.802,22.685,22.293,38.608,22.293h196.926  c15.925,0,30.634-8.491,38.607-22.293l98.469-170.543C485.003,249.99,485.003,233.006,477.043,219.205z" fill="url(#grad1)" data-original="#000000" style="" class="" />
	</g>
	<g transform="scale(11) translate(6 6)">
		<path d="M11.706 19.296L4 16.77h5.155l.51-2.443 4.578.003L15.385 8h4.606c3.118 0 4.382 1.255 3.915 3.845l-.1.555c-.273 1.509-.962 2.512-2.146 3.091 1.173.6 1.567 1.735 1.272 3.37l-.228 1.266C22.248 22.653 20.39 24 17.372 24h-4.875l1.263-6.993h-1.53zm5.066-2.747l-.944 5.23h1.945c1.154 0 1.795-.512 2.013-1.72l.245-1.353c.278-1.543-.256-2.157-1.769-2.157zm1.143-6.329l-.824 4.564h1.412c1.288 0 2.041-.55 2.272-1.83l.157-.866c.225-1.247-.241-1.868-1.422-1.868H18.1z" fill="#fff" fill-rule="nonzero" />
	</g>
</svg>
