<?xml version="1.0"?>
<svg xmlns="http://www.w3.org/2000/svg" version="1.1" width="100" height="100" x="0" y="0" viewBox="0 0 483.013 483.013" xml:space="preserve">
	<defs>
		<linearGradient id="grad1" x1="0%" y1="0%" x2="100%" y2="0%">
			<stop offset="0%" style="stop-color:#36b0f3;stop-opacity:1" />
			<stop offset="100%" style="stop-color:#72c7f6;stop-opacity:1" />
		</linearGradient>
	</defs>
	<g transform="matrix(6.123233995736766e-17,-1,1,6.123233995736766e-17,-0.0003676414490030311,483.01362466812134)">
		<path d="M477.043,219.205L378.575,48.677c-7.974-13.802-22.683-22.292-38.607-22.292H143.041c-15.923,0-30.628,8.49-38.608,22.292  L5.971,219.205c-7.961,13.801-7.961,30.785,0,44.588l98.462,170.543c7.98,13.802,22.685,22.293,38.608,22.293h196.926  c15.925,0,30.634-8.491,38.607-22.293l98.469-170.543C485.003,249.99,485.003,233.006,477.043,219.205z" fill="url(#grad1)" data-original="#000000" style="" class="" />
	</g>
	<g transform="scale(11) translate(6 6)">
		<g fill="#FFF">
			<path d="M14.09 4.261c.8-.16 1.615-.229 2.43-.206.508 0 1.016.046 1.517.137.975.134 1.915.444 2.832.792.667.298 1.366.578 1.908 1.084.151.11.07.33-.064.417-.31.199-.683.256-1.037.334-1.596.274-3.22.397-4.788.822-.703.158-1.379.416-2.048.683-1.243.556-2.386 1.373-3.213 2.465a16.31 16.31 0 00-.456.705c-.131.255-.263.51-.37.777-.08.191-.154.384-.224.578-.141.413-.21.844-.315 1.268-.033.278-.052.558-.11.833-.037.63-.019 1.26-.014 1.89 0 .21.057.416.06.627.003.194.03.387.082.574.1.525.222 1.057.445 1.548.289.697.739 1.35 1.379 1.765.531.394 1.188.562 1.832.662.86.112 1.733.01 2.58-.144.443-.08.883-.18 1.32-.297.277-.078.562-.13.836-.223a2.08 2.08 0 01.318-.03c-.343.306-.688.61-1.076.857-1.322.852-2.859 1.296-4.392 1.582-.693.142-1.398.226-2.096.346-.795.115-1.619.21-2.336.6-.214.15-.38.354-.529.566-.045.092-.13 0-.18-.033-.163-.187-.372-.324-.549-.497a20.82 20.82 0 01-.556-.556c-.291-.339-.59-.673-.847-1.038-.512-.694-.965-1.437-1.297-2.233l-.058-.026c-.042-.229-.158-.431-.235-.648a10.585 10.585 0 01-.44-1.46 3.77 3.77 0 01-.103-.462 2.268 2.268 0 01-.096-.54c-.098-.43-.08-.874-.142-1.308 0-.362-.024-.727.02-1.088.048-.3.028-.607.09-.906.061-.243.049-.497.126-.736a9.775 9.775 0 01.42-1.572c.072-.188.137-.378.204-.567.04-.087.073-.176.1-.267l.053-.063a2.97 2.97 0 01.247-.54 8.124 8.124 0 01.325-.612c.034-.071.072-.14.112-.21.63-.987 1.366-1.922 2.252-2.694a12.59 12.59 0 013.729-2.299 11.95 11.95 0 012.355-.657z" />
			<path d="M23.241 7.39c.22-.128.371-.335.523-.532a12.003 12.003 0 011.3 16.95c-1.837 2.158-4.475 3.624-7.286 4.013-1.293.19-2.61.14-3.902-.037-.99-.14-1.958-.41-2.877-.805-.5-.22-.997-.478-1.388-.868-.101-.088-.165-.234-.098-.361.1-.155.28-.232.45-.287.485-.14.984-.222 1.483-.299.902-.157 1.813-.258 2.708-.455 1.487-.321 2.974-.776 4.26-1.61.874-.558 1.644-1.284 2.211-2.154.814-1.228 1.19-2.699 1.28-4.157.045-1.085.02-2.18-.207-3.246-.207-.92-.57-1.847-1.257-2.517-.525-.539-1.24-.874-1.978-1.002-1.225-.229-2.476-.008-3.676.262-.562.133-1.116.3-1.684.41.808-.761 1.797-1.305 2.836-1.677.597-.221 1.217-.368 1.834-.513 1.352-.304 2.736-.42 4.1-.654.476-.1.96-.196 1.368-.461z" />
		</g>
	</g>
</svg>
