<?xml version="1.0"?>
<svg xmlns="http://www.w3.org/2000/svg" version="1.1" width="100" height="100" x="0" y="0" viewBox="0 0 483.013 483.013" xml:space="preserve">
	<defs>
		<linearGradient id="grad1" x1="0%" y1="0%" x2="100%" y2="0%">
			<stop offset="0%" style="stop-color:#f70808;stop-opacity:1" />
			<stop offset="100%" style="stop-color:#f95252;stop-opacity:1" />
		</linearGradient>
	</defs>
	<g transform="matrix(6.123233995736766e-17,-1,1,6.123233995736766e-17,-0.0003676414490030311,483.01362466812134)">
		<path d="M477.043,219.205L378.575,48.677c-7.974-13.802-22.683-22.292-38.607-22.292H143.041c-15.923,0-30.628,8.49-38.608,22.292  L5.971,219.205c-7.961,13.801-7.961,30.785,0,44.588l98.462,170.543c7.98,13.802,22.685,22.293,38.608,22.293h196.926  c15.925,0,30.634-8.491,38.607-22.293l98.469-170.543C485.003,249.99,485.003,233.006,477.043,219.205z" fill="url(#grad1)" data-original="#000000" style="" class="" />
	</g>
	<g transform="scale(11) translate(6 6)">
		<path d="M16 6l-1.66 3.016c-.188.328-.525.298-.863.115l-1.2-.607.894 4.633c.189.847-.415.847-.713.48L10.36 11.35l-.34 1.162c-.04.153-.212.313-.471.275l-2.65-.544.695 2.468c.15.549.266.776-.15.92l-.945.434 4.563 3.612a.575.575 0 01.208.605l-.4 1.278c1.572-.177 2.98-.442 4.552-.606.139-.014.371.209.37.366L15.585 26h.764l-.12-4.67c-.001-.157.21-.39.348-.376 1.572.164 2.98.43 4.551.606l-.399-1.278a.574.574 0 01.208-.605l4.563-3.612-.945-.433c-.416-.145-.3-.372-.15-.921l.696-2.468-2.651.544c-.259.038-.432-.122-.47-.275l-.341-1.162-2.097 2.288c-.298.366-.902.366-.713-.48l.895-4.634-1.201.607c-.338.183-.675.213-.863-.115z" fill="#fff" fill-rule="nonzero" />
	</g>
</svg>
