<?xml version="1.0"?>
<svg xmlns="http://www.w3.org/2000/svg" version="1.1" width="100" height="100" x="0" y="0" viewBox="0 0 483.013 483.013" xml:space="preserve">
	<defs>
		<linearGradient id="grad1" x1="0%" y1="0%" x2="100%" y2="0%">
			<stop offset="0%" style="stop-color:#272731;stop-opacity:1" />
			<stop offset="100%" style="stop-color:#5f5f77;stop-opacity:1" />
		</linearGradient>
	</defs>
	<g transform="matrix(6.123233995736766e-17,-1,1,6.123233995736766e-17,-0.0003676414490030311,483.01362466812134)">
		<path d="M477.043,219.205L378.575,48.677c-7.974-13.802-22.683-22.292-38.607-22.292H143.041c-15.923,0-30.628,8.49-38.608,22.292  L5.971,219.205c-7.961,13.801-7.961,30.785,0,44.588l98.462,170.543c7.98,13.802,22.685,22.293,38.608,22.293h196.926  c15.925,0,30.634-8.491,38.607-22.293l98.469-170.543C485.003,249.99,485.003,233.006,477.043,219.205z" fill="url(#grad1)" data-original="#000000" style="" class="" />
	</g>
	<g transform="scale(11) translate(6 6)">
		<path d="M27 16.03c0 2.91-1.145 5.7-3.186 7.758A10.832 10.832 0 0116.12 27v-2.802c3.948.012 7.325-2.857 7.984-6.782h-3.89c.154-.456.233-.934.234-1.416a4.78 4.78 0 00-.234-1.416h3.89c-.668-3.92-4.04-6.784-7.984-6.782V5c6.008.058 10.855 4.972 10.88 11.03zm-7.254 2.359h3.072c-1.136 3.305-4.472 5.3-7.893 4.72C11.505 22.527 9 19.541 9 16.043s2.505-6.483 5.925-7.064c3.421-.58 6.757 1.415 7.893 4.72h-3.072a4.72 4.72 0 00-1.316-1.327 4.299 4.299 0 00-5.965 1.327c-1.284 2.027-.695 4.72 1.316 6.015a4.299 4.299 0 005.965-1.326z" fill="#fff" />
	</g>
</svg>
