<?xml version="1.0"?>
<svg xmlns="http://www.w3.org/2000/svg" version="1.1" width="100" height="100" x="0" y="0" viewBox="0 0 483.013 483.013" xml:space="preserve">
	<defs>
		<linearGradient id="grad1" x1="0%" y1="0%" x2="100%" y2="0%">
			<stop offset="0%" style="stop-color:#0576b4;stop-opacity:1" />
			<stop offset="100%" style="stop-color:#21acf8;stop-opacity:1" />
		</linearGradient>
	</defs>
	<g transform="matrix(6.123233995736766e-17,-1,1,6.123233995736766e-17,-0.0003676414490030311,483.01362466812134)">
		<path d="M477.043,219.205L378.575,48.677c-7.974-13.802-22.683-22.292-38.607-22.292H143.041c-15.923,0-30.628,8.49-38.608,22.292  L5.971,219.205c-7.961,13.801-7.961,30.785,0,44.588l98.462,170.543c7.98,13.802,22.685,22.293,38.608,22.293h196.926  c15.925,0,30.634-8.491,38.607-22.293l98.469-170.543C485.003,249.99,485.003,233.006,477.043,219.205z" fill="url(#grad1)" data-original="#000000" style="" class="" />
	</g>
	<g transform="scale(11) translate(6 6)">
		<g fill="#FFF">
			<path d="M24.668 18.863l-1.059-.663 2.31-.027.048-.026v.025l.954-.01-1.619 2.634-.145-1.27-7.364 4.063L15 19.86l-7.83 4.126v-.94l8.073-4.253 2.792 3.729 6.634-3.659zm-10.112-.905l-3.06 1.611V8.644h3.06v9.314zm8.653.481l-3.06 1.7V8.644h3.06v9.795z" />
			<path d="M18.883 20.843l-.657.364-2.404-3.21V9.894h3.06v10.949zm-8.654-.607l-3.06 1.612V11.312h3.06v8.924z" opacity=".5" />
		</g>
	</g>
</svg>
