<?xml version="1.0"?>
<svg xmlns="http://www.w3.org/2000/svg" version="1.1" width="100" height="100" x="0" y="0" viewBox="0 0 483.013 483.013" xml:space="preserve">
	<defs>
		<linearGradient id="grad1" x1="0%" y1="0%" x2="100%" y2="0%">
			<stop offset="0%" style="stop-color:#2fd2e5;stop-opacity:1" />
			<stop offset="100%" style="stop-color:#6ddfec;stop-opacity:1" />
		</linearGradient>
	</defs>
	<g transform="matrix(6.123233995736766e-17,-1,1,6.123233995736766e-17,-0.0003676414490030311,483.01362466812134)">
		<path d="M477.043,219.205L378.575,48.677c-7.974-13.802-22.683-22.292-38.607-22.292H143.041c-15.923,0-30.628,8.49-38.608,22.292  L5.971,219.205c-7.961,13.801-7.961,30.785,0,44.588l98.462,170.543c7.98,13.802,22.685,22.293,38.608,22.293h196.926  c15.925,0,30.634-8.491,38.607-22.293l98.469-170.543C485.003,249.99,485.003,233.006,477.043,219.205z" fill="url(#grad1)" data-original="#000000" style="" class="" />
	</g>
	<g transform="scale(11) translate(6 6)">
		<path d="M16.57 4.007A11.788 11.788 0 009.058 6.38a1.765 1.765 0 00-.11 2.732c.622.588 1.58.634 2.256.109a8.386 8.386 0 0111.294.91c.59.61.608 1.571.042 2.203a1.588 1.588 0 01-2.245.078l-.077-.078a5.238 5.238 0 100 7.059 1.556 1.556 0 011.86-.353 1.578 1.578 0 01.462 2.47 8.414 8.414 0 01-11.34.996 1.765 1.765 0 00-2.27.11 1.786 1.786 0 00.149 2.756 11.852 11.852 0 107.49-21.364zm-.22 14.788a2.933 2.933 0 11.022-5.866 2.933 2.933 0 01-.021 5.866z" fill="#FFF" />
	</g>
</svg>
