<?xml version="1.0"?>
<svg xmlns="http://www.w3.org/2000/svg" version="1.1" width="100" height="100" x="0" y="0" viewBox="0 0 483.013 483.013" xml:space="preserve">
	<defs>
		<linearGradient id="grad1" x1="0%" y1="0%" x2="100%" y2="0%">
			<stop offset="0%" style="stop-color:#383939;stop-opacity:1" />
			<stop offset="100%" style="stop-color:#737575;stop-opacity:1" />
		</linearGradient>
	</defs>
	<g transform="matrix(6.123233995736766e-17,-1,1,6.123233995736766e-17,-0.0003676414490030311,483.01362466812134)">
		<path d="M477.043,219.205L378.575,48.677c-7.974-13.802-22.683-22.292-38.607-22.292H143.041c-15.923,0-30.628,8.49-38.608,22.292  L5.971,219.205c-7.961,13.801-7.961,30.785,0,44.588l98.462,170.543c7.98,13.802,22.685,22.293,38.608,22.293h196.926  c15.925,0,30.634-8.491,38.607-22.293l98.469-170.543C485.003,249.99,485.003,233.006,477.043,219.205z" fill="url(#grad1)" data-original="#000000" style="" class="" />
	</g>
	<g transform="scale(11) translate(6 6)">
		<path d="M19.473 11.479l2.667-.611 1.033-1.701-1.02-1.673-1.306-.902L18.164 6l-1.655.933-2.648-.472-3.636 2.519-.283 2.942-1.543.644.178 2.729-1.077.858 1.076 3.072.162.322 1.138 3.163 2.339.828 1.734 1.764 1.994.698.902-.26 1.431-.165 2.098-.601 3.126-1.765-.818-3.232-1.574-.62-.784.897-2.205.542-3.207-.508-1.035-1.197.36-1.171-1.516-2.399 1.275-1.556.136-2.645 1.826-1.048 1.252-.5 1.7.307z" fill="#fff" />
	</g>
</svg>
