<?xml version="1.0"?>
<svg xmlns="http://www.w3.org/2000/svg" version="1.1" width="100" height="100" x="0" y="0" viewBox="0 0 483.013 483.013" xml:space="preserve">
	<defs>
		<linearGradient id="grad1" x1="0%" y1="0%" x2="100%" y2="0%">
			<stop offset="0%" style="stop-color:#4c6bae;stop-opacity:1" />
			<stop offset="100%" style="stop-color:#8096c7;stop-opacity:1" />
		</linearGradient>
	</defs>
	<g transform="matrix(6.123233995736766e-17,-1,1,6.123233995736766e-17,-0.0003676414490030311,483.01362466812134)">
		<path d="M477.043,219.205L378.575,48.677c-7.974-13.802-22.683-22.292-38.607-22.292H143.041c-15.923,0-30.628,8.49-38.608,22.292  L5.971,219.205c-7.961,13.801-7.961,30.785,0,44.588l98.462,170.543c7.98,13.802,22.685,22.293,38.608,22.293h196.926  c15.925,0,30.634-8.491,38.607-22.293l98.469-170.543C485.003,249.99,485.003,233.006,477.043,219.205z" fill="url(#grad1)" data-original="#000000" style="" class="" />
	</g>
	<g transform="scale(11) translate(6 6)">
		<g fill="#fff">
			<path d="M6.383 17.01L5 17.153c.74-2.07 2.203-3.726 4.391-4.968.207 1.716 1.02 3.135 2.44 4.259l-1.3.135a5.503 5.503 0 004.553 4.845 6.084 6.084 0 01-2.987 1.185c.681 1.2 1.487 2.183 2.417 2.947a9.674 9.674 0 01-8.131-8.546zm19.234-2.02L27 14.847c-.74 2.07-2.203 3.726-4.391 4.968-.207-1.716-1.02-3.135-2.44-4.259l1.3-.135a5.503 5.503 0 00-4.626-4.857 6.085 6.085 0 012.972-1.173c-.687-1.209-1.499-2.196-2.438-2.963a9.674 9.674 0 018.24 8.562z" opacity=".5" />
			<path d="M16.922 25.626L17.065 27c-2.07-.74-3.726-2.203-4.968-4.391 1.715-.207 3.134-1.02 4.258-2.44l.136 1.31a5.503 5.503 0 004.945-4.636 6.085 6.085 0 011.173 2.972c1.209-.687 2.196-1.499 2.963-2.438a9.674 9.674 0 01-8.65 8.249zM14.99 6.383L14.847 5c2.07.74 3.726 2.203 4.968 4.391-1.716.207-3.135 1.02-4.259 2.44l-.135-1.3a5.503 5.503 0 00-4.857 4.626 6.085 6.085 0 01-1.173-2.972c-1.209.687-2.196 1.499-2.963 2.438a9.674 9.674 0 018.562-8.24z" />
		</g>
	</g>
</svg>
