<?xml version="1.0"?>
<svg xmlns="http://www.w3.org/2000/svg" version="1.1" width="100" height="100" x="0" y="0" viewBox="0 0 483.013 483.013" xml:space="preserve">
	<defs>
		<linearGradient id="grad1" x1="0%" y1="0%" x2="100%" y2="0%">
			<stop offset="0%" style="stop-color:#ff4314;stop-opacity:1" />
			<stop offset="100%" style="stop-color:#ff7b5a;stop-opacity:1" />
		</linearGradient>
	</defs>
	<g transform="matrix(6.123233995736766e-17,-1,1,6.123233995736766e-17,-0.0003676414490030311,483.01362466812134)">
		<path d="M477.043,219.205L378.575,48.677c-7.974-13.802-22.683-22.292-38.607-22.292H143.041c-15.923,0-30.628,8.49-38.608,22.292  L5.971,219.205c-7.961,13.801-7.961,30.785,0,44.588l98.462,170.543c7.98,13.802,22.685,22.293,38.608,22.293h196.926  c15.925,0,30.634-8.491,38.607-22.293l98.469-170.543C485.003,249.99,485.003,233.006,477.043,219.205z" fill="url(#grad1)" data-original="#000000" style="" class="" />
	</g>
	<g transform="scale(11) translate(6 6)">
		<path d="M9.171 8h13.816v1.925H9.17zm-1.54 5.641h17.073v1.945h-5.23v6.507c0 .5.217.75.67.75h2.172c.237 0 .434-.153.552-.442.139-.308.237-1.252.277-2.811l1.855.578c-.138 2.175-.395 3.465-.75 3.87-.355.384-.868.596-1.56.596h-3.137c-1.402 0-2.092-.712-2.092-2.118v-6.93h-2.922v.385c-.098 2.445-.65 4.408-1.657 5.872-.987 1.347-2.566 2.406-4.777 3.157L7 23.306c2.132-.732 3.553-1.656 4.303-2.734.75-1.194 1.144-2.715 1.223-4.601v-.385H7.632z" fill="#fff" />
	</g>
</svg>
