<?xml version="1.0"?>
<svg xmlns="http://www.w3.org/2000/svg" version="1.1" width="100" height="100" x="0" y="0" viewBox="0 0 483.013 483.013" xml:space="preserve">
	<defs>
		<linearGradient id="grad1" x1="0%" y1="0%" x2="100%" y2="0%">
			<stop offset="0%" style="stop-color:#13bf99;stop-opacity:1" />
			<stop offset="100%" style="stop-color:#40ecc6;stop-opacity:1" />
		</linearGradient>
	</defs>
	<g transform="matrix(6.123233995736766e-17,-1,1,6.123233995736766e-17,-0.0003676414490030311,483.01362466812134)">
		<path d="M477.043,219.205L378.575,48.677c-7.974-13.802-22.683-22.292-38.607-22.292H143.041c-15.923,0-30.628,8.49-38.608,22.292  L5.971,219.205c-7.961,13.801-7.961,30.785,0,44.588l98.462,170.543c7.98,13.802,22.685,22.293,38.608,22.293h196.926  c15.925,0,30.634-8.491,38.607-22.293l98.469-170.543C485.003,249.99,485.003,233.006,477.043,219.205z" fill="url(#grad1)" data-original="#000000" style="" class="" />
	</g>
	<g transform="scale(11) translate(6 6)">
		<path d="M16 25h-4.536l2.272-3.957h4.528L20.536 25H16zm-2.263-14.044h-.001L11.464 7h9.072l-2.272 3.956h-4.528zm9.999 9.539h-.002.002l-2.273 3.958-2.264-3.957h.001l2.263-3.958H26l-2.264 3.957zM8.264 11.496l2.272-3.957 2.264 3.957-2.264 3.956H6zm4.535 9h.001l-2.264 3.957-2.272-3.957L6 16.537h4.536l2.264 3.957zm10.937-9L26 15.453h-4.536l-2.265-3.957 2.264-3.957 2.273 3.957z" fill="#fff" fill-rule="nonzero" />
	</g>
</svg>
