<?xml version="1.0"?>
<svg xmlns="http://www.w3.org/2000/svg" version="1.1" width="100" height="100" x="0" y="0" viewBox="0 0 483.013 483.013" xml:space="preserve">
	<defs>
		<linearGradient id="grad1" x1="0%" y1="0%" x2="100%" y2="0%">
			<stop offset="0%" style="stop-color:#71c800;stop-opacity:1" />
			<stop offset="100%" style="stop-color:#a0ff25;stop-opacity:1" />
		</linearGradient>
	</defs>
	<g transform="matrix(6.123233995736766e-17,-1,1,6.123233995736766e-17,-0.0003676414490030311,483.01362466812134)">
		<path d="M477.043,219.205L378.575,48.677c-7.974-13.802-22.683-22.292-38.607-22.292H143.041c-15.923,0-30.628,8.49-38.608,22.292  L5.971,219.205c-7.961,13.801-7.961,30.785,0,44.588l98.462,170.543c7.98,13.802,22.685,22.293,38.608,22.293h196.926  c15.925,0,30.634-8.491,38.607-22.293l98.469-170.543C485.003,249.99,485.003,233.006,477.043,219.205z" fill="url(#grad1)" data-original="#000000" style="" class="" />
	</g>
	<g transform="scale(11) translate(6 6)">
		<path fill="#FFF" d="M25.82 14.715c-.787.037-1.577.083-2.364.055-.706-.026-1.409-.143-2.113-.225a.409.409 0 01-.197-.092c-1.165-.955-2.31-1.932-3.314-3.063-.366-.413-.662-.859-.828-1.401-.223-.731-1.16-1.012-1.854-.589-.728.444-.853 1.477-.24 2.069a.901.901 0 00.39.228c.53.128.94.444 1.327.802.694.641 1.316 1.35 1.92 2.076.173.207.085.447-.18.477-.41.048-.823.091-1.236.108-.778.032-1.557.063-2.336.055-.435-.005-.872-.072-1.303-.144a1.693 1.693 0 01-.573-.226c-.579-.347-1.179-.11-1.513.232a1.327 1.327 0 00-.201 1.588c.278.476.826.754 1.318.65.142-.03.282-.093.408-.166.33-.188.688-.276 1.058-.299.594-.036 1.192-.07 1.787-.056.757.018 1.514.085 2.271.132.103.007.207.012.309.028.284.046.366.273.178.496-.226.268-.444.545-.688.795a68.31 68.31 0 01-1.565 1.553 1.852 1.852 0 01-.863.466c-.656.157-.98.79-.888 1.43.092.636.66 1.114 1.303 1.115.596 0 1.054-.318 1.213-.888.163-.586.539-1.028.931-1.459.967-1.061 2.054-1.994 3.163-2.9a.472.472 0 01.225-.1c.561-.073 1.122-.164 1.685-.199a18.66 18.66 0 011.907-.026c.663.027 1.323.114 2.003.177-.012.23-.015.426-.033.62-.122 1.26-.443 2.467-1.036 3.588-1.464 2.765-3.722 4.496-6.777 5.171a9.524 9.524 0 01-2.083.205c-.745-.001-1.49.006-2.235-.002-2.065-.022-3.954-.61-5.635-1.814-2.023-1.45-3.33-3.397-3.892-5.826a8.885 8.885 0 01-.224-1.652 43.836 43.836 0 01-.028-3.156 9.83 9.83 0 017.252-9.203 9.6 9.6 0 012.497-.338c.864-.003 1.727-.016 2.59.004 2.066.048 3.943.678 5.603 1.912 1.985 1.475 3.248 3.432 3.78 5.849.129.58.174 1.178.261 1.797-.43.055-.803.128-1.18.146z" />
	</g>
</svg>
