<?xml version="1.0"?>
<svg xmlns="http://www.w3.org/2000/svg" version="1.1" width="100" height="100" x="0" y="0" viewBox="0 0 483.013 483.013" xml:space="preserve">
	<defs>
		<linearGradient id="grad1" x1="0%" y1="0%" x2="100%" y2="0%">
			<stop offset="0%" style="stop-color:#00bdcd;stop-opacity:1" />
			<stop offset="100%" style="stop-color:#29eeff;stop-opacity:1" />
		</linearGradient>
	</defs>
	<g transform="matrix(6.123233995736766e-17,-1,1,6.123233995736766e-17,-0.0003676414490030311,483.01362466812134)">
		<path d="M477.043,219.205L378.575,48.677c-7.974-13.802-22.683-22.292-38.607-22.292H143.041c-15.923,0-30.628,8.49-38.608,22.292  L5.971,219.205c-7.961,13.801-7.961,30.785,0,44.588l98.462,170.543c7.98,13.802,22.685,22.293,38.608,22.293h196.926  c15.925,0,30.634-8.491,38.607-22.293l98.469-170.543C485.003,249.99,485.003,233.006,477.043,219.205z" fill="url(#grad1)" data-original="#000000" style="" class="" />
	</g>
	<g transform="scale(11) translate(6 6)">
		<path d="M21.833 9.744a7.764 7.764 0 00-5.058-1.847c-4.195 0-7.65 3.317-7.938 7.557h-.822c.288-4.744 4.113-8.397 8.76-8.397 2.057 0 4.03.756 5.634 2.1zm-.288 2.771a5.863 5.863 0 00-4.77-2.477c-3.249 0-5.881 2.687-5.881 5.962 0 3.316 2.632 6.004 5.88 6.004 1.886 0 3.659-.92 4.771-2.478l.577.588c-1.276 1.721-3.25 2.73-5.347 2.73-3.702 0-6.704-3.066-6.704-6.844 0-3.736 3.002-6.802 6.704-6.802a6.655 6.655 0 015.347 2.73zm.946-2.141l.577-.588c.205.21.37.42.534.63l-.576.587a7.357 7.357 0 00-.535-.63zm-5.757 14.61c-4.647 0-8.472-3.652-8.76-8.396h.822c.288 4.24 3.743 7.557 7.938 7.557 1.85 0 3.62-.63 5.058-1.847l.576.587a8.688 8.688 0 01-5.634 2.1zm5.757-3.316c.206-.21.37-.42.535-.63l.576.587c-.165.21-.329.42-.534.63zM6.823 16c0 5.584 4.482 10.16 9.952 10.16 2.961 0 5.757-1.301 7.65-3.694l.575.587C22.944 25.573 19.983 27 16.775 27 10.812 27 6 22.045 6 16 6 9.912 10.853 5 16.775 5 19.94 5 22.945 6.427 25 8.947l-.576.588c-1.892-2.351-4.688-3.695-7.65-3.695-5.47 0-9.951 4.576-9.951 10.16z" fill="#fff" fill-rule="nonzero" />
	</g>
</svg>
