<?xml version="1.0"?>
<svg xmlns="http://www.w3.org/2000/svg" version="1.1" width="100" height="100" x="0" y="0" viewBox="0 0 483.013 483.013" xml:space="preserve">
	<defs>
		<linearGradient id="grad1" x1="0%" y1="0%" x2="100%" y2="0%">
			<stop offset="0%" style="stop-color:#0f1529;stop-opacity:1" />
			<stop offset="100%" style="stop-color:#33488c;stop-opacity:1" />
		</linearGradient>
	</defs>
	<g transform="matrix(6.123233995736766e-17,-1,1,6.123233995736766e-17,-0.0003676414490030311,483.01362466812134)">
		<path d="M477.043,219.205L378.575,48.677c-7.974-13.802-22.683-22.292-38.607-22.292H143.041c-15.923,0-30.628,8.49-38.608,22.292  L5.971,219.205c-7.961,13.801-7.961,30.785,0,44.588l98.462,170.543c7.98,13.802,22.685,22.293,38.608,22.293h196.926  c15.925,0,30.634-8.491,38.607-22.293l98.469-170.543C485.003,249.99,485.003,233.006,477.043,219.205z" fill="url(#grad1)" data-original="#000000" style="" class="" />
	</g>
	<g transform="scale(11) translate(6 6)">
		<path fill="#FFF" d="M24.833 15.346c-.201.045-.339.071-.474.107-.845.221-1.696.396-2.576.363-1.176-.045-2.186-.518-3.077-1.28-.36-.309-.694-.65-1.038-.978-.167-.158-.207-.338-.08-.544l.325-.527.439.482c.633.702 1.31 1.341 2.203 1.682.877.334 1.77.285 2.667.134 1.268-.212 2.439-.719 3.587-1.288.038-.019.08-.031.191-.075-.076.143-.118.228-.166.308-1.676 2.818-3.352 5.636-5.03 8.453-.206.346-.283.372-.641.197-2.366-1.162-4.844-1.383-7.402-.943-.4.069-.471.035-.662-.375-.209-.448-.207-.436.266-.527a13.208 13.208 0 014.002-.163c1.249.14 2.494.324 3.64.912.164.085.251.014.333-.122.727-1.214 1.454-2.428 2.185-3.64.391-.649.79-1.293 1.183-1.94.034-.056.061-.115.125-.236zm-17.654.121c.168.283.336.566.506.848l3.364 5.58c.16.266.16.274-.117.401-.597.275-.523.346-.888-.265-1.29-2.165-2.578-4.332-3.866-6.498l-1.044-1.755c-.05-.083-.09-.173-.134-.26l.039-.052c.147.065.295.126.44.194.883.413 1.776.797 2.722 1.031 1.214.302 2.413.337 3.57-.24.72-.359 1.313-.888 1.847-1.491.855-.968 1.549-2.054 2.178-3.186l.153-.274c.083.124.136.218.203.3.369.452.282.854-.029 1.322-.694 1.044-1.393 2.078-2.317 2.926-.826.758-1.752 1.33-2.84 1.591-.854.205-1.712.164-2.569.005-.392-.073-.782-.155-1.173-.233l-.045.056z" />
	</g>
</svg>
