<?xml version="1.0"?>
<svg xmlns="http://www.w3.org/2000/svg" version="1.1" width="100" height="100" x="0" y="0" viewBox="0 0 483.013 483.013" xml:space="preserve">
	<defs>
		<linearGradient id="grad1" x1="0%" y1="0%" x2="100%" y2="0%">
			<stop offset="0%" style="stop-color:#262626;stop-opacity:1" />
			<stop offset="100%" style="stop-color:#676767;stop-opacity:1" />
		</linearGradient>
	</defs>
	<g transform="matrix(6.123233995736766e-17,-1,1,6.123233995736766e-17,-0.0003676414490030311,483.01362466812134)">
		<path d="M477.043,219.205L378.575,48.677c-7.974-13.802-22.683-22.292-38.607-22.292H143.041c-15.923,0-30.628,8.49-38.608,22.292  L5.971,219.205c-7.961,13.801-7.961,30.785,0,44.588l98.462,170.543c7.98,13.802,22.685,22.293,38.608,22.293h196.926  c15.925,0,30.634-8.491,38.607-22.293l98.469-170.543C485.003,249.99,485.003,233.006,477.043,219.205z" fill="url(#grad1)" data-original="#000000" style="" class="" />
	</g>
	<g transform="scale(11) translate(6 6)">
		<path fill="#FFF" d="M16.931 9.625c2.453.181 3.643 1.645 3.643 1.91 0 .187-.045.595-.045.845 0 .167.06.434.18.8-.03.25-.195.376-.496.376-.45 0-.324-.505-.992-1.505-.72-1.077-1.448-1.303-2.294-1.35.017 2.296.08 8.616.085 10.79 2.255-.328 3.507-2.012 3.832-2.012.18 0 .406.14.406.47 0 .695-1.782 2.267-4.272 2.578C16.792 24.556 15.832 27 13.45 27c-1.127 0-2.074-.87-2.074-1.88 0-.658.496-.94.947-.94.45 0 .901.329.901.94 0 .407-.135.69-.405.846.27.188.54.282.811.282.902 0 1.58-1.632 1.696-3.73-2.628-.422-5.077-2.926-5.077-6.565 0-4.093 2.55-5.863 5.051-6.258.05-1.84 1.011-4.65 3.47-4.695 1.487 0 2.118 1.222 2.118 1.88 0 .658-.473.94-.946.94-.474 0-.947-.376-.947-.94 0-.376.15-.642.45-.799-.21-.188-.48-.282-.81-.282-1.251 0-1.644 2.638-1.705 3.826zm-1.587 11.788c-.004-2.434-.035-8.043-.043-10.62-2.308.567-3.067 3.313-3.067 5.16 0 2.928 1.384 4.939 3.11 5.46z" />
	</g>
</svg>
