<?xml version="1.0"?>
<svg xmlns="http://www.w3.org/2000/svg" version="1.1" width="100" height="100" x="0" y="0" viewBox="0 0 483.013 483.013" xml:space="preserve">
	<defs>
		<linearGradient id="grad1" x1="0%" y1="0%" x2="100%" y2="0%">
			<stop offset="0%" style="stop-color:#fdde6c;stop-opacity:1" />
			<stop offset="100%" style="stop-color:#fde798;stop-opacity:1" />
		</linearGradient>
	</defs>
	<g transform="matrix(6.123233995736766e-17,-1,1,6.123233995736766e-17,-0.0003676414490030311,483.01362466812134)">
		<path d="M477.043,219.205L378.575,48.677c-7.974-13.802-22.683-22.292-38.607-22.292H143.041c-15.923,0-30.628,8.49-38.608,22.292  L5.971,219.205c-7.961,13.801-7.961,30.785,0,44.588l98.462,170.543c7.98,13.802,22.685,22.293,38.608,22.293h196.926  c15.925,0,30.634-8.491,38.607-22.293l98.469-170.543C485.003,249.99,485.003,233.006,477.043,219.205z" fill="url(#grad1)" data-original="#000000" style="" class="" />
	</g>
	<g transform="scale(11) translate(6 6)">
		<path d="M16 27C9.925 27 5 22.075 5 16S9.925 5 16 5s11 4.925 11 11-4.925 11-11 11zm0-1.546a9.454 9.454 0 100-18.908 9.454 9.454 0 000 18.908zm.072-2.913c-3.597 0-6.494-2.75-6.494-6.505V16c0-3.666 2.825-6.54 6.638-6.54 2.572 0 4.227 1.078 5.343 2.623l-2.627 2.03c-.72-.898-1.547-1.473-2.752-1.473-1.763 0-3.004 1.491-3.004 3.324V16c0 1.887 1.241 3.36 3.004 3.36 1.313 0 2.087-.61 2.842-1.527l2.627 1.869c-1.188 1.635-2.789 2.839-5.577 2.839z" fill="#fff" />
	</g>
</svg>
