<?xml version="1.0"?>
<svg xmlns="http://www.w3.org/2000/svg" version="1.1" width="100" height="100" x="0" y="0" viewBox="0 0 483.013 483.013" xml:space="preserve">
	<defs>
		<linearGradient id="grad1" x1="0%" y1="0%" x2="100%" y2="0%">
			<stop offset="0%" style="stop-color:#000;stop-opacity:1" />
			<stop offset="100%" style="stop-color:#4c4c4c;stop-opacity:1" />
		</linearGradient>
	</defs>
	<g transform="matrix(6.123233995736766e-17,-1,1,6.123233995736766e-17,-0.0003676414490030311,483.01362466812134)">
		<path d="M477.043,219.205L378.575,48.677c-7.974-13.802-22.683-22.292-38.607-22.292H143.041c-15.923,0-30.628,8.49-38.608,22.292  L5.971,219.205c-7.961,13.801-7.961,30.785,0,44.588l98.462,170.543c7.98,13.802,22.685,22.293,38.608,22.293h196.926  c15.925,0,30.634-8.491,38.607-22.293l98.469-170.543C485.003,249.99,485.003,233.006,477.043,219.205z" fill="url(#grad1)" data-original="#000000" style="" class="" />
	</g>
	<g transform="scale(11) translate(6 6)">
		<g fill="#FFF">
			<path d="M15.897 4.398c-.146-.33.382-.564.528-.25 3.432 5.912 6.864 11.827 10.296 17.748-.183 0-.359-.06-.535-.088l-9.16-1.826c-.3-.015-.366-.5-.073-.572l3.594-.99a.3.3 0 00.198-.418L15.897 4.39v.007z" />
			<path d="M15.37 4.428c.033.048.062.1.087.154 1.086 3.08 2.2 6.16 3.278 9.24.096.256-.264.469-.44.278-.924-.968-1.804-1.965-2.713-2.933-.147-.132-.36-.044-.455.095L5.682 22.358c-.11.117-.205.293-.389.315-.132 0-.22-.103-.293-.205v-.17c3.461-5.954 6.918-11.91 10.37-17.87z" />
			<path d="M12.48 14.995c.176-.051.41.073.352.286-.367 1.276-.755 2.545-1.137 3.813-.058.162.088.308.242.316 4.943.99 9.886 2.016 14.828 3.006.096.015.162.088.235.147v.205l-.14.147H5.88c2.2-2.64 4.393-5.295 6.6-7.92z" />
		</g>
	</g>
</svg>
