<?xml version="1.0"?>
<svg xmlns="http://www.w3.org/2000/svg" version="1.1" width="100" height="100" x="0" y="0" viewBox="0 0 483.013 483.013" xml:space="preserve">
	<defs>
		<linearGradient id="grad1" x1="0%" y1="0%" x2="100%" y2="0%">
			<stop offset="0%" style="stop-color:#3ab03e;stop-opacity:1" />
			<stop offset="100%" style="stop-color:#6dcf70;stop-opacity:1" />
		</linearGradient>
	</defs>
	<g transform="matrix(6.123233995736766e-17,-1,1,6.123233995736766e-17,-0.0003676414490030311,483.01362466812134)">
		<path d="M477.043,219.205L378.575,48.677c-7.974-13.802-22.683-22.292-38.607-22.292H143.041c-15.923,0-30.628,8.49-38.608,22.292  L5.971,219.205c-7.961,13.801-7.961,30.785,0,44.588l98.462,170.543c7.98,13.802,22.685,22.293,38.608,22.293h196.926  c15.925,0,30.634-8.491,38.607-22.293l98.469-170.543C485.003,249.99,485.003,233.006,477.043,219.205z" fill="url(#grad1)" data-original="#000000" style="" class="" />
	</g>
	<g transform="scale(11) translate(6 6)">
		<path fill="#FFF" d="M17.161 16.779a2.342 2.342 0 001.33-2.107c0-1.294-1.062-2.343-2.37-2.343-1.31 0-2.373 1.049-2.373 2.343a2.34 2.34 0 001.332 2.106v2.894h2.081v-2.893m-1.04 6.721c-4.186 0-7.59-3.364-7.59-7.5s3.404-7.5 7.59-7.5c3.415 0 6.31 2.24 7.26 5.312h2.616C24.987 9.342 20.949 6 16.12 6 10.531 6 6 10.477 6 16s4.531 10 10.12 10c4.829 0 8.867-3.342 9.877-7.812H23.38c-.95 3.072-3.845 5.312-7.26 5.312" />
	</g>
</svg>
