<?xml version="1.0"?>
<svg xmlns="http://www.w3.org/2000/svg" version="1.1" width="100" height="100" x="0" y="0" viewBox="0 0 483.013 483.013" xml:space="preserve">
	<defs>
		<linearGradient id="grad1" x1="0%" y1="0%" x2="100%" y2="0%">
			<stop offset="0%" style="stop-color:#008ce7;stop-opacity:1" />
			<stop offset="100%" style="stop-color:#3bb2ff;stop-opacity:1" />
		</linearGradient>
	</defs>
	<g transform="matrix(6.123233995736766e-17,-1,1,6.123233995736766e-17,-0.0003676414490030311,483.01362466812134)">
		<path d="M477.043,219.205L378.575,48.677c-7.974-13.802-22.683-22.292-38.607-22.292H143.041c-15.923,0-30.628,8.49-38.608,22.292  L5.971,219.205c-7.961,13.801-7.961,30.785,0,44.588l98.462,170.543c7.98,13.802,22.685,22.293,38.608,22.293h196.926  c15.925,0,30.634-8.491,38.607-22.293l98.469-170.543C485.003,249.99,485.003,233.006,477.043,219.205z" fill="url(#grad1)" data-original="#000000" style="" class="" />
	</g>
	<g transform="scale(11) translate(6 6)">
		<g fill="#FFF">
			<path d="M19.086 8.004H11.81l-.602 3.367 6.562.01c3.231 0 4.19 1.173 4.159 3.12-.014.998-.449 2.686-.633 3.23-.497 1.46-1.521 3.122-5.359 3.117l-6.378-.004-.602 3.371h7.257c2.559 0 3.649-.299 4.8-.83 2.554-1.178 4.075-3.701 4.686-6.994.906-4.9-.224-8.387-6.615-8.387z" />
			<path d="M15.807 15.798c.237-.985.312-1.38.312-1.38H8.673c-1.904 0-2.176 1.24-2.357 1.99-.237.981-.312 1.381-.312 1.381h7.447c1.903 0 2.175-1.24 2.356-1.991z" />
		</g>
	</g>
</svg>
