<?xml version="1.0"?>
<svg xmlns="http://www.w3.org/2000/svg" version="1.1" width="100" height="100" x="0" y="0" viewBox="0 0 483.013 483.013" xml:space="preserve">
	<defs>
		<linearGradient id="grad1" x1="0%" y1="0%" x2="100%" y2="0%">
			<stop offset="0%" style="stop-color:#2d9cdb;stop-opacity:1" />
			<stop offset="100%" style="stop-color:#6cb9e5;stop-opacity:1" />
		</linearGradient>
	</defs>
	<g transform="matrix(6.123233995736766e-17,-1,1,6.123233995736766e-17,-0.0003676414490030311,483.01362466812134)">
		<path d="M477.043,219.205L378.575,48.677c-7.974-13.802-22.683-22.292-38.607-22.292H143.041c-15.923,0-30.628,8.49-38.608,22.292  L5.971,219.205c-7.961,13.801-7.961,30.785,0,44.588l98.462,170.543c7.98,13.802,22.685,22.293,38.608,22.293h196.926  c15.925,0,30.634-8.491,38.607-22.293l98.469-170.543C485.003,249.99,485.003,233.006,477.043,219.205z" fill="url(#grad1)" data-original="#000000" style="" class="" />
	</g>
	<g transform="scale(11) translate(6 6)">
		<path d="M20.054 5.606c.392 0 .708.12.947.359s.358.554.358.947v11.674c0 1.33-.315 2.543-.947 3.635a6.882 6.882 0 01-2.534 2.56c-1.058.614-2.244.921-3.559.921-1.314 0-2.517-.307-3.61-.921a6.882 6.882 0 01-2.534-2.56c-.614-1.092-.921-2.304-.921-3.635s.281-2.535.845-3.61c.58-1.092 1.365-1.946 2.355-2.56 1.007-.614 2.125-.922 3.353-.922a6.306 6.306 0 014.941 2.33V6.912c0-.393.12-.708.359-.947a1.33 1.33 0 01.947-.359zm-5.735 17.792c.854 0 1.622-.204 2.304-.614a4.468 4.468 0 001.639-1.74c.392-.735.589-1.554.589-2.458s-.197-1.716-.59-2.432a4.287 4.287 0 00-1.638-1.716c-.682-.426-1.45-.64-2.304-.64-.853 0-1.63.214-2.33.64a4.528 4.528 0 00-1.638 1.716c-.392.716-.588 1.527-.588 2.432s.196 1.723.588 2.457a4.73 4.73 0 001.639 1.741c.7.41 1.476.614 2.33.614z" fill="#fff" fill-rule="nonzero" />
	</g>
</svg>
