<?xml version="1.0"?>
<svg xmlns="http://www.w3.org/2000/svg" version="1.1" width="100" height="100" x="0" y="0" viewBox="0 0 483.013 483.013" xml:space="preserve">
	<defs>
		<linearGradient id="grad1" x1="0%" y1="0%" x2="100%" y2="0%">
			<stop offset="0%" style="stop-color:#e9570f;stop-opacity:1" />
			<stop offset="100%" style="stop-color:#f38752;stop-opacity:1" />
		</linearGradient>
	</defs>
	<g transform="matrix(6.123233995736766e-17,-1,1,6.123233995736766e-17,-0.0003676414490030311,483.01362466812134)">
		<path d="M477.043,219.205L378.575,48.677c-7.974-13.802-22.683-22.292-38.607-22.292H143.041c-15.923,0-30.628,8.49-38.608,22.292  L5.971,219.205c-7.961,13.801-7.961,30.785,0,44.588l98.462,170.543c7.98,13.802,22.685,22.293,38.608,22.293h196.926  c15.925,0,30.634-8.491,38.607-22.293l98.469-170.543C485.003,249.99,485.003,233.006,477.043,219.205z" fill="url(#grad1)" data-original="#000000" style="" class="" />
	</g>
	<g transform="scale(11) translate(6 6)">
		<path fill="#FFF" d="M24.14 9.914l1.607-1.594c.38-.376.301-1.064-.174-1.535-.475-.472-1.17-.549-1.549-.172l-3.016 2.99-.103.103-2.628 2.605a4.56 4.56 0 00-5.867.45 4.464 4.464 0 00-.454 5.817l-2.006 1.99a7.844 7.844 0 01-1.189-2.293c-.673-2.038-.492-4.27.6-6.11 1.703-2.87 4.75-4.118 7.638-3.752a1.07 1.07 0 001.216-.986 1.307 1.307 0 00-1.174-1.374c-2.901-.297-5.9.65-8.115 2.846-3.67 3.638-3.885 9.409-.66 13.338l-1.84 1.825c-.363.36-.273 1.035.203 1.506.475.471 1.155.562 1.518.202l1.981-1.964h.001l1.432-1.42.003-.004 2.322-2.302a4.558 4.558 0 004.92-.976 4.463 4.463 0 00.985-4.879l2.634-2.611c1.931 2.908 1.548 6.934-1.11 9.568a7.886 7.886 0 01-6.13 2.279.978.978 0 00-1.03.888l-.028.32a1.038 1.038 0 00.991 1.13 10.306 10.306 0 007.832-2.996c3.597-3.567 4.013-9.061 1.19-12.89m-7.001 7.536a2.18 2.18 0 01-3.06 0 2.135 2.135 0 010-3.033 2.179 2.179 0 013.06 0 2.135 2.135 0 010 3.033" />
	</g>
</svg>
