<?xml version="1.0"?>
<svg xmlns="http://www.w3.org/2000/svg" version="1.1" width="100" height="100" x="0" y="0" viewBox="0 0 483.013 483.013" xml:space="preserve">
	<defs>
		<linearGradient id="grad1" x1="0%" y1="0%" x2="100%" y2="0%">
			<stop offset="0%" style="stop-color:#939393;stop-opacity:1" />
			<stop offset="100%" style="stop-color:#b3b3b3;stop-opacity:1" />
		</linearGradient>
	</defs>
	<g transform="matrix(6.123233995736766e-17,-1,1,6.123233995736766e-17,-0.0003676414490030311,483.01362466812134)">
		<path d="M477.043,219.205L378.575,48.677c-7.974-13.802-22.683-22.292-38.607-22.292H143.041c-15.923,0-30.628,8.49-38.608,22.292  L5.971,219.205c-7.961,13.801-7.961,30.785,0,44.588l98.462,170.543c7.98,13.802,22.685,22.293,38.608,22.293h196.926  c15.925,0,30.634-8.491,38.607-22.293l98.469-170.543C485.003,249.99,485.003,233.006,477.043,219.205z" fill="url(#grad1)" data-original="#000000" style="" class="" />
	</g>
	<g transform="scale(11) translate(6 6)">
		<path fill="#FFF" d="M13.707 19.86c.365-.237 2.818-1.74 5.208-3.204 1.723-1.054 1.723-1.054 1.693-1.157-.03-.125-10.7-6.609-10.809-6.674a21.481 21.481 0 01-.602-.369c.196-.136.577-.396 1.033-.706L11.34 7l.762.456c.94.562 11.26 6.892 12.706 7.793-.59.355-2.68 1.592-5.49 3.247l-5.583 3.29a36.218 36.218 0 01-.02-.874 46.32 46.32 0 01-.007-1.051zm-2.368-6.296c.185.11.505.303.899.548l1.029.638.022 1.93c.065 5.577.065 5.577.146 5.634l.054.037.06-.022c.03-.009.041-.013 10.871-6.402l.58-.342-.191 2.683-.07.04a5095.12 5095.12 0 01-13.389 7.664c-.004-.699-.01-3.085-.011-6.196v-6.212zM9 24.8l.025-15.967.388.229c.312.182 2.416 1.465 4.793 2.919a1210.99 1210.99 0 005.114 3.118l.715.43-2.364 1.446-.472-.275a279.81 279.81 0 01-2.83-1.732 260.976 260.976 0 00-2.76-1.688l-.652-.38-.005 6.769c-.002 3.054-.005 5.592-.007 6.332-.193-.117-.522-.32-.908-.56L9 24.8z" />
	</g>
</svg>
