<?xml version="1.0"?>
<svg xmlns="http://www.w3.org/2000/svg" version="1.1" width="100" height="100" x="0" y="0" viewBox="0 0 483.013 483.013" xml:space="preserve">
	<defs>
		<linearGradient id="grad1" x1="0%" y1="0%" x2="100%" y2="0%">
			<stop offset="0%" style="stop-color:#fec907;stop-opacity:1" />
			<stop offset="100%" style="stop-color:#fed951;stop-opacity:1" />
		</linearGradient>
	</defs>
	<g transform="matrix(6.123233995736766e-17,-1,1,6.123233995736766e-17,-0.0003676414490030311,483.01362466812134)">
		<path d="M477.043,219.205L378.575,48.677c-7.974-13.802-22.683-22.292-38.607-22.292H143.041c-15.923,0-30.628,8.49-38.608,22.292  L5.971,219.205c-7.961,13.801-7.961,30.785,0,44.588l98.462,170.543c7.98,13.802,22.685,22.293,38.608,22.293h196.926  c15.925,0,30.634-8.491,38.607-22.293l98.469-170.543C485.003,249.99,485.003,233.006,477.043,219.205z" fill="url(#grad1)" data-original="#000000" style="" class="" />
	</g>
	<g transform="scale(11) translate(6 6)">
		<path d="M12.161 22.816c.618 0 1.12.49 1.12 1.092 0 .603-.502 1.092-1.12 1.092h-1.453c-.32 0-.628-.124-.854-.345a1.163 1.163 0 01-.354-.833V8.149c0-.305.124-.597.345-.813.22-.215.52-.336.833-.336h1.557c.618 0 1.12.489 1.12 1.092 0 .29-.119.567-.329.772-.21.204-.495.32-.791.32h-.345v13.632zm12.17-11.452c.779 1.338 1.169 2.835 1.169 4.491s-.395 3.153-1.182 4.492-1.662 2.365-3.099 3.294c-1.32.854-2.698 1.358-4.407 1.358h-.567c-.618 0-1.12-.489-1.12-1.092 0-.603.502-1.091 1.12-1.091h.69c1.21 0 2.089-.501 3.076-1.07.986-.568 1.618-1.499 2.19-2.503.573-1.003.86-2.124.86-3.362-.001-1.255-.291-2.384-.872-3.388a6.372 6.372 0 00-2.376-2.372c-1.004-.577-2.12-.866-3.347-.866h-.297c-.618 0-1.12-.488-1.12-1.091 0-.29.119-.568.329-.772.21-.205.494-.32.791-.32h.349c1.692 0 3.222.38 4.59 1.142a8.368 8.368 0 013.223 3.15z" fill="#fff" fill-rule="nonzero" />
	</g>
</svg>
