<?xml version="1.0"?>
<svg xmlns="http://www.w3.org/2000/svg" version="1.1" width="100" height="100" x="0" y="0" viewBox="0 0 483.013 483.013" xml:space="preserve">
	<defs>
		<linearGradient id="grad1" x1="0%" y1="0%" x2="100%" y2="0%">
			<stop offset="0%" style="stop-color:#f4ae95;stop-opacity:1" />
			<stop offset="100%" style="stop-color:#f7c6b4;stop-opacity:1" />
		</linearGradient>
	</defs>
	<g transform="matrix(6.123233995736766e-17,-1,1,6.123233995736766e-17,-0.0003676414490030311,483.01362466812134)">
		<path d="M477.043,219.205L378.575,48.677c-7.974-13.802-22.683-22.292-38.607-22.292H143.041c-15.923,0-30.628,8.49-38.608,22.292  L5.971,219.205c-7.961,13.801-7.961,30.785,0,44.588l98.462,170.543c7.98,13.802,22.685,22.293,38.608,22.293h196.926  c15.925,0,30.634-8.491,38.607-22.293l98.469-170.543C485.003,249.99,485.003,233.006,477.043,219.205z" fill="url(#grad1)" data-original="#000000" style="" class="" />
	</g>
	<g transform="scale(11) translate(6 6)">
		<path d="M15.807 8.958L9.713 21.965H19.83c.293 0 .558.18.673.455l.011.025a.641.641 0 01-.031.56.96.96 0 01-.835.495H8.896a.826.826 0 01-.466-.145l-.056-.038a.874.874 0 01-.29-1.09l7.19-15.149c.075-.158.182-.298.313-.41a.692.692 0 01.892-.01.497.497 0 01.135.172l7.293 15.252c.1.207.12.444.058.666a.57.57 0 01-.548.423h-.084a.877.877 0 01-.794-.516L16.249 8.96a.244.244 0 00-.22-.145.244.244 0 00-.222.143z" fill="#fff" />
	</g>
</svg>
