<?xml version="1.0"?>
<svg xmlns="http://www.w3.org/2000/svg" version="1.1" width="100" height="100" x="0" y="0" viewBox="0 0 483.013 483.013" xml:space="preserve">
	<defs>
		<linearGradient id="grad1" x1="0%" y1="0%" x2="100%" y2="0%">
			<stop offset="0%" style="stop-color:#2c398f;stop-opacity:1" />
			<stop offset="100%" style="stop-color:#5261c9;stop-opacity:1" />
		</linearGradient>
	</defs>
	<g transform="matrix(6.123233995736766e-17,-1,1,6.123233995736766e-17,-0.0003676414490030311,483.01362466812134)">
		<path d="M477.043,219.205L378.575,48.677c-7.974-13.802-22.683-22.292-38.607-22.292H143.041c-15.923,0-30.628,8.49-38.608,22.292  L5.971,219.205c-7.961,13.801-7.961,30.785,0,44.588l98.462,170.543c7.98,13.802,22.685,22.293,38.608,22.293h196.926  c15.925,0,30.634-8.491,38.607-22.293l98.469-170.543C485.003,249.99,485.003,233.006,477.043,219.205z" fill="url(#grad1)" data-original="#000000" style="" class="" />
	</g>
	<g transform="scale(11) translate(6 6)">
		<path d="M25.075 19.1a2.338 2.338 0 001.425-.577c-.551 2.816-2.091 5.587-4.734 7.11-2.022 1.178-4.55 1.57-7.008 1.27-.368-1.062-1.333-2.193-3.01-3.047-2.643-1.362-3.884-3.717-5.01-2.563-.104.1-.19.217-.253.346a4.353 4.353 0 01-.138-.323c-2.16-5.356 0-10.736 4.32-14.591 2.574-2.286 5.584-2.032 8.273-.785a1.362 1.362 0 00-.506 1.085v5.402a5.435 5.435 0 00-6.944 1.258 5.498 5.498 0 00.104 7.088 5.435 5.435 0 006.978 1.051 1.398 1.398 0 002.666-.6V7.302c2.068 1.454 3.722 3.301 4.48 4.571.37.638.634 1.332.782 2.055-.325-.24-.704-.4-1.103-.462-.85-.046-1.494 1.109-1.057 2.77.368 1.502-.092 2.818.735 2.864zm-10.363.092c-2.896-1.662-.46-5.933 2.436-4.271.873.485.965 2.032.804 3.024-.299 1.709-1.907 2.009-3.24 1.247zm1.356-11.036c-.644.023-1.103.808-1.08 1.155.022.346.505.554 1.171.323.598-.208 1.15-.07 1.126-.416-.023-.346-.597-1.085-1.217-1.062z" fill="#fff" />
	</g>
</svg>
