<?xml version="1.0"?>
<svg xmlns="http://www.w3.org/2000/svg" version="1.1" width="100" height="100" x="0" y="0" viewBox="0 0 483.013 483.013" xml:space="preserve">
	<defs>
		<linearGradient id="grad1" x1="0%" y1="0%" x2="100%" y2="0%">
			<stop offset="0%" style="stop-color:#786dbc;stop-opacity:1" />
			<stop offset="100%" style="stop-color:#a098d0;stop-opacity:1" />
		</linearGradient>
	</defs>
	<g transform="matrix(6.123233995736766e-17,-1,1,6.123233995736766e-17,-0.0003676414490030311,483.01362466812134)">
		<path d="M477.043,219.205L378.575,48.677c-7.974-13.802-22.683-22.292-38.607-22.292H143.041c-15.923,0-30.628,8.49-38.608,22.292  L5.971,219.205c-7.961,13.801-7.961,30.785,0,44.588l98.462,170.543c7.98,13.802,22.685,22.293,38.608,22.293h196.926  c15.925,0,30.634-8.491,38.607-22.293l98.469-170.543C485.003,249.99,485.003,233.006,477.043,219.205z" fill="url(#grad1)" data-original="#000000" style="" class="" />
	</g>
	<g transform="scale(11) translate(6 6)">
		<path d="M15.931 10.771l-1.629-1.633a1.144 1.144 0 011.582-1.654l.038.038 3.636 3.636c.447.447.447 1.17 0 1.617l-3.64 3.636a1.143 1.143 0 01-1.616-1.616l1.707-1.707a5.695 5.695 0 104.705 5.63V6.142a1.143 1.143 0 012.286 0v12.729a8 8 0 11-7.07-8.104l.001.004z" fill="#FFF" />
	</g>
</svg>
