<?xml version="1.0"?>
<svg xmlns="http://www.w3.org/2000/svg" version="1.1" width="100" height="100" x="0" y="0" viewBox="0 0 483.013 483.013" xml:space="preserve">
	<defs>
		<linearGradient id="grad1" x1="0%" y1="0%" x2="100%" y2="0%">
			<stop offset="0%" style="stop-color:#c3a634;stop-opacity:1" />
			<stop offset="100%" style="stop-color:#d8c26d;stop-opacity:1" />
		</linearGradient>
	</defs>
	<g transform="matrix(6.123233995736766e-17,-1,1,6.123233995736766e-17,-0.0003676414490030311,483.01362466812134)">
		<path d="M477.043,219.205L378.575,48.677c-7.974-13.802-22.683-22.292-38.607-22.292H143.041c-15.923,0-30.628,8.49-38.608,22.292  L5.971,219.205c-7.961,13.801-7.961,30.785,0,44.588l98.462,170.543c7.98,13.802,22.685,22.293,38.608,22.293h196.926  c15.925,0,30.634-8.491,38.607-22.293l98.469-170.543C485.003,249.99,485.003,233.006,477.043,219.205z" fill="url(#grad1)" data-original="#000000" style="" class="" />
	</g>
	<g transform="scale(11) translate(6 6)">
		<path fill="#FFF" d="M13.248 14.61h4.314v2.286h-4.314v4.818h2.721c1.077 0 1.958-.145 2.644-.437.686-.291 1.224-.694 1.615-1.21a4.4 4.4 0 00.796-1.815 11.4 11.4 0 00.21-2.252 11.4 11.4 0 00-.21-2.252 4.396 4.396 0 00-.796-1.815c-.391-.516-.93-.919-1.615-1.21-.686-.292-1.567-.437-2.644-.437h-2.721v4.325zm-2.766 2.286H9v-2.285h1.482V8h6.549c1.21 0 2.257.21 3.142.627.885.419 1.607.99 2.168 1.715.56.724.977 1.572 1.25 2.543.273.971.409 2.01.409 3.115a11.47 11.47 0 01-.41 3.115c-.272.97-.689 1.819-1.25 2.543-.56.725-1.282 1.296-2.167 1.715-.885.418-1.933.627-3.142.627h-6.549v-7.104z" />
	</g>
</svg>
