<?xml version="1.0"?>
<svg xmlns="http://www.w3.org/2000/svg" version="1.1" width="100" height="100" x="0" y="0" viewBox="0 0 483.013 483.013" xml:space="preserve">
	<defs>
		<linearGradient id="grad1" x1="0%" y1="0%" x2="100%" y2="0%">
			<stop offset="0%" style="stop-color:#74d269;stop-opacity:1" />
			<stop offset="100%" style="stop-color:#9ddf96;stop-opacity:1" />
		</linearGradient>
	</defs>
	<g transform="matrix(6.123233995736766e-17,-1,1,6.123233995736766e-17,-0.0003676414490030311,483.01362466812134)">
		<path d="M477.043,219.205L378.575,48.677c-7.974-13.802-22.683-22.292-38.607-22.292H143.041c-15.923,0-30.628,8.49-38.608,22.292  L5.971,219.205c-7.961,13.801-7.961,30.785,0,44.588l98.462,170.543c7.98,13.802,22.685,22.293,38.608,22.293h196.926  c15.925,0,30.634-8.491,38.607-22.293l98.469-170.543C485.003,249.99,485.003,233.006,477.043,219.205z" fill="url(#grad1)" data-original="#000000" style="" class="" />
	</g>
	<g transform="scale(11) translate(6 6)">
		<path d="M24.963 14.512h.02L25 19.478 13.823 26l-2.992-1.682v.002l-.019-.012L8 22.505V9.484l3.073-1.813.006.003L13.792 6l11.15 6.563zm-3.275 3.112l-2.339-1.339-7.807 4.594 2.292 1.363zm-2.866-1.64l-4.816-2.758-.021 5.681zm-4.814-3.366l7.742 4.531v-2.705l-7.732-4.515zM10.82 23.57l.03-2.713-.018.011v-9.572l-2.347-1.4v12.28zm.416-3.001l2.345-1.418V9.896l-2.345 1.401zm2.881 2.031l-.047 2.836L24.506 19.3l.03-2.82zm7.793-8.584l2.429-1.386-10.455-6.105-2.406 1.392z" fill="#fff" fill-rule="nonzero" />
	</g>
</svg>
