<?xml version="1.0"?>
<svg xmlns="http://www.w3.org/2000/svg" version="1.1" width="100" height="100" x="0" y="0" viewBox="0 0 483.013 483.013" xml:space="preserve">
	<defs>
		<linearGradient id="grad1" x1="0%" y1="0%" x2="100%" y2="0%">
			<stop offset="0%" style="stop-color:#242424;stop-opacity:1" />
			<stop offset="100%" style="stop-color:#656565;stop-opacity:1" />
		</linearGradient>
	</defs>
	<g transform="matrix(6.123233995736766e-17,-1,1,6.123233995736766e-17,-0.0003676414490030311,483.01362466812134)">
		<path d="M477.043,219.205L378.575,48.677c-7.974-13.802-22.683-22.292-38.607-22.292H143.041c-15.923,0-30.628,8.49-38.608,22.292  L5.971,219.205c-7.961,13.801-7.961,30.785,0,44.588l98.462,170.543c7.98,13.802,22.685,22.293,38.608,22.293h196.926  c15.925,0,30.634-8.491,38.607-22.293l98.469-170.543C485.003,249.99,485.003,233.006,477.043,219.205z" fill="url(#grad1)" data-original="#000000" style="" class="" />
	</g>
	<g transform="scale(11) translate(6 6)">
		<path d="M13.06 23.874l2.683-2.697 2.694 2.697-1.719 1.722a1.377 1.377 0 01-1.95 0zm6.95-9.242l-2.692-2.697 2.693-2.697 2.692 2.697zm-.669 8.363l-2.693-2.697 7.23-7.242 1.718 1.721c.539.54.539 1.413 0 1.953zm-7.403-.278L9.246 20.02l7.218-7.23 2.692 2.697zm-3.822-3.8l-1.719-1.722a1.382 1.382 0 01.013-1.952l1.718-1.722 2.693 2.698zM18.883 8.129l-7.23 7.238L8.96 12.67l6.255-6.266a1.377 1.377 0 011.95 0z" fill="#fff" fill-rule="nonzero" />
	</g>
</svg>
