<?xml version="1.0"?>
<svg xmlns="http://www.w3.org/2000/svg" version="1.1" width="100" height="100" x="0" y="0" viewBox="0 0 483.013 483.013" xml:space="preserve">
	<defs>
		<linearGradient id="grad1" x1="0%" y1="0%" x2="100%" y2="0%">
			<stop offset="0%" style="stop-color:#0facf3;stop-opacity:1" />
			<stop offset="100%" style="stop-color:#56c4f6;stop-opacity:1" />
		</linearGradient>
	</defs>
	<g transform="matrix(6.123233995736766e-17,-1,1,6.123233995736766e-17,-0.0003676414490030311,483.01362466812134)">
		<path d="M477.043,219.205L378.575,48.677c-7.974-13.802-22.683-22.292-38.607-22.292H143.041c-15.923,0-30.628,8.49-38.608,22.292  L5.971,219.205c-7.961,13.801-7.961,30.785,0,44.588l98.462,170.543c7.98,13.802,22.685,22.293,38.608,22.293h196.926  c15.925,0,30.634-8.491,38.607-22.293l98.469-170.543C485.003,249.99,485.003,233.006,477.043,219.205z" fill="url(#grad1)" data-original="#000000" style="" class="" />
	</g>
	<g transform="scale(11) translate(6 6)">
		<path fill="#FFF" d="M9.471 9.016h5.432c2.154 0 3.224-.068 4.83.079 1.607.17 3.214.826 4.254 2.083 1.225 1.46 1.583 3.43 1.502 5.263-.08 1.823-.705 3.735-2.138 4.98-1.271 1.144-3.05 1.563-4.738 1.574-3.282.011-6.553 0-9.835 0-.358-.023-.763.011-1.04-.238-.485-.486-.196-1.528.578-1.483 1.826-.056 3.663 0 5.49-.034-.035-1.539-.012-3.078-.012-4.606-1.41-.012-2.809 0-4.218 0-.313-.012-.66-.012-.902-.216-.289-.26-.289-.701-.162-1.04.162-.374.601-.442.971-.442 1.433-.012 2.878 0 4.31 0 .024-1.404-.022-2.808.024-4.2-1.607-.011-3.213 0-4.82 0-.358-.011-.762-.011-1.04-.26-.288-.374-.23-.906.012-1.28.462-.226.994-.18 1.502-.18zm6.334 5.92c.658.011 1.317-.046 1.976.045.786.113.786 1.494-.012 1.607-.647.102-1.317.034-1.976.046.012 1.335 0 2.66 0 3.995.012.227.023.566.312.589.786.068 1.47.045 2.358.045 1.317.057 2.704-.35 3.628-1.313.948-1.007 1.295-2.41 1.318-3.747.035-1.482-.243-3.112-1.33-4.222-.981-.996-2.46-1.335-3.836-1.256-.784 0-1.456-.023-2.184.045-.231.068-.243.351-.254.555v3.61z" />
	</g>
</svg>
