<?xml version="1.0"?>
<svg xmlns="http://www.w3.org/2000/svg" version="1.1" width="100" height="100" x="0" y="0" viewBox="0 0 483.013 483.013" xml:space="preserve">
	<defs>
		<linearGradient id="grad1" x1="0%" y1="0%" x2="100%" y2="0%">
			<stop offset="0%" style="stop-color:#3fbadf;stop-opacity:1" />
			<stop offset="100%" style="stop-color:#78cee8;stop-opacity:1" />
		</linearGradient>
	</defs>
	<g transform="matrix(6.123233995736766e-17,-1,1,6.123233995736766e-17,-0.0003676414490030311,483.01362466812134)">
		<path d="M477.043,219.205L378.575,48.677c-7.974-13.802-22.683-22.292-38.607-22.292H143.041c-15.923,0-30.628,8.49-38.608,22.292  L5.971,219.205c-7.961,13.801-7.961,30.785,0,44.588l98.462,170.543c7.98,13.802,22.685,22.293,38.608,22.293h196.926  c15.925,0,30.634-8.491,38.607-22.293l98.469-170.543C485.003,249.99,485.003,233.006,477.043,219.205z" fill="url(#grad1)" data-original="#000000" style="" class="" />
	</g>
	<g transform="scale(11) translate(6 6)">
		<g fill="#FFF" fill-rule="nonzero">
			<path fill-opacity=".4" d="M11 22.119l5-2.82v5.635l-5-2.815zm0-9l5-2.82v5.635l-5-2.815z" />
			<path fill-opacity=".7" d="M26 19.23l-5 2.886V16.43l5 2.8zm0-9l-5 2.886V7.43l5 2.8z" />
			<path fill-opacity=".8" d="M11 22.116v-5.683l5 2.87-5 2.813zm0-9V7.433l5 2.87-5 2.813z" />
			<path d="M21 22.116l-5-2.812 5-2.874v5.686zm0-9l-5-2.812 5-2.874v5.686z" />
			<path fill-opacity=".6" d="M21 22.116l-5 2.818v-5.63l5 2.812zm0-9l-5 2.818v-5.63l5 2.812z" />
			<path fill-opacity=".5" d="M11 16.433v5.683l-5-2.885 5-2.798zm0-9v5.683l-5-2.885 5-2.798z" />
		</g>
	</g>
</svg>
