<?xml version="1.0"?>
<svg xmlns="http://www.w3.org/2000/svg" version="1.1" width="100" height="100" x="0" y="0" viewBox="0 0 483.013 483.013" xml:space="preserve">
	<defs>
		<linearGradient id="grad1" x1="0%" y1="0%" x2="100%" y2="0%">
			<stop offset="0%" style="stop-color:#00aded;stop-opacity:1" />
			<stop offset="100%" style="stop-color:#3fcbff;stop-opacity:1" />
		</linearGradient>
	</defs>
	<g transform="matrix(6.123233995736766e-17,-1,1,6.123233995736766e-17,-0.0003676414490030311,483.01362466812134)">
		<path d="M477.043,219.205L378.575,48.677c-7.974-13.802-22.683-22.292-38.607-22.292H143.041c-15.923,0-30.628,8.49-38.608,22.292  L5.971,219.205c-7.961,13.801-7.961,30.785,0,44.588l98.462,170.543c7.98,13.802,22.685,22.293,38.608,22.293h196.926  c15.925,0,30.634-8.491,38.607-22.293l98.469-170.543C485.003,249.99,485.003,233.006,477.043,219.205z" fill="url(#grad1)" data-original="#000000" style="" class="" />
	</g>
	<g transform="scale(11) translate(6 6)">
		<g fill="#fff">
			<path d="M10.097 23.603l.002-.004 3.188-7.616-3.19-7.615 5.885 7.615-5.881 7.615zm11.776 0l-.004-.005-5.881-7.615 5.885-7.615-3.19 7.615 3.188 7.616z" />
			<path d="M15.985 15.984v5.306l-5.89 2.31 5.89-7.62v-5.306l5.89-2.31z" fill-opacity=".8" />
			<path d="M15.985 21.29v4.651l-5.89-2.344 5.89-2.315v-5.298l-5.89-7.62 5.89 2.31V6.023l5.89 2.343-5.89 2.315v5.299l5.89 7.62z" fill-opacity=".5" />
			<path d="M10.095 8.366l5.89-2.343v4.658zm11.78 15.231l-5.89 2.344v-4.659z" fill-opacity=".145" />
		</g>
	</g>
</svg>
