<?xml version="1.0"?>
<svg xmlns="http://www.w3.org/2000/svg" version="1.1" width="100" height="100" x="0" y="0" viewBox="0 0 483.013 483.013" xml:space="preserve">
	<defs>
		<linearGradient id="grad1" x1="0%" y1="0%" x2="100%" y2="0%">
			<stop offset="0%" style="stop-color#396a28;stop-opacity:1" />
			<stop offset="100%" style="stop-color:#63b946;stop-opacity:1" />
		</linearGradient>
	</defs>
	<g transform="matrix(6.123233995736766e-17,-1,1,6.123233995736766e-17,-0.0003676414490030311,483.01362466812134)">
		<path d="M477.043,219.205L378.575,48.677c-7.974-13.802-22.683-22.292-38.607-22.292H143.041c-15.923,0-30.628,8.49-38.608,22.292  L5.971,219.205c-7.961,13.801-7.961,30.785,0,44.588l98.462,170.543c7.98,13.802,22.685,22.293,38.608,22.293h196.926  c15.925,0,30.634-8.491,38.607-22.293l98.469-170.543C485.003,249.99,485.003,233.006,477.043,219.205z" fill="url(#grad1)" data-original="#000000" style="" class="" />
	</g>
	<g transform="scale(11) translate(6 6)">
		<path d="M18.073 13.212L16 11.14l-2.087 2.086-2.164-2.164L16 5l4.28 6.005zm-4.883.738L11.14 16l2.072 2.073-2.156 2.156L5 16l5.99-4.25zm5.584 4.137L20.86 16l-2.064-2.064 2.226-2.226L27 16l-6.044 4.269zm-4.838.71L16 20.86l2.05-2.05 2.182 2.183L16 27l-4.204-6.064zM16 12.527L19.472 16 16 19.472 12.528 16z" fill="#fff" />
	</g>
</svg>
