<?xml version="1.0"?>
<svg xmlns="http://www.w3.org/2000/svg" version="1.1" width="100" height="100" x="0" y="0" viewBox="0 0 483.013 483.013" xml:space="preserve">
	<defs>
		<linearGradient id="grad1" x1="0%" y1="0%" x2="100%" y2="0%">
			<stop offset="0%" style="stop-color:#00ccff;stop-opacity:1" />
			<stop offset="100%" style="stop-color:#4cdbfe;stop-opacity:1" />
		</linearGradient>
	</defs>
	<g transform="matrix(6.123233995736766e-17,-1,1,6.123233995736766e-17,-0.0003676414490030311,483.01362466812134)">
		<path d="M477.043,219.205L378.575,48.677c-7.974-13.802-22.683-22.292-38.607-22.292H143.041c-15.923,0-30.628,8.49-38.608,22.292  L5.971,219.205c-7.961,13.801-7.961,30.785,0,44.588l98.462,170.543c7.98,13.802,22.685,22.293,38.608,22.293h196.926  c15.925,0,30.634-8.491,38.607-22.293l98.469-170.543C485.003,249.99,485.003,233.006,477.043,219.205z" fill="url(#grad1)" data-original="#000000" style="" class="" />
	</g>
	<g transform="scale(11) translate(6 6)">
		<g fill="#FFF">
			<path fill-opacity=".4" d="M7.894 19.161h4.397L10.398 23H6l1.894-3.839zm2.505-5.08h4.398L12.91 17.91h-4.4l1.89-3.83zm2.506-5.08h4.398l-1.889 3.83h-4.397L12.905 9z" />
			<path fill-opacity=".6" d="M12.277 19.16h4.398l-1.894 3.838h-4.398l1.894-3.839zm2.506-5.08h4.397l-1.888 3.828h-4.398l1.889-3.828zM17.288 9h4.398l-1.889 3.829H15.4L17.288 9z" />
			<path d="M16.59 19.16h4.398l-1.893 3.838h-4.398l1.894-3.839zm2.506-5.08h4.398l-1.888 3.828h-4.398l1.888-3.828zM21.602 9H26l-1.889 3.829h-4.397L21.602 9z" />
		</g>
	</g>
</svg>
