<?xml version="1.0"?>
<svg xmlns="http://www.w3.org/2000/svg" version="1.1" width="100" height="100" x="0" y="0" viewBox="0 0 483.013 483.013" xml:space="preserve">
	<defs>
		<linearGradient id="grad1" x1="0%" y1="0%" x2="100%" y2="0%">
			<stop offset="0%" style="stop-color:#624dbf;stop-opacity:1" />
			<stop offset="100%" style="stop-color:#9182d2;stop-opacity:1" />
		</linearGradient>
	</defs>
	<g transform="matrix(6.123233995736766e-17,-1,1,6.123233995736766e-17,-0.0003676414490030311,483.01362466812134)">
		<path d="M477.043,219.205L378.575,48.677c-7.974-13.802-22.683-22.292-38.607-22.292H143.041c-15.923,0-30.628,8.49-38.608,22.292  L5.971,219.205c-7.961,13.801-7.961,30.785,0,44.588l98.462,170.543c7.98,13.802,22.685,22.293,38.608,22.293h196.926  c15.925,0,30.634-8.491,38.607-22.293l98.469-170.543C485.003,249.99,485.003,233.006,477.043,219.205z" fill="url(#grad1)" data-original="#000000" style="" class="" />
	</g>
	<g transform="scale(11) translate(6 6)">
		<path d="M22.313 9c.494.057.994.088 1.482.176.967.183 1.283.643 1.119 1.576-.066.378-.31.611-.698.674a5.12 5.12 0 01-.698.05c-3.173.007-6.353.013-9.526.026-.48 0-.955.044-1.422.12-1.574.246-2.166.87-2.298 2.388-.06.713-.06.713.685.713h13.028c.205.006.402.044.573.15.58.354.435.908.402 1.419-.026.41-.283.636-.724.718a3.341 3.341 0 01-.56.038h-12.99c-.48 0-.473 0-.434.454.033.416.06.826.165 1.229.197.75.678 1.216 1.455 1.424.862.233 1.751.284 2.64.29 3.1.019 6.195.013 9.296.013.395 0 .763.05.994.397.448.668.099 1.6-.685 1.84-.671.208-1.376.258-2.074.265-2.91.05-5.82.057-8.73 0a15.91 15.91 0 01-2.672-.296c-2.074-.41-3.108-1.418-3.457-3.41-.079-.46-.125-.926-.184-1.387v-3.636c.04-.36.072-.718.119-1.071.276-2.257 1.33-3.366 3.647-3.857.823-.177 1.665-.215 2.495-.297C16.27 9 19.29 9 22.313 9z" fill="#fff" />
	</g>
</svg>
