<?xml version="1.0"?>
<svg xmlns="http://www.w3.org/2000/svg" version="1.1" width="100" height="100" x="0" y="0" viewBox="0 0 483.013 483.013" xml:space="preserve">
	<defs>
		<linearGradient id="grad1" x1="0%" y1="0%" x2="100%" y2="0%">
			<stop offset="0%" style="stop-color:#fa5836;stop-opacity:1" />
			<stop offset="100%" style="stop-color:#fb8a72;stop-opacity:1" />
		</linearGradient>
	</defs>
	<g transform="matrix(6.123233995736766e-17,-1,1,6.123233995736766e-17,-0.0003676414490030311,483.01362466812134)">
		<path d="M477.043,219.205L378.575,48.677c-7.974-13.802-22.683-22.292-38.607-22.292H143.041c-15.923,0-30.628,8.49-38.608,22.292  L5.971,219.205c-7.961,13.801-7.961,30.785,0,44.588l98.462,170.543c7.98,13.802,22.685,22.293,38.608,22.293h196.926  c15.925,0,30.634-8.491,38.607-22.293l98.469-170.543C485.003,249.99,485.003,233.006,477.043,219.205z" fill="url(#grad1)" data-original="#000000" style="" class="" />
	</g>
	<g transform="scale(11) translate(6 6)">
		<path d="M14.737 4.502c-.108.015-.525.093-.926.154-2.238.378-4.305 1.474-6.018 3.194-1.72 1.713-2.77 3.696-3.21 6.057-.2 1.073-.2 3.171 0 4.244.44 2.36 1.49 4.343 3.21 6.056 1.713 1.72 3.695 2.77 6.056 3.21 1.073.2 3.171.2 4.244 0 2.36-.44 4.344-1.49 6.057-3.21 1.72-1.713 2.77-3.695 3.21-6.056.2-1.073.2-3.171 0-4.244-.44-2.36-1.49-4.344-3.21-6.057-1.675-1.682-3.565-2.708-5.856-3.17-.71-.147-3.071-.263-3.557-.178zm4.12 4.09c.092.038.123.153.123.462v.417h-.486c-.617 0-1.103.231-1.304.617-.131.247-.139.548-.139 4.205 0 2.16-.03 3.973-.061 4.027-.162.247-1.35.317-1.883.108l-.216-.085v-3.988c0-3.72-.008-4.02-.139-4.267-.2-.386-.687-.617-1.304-.617h-.486v-.417c0-.262.039-.432.1-.455.14-.062 5.648-.062 5.795-.008zm-4.429 3.216v.95l-.224.13c-.331.194-.887.772-1.11 1.15a4.008 4.008 0 00-.325.78l-.123.44h-.887c-1.011 0-.98.038-.764-.81.27-1.027.926-2.069 1.72-2.701.44-.355 1.412-.888 1.605-.888.085 0 .108.201.108.95zm3.827-.678a5.173 5.173 0 012.693 3.317c.216.849.247.81-.764.81h-.887l-.124-.44a4.008 4.008 0 00-.324-.779c-.224-.378-.78-.956-1.111-1.15l-.224-.13v-.95c0-.748.023-.949.108-.949.054 0 .34.124.633.27zm-5.601 4.853c0 .362.239 1.103.486 1.489 1.319 2.09 4.343 2.09 5.663 0 .247-.386.486-1.127.486-1.49v-.262h1.844l-.039.401c-.193 1.875-1.227 3.388-2.847 4.19-.748.37-1.404.525-2.276.525-2.7 0-4.837-1.968-5.123-4.715l-.038-.4h1.844v.262zm4.436 5.578c.1.54.656.872 1.489.872h.401v.848h-6.018v-.826l.563-.038c.363-.023.656-.092.818-.185.24-.139.548-.602.548-.818 0-.077.247-.1 1.072-.1h1.08l.047.247z" fill="#FEFFFF" />
	</g>
</svg>
