<?xml version="1.0"?>
<svg xmlns="http://www.w3.org/2000/svg" version="1.1" width="100" height="100" x="0" y="0" viewBox="0 0 483.013 483.013" xml:space="preserve">
	<defs>
		<linearGradient id="grad1" x1="0%" y1="0%" x2="100%" y2="0%">
			<stop offset="0%" style="stop-color:#443f54;stop-opacity:1" />
			<stop offset="100%" style="stop-color:#766d92;stop-opacity:1" />
		</linearGradient>
	</defs>
	<g transform="matrix(6.123233995736766e-17,-1,1,6.123233995736766e-17,-0.0003676414490030311,483.01362466812134)">
		<path d="M477.043,219.205L378.575,48.677c-7.974-13.802-22.683-22.292-38.607-22.292H143.041c-15.923,0-30.628,8.49-38.608,22.292  L5.971,219.205c-7.961,13.801-7.961,30.785,0,44.588l98.462,170.543c7.98,13.802,22.685,22.293,38.608,22.293h196.926  c15.925,0,30.634-8.491,38.607-22.293l98.469-170.543C485.003,249.99,485.003,233.006,477.043,219.205z" fill="url(#grad1)" data-original="#000000" style="" class="" />
	</g>
	<g transform="scale(11) translate(6 6)">
		<g fill="#FFF">
			<path d="M15.508 26.708c-1.416-.862-3.139-1.908-4.554-2.77-.616-.369-1.292-.738-1.908-1.169-.246-.184-.246-.369-.246-.492.615-2.892 1.292-6.03 1.97-8.862l-.432-1.353s-1.476 7.076-2.215 10.215c-.123.43 0 .677.43.923 2.4 1.415 7.262 4.492 7.262 4.492l-.307-.984zm1.169 0c1.415-.862 3.138-1.908 4.554-2.77.615-.369 1.292-.738 1.907-1.169.247-.184.247-.369.247-.492-.616-2.892-1.293-6.03-1.97-8.862l.493-1.292s1.477 7.015 2.154 10.154c.123.43 0 .677-.431.923-2.4 1.415-7.262 4.492-7.262 4.492l.308-.984zm4.677-14.523l-.246-.37h-9.97l-.246.37s.185.492.123.307h10.277c-.123.123.062-.307.062-.307z" opacity=".7" />
			<path d="M21.662 11.63S18.277 6.709 16.8 4.555c-.308-.37-.492-.554-.677-.554-.185 0-.43.185-.677.554-1.477 2.092-4.861 7.077-4.861 7.077-.308.43-.308.554-.062 1.107 0 0 2.4 6.647 3.385 9.6.492 1.354 1.784 5.231 1.784 5.231.062.123.308.185.431.185a.665.665 0 00.43-.185s1.355-3.877 1.785-5.23c.985-2.893 3.385-9.6 3.385-9.6.246-.554.246-.677-.061-1.108zm-5.539 13.908a3727.558 3727.558 0 01-4.677-13.415s3.323-4.861 4.616-6.77c1.292 1.909 4.615 6.77 4.615 6.77s-3.139 9.23-4.554 13.415z" />
		</g>
	</g>
</svg>
