<?xml version="1.0"?>
<svg xmlns="http://www.w3.org/2000/svg" version="1.1" width="100" height="100" x="0" y="0" viewBox="0 0 483.013 483.013" xml:space="preserve">
	<defs>
		<linearGradient id="grad1" x1="0%" y1="0%" x2="100%" y2="0%">
			<stop offset="0%" style="stop-color:#c9a35e;stop-opacity:1" />
			<stop offset="100%" style="stop-color:#d9be8e;stop-opacity:1" />
		</linearGradient>
	</defs>
	<g transform="matrix(6.123233995736766e-17,-1,1,6.123233995736766e-17,-0.0003676414490030311,483.01362466812134)">
		<path d="M477.043,219.205L378.575,48.677c-7.974-13.802-22.683-22.292-38.607-22.292H143.041c-15.923,0-30.628,8.49-38.608,22.292  L5.971,219.205c-7.961,13.801-7.961,30.785,0,44.588l98.462,170.543c7.98,13.802,22.685,22.293,38.608,22.293h196.926  c15.925,0,30.634-8.491,38.607-22.293l98.469-170.543C485.003,249.99,485.003,233.006,477.043,219.205z" fill="url(#grad1)" data-original="#000000" style="" class="" />
	</g>
	<g transform="scale(11) translate(6 6)">
		<path fill="#FFF" d="M10.027 19.38a.372.372 0 0 1-.334.21H5.62a.368.368 0 0 1-.315-.182.37.37 0 0 1-.01-.372L12.699 5.69c.133-.239.515-.239.648 0l5.772 10.378a.396.396 0 0 1-.01.372.346.346 0 0 1-.315.181h-1.688a.381.381 0 0 1-.324-.19l-3.75-6.82-4.196 7.755h1.602c.124 0 .248.066.315.171a.378.378 0 0 1 .019.363l-.744 1.478zm16.674-.344a.35.35 0 0 1-.01.372.346.346 0 0 1-.314.181H15.264a.372.372 0 0 1-.372-.372V17.74c0-.21.171-.372.372-.372h7.908L18.984 9.64l-.792 1.583c-.133.248-.543.248-.667 0l-.744-1.478a.407.407 0 0 1 0-.334l1.85-3.71a.39.39 0 0 1 .324-.201c.124 0 .267.067.334.19l7.412 13.346zm-4.817 1.478l1.84 3.339a.37.37 0 0 1 0 .372.346.346 0 0 1-.314.181H8.587a.381.381 0 0 1-.325-.19.37.37 0 0 1 .01-.373l2.966-4.817 2.957-5.18c.067-.123.2-.2.334-.19a.35.35 0 0 1 .325.2l.744 1.479a.358.358 0 0 1-.01.353l-3.758 6.486h8.337l-.773-1.288a.35.35 0 0 1-.01-.372.381.381 0 0 1 .325-.19h1.85c.134 0 .258.076.325.19z" />
	</g>
</svg>
