<?xml version="1.0"?>
<svg xmlns="http://www.w3.org/2000/svg" version="1.1" width="100" height="100" x="0" y="0" viewBox="0 0 483.013 483.013" xml:space="preserve">
	<defs>
		<linearGradient id="grad1" x1="0%" y1="0%" x2="100%" y2="0%">
			<stop offset="0%" style="stop-color:#f68922;stop-opacity:1" />
			<stop offset="100%" style="stop-color:#f8ac64;stop-opacity:1" />
		</linearGradient>
	</defs>
	<g transform="matrix(6.123233995736766e-17,-1,1,6.123233995736766e-17,-0.0003676414490030311,483.01362466812134)">
		<path d="M477.043,219.205L378.575,48.677c-7.974-13.802-22.683-22.292-38.607-22.292H143.041c-15.923,0-30.628,8.49-38.608,22.292  L5.971,219.205c-7.961,13.801-7.961,30.785,0,44.588l98.462,170.543c7.98,13.802,22.685,22.293,38.608,22.293h196.926  c15.925,0,30.634-8.491,38.607-22.293l98.469-170.543C485.003,249.99,485.003,233.006,477.043,219.205z" fill="url(#grad1)" data-original="#000000" style="" class="" />
	</g>
	<g transform="scale(11) translate(6 6)">
		<path fill="#FFF" d="M16.72 10.078s-4.127.606-4.728 5.193c0 0-.638 5.134 4.608 6.52a4.36 4.36 0 001.113.143h.258c.534 0 1.046.214 1.424.594.378.38.59.896.59 1.434a2.014 2.014 0 01-1.856 2.022c-2.579.174-6.04-1.092-8.286-4.136 0 0-4.399-6.325.395-12.137a10.172 10.172 0 014.277-3.072c1.97-.737 4.856-1.211 7.361.756 0 0 3.353 2.597 1.634 6.837 0 0-1.204 3.375-5.33 3.635l-.573-.032a1.895 1.895 0 01-1.414-.691 1.922 1.922 0 01-.413-1.527 1.904 1.904 0 011.818-1.605l.582-.04s1.977-.086 1.805-2.423c0 0-.172-2.077-3.266-1.47" />
	</g>
</svg>
