<?xml version="1.0"?>
<svg xmlns="http://www.w3.org/2000/svg" version="1.1" width="100" height="100" x="0" y="0" viewBox="0 0 483.013 483.013" xml:space="preserve">
	<defs>
		<linearGradient id="grad1" x1="0%" y1="0%" x2="100%" y2="0%">
			<stop offset="0%" style="stop-color:#328332;stop-opacity:1" />
			<stop offset="100%" style="stop-color:#58bf58;stop-opacity:1" />
		</linearGradient>
	</defs>
	<g transform="matrix(6.123233995736766e-17,-1,1,6.123233995736766e-17,-0.0003676414490030311,483.01362466812134)">
		<path d="M477.043,219.205L378.575,48.677c-7.974-13.802-22.683-22.292-38.607-22.292H143.041c-15.923,0-30.628,8.49-38.608,22.292  L5.971,219.205c-7.961,13.801-7.961,30.785,0,44.588l98.462,170.543c7.98,13.802,22.685,22.293,38.608,22.293h196.926  c15.925,0,30.634-8.491,38.607-22.293l98.469-170.543C485.003,249.99,485.003,233.006,477.043,219.205z" fill="url(#grad1)" data-original="#000000" style="" class="" />
	</g>
	<g transform="scale(11) translate(6 6)">
		<g fill="#FFF">
			<path fill-rule="nonzero" d="M15.989 16.553l-6.721-.577 6.72-3.802v4.379zm0 4.46v6.94C13.652 24.315 11.076 20.311 9 17.07c2.45 1.38 5.008 2.823 6.989 3.944zm0-10.068L9 14.845 15.989 4v6.945z" />
			<path fill-opacity=".601" fill-rule="nonzero" d="M22.71 15.976l-6.721.577v-4.379l6.72 3.802zm-6.721 5.038c1.98-1.12 4.537-2.564 6.988-3.944-2.076 3.242-4.652 7.246-6.988 10.882v-6.938zm0-10.069V4l6.988 10.845-6.988-3.9z" />
			<path opacity=".2" d="M15.989 16.553l6.72-.577-6.72 3.775z" />
			<path opacity=".603" d="M15.988 16.553l-6.721-.577 6.721 3.775z" />
		</g>
	</g>
</svg>
