<?xml version="1.0"?>
<svg xmlns="http://www.w3.org/2000/svg" version="1.1" width="100" height="100" x="0" y="0" viewBox="0 0 483.013 483.013" xml:space="preserve">
	<defs>
		<linearGradient id="grad1" x1="0%" y1="0%" x2="100%" y2="0%">
			<stop offset="0%" style="stop-color:#00ffba;stop-opacity:1" />
			<stop offset="100%" style="stop-color:#4cfece;stop-opacity:1" />
		</linearGradient>
	</defs>
	<g transform="matrix(6.123233995736766e-17,-1,1,6.123233995736766e-17,-0.0003676414490030311,483.01362466812134)">
		<path d="M477.043,219.205L378.575,48.677c-7.974-13.802-22.683-22.292-38.607-22.292H143.041c-15.923,0-30.628,8.49-38.608,22.292  L5.971,219.205c-7.961,13.801-7.961,30.785,0,44.588l98.462,170.543c7.98,13.802,22.685,22.293,38.608,22.293h196.926  c15.925,0,30.634-8.491,38.607-22.293l98.469-170.543C485.003,249.99,485.003,233.006,477.043,219.205z" fill="url(#grad1)" data-original="#000000" style="" class="" />
	</g>
	<g transform="scale(11) translate(6 6)">
		<g fill="#FFF">
			<path d="M10.871 10.904a1.707 1.707 0 00-.194 2.148 1.693 1.693 0 001.42.756 2.188 2.188 0 01-.001 4.377A6.086 6.086 0 017.819 7.767 6.084 6.084 0 0116 7.425a6.085 6.085 0 00-2.182 4.673 2.188 2.188 0 002.175 2.189 2.188 2.188 0 01-2.188-2.189 1.69 1.69 0 00-.29-.955 1.727 1.727 0 00-.754-.622 1.723 1.723 0 00-1.33 0 1.714 1.714 0 00-.56.383zm14.64 6.628a6.094 6.094 0 01-1.242 6.613 6.084 6.084 0 01-10.45-4.243 2.188 2.188 0 114.375 0 1.7 1.7 0 001.045 1.577c.43.18.913.178 1.341-.005a1.721 1.721 0 00.905-.918 1.717 1.717 0 00-.916-2.23 1.694 1.694 0 00-.665-.134 2.188 2.188 0 010-4.377 6.081 6.081 0 015.606 3.717z" />
			<path d="M15.994 17.714c1.208 0 2.188.98 2.188 2.188a6.085 6.085 0 01-10.467 4.226 6.087 6.087 0 014.381-10.313 2.188 2.188 0 010 4.377c-.34-.001-.672.1-.954.29a1.726 1.726 0 00-.622.755 1.71 1.71 0 00.346 1.852v.002a1.706 1.706 0 002.184.23 1.7 1.7 0 00.755-1.42c0-1.207.98-2.187 2.189-2.187zm9.326-8.396a6.09 6.09 0 01-5.417 8.868 2.189 2.189 0 010-4.378 1.71 1.71 0 001.577-1.045 1.721 1.721 0 00-.054-1.444 1.705 1.705 0 00-2.477-.64 1.698 1.698 0 00-.756 1.42 2.188 2.188 0 11-4.375-.001 6.085 6.085 0 019.717-4.886l.004.003a6.103 6.103 0 011.78 2.103z" opacity=".7" />
		</g>
	</g>
</svg>
