<?xml version="1.0"?>
<svg xmlns="http://www.w3.org/2000/svg" version="1.1" width="100" height="100" x="0" y="0" viewBox="0 0 483.013 483.013" xml:space="preserve">
	<defs>
		<linearGradient id="grad1" x1="0%" y1="0%" x2="100%" y2="0%">
			<stop offset="0%" style="stop-color:#23bee2;stop-opacity:1" />
			<stop offset="100%" style="stop-color:#64d1ea;stop-opacity:1" />
		</linearGradient>
	</defs>
	<g transform="matrix(6.123233995736766e-17,-1,1,6.123233995736766e-17,-0.0003676414490030311,483.01362466812134)">
		<path d="M477.043,219.205L378.575,48.677c-7.974-13.802-22.683-22.292-38.607-22.292H143.041c-15.923,0-30.628,8.49-38.608,22.292  L5.971,219.205c-7.961,13.801-7.961,30.785,0,44.588l98.462,170.543c7.98,13.802,22.685,22.293,38.608,22.293h196.926  c15.925,0,30.634-8.491,38.607-22.293l98.469-170.543C485.003,249.99,485.003,233.006,477.043,219.205z" fill="url(#grad1)" data-original="#000000" style="" class="" />
	</g>
	<g transform="scale(11) translate(6 6)">
		<path fill="#FFF" d="M19.879 13.469l3.239-3.412a9.225 9.225 0 012.153 5.938c0 5.117-4.15 9.266-9.271 9.266a9.232 9.232 0 01-4.468-1.147l8.238-4.246 1.342-.692-1.243-.859-.888-.614 2.59-1.322 1.288-.658-1.154-.872-1.826-1.382zm-7.758 5.534l-3.02 3.18a9.228 9.228 0 01-2.372-6.188c0-5.118 4.15-9.267 9.271-9.267a9.23 9.23 0 014.906 1.404l-8.676 4.472-1.342.693 1.243.858.888.614-2.59 1.323-1.288.657 1.154.873 1.826 1.381zM8.536 22.78l-.625.658A10.95 10.95 0 015 15.995C5 9.932 9.935 5 16 5c2.493 0 4.796.834 6.643 2.237l-.902.465A10.04 10.04 0 0016 5.906c-5.565 0-10.093 4.526-10.093 10.089 0 2.61.996 4.991 2.63 6.784zM23.684 9.46l.628-.66A10.944 10.944 0 0127 15.995c0 6.062-4.935 10.994-11 10.994a10.941 10.941 0 01-6.253-1.954l.924-.477A10.036 10.036 0 0016 26.083c5.565 0 10.093-4.526 10.093-10.088 0-2.49-.907-4.772-2.409-6.534zM10.842 16.9l3.941-2.013-2.137-1.476 11.83-6.098-5.953 6.268 2.635 1.993-3.941 2.013 2.137 1.476-11.83 6.098 5.953-6.268-2.635-1.993z" />
	</g>
</svg>
