<?xml version="1.0"?>
<svg xmlns="http://www.w3.org/2000/svg" version="1.1" width="100" height="100" x="0" y="0" viewBox="0 0 483.013 483.013" xml:space="preserve">
	<defs>
		<linearGradient id="grad1" x1="0%" y1="0%" x2="100%" y2="0%">
			<stop offset="0%" style="stop-color:#0f8ff8;stop-opacity:1" />
			<stop offset="100%" style="stop-color:#56b0fa;stop-opacity:1" />
		</linearGradient>
	</defs>
	<g transform="matrix(6.123233995736766e-17,-1,1,6.123233995736766e-17,-0.0003676414490030311,483.01362466812134)">
		<path d="M477.043,219.205L378.575,48.677c-7.974-13.802-22.683-22.292-38.607-22.292H143.041c-15.923,0-30.628,8.49-38.608,22.292  L5.971,219.205c-7.961,13.801-7.961,30.785,0,44.588l98.462,170.543c7.98,13.802,22.685,22.293,38.608,22.293h196.926  c15.925,0,30.634-8.491,38.607-22.293l98.469-170.543C485.003,249.99,485.003,233.006,477.043,219.205z" fill="url(#grad1)" data-original="#000000" style="" class="" />
	</g>
	<g transform="scale(11) translate(6 6)">
		<path d="M8 19.004L8.81 17h.857a16.279 16.279 0 01-.034-1.03c0-.448.019-.864.056-1.25H8l.81-2.003h1.274C11.27 8.906 13.944 7 18.103 7c1.367 0 2.666.177 3.897.532v2.524a8.92 8.92 0 00-3.683-.776c-2.493 0-4.096 1.146-4.81 3.438h7.423l-.81 2.003h-7.097a6.938 6.938 0 00-.056.995c0 .479.015.907.045 1.285h6.183l-.8 2.003H13.44c.533 1.389 1.183 2.355 1.949 2.9.765.544 1.858.816 3.277.816 1.014 0 2.125-.247 3.334-.741v2.373c-1.149.432-2.515.648-4.1.648-4.167 0-6.803-1.999-7.906-5.996z" fill="#fff" />
	</g>
</svg>
