<?xml version="1.0"?>
<svg xmlns="http://www.w3.org/2000/svg" version="1.1" width="100" height="100" x="0" y="0" viewBox="0 0 483.013 483.013" xml:space="preserve">
	<defs>
		<linearGradient id="grad1" x1="0%" y1="0%" x2="100%" y2="0%">
			<stop offset="0%" style="stop-color:#347ffb;stop-opacity:1" />
			<stop offset="100%" style="stop-color:#70a5fc;stop-opacity:1" />
		</linearGradient>
	</defs>
	<g transform="matrix(6.123233995736766e-17,-1,1,6.123233995736766e-17,-0.0003676414490030311,483.01362466812134)">
		<path d="M477.043,219.205L378.575,48.677c-7.974-13.802-22.683-22.292-38.607-22.292H143.041c-15.923,0-30.628,8.49-38.608,22.292  L5.971,219.205c-7.961,13.801-7.961,30.785,0,44.588l98.462,170.543c7.98,13.802,22.685,22.293,38.608,22.293h196.926  c15.925,0,30.634-8.491,38.607-22.293l98.469-170.543C485.003,249.99,485.003,233.006,477.043,219.205z" fill="url(#grad1)" data-original="#000000" style="" class="" />
	</g>
	<g transform="scale(11) translate(6 6)">
		<path fill="#FFF" d="M19.7 13.055l-2.869 7.75-.018.047-.526-1.055-1.1.5 2.885-7.797 1.1-.5.527 1.055zm7.18.183L24.012 21l-.527-1.058-1.1.5.067-.182 2.867-7.76 1.1-.5.525 1.055-.064.183zm-6.14 6.712l1.689-4.563-1.103.5-.524-1.057-1.694 4.562.525 1.058 1.107-.5zm-9.137-4.5H6.558l.86.8-.86.813h5.04l.856-.813-.851-.8zM5.86 18.833h8.155l-.857.807.857.805H5.86L5 19.64l.86-.808zm2.501-6.768h8.15l-.854.808.855.805h-8.15l-.86-.806.86-.807z" />
	</g>
</svg>
