<?xml version="1.0"?>
<svg xmlns="http://www.w3.org/2000/svg" version="1.1" width="100" height="100" x="0" y="0" viewBox="0 0 483.013 483.013" xml:space="preserve">
	<defs>
		<linearGradient id="grad1" x1="0%" y1="0%" x2="100%" y2="0%">
			<stop offset="0%" style="stop-color:#42c1ca;stop-opacity:1" />
			<stop offset="100%" style="stop-color:#7ad3d9;stop-opacity:1" />
		</linearGradient>
	</defs>
	<g transform="matrix(6.123233995736766e-17,-1,1,6.123233995736766e-17,-0.0003676414490030311,483.01362466812134)">
		<path d="M477.043,219.205L378.575,48.677c-7.974-13.802-22.683-22.292-38.607-22.292H143.041c-15.923,0-30.628,8.49-38.608,22.292  L5.971,219.205c-7.961,13.801-7.961,30.785,0,44.588l98.462,170.543c7.98,13.802,22.685,22.293,38.608,22.293h196.926  c15.925,0,30.634-8.491,38.607-22.293l98.469-170.543C485.003,249.99,485.003,233.006,477.043,219.205z" fill="url(#grad1)" data-original="#000000" style="" class="" />
	</g>
	<g transform="scale(11) translate(6 6)">
		<path fill="#FFF" d="M15.932 12.908c.372-1.563.82-2.968 1.296-3.885.175-.438.885-1.487 1.664-2.18 1.297-1.155 2.752-1.448 4.267-.497l-.133.211.133-.211c.773.485 1.083.984.947 1.454-.1.35-.483.63-.688.601-.3.03-.602-.03-.89-.242a1.685 1.685 0 01-.541-.721c-.212-.5-.49-.67-.831-.63-.247.028-.534.186-.625.292l-.235.26a3.894 3.894 0 00-.484.635c-.476.793-.915 2.246-1.524 5.257l4.036.591-.222 1.617-4.096-.6-.175 1.064-.045.266c-.024.138-.05.288-.08.448l4.136.606-.237 1.615-4.233-.62c-.489 2.078-1.133 4.305-1.588 5.184-.176.439-.885 1.486-1.664 2.18-1.297 1.154-2.752 1.448-4.267.497-.773-.485-1.083-.985-.947-1.455.1-.35.483-.629.688-.6.3-.03.602.03.89.241.222.164.406.402.541.722.212.499.49.67.831.63.247-.029.534-.187.625-.293.907-1.01 1.626-2.956 2.535-7.45l-4.036-.592.222-1.617 4.096.6.176-1.063a31.19 31.19 0 01.125-.715l-4.12-.603.236-1.615 4.217.618z" />
	</g>
</svg>
