<?xml version="1.0"?>
<svg xmlns="http://www.w3.org/2000/svg" version="1.1" width="100" height="100" x="0" y="0" viewBox="0 0 483.013 483.013" xml:space="preserve">
	<defs>
		<linearGradient id="grad1" x1="0%" y1="0%" x2="100%" y2="0%">
			<stop offset="0%" style="stop-color:#2080a2;stop-opacity:1" />
			<stop offset="100%" style="stop-color:#46b3da;stop-opacity:1" />
		</linearGradient>
	</defs>
	<g transform="matrix(6.123233995736766e-17,-1,1,6.123233995736766e-17,-0.0003676414490030311,483.01362466812134)">
		<path d="M477.043,219.205L378.575,48.677c-7.974-13.802-22.683-22.292-38.607-22.292H143.041c-15.923,0-30.628,8.49-38.608,22.292  L5.971,219.205c-7.961,13.801-7.961,30.785,0,44.588l98.462,170.543c7.98,13.802,22.685,22.293,38.608,22.293h196.926  c15.925,0,30.634-8.491,38.607-22.293l98.469-170.543C485.003,249.99,485.003,233.006,477.043,219.205z" fill="url(#grad1)" data-original="#000000" style="" class="" />
	</g>
	<g transform="scale(11) translate(6 6)">
		<path d="M15.98 20.297c-1.145 1.307-1.173 3.1.013 4.294 1.121-1.08 1.122-3.093-.013-4.294m.001-12.192c-2.705 3.128-2.603 6.826-.002 9.899 2.648-3.136 2.655-6.816.002-9.9m1.912 9.026c2.25-2.3 4.995-2.826 8.107-2.328-1.003 2.3-2.418 4.137-4.918 5.098.552-.433 1.055-.787 1.51-1.193.76-.677 1.298-1.497 1.567-2.482.085-.311-.025-.399-.311-.445-1.047-.168-2.03.052-2.969.48-1.58.72-2.867 1.829-4.074 3.034-.021.022-.03.054-.068.123 2.365.09 4.166 1.034 5.233 3.215-1.386.308-2.654.243-3.83-.513.886.272 1.77.47 2.74.01-.12-.2-.19-.434-.35-.565-.437-.357-.885-.718-1.38-.99-.765-.418-1.62-.614-2.566-.808 1.277 2.237.957 4.268-.604 6.234-.726-.915-1.234-1.872-1.373-3.002-.14-1.134.179-2.164.726-3.15-1.21-.194-3.821 1.207-4.225 2.287.937.474 1.851.258 2.792-.092-.676.696-2.625.981-3.896.562 1.055-2.15 2.847-3.097 5.265-3.187-.178-.18-.31-.319-.448-.452-1.006-.97-2.075-1.86-3.331-2.508-1.027-.53-2.104-.862-3.287-.685-.14.021-.279.055-.475.095.36 1.85 1.6 2.997 3.134 3.964C9.25 19.637 6.53 16.82 6 14.798c3.11-.504 5.87.048 8.11 2.399-1.853-4.127-.867-7.78 1.87-11.197 2.715 3.39 3.711 7.017 1.913 11.13" fill="#fff" />
	</g>
</svg>
