<?xml version="1.0"?>
<svg xmlns="http://www.w3.org/2000/svg" version="1.1" width="100" height="100" x="0" y="0" viewBox="0 0 483.013 483.013" xml:space="preserve">
	<defs>
		<linearGradient id="grad1" x1="0%" y1="0%" x2="100%" y2="0%">
			<stop offset="0%" style="stop-color:#1d9ad7;stop-opacity:1" />
			<stop offset="100%" style="stop-color:#5abae8;stop-opacity:1" />
		</linearGradient>
	</defs>
	<g transform="matrix(6.123233995736766e-17,-1,1,6.123233995736766e-17,-0.0003676414490030311,483.01362466812134)">
		<path d="M477.043,219.205L378.575,48.677c-7.974-13.802-22.683-22.292-38.607-22.292H143.041c-15.923,0-30.628,8.49-38.608,22.292  L5.971,219.205c-7.961,13.801-7.961,30.785,0,44.588l98.462,170.543c7.98,13.802,22.685,22.293,38.608,22.293h196.926  c15.925,0,30.634-8.491,38.607-22.293l98.469-170.543C485.003,249.99,485.003,233.006,477.043,219.205z" fill="url(#grad1)" data-original="#000000" style="" class="" />
	</g>
	<g transform="scale(11) translate(6 6)">
		<path fill="#FFF" d="M26 12.212c-1.009-1.054-3.082-1.936-6.948-2.477a59.901 59.901 0 00-3.67-.399c-.953-.057-1.878-.114-2.774-.114-1.485 2.22-2.886 4.897-4.119 8.114C7.144 20.866 5.94 24.34 5.1 27.5h-.252c.084-3.388.644-7.231 1.793-11.217.757-2.59 1.653-4.869 2.662-6.861-4.54.484-7.79 1.879-9.302 3.871 1.289-3.16 5.127-5.836 10.983-6.775 3.11-4.641 6.78-6.72 9.834-5.808 1.064.313 1.961.996 2.69 1.964-.085-.057-.169-.114-.28-.142-2.242-.911-5.268.398-8.21 3.644h.14c6.584-.028 9.918 2.762 10.843 6.036zm-8.237 4.27c1.793 0 3.25 1.509 3.25 3.36 0 1.85-1.457 3.359-3.25 3.359s-3.25-1.509-3.25-3.36c0-1.878 1.457-3.359 3.25-3.359z" />
	</g>
</svg>
