<?xml version="1.0"?>
<svg xmlns="http://www.w3.org/2000/svg" version="1.1" width="100" height="100" x="0" y="0" viewBox="0 0 483.013 483.013" xml:space="preserve">
	<defs>
		<linearGradient id="grad1" x1="0%" y1="0%" x2="100%" y2="0%">
			<stop offset="0%" style="stop-color:#27323a;stop-opacity:1" />
			<stop offset="100%" style="stop-color:#587184;stop-opacity:1" />
		</linearGradient>
	</defs>
	<g transform="matrix(6.123233995736766e-17,-1,1,6.123233995736766e-17,-0.0003676414490030311,483.01362466812134)">
		<path d="M477.043,219.205L378.575,48.677c-7.974-13.802-22.683-22.292-38.607-22.292H143.041c-15.923,0-30.628,8.49-38.608,22.292  L5.971,219.205c-7.961,13.801-7.961,30.785,0,44.588l98.462,170.543c7.98,13.802,22.685,22.293,38.608,22.293h196.926  c15.925,0,30.634-8.491,38.607-22.293l98.469-170.543C485.003,249.99,485.003,233.006,477.043,219.205z" fill="url(#grad1)" data-original="#000000" style="" class="" />
	</g>
	<g transform="scale(11) translate(6 6)">
		<path d="M24.603 6s1.647 1.464.478 4.443a5.53 5.53 0 01-.914 1.506l-4.065 4.77-3.262 4.258s-3.746-.616-5.202.895l6.174.274s-1.318 1.443-6.52.41c0 0 .07 1.448 2.429 1.86 0 0-2.083.689-3.332-1.307 0 0 0 1.448 1.456 2.064 0 0-1.18.274-2.152-.963L8.03 25.994s-.345.069-.138-.273l1.387-1.648s.138-1.169-.696-.758c0 0-.553.205-.346.826 0 0-.834-.684.139-1.579L6.5 20.704l2.428 1.305-1.041-2.543 1.732 2.201s-.144-2.474.622-3.159c0 0 .207 2.406 1.18 2.612l-.07-5.018 1.042-.894.138 3.158s.276.342.552-.068c0 0 .627-1.032.627-4.054l1.663-1.58.208 1.238s.281.479.627.068l.345-2.405s2.22-2.543 8.05-5.565zm-11.1 13.95c5.754-5.29 8.81-10.444 8.804-10.444-2.842 1.99-8.804 10.445-8.804 10.445z" fill="#fff" />
	</g>
</svg>
