<?xml version="1.0"?>
<svg xmlns="http://www.w3.org/2000/svg" version="1.1" width="100" height="100" x="0" y="0" viewBox="0 0 483.013 483.013" xml:space="preserve">
	<defs>
		<linearGradient id="grad1" x1="0%" y1="0%" x2="100%" y2="0%">
			<stop offset="0%" style="stop-color:#4096d0;stop-opacity:1" />
			<stop offset="100%" style="stop-color:#79b5de;stop-opacity:1" />
		</linearGradient>
	</defs>
	<g transform="matrix(6.123233995736766e-17,-1,1,6.123233995736766e-17,-0.0003676414490030311,483.01362466812134)">
		<path d="M477.043,219.205L378.575,48.677c-7.974-13.802-22.683-22.292-38.607-22.292H143.041c-15.923,0-30.628,8.49-38.608,22.292  L5.971,219.205c-7.961,13.801-7.961,30.785,0,44.588l98.462,170.543c7.98,13.802,22.685,22.293,38.608,22.293h196.926  c15.925,0,30.634-8.491,38.607-22.293l98.469-170.543C485.003,249.99,485.003,233.006,477.043,219.205z" fill="url(#grad1)" data-original="#000000" style="" class="" />
	</g>
	<g transform="scale(11) translate(6 6)">
		<path d="M25.532 10h-6.495l-1.926 4.83h-6.074v-2.487h6.074L18 10H8.802a.43.43 0 00-.432.427v4.402H6.89L6 17.171h2.37v4.397c0 .238.196.432.438.432h4.451l.889-2.341h-3.111V17.17h5.037L14.148 22h2.963l2.074-4.83h6.38c.24 0 .435-.192.435-.429v-6.28a.465.465 0 00-.468-.461zm-2.05 4.46c0 .204-.167.37-.374.37h-3.034l1.037-2.486h1.995a.373.373 0 01.377.368z" fill="#fff" />
	</g>
</svg>
