<?xml version="1.0"?>
<svg xmlns="http://www.w3.org/2000/svg" version="1.1" width="100" height="100" x="0" y="0" viewBox="0 0 483.013 483.013" xml:space="preserve">
	<defs>
		<linearGradient id="grad1" x1="0%" y1="0%" x2="100%" y2="0%">
			<stop offset="0%" style="stop-color:#ed1968;stop-opacity:1" />
			<stop offset="100%" style="stop-color:#f25e95;stop-opacity:1" />
		</linearGradient>
	</defs>
	<g transform="matrix(6.123233995736766e-17,-1,1,6.123233995736766e-17,-0.0003676414490030311,483.01362466812134)">
		<path d="M477.043,219.205L378.575,48.677c-7.974-13.802-22.683-22.292-38.607-22.292H143.041c-15.923,0-30.628,8.49-38.608,22.292  L5.971,219.205c-7.961,13.801-7.961,30.785,0,44.588l98.462,170.543c7.98,13.802,22.685,22.293,38.608,22.293h196.926  c15.925,0,30.634-8.491,38.607-22.293l98.469-170.543C485.003,249.99,485.003,233.006,477.043,219.205z" fill="url(#grad1)" data-original="#000000" style="" class="" />
	</g>
	<g transform="scale(11) translate(6 6)">
		<path d="M12.7 26.9a9.68 9.68 0 01-3.5-1.8 11.56 11.56 0 01-2.6-2.8A11.23 11.23 0 015 18.6a11.1 11.1 0 010-4.8A13.11 13.11 0 016.5 10a10.32 10.32 0 014.2-3.8 10.84 10.84 0 011.9-.8c1 1.2 2 2.5 3 3.8.1.2.3.3.4.5a7.7 7.7 0 00-2.9.7 6.84 6.84 0 00-2.1 1.7 8.42 8.42 0 00-1.3 2.5 6.17 6.17 0 00.1 3.3l4.3-3.4c1 1.3 2 2.5 3 3.8-1.4 1.1-2.9 2.2-4.3 3.4 1.4 1.8 2.9 3.7 4.3 5.6a10.68 10.68 0 01-4.4-.4zm9.53-12.114a6.17 6.17 0 00-.13-.486c-.135.106-3.11 2.38-4.3 3.4-1-1.3-2-2.5-3-3.8 1.4-1.1 2.9-2.2 4.3-3.4-1.4-1.8-2.8-3.6-4.3-5.5 0-.1-.1-.1-.1-.2h1.4a11 11 0 017 2.6 10.8 10.8 0 012.4 2.8 9.1 9.1 0 011.4 3.8 12.35 12.35 0 01-.1 4.7 9.88 9.88 0 01-1.6 3.6 10.73 10.73 0 01-2.5 2.7 8.77 8.77 0 01-3.3 1.8c-.9-1.1-1.7-2.1-2.5-3.2a7.63 7.63 0 01-.8-1.1 6.16 6.16 0 004.9-2.4 6.47 6.47 0 001.2-2.5c.186-.759.196-1.697.03-2.814zm-4.723 8.373a62.41 62.41 0 002.15 2.77 8.143 8.143 0 002.588-1.525 10.05 10.05 0 002.344-2.54 9.126 9.126 0 001.478-3.322c.314-1.452.345-2.951.09-4.446a8.392 8.392 0 00-1.301-3.512 10.063 10.063 0 00-2.24-2.611 10.246 10.246 0 00-6.427-2.422c.927 1.18 1.866 2.383 3.503 4.489l.44.564-.544.465a56.326 56.326 0 01-2.178 1.761c-.07.055-.92.708-1.558 1.202.263.335.568.717 1.034 1.3.46.575.765.958 1.028 1.293.464-.383.97-.785 1.576-1.255.098-.076 1.696-1.306 2.147-1.66l.856-.673.323 1.04a6.914 6.914 0 01.114 3.695 7.214 7.214 0 01-1.336 2.786 6.91 6.91 0 01-4.123 2.559l.036.042z" fill="#fff" fill-rule="nonzero" />
	</g>
</svg>
