<?xml version="1.0"?>
<svg xmlns="http://www.w3.org/2000/svg" version="1.1" width="100" height="100" x="0" y="0" viewBox="0 0 483.013 483.013" xml:space="preserve">
	<defs>
		<linearGradient id="grad1" x1="0%" y1="0%" x2="100%" y2="0%">
			<stop offset="0%" style="stop-color:#2d475b;stop-opacity:1" />
			<stop offset="100%" style="stop-color:#5281a6;stop-opacity:1" />
		</linearGradient>
	</defs>
	<g transform="matrix(6.123233995736766e-17,-1,1,6.123233995736766e-17,-0.0003676414490030311,483.01362466812134)">
		<path d="M477.043,219.205L378.575,48.677c-7.974-13.802-22.683-22.292-38.607-22.292H143.041c-15.923,0-30.628,8.49-38.608,22.292  L5.971,219.205c-7.961,13.801-7.961,30.785,0,44.588l98.462,170.543c7.98,13.802,22.685,22.293,38.608,22.293h196.926  c15.925,0,30.634-8.491,38.607-22.293l98.469-170.543C485.003,249.99,485.003,233.006,477.043,219.205z" fill="url(#grad1)" data-original="#000000" style="" class="" />
	</g>
	<g transform="scale(11) translate(6 6)">
		<path d="M12.869 12.685h11.085v2.488H12.869zm11.085 4.144H24v6.543s-8.647 6.265-15.363-.552c0 0-3.68-3.732-2.346-9.168 0 0 1.058-6.771 9.108-7.6 0 0 4.967-.692 8.187 2.994l-1.932 1.888s-4.094-4.238-9.567-.92c0 0-4.462 2.487-2.622 8.752 0 0 2.024 5.436 8.371 4.33 0 0 2.162-.492 3.266-1.444v-2.335H12.87v-2.488z" fill="#fff" fill-rule="nonzero" />
	</g>
</svg>
