<?xml version="1.0"?>
<svg xmlns="http://www.w3.org/2000/svg" version="1.1" width="100" height="100" x="0" y="0" viewBox="0 0 483.013 483.013" xml:space="preserve">
	<defs>
		<linearGradient id="grad1" x1="0%" y1="0%" x2="100%" y2="0%">
			<stop offset="0%" style="stop-color:#bc3fe0;stop-opacity:1" />
			<stop offset="100%" style="stop-color:#d078e9;stop-opacity:1" />
		</linearGradient>
	</defs>
	<g transform="matrix(6.123233995736766e-17,-1,1,6.123233995736766e-17,-0.0003676414490030311,483.01362466812134)">
		<path d="M477.043,219.205L378.575,48.677c-7.974-13.802-22.683-22.292-38.607-22.292H143.041c-15.923,0-30.628,8.49-38.608,22.292  L5.971,219.205c-7.961,13.801-7.961,30.785,0,44.588l98.462,170.543c7.98,13.802,22.685,22.293,38.608,22.293h196.926  c15.925,0,30.634-8.491,38.607-22.293l98.469-170.543C485.003,249.99,485.003,233.006,477.043,219.205z" fill="url(#grad1)" data-original="#000000" style="" class="" />
	</g>
	<g transform="scale(11) translate(6 6)">
		<path d="M11.087 14.815v-2.332c0-3.676 2.219-5.983 6.075-5.983 2.932 0 4.57 1.242 5.838 2.84l-2.483 1.9c-.951-1.165-1.85-1.85-3.328-1.85-1.77 0-2.827 1.217-2.827 3.17v2.255h6.578v2.637h-6.578v4.335h8.585V24.5H9v-1.977l2.087-.609v-4.462H9v-2.637z" fill="#fff" />
	</g>
</svg>
