<?xml version="1.0"?>
<svg xmlns="http://www.w3.org/2000/svg" version="1.1" width="100" height="100" x="0" y="0" viewBox="0 0 483.013 483.013" xml:space="preserve">
	<defs>
		<linearGradient id="grad1" x1="0%" y1="0%" x2="100%" y2="0%">
			<stop offset="0%" style="stop-color:#1666af;stop-opacity:1" />
			<stop offset="100%" style="stop-color:#3c95e6;stop-opacity:1" />
		</linearGradient>
	</defs>
	<g transform="matrix(6.123233995736766e-17,-1,1,6.123233995736766e-17,-0.0003676414490030311,483.01362466812134)">
		<path d="M477.043,219.205L378.575,48.677c-7.974-13.802-22.683-22.292-38.607-22.292H143.041c-15.923,0-30.628,8.49-38.608,22.292  L5.971,219.205c-7.961,13.801-7.961,30.785,0,44.588l98.462,170.543c7.98,13.802,22.685,22.293,38.608,22.293h196.926  c15.925,0,30.634-8.491,38.607-22.293l98.469-170.543C485.003,249.99,485.003,233.006,477.043,219.205z" fill="url(#grad1)" data-original="#000000" style="" class="" />
	</g>
	<g transform="scale(11) translate(6 6)">
		<path d="M15.699 11.006v2.06h-4.7c-.61 0-1.361.214-1.92.61-.693.492-1.08 1.229-1.08 2.327s.387 1.835 1.08 2.327c.559.396 1.31.61 1.92.61h2V21h-2a5.448 5.448 0 01-3.054-.973C6.717 19.155 6 17.789 6 16.003s.717-3.152 1.945-4.024a5.447 5.447 0 013.053-.973zm-5 6.182v-2.06h5V21H13.7v-3.812zM19 13.06V11h7v10h-9.002v-7.933h2v5.872H24v-5.878z" fill="#fff" fill-rule="nonzero" />
	</g>
</svg>
