<?xml version="1.0"?>
<svg xmlns="http://www.w3.org/2000/svg" version="1.1" width="100" height="100" x="0" y="0" viewBox="0 0 483.013 483.013" xml:space="preserve">
	<defs>
		<linearGradient id="grad1" x1="0%" y1="0%" x2="100%" y2="0%">
			<stop offset="0%" style="stop-color:#efb914;stop-opacity:1" />
			<stop offset="100%" style="stop-color:#f3cd5a;stop-opacity:1" />
		</linearGradient>
	</defs>
	<g transform="matrix(6.123233995736766e-17,-1,1,6.123233995736766e-17,-0.0003676414490030311,483.01362466812134)">
		<path d="M477.043,219.205L378.575,48.677c-7.974-13.802-22.683-22.292-38.607-22.292H143.041c-15.923,0-30.628,8.49-38.608,22.292  L5.971,219.205c-7.961,13.801-7.961,30.785,0,44.588l98.462,170.543c7.98,13.802,22.685,22.293,38.608,22.293h196.926  c15.925,0,30.634-8.491,38.607-22.293l98.469-170.543C485.003,249.99,485.003,233.006,477.043,219.205z" fill="url(#grad1)" data-original="#000000" style="" class="" />
	</g>
	<g transform="scale(11) translate(6 6)">
		<path d="M21.002 9.855A7.947 7.947 0 0124 15.278l-2.847-.708a5.357 5.357 0 00-3.86-3.667c-2.866-.713-5.76.991-6.465 3.806s1.05 5.675 3.917 6.388a5.373 5.373 0 005.134-1.43l2.847.707a7.974 7.974 0 01-5.2 3.385L16.716 27l-2.596-.645.644-2.575a8.28 8.28 0 01-1.298-.323l-.643 2.575-2.596-.646.81-3.241c-2.378-1.875-3.575-4.996-2.804-8.081s3.297-5.281 6.28-5.823L15.323 5l2.596.645-.644 2.575a8.28 8.28 0 011.298.323l.643-2.575 2.596.646z" fill="#fff" />
	</g>
</svg>
