<?xml version="1.0"?>
<svg xmlns="http://www.w3.org/2000/svg" version="1.1" width="100" height="100" x="0" y="0" viewBox="0 0 483.013 483.013" xml:space="preserve">
	<defs>
		<linearGradient id="grad1" x1="0%" y1="0%" x2="100%" y2="0%">
			<stop offset="0%" style="stop-color:#00a6c4;stop-opacity:1" />
			<stop offset="100%" style="stop-color:#23ddff;stop-opacity:1" />
		</linearGradient>
	</defs>
	<g transform="matrix(6.123233995736766e-17,-1,1,6.123233995736766e-17,-0.0003676414490030311,483.01362466812134)">
		<path d="M477.043,219.205L378.575,48.677c-7.974-13.802-22.683-22.292-38.607-22.292H143.041c-15.923,0-30.628,8.49-38.608,22.292  L5.971,219.205c-7.961,13.801-7.961,30.785,0,44.588l98.462,170.543c7.98,13.802,22.685,22.293,38.608,22.293h196.926  c15.925,0,30.634-8.491,38.607-22.293l98.469-170.543C485.003,249.99,485.003,233.006,477.043,219.205z" fill="url(#grad1)" data-original="#000000" style="" class="" />
	</g>
	<g transform="scale(11) translate(6 6)">
		<path fill="#FFF" fill-rule="nonzero" d="M24.777 10.5l.2.331a10.816 10.816 0 011.523 5.537C26.482 22.236 21.785 27 16 27h-.018c-5.785 0-10.5-4.801-10.482-10.669 0-1.968.544-3.881 1.541-5.537l.182-.312.961.975a3.78 3.78 0 00-.453.9 4.09 4.09 0 002.43 5.225 4.024 4.024 0 003.608-.46L16 19.403l2.557-2.594c.236.166.508.295.798.405 2.05.736 4.298-.35 5.023-2.41.435-1.214.236-2.483-.399-3.495l.798-.809zM9.363 12.652l3.01 3.035c-.363.295-.816.46-1.306.46-1.178 0-2.14-.975-2.14-2.17 0-.497.164-.957.436-1.325zm10.5 2.851l2.974-3.016c.236.35.362.772.362 1.214 0 1.195-.96 2.17-2.14 2.17-.453 0-.852-.129-1.196-.368zm-3.827 2.281l-8.668-8.83.344-.367C9.852 6.287 12.772 5 15.91 5h.018c3.174 0 6.22 1.38 8.342 3.77l.327.369-8.56 8.645zm-7.254-8.83l7.254 7.377L23.2 9.102c-1.922-1.95-4.533-3.072-7.253-3.072h-.019c-2.702 0-5.222 1.03-7.145 2.925z" />
	</g>
</svg>
