<?xml version="1.0"?>
<svg xmlns="http://www.w3.org/2000/svg" version="1.1" width="100" height="100" x="0" y="0" viewBox="0 0 483.013 483.013" xml:space="preserve">
	<defs>
		<linearGradient id="grad1" x1="0%" y1="0%" x2="100%" y2="0%">
			<stop offset="0%" style="stop-color:#001d57;stop-opacity:1" />
			<stop offset="100%" style="stop-color:#0047d5;stop-opacity:1" />
		</linearGradient>
	</defs>
	<g transform="matrix(6.123233995736766e-17,-1,1,6.123233995736766e-17,-0.0003676414490030311,483.01362466812134)">
		<path d="M477.043,219.205L378.575,48.677c-7.974-13.802-22.683-22.292-38.607-22.292H143.041c-15.923,0-30.628,8.49-38.608,22.292  L5.971,219.205c-7.961,13.801-7.961,30.785,0,44.588l98.462,170.543c7.98,13.802,22.685,22.293,38.608,22.293h196.926  c15.925,0,30.634-8.491,38.607-22.293l98.469-170.543C485.003,249.99,485.003,233.006,477.043,219.205z" fill="url(#grad1)" data-original="#000000" style="" class="" />
	</g>
	<g transform="scale(11) translate(6 6)">
		<path fill="#FFF" fill-rule="nonzero" d="M20.499 5.288l1.203 1.204-2.277 2.34c.48.73.738 1.591.738 2.479a4.448 4.448 0 01-1.258 3.131 4.183 4.183 0 01-2.217 1.226v2.039a4.273 4.273 0 012.213 1.22 4.451 4.451 0 011.262 3.136 4.451 4.451 0 01-1.262 3.135 4.262 4.262 0 01-3.07 1.302 4.24 4.24 0 01-3.07-1.302 4.474 4.474 0 01-1.261-3.135c0-1.18.448-2.299 1.258-3.132a4.183 4.183 0 012.217-1.225v-2.04a4.274 4.274 0 01-2.213-1.22A4.474 4.474 0 0111.5 11.31c0-1.18.448-2.299 1.262-3.135a4.262 4.262 0 013.07-1.303c.86 0 1.687.262 2.395.749L20.5 5.288zm-4.667 14.057a2.53 2.53 0 00-1.857.79 2.751 2.751 0 00-.775 1.928c0 .725.275 1.402.775 1.927a2.58 2.58 0 001.857.79 2.53 2.53 0 001.856-.79 2.751 2.751 0 00.775-1.927c0-.725-.275-1.402-.778-1.931a2.527 2.527 0 00-1.853-.787zm1.853-6.09a2.754 2.754 0 00.778-1.931 2.7 2.7 0 00-.775-1.928 2.578 2.578 0 00-1.856-.79 2.53 2.53 0 00-1.857.79 2.751 2.751 0 00-.775 1.928c0 .725.275 1.402.775 1.927a2.58 2.58 0 001.857.79c.711 0 1.367-.276 1.853-.786z" />
	</g>
</svg>
