<?xml version="1.0"?>
<svg xmlns="http://www.w3.org/2000/svg" version="1.1" width="100" height="100" x="0" y="0" viewBox="0 0 483.013 483.013" xml:space="preserve">
	<defs>
		<linearGradient id="grad1" x1="0%" y1="0%" x2="100%" y2="0%">
			<stop offset="0%" style="stop-color:#fff300;stop-opacity:1" />
			<stop offset="100%" style="stop-color:#fef64c;stop-opacity:1" />
		</linearGradient>
	</defs>
	<g transform="matrix(6.123233995736766e-17,-1,1,6.123233995736766e-17,-0.0003676414490030311,483.01362466812134)">
		<path d="M477.043,219.205L378.575,48.677c-7.974-13.802-22.683-22.292-38.607-22.292H143.041c-15.923,0-30.628,8.49-38.608,22.292  L5.971,219.205c-7.961,13.801-7.961,30.785,0,44.588l98.462,170.543c7.98,13.802,22.685,22.293,38.608,22.293h196.926  c15.925,0,30.634-8.491,38.607-22.293l98.469-170.543C485.003,249.99,485.003,233.006,477.043,219.205z" fill="url(#grad1)" data-original="#000000" style="" class="" />
	</g>
	<g transform="scale(11) translate(6 6)">
		<path d="M22.64 9.568c-.34-.761-.655-2.265-1.525-2.6-1.12-.43-1.811 2.388-1.976 3.1h-.167c-.282-1.22-.66-2.95-2-3.334-.62 2.605.648 5.414 1.834 7.669 1.266-.606 1.883-2.5 2-3.835h.167l1.334 4.001c1.073-.308 1.446-1.37 1.833-2.334.832-2.068 1.53-4.612 1-6.835-1.6.454-2.088 2.743-2.5 4.168zM6.636 14.903c1.432-.684 2.114-2.85 2.334-4.335h.166c.17.716.623 2.562 1.517 2.68 1.14.151 1.737-2.377 1.817-3.18h.167c.363 1.255.746 2.888 2 3.501.464-1.944-.09-4.017-.801-5.835-.183-.467-.558-1.728-1.203-1.728-1.056 0-1.65 2.784-1.83 3.562h-.166L9.303 5.567c-2.346 1.12-3.62 7.077-2.667 9.336zm-2.501 2c1.74 7.594 9.771 11.9 17.005 8.692a11.773 11.773 0 005.924-5.858c.311-.674.922-1.895.566-2.78-.355-.882-3.795.558-4.655.935a.387.387 0 00-.226.295.672.672 0 00.614.772l1.444.112c-2.615 5.062-9.686 7.3-14.67 3.256-1.116-.905-2.111-1.98-2.781-3.256-.324-.617-.625-1.406-1.175-1.83-.53-.406-1.332-.546-2.046-.338z" fill="#FFF" />
	</g>
</svg>
