<?xml version="1.0"?>
<svg xmlns="http://www.w3.org/2000/svg" version="1.1" width="100" height="100" x="0" y="0" viewBox="0 0 483.013 483.013" xml:space="preserve">
	<defs>
		<linearGradient id="grad1" x1="0%" y1="0%" x2="100%" y2="0%">
			<stop offset="0%" style="stop-color:#ff0060;stop-opacity:1" />
			<stop offset="100%" style="stop-color:#fe4c8f;stop-opacity:1" />
		</linearGradient>
	</defs>
	<g transform="matrix(6.123233995736766e-17,-1,1,6.123233995736766e-17,-0.0003676414490030311,483.01362466812134)">
		<path d="M477.043,219.205L378.575,48.677c-7.974-13.802-22.683-22.292-38.607-22.292H143.041c-15.923,0-30.628,8.49-38.608,22.292  L5.971,219.205c-7.961,13.801-7.961,30.785,0,44.588l98.462,170.543c7.98,13.802,22.685,22.293,38.608,22.293h196.926  c15.925,0,30.634-8.491,38.607-22.293l98.469-170.543C485.003,249.99,485.003,233.006,477.043,219.205z" fill="url(#grad1)" data-original="#000000" style="" class="" />
	</g>
	<g transform="scale(11) translate(6 6)">
		<path d="M25.07 12.047h-9.148a3.876 3.876 0 103.628 5.224h-3.628a1.022 1.022 0 01-1.023-1.023v-.124a1.022 1.022 0 011.023-1.023h6.047c.044.282.065.567.062.852a6.109 6.109 0 11-6.109-6.139l.187-.031c.039.018.08.028.124.031h5.426c2.961 0 4.17-1.581 4.17-3.814h-9.907C10.45 6 6.01 10.433 6 15.907c-.008 5.474 4.418 9.92 9.892 9.938 5.474.017 9.927-4.402 9.953-9.876v-3.132a.775.775 0 00-.775-.79z" fill="#FFF" />
	</g>
</svg>
