<?xml version="1.0"?>
<svg xmlns="http://www.w3.org/2000/svg" version="1.1" width="100" height="100" x="0" y="0" viewBox="0 0 483.013 483.013" xml:space="preserve">
	<defs>
		<linearGradient id="grad1" x1="0%" y1="0%" x2="100%" y2="0%">
			<stop offset="0%" style="stop-color:#37dcd8;stop-opacity:1" />
			<stop offset="100%" style="stop-color:#73e6e3;stop-opacity:1" />
		</linearGradient>
	</defs>
	<g transform="matrix(6.123233995736766e-17,-1,1,6.123233995736766e-17,-0.0003676414490030311,483.01362466812134)">
		<path d="M477.043,219.205L378.575,48.677c-7.974-13.802-22.683-22.292-38.607-22.292H143.041c-15.923,0-30.628,8.49-38.608,22.292  L5.971,219.205c-7.961,13.801-7.961,30.785,0,44.588l98.462,170.543c7.98,13.802,22.685,22.293,38.608,22.293h196.926  c15.925,0,30.634-8.491,38.607-22.293l98.469-170.543C485.003,249.99,485.003,233.006,477.043,219.205z" fill="url(#grad1)" data-original="#000000" style="" class="" />
	</g>
	<g transform="scale(11) translate(6 6)">
		<path fill="#FFF" d="M15.99 12.679l-2.784-2.804A32.574 32.574 0 0116 6a32.464 32.464 0 012.79 3.859l-2.8 2.82zm5.718 2.81c.786 2.202 1.939 4.404.84 6.518a7.503 7.503 0 01-3.112 3.135c-3.619 1.92-8.099.51-10.005-3.135-1.11-2.114.183-4.49.97-6.691.721-1.623 1.45-3.119 2.278-4.557l3.31 3.334 3.329-3.352c.875 1.514 1.631 3.072 2.39 4.749z" />
	</g>
</svg>
