<?xml version="1.0"?>
<svg xmlns="http://www.w3.org/2000/svg" version="1.1" width="100" height="100" x="0" y="0" viewBox="0 0 483.013 483.013" xml:space="preserve">
	<defs>
		<linearGradient id="grad1" x1="0%" y1="0%" x2="100%" y2="0%">
			<stop offset="0%" style="stop-color:#00dcfa;stop-opacity:1" />
			<stop offset="100%" style="stop-color:#48e9ff;stop-opacity:1" />
		</linearGradient>
	</defs>
	<g transform="matrix(6.123233995736766e-17,-1,1,6.123233995736766e-17,-0.0003676414490030311,483.01362466812134)">
		<path d="M477.043,219.205L378.575,48.677c-7.974-13.802-22.683-22.292-38.607-22.292H143.041c-15.923,0-30.628,8.49-38.608,22.292  L5.971,219.205c-7.961,13.801-7.961,30.785,0,44.588l98.462,170.543c7.98,13.802,22.685,22.293,38.608,22.293h196.926  c15.925,0,30.634-8.491,38.607-22.293l98.469-170.543C485.003,249.99,485.003,233.006,477.043,219.205z" fill="url(#grad1)" data-original="#000000" style="" class="" />
	</g>
	<g transform="scale(11) translate(6 6)">
		<path d="M19.378 5c-3.87 0-7.157 2.976-7.57 6.807C7.975 12.221 5 15.508 5 19.377A7.627 7.627 0 0012.622 27c3.87 0 7.17-2.976 7.57-6.807 3.832-.414 6.808-3.701 6.808-7.57A7.627 7.627 0 0019.378 5zm5.836 8.476a5.93 5.93 0 01-4.97 4.97v-4.97h4.97zM6.786 18.524a5.93 5.93 0 014.97-4.983v4.97h-4.97v.013zm11.673 1.72a5.895 5.895 0 01-5.837 5.035 5.894 5.894 0 01-5.836-5.034h11.673zm.065-6.768v5.035h-5.048v-5.035h5.048zm6.69-1.72H13.541a5.895 5.895 0 015.837-5.035 5.894 5.894 0 015.836 5.034z" fill="#FFF" />
	</g>
</svg>
