<?xml version="1.0"?>
<svg xmlns="http://www.w3.org/2000/svg" version="1.1" width="100" height="100" x="0" y="0" viewBox="0 0 483.013 483.013" xml:space="preserve">
	<defs>
		<linearGradient id="grad1" x1="0%" y1="0%" x2="100%" y2="0%">
			<stop offset="0%" style="stop-color:#16b9ad;stop-opacity:1" />
			<stop offset="100%" style="stop-color:#41e8dc;stop-opacity:1" />
		</linearGradient>
	</defs>
	<g transform="matrix(6.123233995736766e-17,-1,1,6.123233995736766e-17,-0.0003676414490030311,483.01362466812134)">
		<path d="M477.043,219.205L378.575,48.677c-7.974-13.802-22.683-22.292-38.607-22.292H143.041c-15.923,0-30.628,8.49-38.608,22.292  L5.971,219.205c-7.961,13.801-7.961,30.785,0,44.588l98.462,170.543c7.98,13.802,22.685,22.293,38.608,22.293h196.926  c15.925,0,30.634-8.491,38.607-22.293l98.469-170.543C485.003,249.99,485.003,233.006,477.043,219.205z" fill="url(#grad1)" data-original="#000000" style="" class="" />
	</g>
	<g transform="scale(11) translate(6 6)">
		<path d="M26 13.193C26 18.601 21.513 23 16 23S6 18.6 6 13.195c0-.398.024-.797.074-1.193H7.87c-.06.395-.09.794-.09 1.193 0 4.445 3.688 8.062 8.221 8.062 4.326 0 7.882-3.292 8.2-7.455H11.48c.27 1.944 1.803 3.488 3.777 3.807 1.975.318 3.93-.664 4.822-2.42h1.925c-.875 2.522-3.29 4.218-6.006 4.22-3.496 0-6.341-2.789-6.341-6.216 0-.4.04-.8.117-1.193h16.152c.05.396.074.794.074 1.193z" fill="#fff" fill-rule="nonzero" />
	</g>
</svg>
