<?xml version="1.0"?>
<svg xmlns="http://www.w3.org/2000/svg" version="1.1" width="100" height="100" x="0" y="0" viewBox="0 0 483.013 483.013" xml:space="preserve">
	<defs>
		<linearGradient id="grad1" x1="0%" y1="0%" x2="100%" y2="0%">
			<stop offset="0%" style="stop-color:#d59143;stop-opacity:1" />
			<stop offset="100%" style="stop-color:#e1b27b;stop-opacity:1" />
		</linearGradient>
	</defs>
	<g transform="matrix(6.123233995736766e-17,-1,1,6.123233995736766e-17,-0.0003676414490030311,483.01362466812134)">
		<path d="M477.043,219.205L378.575,48.677c-7.974-13.802-22.683-22.292-38.607-22.292H143.041c-15.923,0-30.628,8.49-38.608,22.292  L5.971,219.205c-7.961,13.801-7.961,30.785,0,44.588l98.462,170.543c7.98,13.802,22.685,22.293,38.608,22.293h196.926  c15.925,0,30.634-8.491,38.607-22.293l98.469-170.543C485.003,249.99,485.003,233.006,477.043,219.205z" fill="url(#grad1)" data-original="#000000" style="" class="" />
	</g>
	<g transform="scale(11) translate(6 6)">
		<path d="M7.973 16.453c-.518.412-.98 1.144-.957 2.263.017.774.433 1.304.957 1.664v1.382c0 .864.42 1.673 1.128 2.168l4.853 3.319V10.29l-5.981 1.75v4.413zm1.303-.408c1.007.737 1.007 5.116 1.007 5.116s-1.139-.11-2.08-.636c.776.261 1.399.203 1.67.233l.018.001h.004l.014.002.038.003.013.002h.013s.16-3.822-.997-4.492c-.188-.065-.52-.027-.886.09.466-.314.953-.42 1.186-.319zm5.097 6.904h3.263v4.306h-3.262V22.95zm-.74-12.98l-5.66 1.622V5.52a.51.51 0 01.87-.362l5.08 5.1-.29-.29zm.74 6.071h3.263v6.494h-3.262V16.04zm3.993-6.07l-.21.21 5-5.02a.51.51 0 01.871.36v6.07l-5.66-1.62zm-3.992.321h3.262v5.33h-3.262v-5.33zm9.653 6.162V12.04l-5.971-1.746v16.961l4.843-3.325a2.647 2.647 0 001.128-2.167V20.38c.524-.36.94-.89.957-1.664.024-1.119-.439-1.851-.957-2.263zm-1.96 4.374h.013l.012-.001.017-.002h.004l.035-.003h.002l.016-.002.149-.017h.007c.326-.042.726-.038 1.34-.23l.136-.045c-.942.526-2.08.636-2.08.636s0-4.378 1.007-5.115c.233-.102.72.004 1.185.32-.366-.117-.697-.155-.886-.09-1.157.669-.958 4.55-.958 4.55z" fill="#FFF" />
	</g>
</svg>
