<?xml version="1.0"?>
<svg xmlns="http://www.w3.org/2000/svg" version="1.1" width="100" height="100" x="0" y="0" viewBox="0 0 483.013 483.013" xml:space="preserve">
	<defs>
		<linearGradient id="grad1" x1="0%" y1="0%" x2="100%" y2="0%">
			<stop offset="0%" style="stop-color:#2a3069;stop-opacity:1" />
			<stop offset="100%" style="stop-color:#4953b6;stop-opacity:1" />
		</linearGradient>
	</defs>
	<g transform="matrix(6.123233995736766e-17,-1,1,6.123233995736766e-17,-0.0003676414490030311,483.01362466812134)">
		<path d="M477.043,219.205L378.575,48.677c-7.974-13.802-22.683-22.292-38.607-22.292H143.041c-15.923,0-30.628,8.49-38.608,22.292  L5.971,219.205c-7.961,13.801-7.961,30.785,0,44.588l98.462,170.543c7.98,13.802,22.685,22.293,38.608,22.293h196.926  c15.925,0,30.634-8.491,38.607-22.293l98.469-170.543C485.003,249.99,485.003,233.006,477.043,219.205z" fill="url(#grad1)" data-original="#000000" style="" class="" />
	</g>
	<g transform="scale(11) translate(6 6)">
		<g fill="#FFF">
			<path d="M18.347 10.533c0-3.52-1.707-6.506-2.987-7.466 0 0-.107-.107-.107.106-.106 6.72-3.52 8.534-5.333 11.094-4.373 5.653-.32 11.946 3.84 13.12 2.347.64-.533-1.174-.853-4.907-.534-4.693 5.44-8.107 5.44-11.947" />
			<path d="M20.587 12.88c-.214.853-1.067 2.667-2.24 4.373-3.947 5.654-1.707 8.427-.427 9.92.747.854 0 0 1.813-.853.107-.107 3.627-1.92 3.947-6.08.427-4.053-2.133-6.613-3.093-7.36" />
		</g>
	</g>
</svg>
