<?xml version="1.0"?>
<svg xmlns="http://www.w3.org/2000/svg" version="1.1" width="100" height="100" x="0" y="0" viewBox="0 0 483.013 483.013" xml:space="preserve">
	<defs>
		<linearGradient id="grad1" x1="0%" y1="0%" x2="100%" y2="0%">
			<stop offset="0%" style="stop-color:#cfa967;stop-opacity:1" />
			<stop offset="100%" style="stop-color:#ddc294;stop-opacity:1" />
		</linearGradient>
	</defs>
	<g transform="matrix(6.123233995736766e-17,-1,1,6.123233995736766e-17,-0.0003676414490030311,483.01362466812134)">
		<path d="M477.043,219.205L378.575,48.677c-7.974-13.802-22.683-22.292-38.607-22.292H143.041c-15.923,0-30.628,8.49-38.608,22.292  L5.971,219.205c-7.961,13.801-7.961,30.785,0,44.588l98.462,170.543c7.98,13.802,22.685,22.293,38.608,22.293h196.926  c15.925,0,30.634-8.491,38.607-22.293l98.469-170.543C485.003,249.99,485.003,233.006,477.043,219.205z" fill="url(#grad1)" data-original="#000000" style="" class="" />
	</g>
	<g transform="scale(11) translate(6 6)">
		<path d="M16.02 16.945v7.993l5.947-1.602 1.397-15.39H16.02v6.532l.304-.947h.796zm-7.384 7.524L7 6.5h18l-1.636 17.969L15.98 26.5zm5.163-6.793v-.741l-2.469-.984 2.47-.99v-.742l-3.527 1.433v.592zm7.933-1.432l-3.527 1.432v-.741l2.47-.987-2.47-.987v-.742l3.527 1.433zm-5.712.7v-2.466l-1.317 4.107h.788z" fill="#fff" fill-rule="nonzero" />
	</g>
</svg>
