<?xml version="1.0"?>
<svg xmlns="http://www.w3.org/2000/svg" version="1.1" width="100" height="100" x="0" y="0" viewBox="0 0 483.013 483.013" xml:space="preserve">
	<defs>
		<linearGradient id="grad1" x1="0%" y1="0%" x2="100%" y2="0%">
			<stop offset="0%" style="stop-color:#f9c011;stop-opacity:1" />
			<stop offset="100%" style="stop-color:#fad258;stop-opacity:1" />
		</linearGradient>
	</defs>
	<g transform="matrix(6.123233995736766e-17,-1,1,6.123233995736766e-17,-0.0003676414490030311,483.01362466812134)">
		<path d="M477.043,219.205L378.575,48.677c-7.974-13.802-22.683-22.292-38.607-22.292H143.041c-15.923,0-30.628,8.49-38.608,22.292  L5.971,219.205c-7.961,13.801-7.961,30.785,0,44.588l98.462,170.543c7.98,13.802,22.685,22.293,38.608,22.293h196.926  c15.925,0,30.634-8.491,38.607-22.293l98.469-170.543C485.003,249.99,485.003,233.006,477.043,219.205z" fill="url(#grad1)" data-original="#000000" style="" class="" />
	</g>
	<g transform="scale(11) translate(6 6)">
		<path d="M14.812 6c1.518.887 2.946 1.914 4.45 2.825l-5.544 9.671c-.736-1.291-1.426-2.608-2.153-3.906 1.047-2.875 2.243-5.7 3.247-8.59zM10 26c3.139-5.709 6.4-11.355 9.504-17.079.83 1.457 1.661 2.913 2.496 4.37-2.406 4.232-4.83 8.454-7.217 12.695-1.595 0-3.188-.02-4.783.014zm5.082-.023c1.33-2.275 2.583-4.59 3.93-6.855.803 1.027 1.618 2.048 2.415 3.08a613.917 613.917 0 01-6.345 3.775z" fill="#fff" fill-rule="nonzero" />
	</g>
</svg>
