<?xml version="1.0"?>
<svg xmlns="http://www.w3.org/2000/svg" version="1.1" width="100" height="100" x="0" y="0" viewBox="0 0 483.013 483.013" xml:space="preserve">
	<defs>
		<linearGradient id="grad1" x1="0%" y1="0%" x2="100%" y2="0%">
			<stop offset="0%" style="stop-color:#98c23a;stop-opacity:1" />
			<stop offset="100%" style="stop-color:#b7d573;stop-opacity:1" />
		</linearGradient>
	</defs>
	<g transform="matrix(6.123233995736766e-17,-1,1,6.123233995736766e-17,-0.0003676414490030311,483.01362466812134)">
		<path d="M477.043,219.205L378.575,48.677c-7.974-13.802-22.683-22.292-38.607-22.292H143.041c-15.923,0-30.628,8.49-38.608,22.292  L5.971,219.205c-7.961,13.801-7.961,30.785,0,44.588l98.462,170.543c7.98,13.802,22.685,22.293,38.608,22.293h196.926  c15.925,0,30.634-8.491,38.607-22.293l98.469-170.543C485.003,249.99,485.003,233.006,477.043,219.205z" fill="url(#grad1)" data-original="#000000" style="" class="" />
	</g>
	<g transform="scale(11) translate(6 6)">
		<path d="M15.79 4C9.279 4 4 9.279 4 15.79c0 6.511 5.279 11.79 11.79 11.79 6.511 0 11.79-5.279 11.79-11.79C27.569 9.283 22.297 4.011 15.79 4zm0 22c-5.632 0-10.198-4.565-10.2-10.197-.002-5.632 4.561-10.2 10.193-10.203 5.632-.004 10.201 4.558 10.207 10.19-.006 5.631-4.569 10.194-10.2 10.2V26zm-5.21-11.26h-1.9v-4.16c0-.78.37-1.17 1.11-1.17h4.12a1 1 0 011.15 1.17v4.16h-1.88v-3.7h-2.6v3.7zm2.6 1.22h1.9v5a1 1 0 01-1.15 1.16H9.79a1 1 0 01-1.1-1.18v-5h4.5l-.01.02zm7.8.07h1.92v5a1 1 0 01-1.16 1.16h-4.17a1 1 0 01-1.14-1.16V10.67A1 1 0 0117.6 9.5h4.1a1 1 0 011.2 1.17v3h-2v-2.54h-2.5v4.9h2.58z" fill="#FFF" />
	</g>
</svg>
