<?xml version="1.0"?>
<svg xmlns="http://www.w3.org/2000/svg" version="1.1" width="100" height="100" x="0" y="0" viewBox="0 0 483.013 483.013" xml:space="preserve">
	<defs>
		<linearGradient id="grad1" x1="0%" y1="0%" x2="100%" y2="0%">
			<stop offset="0%" style="stop-color:#57beea;stop-opacity:1" />
			<stop offset="100%" style="stop-color:#89d1f0;stop-opacity:1" />
		</linearGradient>
	</defs>
	<g transform="matrix(6.123233995736766e-17,-1,1,6.123233995736766e-17,-0.0003676414490030311,483.01362466812134)">
		<path d="M477.043,219.205L378.575,48.677c-7.974-13.802-22.683-22.292-38.607-22.292H143.041c-15.923,0-30.628,8.49-38.608,22.292  L5.971,219.205c-7.961,13.801-7.961,30.785,0,44.588l98.462,170.543c7.98,13.802,22.685,22.293,38.608,22.293h196.926  c15.925,0,30.634-8.491,38.607-22.293l98.469-170.543C485.003,249.99,485.003,233.006,477.043,219.205z" fill="url(#grad1)" data-original="#000000" style="" class="" />
	</g>
	<g transform="scale(11) translate(6 6)">
		<path d="M7.026 19.009A2.712 2.712 0 014 16.309a2.712 2.712 0 012.682-2.718c.96-4.41 4.87-7.711 9.546-7.711.873 0 1.72.115 2.525.33A2.7 2.7 0 0121.005 5a2.712 2.712 0 012.705 2.718c0 .469-.118.91-.326 1.294A9.809 9.809 0 0126 15.698a9.811 9.811 0 01-2.904 6.985c.326.448.518 1.001.518 1.599A2.712 2.712 0 0120.908 27a2.707 2.707 0 01-2.519-1.724 9.76 9.76 0 01-2.16.24c-4.241 0-7.851-2.714-9.203-6.507zm.49-.105c1.3 3.568 4.71 6.115 8.712 6.115.695 0 1.372-.077 2.023-.222a2.712 2.712 0 012.657-3.233c.72 0 1.376.283 1.86.744a9.314 9.314 0 002.737-6.61c0-2.41-.91-4.606-2.405-6.26-.496.61-1.25.999-2.095.999a2.712 2.712 0 01-2.706-2.719c0-.374.076-.731.212-1.056a9.253 9.253 0 00-2.283-.284c-4.416 0-8.112 3.101-9.047 7.255a2.715 2.715 0 012.23 2.676 2.718 2.718 0 01-1.896 2.595zm8.712-.484a2.715 2.715 0 01-2.708-2.722c0-1.503 1.212-2.721 2.708-2.721s2.709 1.218 2.709 2.721a2.715 2.715 0 01-2.709 2.722z" fill="#fff" fill-rule="nonzero" />
	</g>
</svg>
