<?xml version="1.0"?>
<svg xmlns="http://www.w3.org/2000/svg" version="1.1" width="100" height="100" x="0" y="0" viewBox="0 0 483.013 483.013" xml:space="preserve">
	<defs>
		<linearGradient id="grad1" x1="0%" y1="0%" x2="100%" y2="0%">
			<stop offset="0%" style="stop-color:#0cafa5;stop-opacity:1" />
			<stop offset="100%" style="stop-color:#2bf0e4;stop-opacity:1" />
		</linearGradient>
	</defs>
	<g transform="matrix(6.123233995736766e-17,-1,1,6.123233995736766e-17,-0.0003676414490030311,483.01362466812134)">
		<path d="M477.043,219.205L378.575,48.677c-7.974-13.802-22.683-22.292-38.607-22.292H143.041c-15.923,0-30.628,8.49-38.608,22.292  L5.971,219.205c-7.961,13.801-7.961,30.785,0,44.588l98.462,170.543c7.98,13.802,22.685,22.293,38.608,22.293h196.926  c15.925,0,30.634-8.491,38.607-22.293l98.469-170.543C485.003,249.99,485.003,233.006,477.043,219.205z" fill="url(#grad1)" data-original="#000000" style="" class="" />
	</g>
	<g transform="scale(11) translate(6 6)">
		<g fill="#FFF">
			<path d="M8.413 11.919c-.033-.02-.06-.004-.06.035v2.302a.134.134 0 00.06.105l2.91 1.682a.134.134 0 01.06.105v8.33a.135.135 0 00.062.105l1.993 1.15c.033.02.06.004.06-.035v-10.77a.134.134 0 00-.06-.106l-5.025-2.903zm15.174 0c.033-.02.06-.004.06.035v2.302a.134.134 0 01-.06.105l-2.91 1.68a.134.134 0 00-.06.106v8.33a.135.135 0 01-.061.106l-1.993 1.15c-.034.02-.061.004-.061-.035v-10.77a.135.135 0 01.06-.106l5.025-2.903z" />
			<path d="M23.98 7.503c0-.038-.027-.054-.06-.035l-7.86 4.546a.134.134 0 01-.12 0L8.08 7.468c-.034-.02-.061-.003-.061.035v2.302a.134.134 0 00.06.105l6.804 3.934a.135.135 0 01.06.105v14.285a.134.134 0 00.061.106l.935.54a.138.138 0 00.122 0l.935-.54a.134.134 0 00.06-.106V13.95a.135.135 0 01.061-.105L23.92 9.91a.134.134 0 00.06-.106v-2.3zm-7.944 5.816c-.008 0-.011-.006-.007-.013.004-.007.01-.007.014 0s0 .013-.007.013z" />
			<path d="M15.012 7.202a.088.088 0 00-.069.084v2.873a.135.135 0 00.061.105l.935.54c.038.02.083.02.122 0l.935-.54a.135.135 0 00.06-.105V7.285a.087.087 0 00-.068-.084l-.92-.169a.456.456 0 00-.137 0l-.919.17z" />
		</g>
	</g>
</svg>
