<?xml version="1.0"?>
<svg xmlns="http://www.w3.org/2000/svg" version="1.1" width="100" height="100" x="0" y="0" viewBox="0 0 483.013 483.013" xml:space="preserve">
	<defs>
		<linearGradient id="grad1" x1="0%" y1="0%" x2="100%" y2="0%">
			<stop offset="0%" style="stop-color:#1c1c1c;stop-opacity:1" />
			<stop offset="100%" style="stop-color:#606060;stop-opacity:1" />
		</linearGradient>
	</defs>
	<g transform="matrix(6.123233995736766e-17,-1,1,6.123233995736766e-17,-0.0003676414490030311,483.01362466812134)">
		<path d="M477.043,219.205L378.575,48.677c-7.974-13.802-22.683-22.292-38.607-22.292H143.041c-15.923,0-30.628,8.49-38.608,22.292  L5.971,219.205c-7.961,13.801-7.961,30.785,0,44.588l98.462,170.543c7.98,13.802,22.685,22.293,38.608,22.293h196.926  c15.925,0,30.634-8.491,38.607-22.293l98.469-170.543C485.003,249.99,485.003,233.006,477.043,219.205z" fill="url(#grad1)" data-original="#000000" style="" class="" />
	</g>
	<g transform="scale(11) translate(6 6)">
		<path d="M24.5 11v10L16 26l-8.5-5V11L16 6zm-8.768 5.407l-.79.467 1.476.862.785-.463 2.099 1.235-3.131 1.84-6.495-3.786-.027 1.843 6.526 3.79 6.27-3.687-3.674-2.162.74-.437-1.476-.862-.735.434-1.03-.606.901-.533-1.476-.863-.897.53-1.754-1.032 3.13-1.841 4.328 2.529 1.586-.938-5.917-3.438-6.27 3.688 3.329 1.959-.628.37 1.476.863.623-.368z" fill="#fff" fill-rule="nonzero" />
	</g>
</svg>
