<?xml version="1.0"?>
<svg xmlns="http://www.w3.org/2000/svg" version="1.1" width="100" height="100" x="0" y="0" viewBox="0 0 483.013 483.013" xml:space="preserve">
	<defs>
		<linearGradient id="grad1" x1="0%" y1="0%" x2="100%" y2="0%">
			<stop offset="0%" style="stop-color:#00d4d5;stop-opacity:1" />
			<stop offset="100%" style="stop-color:#2ffeff;stop-opacity:1" />
		</linearGradient>
	</defs>
	<g transform="matrix(6.123233995736766e-17,-1,1,6.123233995736766e-17,-0.0003676414490030311,483.01362466812134)">
		<path d="M477.043,219.205L378.575,48.677c-7.974-13.802-22.683-22.292-38.607-22.292H143.041c-15.923,0-30.628,8.49-38.608,22.292  L5.971,219.205c-7.961,13.801-7.961,30.785,0,44.588l98.462,170.543c7.98,13.802,22.685,22.293,38.608,22.293h196.926  c15.925,0,30.634-8.491,38.607-22.293l98.469-170.543C485.003,249.99,485.003,233.006,477.043,219.205z" fill="url(#grad1)" data-original="#000000" style="" class="" />
	</g>
	<g transform="scale(11) translate(6 6)">
		<g fill="#FFF">
			<path d="M16.519 5v5.457l4.738-2.725z" />
			<path opacity=".9" d="M21.257 7.732v5.457l4.737-2.732z" />
			<path opacity=".8" d="M16.519 10.457v5.457l4.738-2.725zm4.738 2.733v5.456l4.737-2.732z" />
			<path opacity=".8" d="M16.519 15.914v5.457l4.738-2.725z" />
			<path d="M21.257 18.646v5.457l4.737-2.732z" />
			<path opacity=".4" d="M4.273 10.273v5.457l4.738-2.732z" />
			<path opacity=".2" d="M10.25 12.302v5.457l4.73-2.725z" />
			<path opacity=".3" d="M6.738 15.753v5.457l4.737-2.732z" />
			<path opacity=".9" d="M9.86 19.871v5.457l4.73-2.732z" />
			<path opacity=".7" d="M16.48 22.22v5.458l4.73-2.733z" />
			<path opacity=".9" d="M11.039 9.607v5.458l4.73-2.725z" />
			<path opacity=".8" d="M16.519 5v5.457l-4.738-2.725z" />
			<path opacity=".6" d="M11.039 7.32v5.456L6.3 10.044z" />
			<path opacity=".6" d="M15.777 10.02v5.458l-4.738-2.733z" />
			<path opacity=".95" d="M10.228 12.302v5.457L5.49 15.034z" />
			<path opacity=".6" d="M16.519 15.914v5.457l-4.73-2.725z" />
			<path opacity=".55" d="M6.738 17.185v5.457L2 19.909z" />
			<path d="M25.994 10.457v5.457l-4.737-2.725z" />
			<path opacity=".95" d="M21.257 13.19v5.456l-4.738-2.732z" />
			<path opacity=".9" d="M25.994 15.914v5.457l-4.737-2.725z" />
			<path opacity=".7" d="M21.257 18.646v5.457l-4.738-2.732z" />
			<path opacity=".4" d="M15.47 20.92v5.457l-4.737-2.725z" />
			<path d="M21.257 7.732v5.457l-4.738-2.732z" />
		</g>
	</g>
</svg>
