<?xml version="1.0"?>
<svg xmlns="http://www.w3.org/2000/svg" version="1.1" width="100" height="100" x="0" y="0" viewBox="0 0 483.013 483.013" xml:space="preserve">
	<defs>
		<linearGradient id="grad1" x1="0%" y1="0%" x2="100%" y2="0%">
			<stop offset="0%" style="stop-color:#102044;stop-opacity:1" />
			<stop offset="100%" style="stop-color:#2850ab;stop-opacity:1" />
		</linearGradient>
	</defs>
	<g transform="matrix(6.123233995736766e-17,-1,1,6.123233995736766e-17,-0.0003676414490030311,483.01362466812134)">
		<path d="M477.043,219.205L378.575,48.677c-7.974-13.802-22.683-22.292-38.607-22.292H143.041c-15.923,0-30.628,8.49-38.608,22.292  L5.971,219.205c-7.961,13.801-7.961,30.785,0,44.588l98.462,170.543c7.98,13.802,22.685,22.293,38.608,22.293h196.926  c15.925,0,30.634-8.491,38.607-22.293l98.469-170.543C485.003,249.99,485.003,233.006,477.043,219.205z" fill="url(#grad1)" data-original="#000000" style="" class="" />
	</g>
	<g transform="scale(11) translate(6 6)">
		<path fill="#FFF" fill-rule="nonzero" d="M24.248 19.35c.45.173.748.601.752 1.08a1.15 1.15 0 01-.568.993 1.17 1.17 0 01-1.15.02l-6.03 3.29A1.159 1.159 0 0116.117 26a1.16 1.16 0 01-1.188-1.131l-2.94-1.683h-.067v-.035L8.824 21.38a1.154 1.154 0 01-.658.204 1.16 1.16 0 01-1.154-.993 1.154 1.154 0 01.832-1.271v-6.616a1.157 1.157 0 01-.84-1.013c-.04-.478.221-.931.658-1.138a1.17 1.17 0 011.306.207l5.97-3.42A1.16 1.16 0 0116.088 6a1.16 1.16 0 011.137 1.399l5.828 3.338c.213-.192.49-.298.779-.297a1.153 1.153 0 11.416 2.233v6.678zm-4.118-2.605v5.683l2.672-1.457a1.16 1.16 0 01.797-1.674v-6.57a1.16 1.16 0 01-.935-1.133c0-.106.015-.212.044-.315l-2.533-1.452v5.284h-.004l-.01.346-.143.067-.913.546.873.52.139.066.004.062.005.027h.004zm-4.04-8.436c-.332 0-.648-.14-.869-.387l-2.65 1.519v5.612l1.088.648 1.374-.808a1.025 1.025 0 011.012-1.217 1.025 1.025 0 011.016 1.177l1.419.844 1.052-.63V9.458l-2.614-1.497a1.157 1.157 0 01-.828.347zm.68 8.422l1.083-.652-1.088-.649a1.035 1.035 0 01-1.418.023l-1.07.621 1.065.635a1.035 1.035 0 011.428.022zm-7.528 4.147l2.68 1.536v-5.492l.005-.177.045-.045.224-.133.832-.488-.752-.444-.349-.178v-.213h-.004V9.809l-2.628 1.506c.155.6-.2 1.214-.8 1.385v6.624c.317.092.58.315.723.611.143.297.152.64.024.943zm6.848 2.793c.365 0 .708.17.926.462l2.47-1.35v-5.736l-1.006-.6-1.42.853c.01.05.014.1.014.15 0 .565-.46 1.022-1.03 1.022a1.025 1.025 0 01-1.01-1.203l-1.393-.826-1.074.626v5.714l2.525 1.447c.21-.348.589-.56.998-.559z" />
	</g>
</svg>
