<?xml version="1.0"?>
<svg xmlns="http://www.w3.org/2000/svg" version="1.1" width="100" height="100" x="0" y="0" viewBox="0 0 483.013 483.013" xml:space="preserve">
	<defs>
		<linearGradient id="grad1" x1="0%" y1="0%" x2="100%" y2="0%">
			<stop offset="0%" style="stop-color:#0050db;stop-opacity:1" />
			<stop offset="100%" style="stop-color:#337dff;stop-opacity:1" />
		</linearGradient>
	</defs>
	<g transform="matrix(6.123233995736766e-17,-1,1,6.123233995736766e-17,-0.0003676414490030311,483.01362466812134)">
		<path d="M477.043,219.205L378.575,48.677c-7.974-13.802-22.683-22.292-38.607-22.292H143.041c-15.923,0-30.628,8.49-38.608,22.292  L5.971,219.205c-7.961,13.801-7.961,30.785,0,44.588l98.462,170.543c7.98,13.802,22.685,22.293,38.608,22.293h196.926  c15.925,0,30.634-8.491,38.607-22.293l98.469-170.543C485.003,249.99,485.003,233.006,477.043,219.205z" fill="url(#grad1)" data-original="#000000" style="" class="" />
	</g>
	<g transform="scale(11) translate(6 6)">
		<path d="M16 26a3.626 3.626 0 01-1.844-.505l-5.306-3.12A3.785 3.785 0 017 19.114v-6.23a3.797 3.797 0 011.85-3.259l5.306-3.12A3.664 3.664 0 0116.008 6c.645 0 1.28.174 1.836.505l5.306 3.121A3.785 3.785 0 0125 12.885v6.23a3.797 3.797 0 01-1.85 3.26l-5.306 3.12c-.56.33-1.196.505-1.844.505zm-3.052-6.429l-.983 1a2.69 2.69 0 001.957.822c1.53-.002 2.772-1.264 2.774-2.823v-.852c.42.247.897.377 1.382.376a2.663 2.663 0 001.965-.812l-.982-1c-.26.266-.614.416-.983.416a1.397 1.397 0 01-1.382-1.407v-4.696h-1.382v7.984c0 .779-.62 1.41-1.385 1.41a1.37 1.37 0 01-.981-.418z" fill="#fff" fill-rule="nonzero" />
	</g>
</svg>
