<?xml version="1.0"?>
<svg xmlns="http://www.w3.org/2000/svg" version="1.1" width="100" height="100" x="0" y="0" viewBox="0 0 483.013 483.013" xml:space="preserve">
	<defs>
		<linearGradient id="grad1" x1="0%" y1="0%" x2="100%" y2="0%">
			<stop offset="0%" style="stop-color:#0093dd;stop-opacity:1" />
			<stop offset="100%" style="stop-color:#34bbff;stop-opacity:1" />
		</linearGradient>
	</defs>
	<g transform="matrix(6.123233995736766e-17,-1,1,6.123233995736766e-17,-0.0003676414490030311,483.01362466812134)">
		<path d="M477.043,219.205L378.575,48.677c-7.974-13.802-22.683-22.292-38.607-22.292H143.041c-15.923,0-30.628,8.49-38.608,22.292  L5.971,219.205c-7.961,13.801-7.961,30.785,0,44.588l98.462,170.543c7.98,13.802,22.685,22.293,38.608,22.293h196.926  c15.925,0,30.634-8.491,38.607-22.293l98.469-170.543C485.003,249.99,485.003,233.006,477.043,219.205z" fill="url(#grad1)" data-original="#000000" style="" class="" />
	</g>
	<g transform="scale(11) translate(6 6)">
		<path fill="#FFF" d="M13.54 16l5.174 5.33 3.265-3.363a1.446 1.446 0 012.088 0 1.554 1.554 0 010 2.152l-4.309 4.44a1.456 1.456 0 01-2.088 0l-6.216-6.406v3.808c0 .836-.666 1.522-1.477 1.522-.816 0-1.477-.682-1.477-1.522V10.04c0-.84.661-1.522 1.477-1.522.815 0 1.477.682 1.477 1.522v3.808l6.216-6.406a1.456 1.456 0 012.088 0l4.31 4.44a1.554 1.554 0 010 2.152 1.446 1.446 0 01-2.09 0l-3.264-3.364L13.54 16zm5.176-1.523c.816 0 1.478.682 1.478 1.523 0 .841-.662 1.523-1.478 1.523s-1.478-.682-1.478-1.523c0-.841.662-1.523 1.478-1.523z" />
	</g>
</svg>
