<?xml version="1.0"?>
<svg xmlns="http://www.w3.org/2000/svg" version="1.1" width="100" height="100" x="0" y="0" viewBox="0 0 483.013 483.013" xml:space="preserve">
	<defs>
		<linearGradient id="grad1" x1="0%" y1="0%" x2="100%" y2="0%">
			<stop offset="0%" style="stop-color:#2b6680;stop-opacity:1" />
			<stop offset="100%" style="stop-color:#4d9fc3;stop-opacity:1" />
		</linearGradient>
	</defs>
	<g transform="matrix(6.123233995736766e-17,-1,1,6.123233995736766e-17,-0.0003676414490030311,483.01362466812134)">
		<path d="M477.043,219.205L378.575,48.677c-7.974-13.802-22.683-22.292-38.607-22.292H143.041c-15.923,0-30.628,8.49-38.608,22.292  L5.971,219.205c-7.961,13.801-7.961,30.785,0,44.588l98.462,170.543c7.98,13.802,22.685,22.293,38.608,22.293h196.926  c15.925,0,30.634-8.491,38.607-22.293l98.469-170.543C485.003,249.99,485.003,233.006,477.043,219.205z" fill="url(#grad1)" data-original="#000000" style="" class="" />
	</g>
	<g transform="scale(4) translate(12 12)">
		<g fill="#fff">
			<path d="M15 48a33 33 0 1066 .127v-.253a33.175 33.175 0 00-.903-7.541 3.54 3.54 0 10-6.886 1.64 25.934 25.934 0 11-19.197-19.186 3.54 3.54 0 001.64-6.886A32.996 32.996 0 0015 48" />
			<path d="M64.68 23.862c-.048.045-.079.098-.124.146a5.218 5.218 0 00-1.402 3.12v.561c0 .13-.028.255-.042.384a9.425 9.425 0 01-12.235 8.053 12.14 12.14 0 00-11.148 2.91c-.12.112-.252.207-.37.325A12.21 12.21 0 0056.627 56.63c.505-.512.963-1.07 1.368-1.665a12.205 12.205 0 001.868-9.813 9.374 9.374 0 01-.18-.665c0-.033-.02-.064-.028-.098a9.428 9.428 0 018.397-11.515c.07 0 .138-.02.208-.022.199 0 .398-.023.597-.023h.048a5.224 5.224 0 003.224-1.517c.205-.212.392-.441.56-.684a5.26 5.26 0 00-8.007-6.762" />
		</g>
	</g>
</svg>
