<?xml version="1.0"?>
<svg xmlns="http://www.w3.org/2000/svg" version="1.1" width="100" height="100" x="0" y="0" viewBox="0 0 483.013 483.013" xml:space="preserve">
	<defs>
		<linearGradient id="grad1" x1="0%" y1="0%" x2="100%" y2="0%">
			<stop offset="0%" style="stop-color:#188c92;stop-opacity:1" />
			<stop offset="100%" style="stop-color:#32d4dd;stop-opacity:1" />
		</linearGradient>
	</defs>
	<g transform="matrix(6.123233995736766e-17,-1,1,6.123233995736766e-17,-0.0003676414490030311,483.01362466812134)">
		<path d="M477.043,219.205L378.575,48.677c-7.974-13.802-22.683-22.292-38.607-22.292H143.041c-15.923,0-30.628,8.49-38.608,22.292  L5.971,219.205c-7.961,13.801-7.961,30.785,0,44.588l98.462,170.543c7.98,13.802,22.685,22.293,38.608,22.293h196.926  c15.925,0,30.634-8.491,38.607-22.293l98.469-170.543C485.003,249.99,485.003,233.006,477.043,219.205z" fill="url(#grad1)" data-original="#000000" style="" class="" />
	</g>
	<g transform="scale(11) translate(6 6)">
		<path fill="#FFF" d="M21.836 21.03a.545.545 0 00-.038.56l-5.926 4.638a.592.592 0 00-.263-.118l-.18-11.416a.593.593 0 00.18-.07l6.227 6.407zm.166-.158L15.78 14.47a.546.546 0 00.087-.474l6.326-3.08a.58.58 0 00.323.199l-.315 9.678a.593.593 0 00-.198.08zm-6.74 5.277l-3.35-4.503a.55.55 0 00.155-.382.572.572 0 00-.528-.56l-1.046-9.467a.567.567 0 00.441-.546.548.548 0 00-.131-.355l4.205-4.513c.054.03.114.053.178.066v7.704a.568.568 0 00-.467.551.57.57 0 00.476.553l.18 11.416a.595.595 0 00-.112.036zm.158-12.556V5.89a.59.59 0 00.273-.134l6.427 4.575a.543.543 0 00-.034.386l-6.325 3.08a.588.588 0 00-.341-.203zM15.303 5c.193 0 .35.151.35.337a.344.344 0 01-.35.338.344.344 0 01-.35-.338c0-.186.156-.337.35-.337zm-4.953 5.354c.194 0 .35.15.35.337a.344.344 0 01-.35.338.344.344 0 01-.35-.338c0-.186.157-.337.35-.337zm1.133 10.572c.194 0 .35.151.35.338a.344.344 0 01-.35.337.344.344 0 01-.35-.337c0-.187.157-.338.35-.338zM22.65 10.23c.193 0 .35.151.35.337a.344.344 0 01-.35.338.344.344 0 01-.35-.338c0-.186.156-.337.35-.337zm-7.347 3.577c.193 0 .35.15.35.337a.344.344 0 01-.35.338.344.344 0 01-.35-.338c0-.186.156-.337.35-.337zm.198 12.518c.194 0 .35.151.35.338a.344.344 0 01-.35.337.344.344 0 01-.35-.337c0-.187.157-.338.35-.338zm6.822-5.32c.193 0 .35.151.35.338a.344.344 0 01-.35.337.344.344 0 01-.35-.337c0-.187.156-.338.35-.338z" />
	</g>
</svg>
