<?xml version="1.0"?>
<svg xmlns="http://www.w3.org/2000/svg" version="1.1" width="100" height="100" x="0" y="0" viewBox="0 0 483.013 483.013" xml:space="preserve">
	<defs>
		<linearGradient id="grad1" x1="0%" y1="0%" x2="100%" y2="0%">
			<stop offset="0%" style="stop-color:#00aeef;stop-opacity:1" />
			<stop offset="100%" style="stop-color:#41cbfe;stop-opacity:1" />
		</linearGradient>
	</defs>
	<g transform="matrix(6.123233995736766e-17,-1,1,6.123233995736766e-17,-0.0003676414490030311,483.01362466812134)">
		<path d="M477.043,219.205L378.575,48.677c-7.974-13.802-22.683-22.292-38.607-22.292H143.041c-15.923,0-30.628,8.49-38.608,22.292  L5.971,219.205c-7.961,13.801-7.961,30.785,0,44.588l98.462,170.543c7.98,13.802,22.685,22.293,38.608,22.293h196.926  c15.925,0,30.634-8.491,38.607-22.293l98.469-170.543C485.003,249.99,485.003,233.006,477.043,219.205z" fill="url(#grad1)" data-original="#000000" style="" class="" />
	</g>
	<g transform="scale(11) translate(6 6)">
		<path fill="#FFF" d="M15.76 14.706c.238-.041.448-.13.632-.265s.358-.363.521-.675l3.625-6.987c.142-.234.316-.42.516-.566a1.2 1.2 0 01.7-.213h2.299l-4.514 8.218c-.2.338-.427.613-.68.826a2.772 2.772 0 01-.851.483c.484.125.889.328 1.22.613.326.28.637.676.926 1.185L24.5 26h-2.53c-.511 0-.922-.275-1.232-.82l-3.562-7.351c-.184-.328-.384-.561-.6-.702-.215-.14-.489-.223-.815-.244v3.73h-1.989v-3.746H12.31V26H9.5V6h2.81v8.738h1.462v-4.322h1.989v4.29z" />
	</g>
</svg>
