<?xml version="1.0"?>
<svg xmlns="http://www.w3.org/2000/svg" version="1.1" width="100" height="100" x="0" y="0" viewBox="0 0 483.013 483.013" xml:space="preserve">
	<defs>
		<linearGradient id="grad1" x1="0%" y1="0%" x2="100%" y2="0%">
			<stop offset="0%" style="stop-color:#006149;stop-opacity:1" />
			<stop offset="100%" style="stop-color:#00dca6;stop-opacity:1" />
		</linearGradient>
	</defs>
	<g transform="matrix(6.123233995736766e-17,-1,1,6.123233995736766e-17,-0.0003676414490030311,483.01362466812134)">
		<path d="M477.043,219.205L378.575,48.677c-7.974-13.802-22.683-22.292-38.607-22.292H143.041c-15.923,0-30.628,8.49-38.608,22.292  L5.971,219.205c-7.961,13.801-7.961,30.785,0,44.588l98.462,170.543c7.98,13.802,22.685,22.293,38.608,22.293h196.926  c15.925,0,30.634-8.491,38.607-22.293l98.469-170.543C485.003,249.99,485.003,233.006,477.043,219.205z" fill="url(#grad1)" data-original="#000000" style="" class="" />
	</g>
	<g transform="scale(11) translate(6 6)">
		<path d="M24.176 17.184l-.797-.199.242-.97 2.485.621-.62 2.485-.971-.242.215-.862-8.872 5.493-9.839-4.916v-3.752l10.224-6.394 9.375 4.573v1.544l-9.759 6.063-7.247-3.593.444-.896 6.749 3.346 8.813-5.476v-.363L16.303 9.59 7.02 15.396v2.58l8.787 4.39z" fill="#fff" fill-rule="nonzero" />
	</g>
</svg>
