<?xml version="1.0"?>
<svg xmlns="http://www.w3.org/2000/svg" version="1.1" width="100" height="100" x="0" y="0" viewBox="0 0 483.013 483.013" xml:space="preserve">
	<defs>
		<linearGradient id="grad1" x1="0%" y1="0%" x2="100%" y2="0%">
			<stop offset="0%" style="stop-color:#48beff;stop-opacity:1" />
			<stop offset="100%" style="stop-color:#7ed1ff;stop-opacity:1" />
		</linearGradient>
	</defs>
	<g transform="matrix(6.123233995736766e-17,-1,1,6.123233995736766e-17,-0.0003676414490030311,483.01362466812134)">
		<path d="M477.043,219.205L378.575,48.677c-7.974-13.802-22.683-22.292-38.607-22.292H143.041c-15.923,0-30.628,8.49-38.608,22.292  L5.971,219.205c-7.961,13.801-7.961,30.785,0,44.588l98.462,170.543c7.98,13.802,22.685,22.293,38.608,22.293h196.926  c15.925,0,30.634-8.491,38.607-22.293l98.469-170.543C485.003,249.99,485.003,233.006,477.043,219.205z" fill="url(#grad1)" data-original="#000000" style="" class="" />
	</g>
	<g transform="scale(11) translate(6 6)">
		<g fill="#FFF">
			<path d="M22.194 26.239L5.81 14.744a4.247 4.247 0 010-6.953L9.78 5l16.386 11.494a4.247 4.247 0 010 6.953l-3.972 2.792zM9.776 6.863L6.683 9.027a2.729 2.729 0 000 4.473l15.514 10.877 3.094-2.164a2.729 2.729 0 000-4.473L9.776 6.863z" />
			<path d="M9.763 24.377l-3.09-2.167a2.729 2.729 0 010-4.473l8-5.583-1.32-.928-7.544 5.268a4.247 4.247 0 000 6.953l3.957 2.779 4.897-3.429-1.314-.926-3.586 2.506zM26.17 7.797L22.21 5.02l-4.9 3.429 1.314.925 3.58-2.505 3.09 2.167a2.729 2.729 0 010 4.473l-8 5.582 1.315.926 7.554-5.277a4.247 4.247 0 000-6.953l.008.01z" />
			<path d="M6.746 15.829l6.23-4.362.868 1.24-6.231 4.362zm17.75-1.758l-3.035 2.125.868 1.241 3.142-2.204c-.334-.382-.657-.772-.981-1.163l.006.001z" />
		</g>
	</g>
</svg>
