<?xml version="1.0"?>
<svg xmlns="http://www.w3.org/2000/svg" version="1.1" width="100" height="100" x="0" y="0" viewBox="0 0 483.013 483.013" xml:space="preserve">
	<defs>
		<linearGradient id="grad1" x1="0%" y1="0%" x2="100%" y2="0%">
			<stop offset="0%" style="stop-color:#0d4ea0;stop-opacity:1" />
			<stop offset="100%" style="stop-color:#247ded;stop-opacity:1" />
		</linearGradient>
	</defs>
	<g transform="matrix(6.123233995736766e-17,-1,1,6.123233995736766e-17,-0.0003676414490030311,483.01362466812134)">
		<path d="M477.043,219.205L378.575,48.677c-7.974-13.802-22.683-22.292-38.607-22.292H143.041c-15.923,0-30.628,8.49-38.608,22.292  L5.971,219.205c-7.961,13.801-7.961,30.785,0,44.588l98.462,170.543c7.98,13.802,22.685,22.293,38.608,22.293h196.926  c15.925,0,30.634-8.491,38.607-22.293l98.469-170.543C485.003,249.99,485.003,233.006,477.043,219.205z" fill="url(#grad1)" data-original="#000000" style="" class="" />
	</g>
	<g transform="scale(11) translate(6 6)">
		<path d="M14.249 24.958c-.014.014-.042.028-.056.042h-1.552c-.028 0-.042-.014-.056-.028L8.01 19.804a.09.09 0 010-.083l5.698-9.835c.028-.041.097-.041.125 0l1.594 2.758c.014.014.014.042 0 .07l-3.854 6.645c-.014.027 0 .055.014.083l2.301 2.591a.105.105 0 00.056.028h2.717c.07 0 .097.07.055.111zm1.69-18.916c.029-.056.098-.056.112 0l7.943 13.65c.014.029 0 .057-.014.084l-4.574 5.168a.105.105 0 01-.056.028h-3.715c-.07 0-.097-.07-.055-.111l2.481-2.814 2.329-2.619c.028-.028.028-.056.014-.083l-4.409-7.606-1.663-2.87c-.014-.013-.014-.041 0-.07z" fill="#fff" />
	</g>
</svg>
