<?xml version="1.0"?>
<svg xmlns="http://www.w3.org/2000/svg" version="1.1" width="100" height="100" x="0" y="0" viewBox="0 0 483.013 483.013" xml:space="preserve">
	<defs>
		<linearGradient id="grad1" x1="0%" y1="0%" x2="100%" y2="0%">
			<stop offset="0%" style="stop-color:#f55749;stop-opacity:1" />
			<stop offset="100%" style="stop-color:#f8897f;stop-opacity:1" />
		</linearGradient>
	</defs>
	<g transform="matrix(6.123233995736766e-17,-1,1,6.123233995736766e-17,-0.0003676414490030311,483.01362466812134)">
		<path d="M477.043,219.205L378.575,48.677c-7.974-13.802-22.683-22.292-38.607-22.292H143.041c-15.923,0-30.628,8.49-38.608,22.292  L5.971,219.205c-7.961,13.801-7.961,30.785,0,44.588l98.462,170.543c7.98,13.802,22.685,22.293,38.608,22.293h196.926  c15.925,0,30.634-8.491,38.607-22.293l98.469-170.543C485.003,249.99,485.003,233.006,477.043,219.205z" fill="url(#grad1)" data-original="#000000" style="" class="" />
	</g>
	<g transform="scale(11) translate(6 6)">
		<path d="M15.813 6.048a.381.381 0 01.372 0l8.225 4.618a.36.36 0 01.186.314c0 .13-.07.25-.185.314l-7.155 4.034a1.656 1.656 0 00-.973-.54v-2.193c.775-.129 1.366-.785 1.366-1.578 0-.885-.736-1.603-1.645-1.603s-1.645.718-1.645 1.603c0 .788.585 1.442 1.354 1.576v2.198a1.654 1.654 0 00-.96.536L7.599 11.31a.358.358 0 01-.001-.628l8.216-4.631m8.62 5.817a.379.379 0 01.372-.001.362.362 0 01.187.314L25 21.147c0 .13-.07.249-.186.314l-7.965 4.49c-.247.14-.557-.035-.557-.314l-.007-7.693c.386-.064.736-.261.987-.555l1.99 1.115a1.56 1.56 0 00-.037.628c.126.877.959 1.487 1.858 1.364.9-.124 1.526-.935 1.4-1.812s-.96-1.487-1.859-1.363a1.644 1.644 0 00-1.122.677l-1.95-1.093c.14-.371.13-.78-.025-1.145l6.908-3.894m-17.427.314c0-.212.178-.363.372-.363.065 0 .13.017.186.05l6.915 3.898c-.153.364-.161.77-.023 1.14l-1.949 1.093a1.645 1.645 0 00-1.122-.677c-.9-.124-1.731.487-1.858 1.363s.5 1.687 1.4 1.811 1.73-.487 1.858-1.363a1.56 1.56 0 00-.037-.629l1.989-1.115c.249.292.595.488.977.554l-.006 7.695c0 .279-.31.453-.558.313l-7.966-4.49A.36.36 0 017 21.146l.008-8.966" fill="#fff" />
	</g>
</svg>
