<?xml version="1.0"?>
<svg xmlns="http://www.w3.org/2000/svg" version="1.1" width="100" height="100" x="0" y="0" viewBox="0 0 483.013 483.013" xml:space="preserve">
	<defs>
		<linearGradient id="grad1" x1="0%" y1="0%" x2="100%" y2="0%">
			<stop offset="0%" style="stop-color:#103f68;stop-opacity:1" />
			<stop offset="100%" style="stop-color:#1f7ccd;stop-opacity:1" />
		</linearGradient>
	</defs>
	<g transform="matrix(6.123233995736766e-17,-1,1,6.123233995736766e-17,-0.0003676414490030311,483.01362466812134)">
		<path d="M477.043,219.205L378.575,48.677c-7.974-13.802-22.683-22.292-38.607-22.292H143.041c-15.923,0-30.628,8.49-38.608,22.292  L5.971,219.205c-7.961,13.801-7.961,30.785,0,44.588l98.462,170.543c7.98,13.802,22.685,22.293,38.608,22.293h196.926  c15.925,0,30.634-8.491,38.607-22.293l98.469-170.543C485.003,249.99,485.003,233.006,477.043,219.205z" fill="url(#grad1)" data-original="#000000" style="" class="" />
	</g>
	<g transform="scale(11) translate(6 6)">
		<path fill="#FFF" fill-rule="nonzero" d="M15.98 5.018l9.52 5.483v11L15.991 27l-.077-.019-9.414-5.48v-11l9.414-5.483h.066zm-.031 1.138L7.5 11.076v9.85l8.448 4.919 1.032-.597 7.52-4.325v-9.845l-7.52-4.35-1.031-.572zm-7.14 10.61l2.501-1.87 2.211 1.412v2.54l1.673 1.612-.001.756-1.612 1.51H12.22l-3.41-5.96zm7.903 4.452l-.003-.76 1.667-1.61v-2.54l2.187-1.43 2.496 1.889-3.393 5.942h-1.344l-1.61-1.491zm-2.37-4.91l-.814-2.131h4.838l-.798 2.131.236 2.382-1.867.004-1.845.003.25-2.389zm1.595-2.715l-4.598-.002.855-3.82h7.464l.9 3.825-4.621-.003z" />
	</g>
</svg>
