<?xml version="1.0"?>
<svg xmlns="http://www.w3.org/2000/svg" version="1.1" width="100" height="100" x="0" y="0" viewBox="0 0 483.013 483.013" xml:space="preserve">
	<defs>
		<linearGradient id="grad1" x1="0%" y1="0%" x2="100%" y2="0%">
			<stop offset="0%" style="stop-color:#01a64f;stop-opacity:1" />
			<stop offset="100%" style="stop-color:#10fd80;stop-opacity:1" />
		</linearGradient>
	</defs>
	<g transform="matrix(6.123233995736766e-17,-1,1,6.123233995736766e-17,-0.0003676414490030311,483.01362466812134)">
		<path d="M477.043,219.205L378.575,48.677c-7.974-13.802-22.683-22.292-38.607-22.292H143.041c-15.923,0-30.628,8.49-38.608,22.292  L5.971,219.205c-7.961,13.801-7.961,30.785,0,44.588l98.462,170.543c7.98,13.802,22.685,22.293,38.608,22.293h196.926  c15.925,0,30.634-8.491,38.607-22.293l98.469-170.543C485.003,249.99,485.003,233.006,477.043,219.205z" fill="url(#grad1)" data-original="#000000" style="" class="" />
	</g>
	<g transform="scale(11) translate(6 6)">
		<path d="M20.663 7.992c1.216 1.3 1.837 2.932 1.837 4.84 0 1.937-.621 3.57-1.838 4.87-.973 1.023-2.135 1.631-3.486 1.853v1.134h2.756v1.245h-2.784v.664h2.784v1.161h-2.756V26h-2.352v-2.24h-2.73v-1.162h2.757v-.664h-2.756v-1.245h2.73v-1.162c-1.325-.221-2.487-.83-3.46-1.853-1.243-1.3-1.865-2.933-1.865-4.869 0-1.964.595-3.596 1.838-4.869C12.58 6.636 14.122 6 16.014 6c1.865 0 3.405.636 4.649 1.992zm-2.541 7.386c.513-.664.784-1.522.784-2.573 0-1.023-.27-1.88-.838-2.545-.54-.691-1.243-1.023-2.054-1.023-.838 0-1.54.332-2.081.996-.542.664-.812 1.493-.812 2.545 0 1.078.271 1.936.812 2.6s1.243.996 2.08.996c.866 0 1.595-.332 2.109-.996z" fill="#fff" />
	</g>
</svg>
