<?xml version="1.0"?>
<svg xmlns="http://www.w3.org/2000/svg" version="1.1" width="100" height="100" x="0" y="0" viewBox="0 0 483.013 483.013" xml:space="preserve">
	<defs>
		<linearGradient id="grad1" x1="0%" y1="0%" x2="100%" y2="0%">
			<stop offset="0%" style="stop-color:#1e252c;stop-opacity:1" />
			<stop offset="100%" style="stop-color:#536679;stop-opacity:1" />
		</linearGradient>
	</defs>
	<g transform="matrix(6.123233995736766e-17,-1,1,6.123233995736766e-17,-0.0003676414490030311,483.01362466812134)">
		<path d="M477.043,219.205L378.575,48.677c-7.974-13.802-22.683-22.292-38.607-22.292H143.041c-15.923,0-30.628,8.49-38.608,22.292  L5.971,219.205c-7.961,13.801-7.961,30.785,0,44.588l98.462,170.543c7.98,13.802,22.685,22.293,38.608,22.293h196.926  c15.925,0,30.634-8.491,38.607-22.293l98.469-170.543C485.003,249.99,485.003,233.006,477.043,219.205z" fill="url(#grad1)" data-original="#000000" style="" class="" />
	</g>
	<g transform="scale(11) translate(6 6)">
		<path d="M14.22 15.589a1.507 1.507 0 110-3.014 1.507 1.507 0 010 3.014zm3.698 0a1.507 1.507 0 110-3.014 1.507 1.507 0 010 3.014zm-3.699 3.699a1.507 1.507 0 110-3.014 1.507 1.507 0 010 3.014zm3.699 0a1.507 1.507 0 110-3.014 1.507 1.507 0 010 3.014zm3.698-4.11a1.096 1.096 0 110-2.192 1.096 1.096 0 010 2.192zm0 3.699a1.096 1.096 0 110-2.192 1.096 1.096 0 010 2.192zm-11.232-3.699a1.096 1.096 0 110-2.192 1.096 1.096 0 010 2.192zm0 3.699a1.096 1.096 0 110-2.192 1.096 1.096 0 010 2.192zm3.835 3.698a1.096 1.096 0 110-2.191 1.096 1.096 0 010 2.191zm3.699 0a1.096 1.096 0 110-2.191 1.096 1.096 0 010 2.191zM14.219 11.48a1.096 1.096 0 110-2.191 1.096 1.096 0 010 2.191zm3.699 0a1.096 1.096 0 110-2.191 1.096 1.096 0 010 2.191zm-3.699-4.11a.685.685 0 110-1.369.685.685 0 010 1.37zm3.699 0a.685.685 0 110-1.369.685.685 0 010 1.37zm7.397 7.398a.685.685 0 110-1.37.685.685 0 010 1.37zm0 3.699a.685.685 0 110-1.37.685.685 0 010 1.37zm-18.63-3.699a.685.685 0 110-1.37.685.685 0 010 1.37zm0 3.699a.685.685 0 110-1.37.685.685 0 010 1.37zM14.219 26a.685.685 0 110-1.37.685.685 0 010 1.37zm3.699 0a.685.685 0 110-1.37.685.685 0 010 1.37z" fill="#fff" fill-rule="nonzero" />
	</g>
</svg>
