<?xml version="1.0"?>
<svg xmlns="http://www.w3.org/2000/svg" version="1.1" width="100" height="100" x="0" y="0" viewBox="0 0 483.013 483.013" xml:space="preserve">
	<defs>
		<linearGradient id="grad1" x1="0%" y1="0%" x2="100%" y2="0%">
			<stop offset="0%" style="stop-color:#00b0ff;stop-opacity:1" />
			<stop offset="100%" style="stop-color:#4cc7fe;stop-opacity:1" />
		</linearGradient>
	</defs>
	<g transform="matrix(6.123233995736766e-17,-1,1,6.123233995736766e-17,-0.0003676414490030311,483.01362466812134)">
		<path d="M477.043,219.205L378.575,48.677c-7.974-13.802-22.683-22.292-38.607-22.292H143.041c-15.923,0-30.628,8.49-38.608,22.292  L5.971,219.205c-7.961,13.801-7.961,30.785,0,44.588l98.462,170.543c7.98,13.802,22.685,22.293,38.608,22.293h196.926  c15.925,0,30.634-8.491,38.607-22.293l98.469-170.543C485.003,249.99,485.003,233.006,477.043,219.205z" fill="url(#grad1)" data-original="#000000" style="" class="" />
	</g>
	<g transform="scale(11) translate(6 6)">
		<path fill="#FFF" fill-rule="nonzero" d="M24 12.061v8.915l-2.536 1.48v-5.95L16 19.776l-5.464-3.273v5.953L8 20.976V12.06l8 4.805 8-4.805zm-7.97 11.117l2.34-1.399 2.31 1.399L16.03 26l-4.648-2.822 2.31-1.399 2.339 1.399zm4.62-14.356l-2.311 1.399L16 8.822l-2.339 1.399-2.31-1.399L16 6l4.65 2.822z" />
	</g>
</svg>
