<?xml version="1.0"?>
<svg xmlns="http://www.w3.org/2000/svg" version="1.1" width="100" height="100" x="0" y="0" viewBox="0 0 483.013 483.013" xml:space="preserve">
	<defs>
		<linearGradient id="grad1" x1="0%" y1="0%" x2="100%" y2="0%">
			<stop offset="0%" style="stop-color:#000;stop-opacity:1" />
			<stop offset="100%" style="stop-color:#4c4c4c;stop-opacity:1" />
		</linearGradient>
	</defs>
	<g transform="matrix(6.123233995736766e-17,-1,1,6.123233995736766e-17,-0.0003676414490030311,483.01362466812134)">
		<path d="M477.043,219.205L378.575,48.677c-7.974-13.802-22.683-22.292-38.607-22.292H143.041c-15.923,0-30.628,8.49-38.608,22.292  L5.971,219.205c-7.961,13.801-7.961,30.785,0,44.588l98.462,170.543c7.98,13.802,22.685,22.293,38.608,22.293h196.926  c15.925,0,30.634-8.491,38.607-22.293l98.469-170.543C485.003,249.99,485.003,233.006,477.043,219.205z" fill="url(#grad1)" data-original="#000000" style="" class="" />
	</g>
	<g transform="scale(11) translate(6 6)">
		<g fill="#FFF">
			<path fill-opacity=".703" d="M8.673 22.007l6.956 4.376h.842l6.844-4.376-1.066-.841-6.227 3.983-6.451-3.983zm3.366-10.153l3.927-5.947 4.039 6.003.954-.842-4.488-6.731s-.393-.505-1.01 0l-4.6 6.9 1.178.617z" />
			<path d="M16.078 23.859c.224-.786.505-1.515.73-2.3 1.01-3.142 2.019-6.34 3.029-9.481.056-.168.112-.393.168-.56.112-.338.28-.506.617-.506a.61.61 0 01.617.505c.28 1.122.505 2.3.785 3.422.505 2.132.954 4.32 1.459 6.451.112.505-.056.842-.449.954-.393.112-.673-.168-.785-.673-.561-2.412-1.122-4.825-1.627-7.293 0-.112-.056-.168-.112-.337a3.714 3.714 0 01-.169.45c-1.065 3.253-2.075 6.507-3.141 9.76-.168.617-.393 1.178-.561 1.795-.112.393-.337.561-.673.561-.337 0-.561-.168-.673-.56-1.234-3.871-2.469-7.742-3.647-11.613-.056-.112-.056-.168-.112-.393a32.883 32.883 0 01-.336 1.515c-.45 2.02-.898 4.095-1.347 6.115-.112.56-.56.841-1.01.56-.28-.168-.336-.448-.28-.785.617-2.805 1.29-5.61 1.907-8.414.112-.45.225-.898.28-1.347.113-.448.337-.673.674-.673s.56.225.673.673c1.29 4.04 2.58 8.135 3.815 12.174h.168z" />
		</g>
	</g>
</svg>
