<?xml version="1.0"?>
<svg xmlns="http://www.w3.org/2000/svg" version="1.1" width="100" height="100" x="0" y="0" viewBox="0 0 483.013 483.013" xml:space="preserve">
	<defs>
		<linearGradient id="grad1" x1="0%" y1="0%" x2="100%" y2="0%">
			<stop offset="0%" style="stop-color:#da1157;stop-opacity:1" />
			<stop offset="100%" style="stop-color:#f14c85;stop-opacity:1" />
		</linearGradient>
	</defs>
	<g transform="matrix(6.123233995736766e-17,-1,1,6.123233995736766e-17,-0.0003676414490030311,483.01362466812134)">
		<path d="M477.043,219.205L378.575,48.677c-7.974-13.802-22.683-22.292-38.607-22.292H143.041c-15.923,0-30.628,8.49-38.608,22.292  L5.971,219.205c-7.961,13.801-7.961,30.785,0,44.588l98.462,170.543c7.98,13.802,22.685,22.293,38.608,22.293h196.926  c15.925,0,30.634-8.491,38.607-22.293l98.469-170.543C485.003,249.99,485.003,233.006,477.043,219.205z" fill="url(#grad1)" data-original="#000000" style="" class="" />
	</g>
	<g transform="scale(11) translate(6 6)">
		<path d="M20.985 19.168a3.026 3.026 0 100-6.052 3.026 3.026 0 000 6.052zm0-10.005a6.98 6.98 0 11-5.003 11.843 6.955 6.955 0 001.977-4.864 6.954 6.954 0 00-1.977-4.864 6.957 6.957 0 015.003-2.115zM10.98 19.168a3.026 3.026 0 100-6.052 3.026 3.026 0 000 6.052zm5.003-7.89a6.955 6.955 0 00-1.976 4.864c0 1.892.754 3.607 1.976 4.864a6.98 6.98 0 110-9.728zm-1.977 4.865c0 1.892.754 3.607 1.977 4.864a6.954 6.954 0 001.976-4.864 6.954 6.954 0 00-1.976-4.864 6.954 6.954 0 00-1.977 4.864z" fill="#FFF" />
	</g>
</svg>
