<?xml version="1.0"?>
<svg xmlns="http://www.w3.org/2000/svg" version="1.1" width="100" height="100" x="0" y="0" viewBox="0 0 483.013 483.013" xml:space="preserve">
	<defs>
		<linearGradient id="grad1" x1="0%" y1="0%" x2="100%" y2="0%">
			<stop offset="0%" style="stop-color:#0b1529;stop-opacity:1" />
			<stop offset="100%" style="stop-color:#284c95;stop-opacity:1" />
		</linearGradient>
	</defs>
	<g transform="matrix(6.123233995736766e-17,-1,1,6.123233995736766e-17,-0.0003676414490030311,483.01362466812134)">
		<path d="M477.043,219.205L378.575,48.677c-7.974-13.802-22.683-22.292-38.607-22.292H143.041c-15.923,0-30.628,8.49-38.608,22.292  L5.971,219.205c-7.961,13.801-7.961,30.785,0,44.588l98.462,170.543c7.98,13.802,22.685,22.293,38.608,22.293h196.926  c15.925,0,30.634-8.491,38.607-22.293l98.469-170.543C485.003,249.99,485.003,233.006,477.043,219.205z" fill="url(#grad1)" data-original="#000000" style="" class="" />
	</g>
	<g transform="scale(11) translate(6 6)">
		<path fill="#FFF" d="M8.627 20.124l5.272 3.092v1.729L7 20.885v-10.59L16 5l9 5.295v10.59l-6.899 4.06v-1.73l5.271-3.091-1.36-.786.178-.309 1.343.776v-7.852l-6.82 4.042v11.56L16 28l-.714-.445v-11.56l-6.819-4.042v7.851l1.342-.775.178.31-1.36.785zm7.175-13.31L9.18 10.699 16 14.742l6.82-4.043-6.661-3.908v1.604h-.357V6.814zm0 2.592h.357v1.657h-.357V9.406zm0 2.668h.357v1.657l-.179.081-.178-.08v-1.658zm5.56 6.45l-.178.31-1.436-.83.179-.309 1.435.83zm-2.265-1.334l-.179.31-1.435-.83.02-.194.158-.114 1.436.828zm-8.46 1.334l1.435-.829.179.31-1.435.828-.179-.309zm2.266-1.334l1.435-.828.16.114.018.195-1.435.828-.178-.309z" />
	</g>
</svg>
