<?xml version="1.0"?>
<svg xmlns="http://www.w3.org/2000/svg" version="1.1" width="100" height="100" x="0" y="0" viewBox="0 0 483.013 483.013" xml:space="preserve">
	<defs>
		<linearGradient id="grad1" x1="0%" y1="0%" x2="100%" y2="0%">
			<stop offset="0%" style="stop-color:#00adef;stop-opacity:1" />
			<stop offset="100%" style="stop-color:#41cafe;stop-opacity:1" />
		</linearGradient>
	</defs>
	<g transform="matrix(6.123233995736766e-17,-1,1,6.123233995736766e-17,-0.0003676414490030311,483.01362466812134)">
		<path d="M477.043,219.205L378.575,48.677c-7.974-13.802-22.683-22.292-38.607-22.292H143.041c-15.923,0-30.628,8.49-38.608,22.292  L5.971,219.205c-7.961,13.801-7.961,30.785,0,44.588l98.462,170.543c7.98,13.802,22.685,22.293,38.608,22.293h196.926  c15.925,0,30.634-8.491,38.607-22.293l98.469-170.543C485.003,249.99,485.003,233.006,477.043,219.205z" fill="url(#grad1)" data-original="#000000" style="" class="" />
	</g>
	<g transform="scale(11) translate(6 6)">
		<path fill="#FFF" d="M14.863 26.986C9.32 26.405 5 21.708 5 16c0-5.708 4.32-10.405 9.863-10.986v3.37A7.7 7.7 0 008.336 16a7.7 7.7 0 006.527 7.616v3.37zM17.038 5c5.23.479 9.403 4.617 9.948 9.837h-3.363a7.7 7.7 0 00-6.585-6.474V5zM27 17.017c-.482 5.29-4.684 9.5-9.962 9.983v-3.363a7.7 7.7 0 006.606-6.62H27z" />
	</g>
</svg>
