<?xml version="1.0"?>
<svg xmlns="http://www.w3.org/2000/svg" version="1.1" width="100" height="100" x="0" y="0" viewBox="0 0 483.013 483.013" xml:space="preserve">
	<defs>
		<linearGradient id="grad1" x1="0%" y1="0%" x2="100%" y2="0%">
			<stop offset="0%" style="stop-color:#7f368a;stop-opacity:1" />
			<stop offset="100%" style="stop-color:#b35fc0;stop-opacity:1" />
		</linearGradient>
	</defs>
	<g transform="matrix(6.123233995736766e-17,-1,1,6.123233995736766e-17,-0.0003676414490030311,483.01362466812134)">
		<path d="M477.043,219.205L378.575,48.677c-7.974-13.802-22.683-22.292-38.607-22.292H143.041c-15.923,0-30.628,8.49-38.608,22.292  L5.971,219.205c-7.961,13.801-7.961,30.785,0,44.588l98.462,170.543c7.98,13.802,22.685,22.293,38.608,22.293h196.926  c15.925,0,30.634-8.491,38.607-22.293l98.469-170.543C485.003,249.99,485.003,233.006,477.043,219.205z" fill="url(#grad1)" data-original="#000000" style="" class="" />
	</g>
	<g transform="scale(11) translate(6 6)">
		<path fill="#FFF" d="M25.569 21.316c.065.263-.197.394-.394.329h-3.278c-.197 0-.328-.066-.46-.132-.196-.066-.327-.328-.393-.591v-.066L17.962 9.49c-.065 0-.262.197-.328.197-.065.065-.197.131-.262.065-.131-.065-.197-.262-.131-.394.13-.328.459-.526.787-.591.393-.066.721-.066 1.114-.066h2.427c.196 0 .393 0 .59.066.197.131.262.394.328.591.13.46.196.92.328 1.38l1.573 5.914.59 2.365c.197.723.46 1.512.59 2.3zm-7.607 0c.066.263-.197.394-.393.329H14.29c-.197 0-.328-.066-.46-.132-.196-.066-.327-.328-.393-.591v-.066L10.356 9.49c-.066 0-.263.197-.328.197-.066.065-.197.131-.263.065-.13-.065-.196-.262-.13-.394.13-.328.458-.526.786-.591.394-.066.721-.066 1.115-.066h2.426c.197 0 .394 0 .59.066.197.131.263.394.328.591.131.46.197.92.328 1.38l1.574 5.914.59 2.365c.197.723.459 1.512.59 2.3zm-6.033-2.497l-.787 2.497a.63.63 0 01-.59.46H7.077a.658.658 0 01-.656-.657v-.132l2.754-10.381c.066-.132.197-.263.328-.263.197 0 .328.131.328.263l2.098 8.213zm7.738-.197l-.459 1.38c-.066.131-.131.197-.262.197s-.197-.066-.263-.197l-2.295-8.017.46-1.642c0-.132.13-.197.262-.197.13 0 .262.065.262.197l2.295 8.279z" />
	</g>
</svg>
