<?xml version="1.0"?>
<svg xmlns="http://www.w3.org/2000/svg" version="1.1" width="100" height="100" x="0" y="0" viewBox="0 0 483.013 483.013" xml:space="preserve">
	<defs>
		<linearGradient id="grad1" x1="0%" y1="0%" x2="100%" y2="0%">
			<stop offset="0%" style="stop-color:#dec799;stop-opacity:1" />
			<stop offset="100%" style="stop-color:#e7d7b7;stop-opacity:1" />
		</linearGradient>
	</defs>
	<g transform="matrix(6.123233995736766e-17,-1,1,6.123233995736766e-17,-0.0003676414490030311,483.01362466812134)">
		<path d="M477.043,219.205L378.575,48.677c-7.974-13.802-22.683-22.292-38.607-22.292H143.041c-15.923,0-30.628,8.49-38.608,22.292  L5.971,219.205c-7.961,13.801-7.961,30.785,0,44.588l98.462,170.543c7.98,13.802,22.685,22.293,38.608,22.293h196.926  c15.925,0,30.634-8.491,38.607-22.293l98.469-170.543C485.003,249.99,485.003,233.006,477.043,219.205z" fill="url(#grad1)" data-original="#000000" style="" class="" />
	</g>
	<g transform="scale(11) translate(6 6)">
		<path fill="#FFF" d="M23.53 13.414L22.105 7l-2.797 4.414a14.096 14.096 0 00-6.617 0L9.902 7l-1.43 6.414C6.937 14.642 6 16.247 6 18.009c0 3.86 4.476 6.989 9.997 6.989s9.997-3.13 9.997-6.989c-.001-1.762-.93-3.367-2.465-4.595zM10.442 16.35h-.666l1.627-1.876h1.184l-2.145 1.876zm5.504 4.584l-2.766-4.872.683-.39.617 1.085h3.021l.644-1.09.676.402-2.875 4.865zm5.613-4.584l-2.146-1.876h1.192l1.625 1.876h-.671zm-5.6 3.015l-1.033-1.82h2.108l-1.075 1.82z" />
	</g>
</svg>
