<?xml version="1.0"?>
<svg xmlns="http://www.w3.org/2000/svg" version="1.1" width="100" height="100" x="0" y="0" viewBox="0 0 483.013 483.013" xml:space="preserve">
	<defs>
		<linearGradient id="grad1" x1="0%" y1="0%" x2="100%" y2="0%">
			<stop offset="0%" style="stop-color:#47b95c;stop-opacity:1" />
			<stop offset="100%" style="stop-color:#7ece8c;stop-opacity:1" />
		</linearGradient>
	</defs>
	<g transform="matrix(6.123233995736766e-17,-1,1,6.123233995736766e-17,-0.0003676414490030311,483.01362466812134)">
		<path d="M477.043,219.205L378.575,48.677c-7.974-13.802-22.683-22.292-38.607-22.292H143.041c-15.923,0-30.628,8.49-38.608,22.292  L5.971,219.205c-7.961,13.801-7.961,30.785,0,44.588l98.462,170.543c7.98,13.802,22.685,22.293,38.608,22.293h196.926  c15.925,0,30.634-8.491,38.607-22.293l98.469-170.543C485.003,249.99,485.003,233.006,477.043,219.205z" fill="url(#grad1)" data-original="#000000" style="" class="" />
	</g>
	<g transform="scale(11) translate(6 6)">
		<g fill="#FFF">
			<path d="M16 6C10.48 6 6 10.48 6 16c0 .133.013.26.02.393h4.693l2.267-3.9L16 16.82l3.013-4.327 2.267 3.9h4.693c.007-.133.02-.26.02-.393C26 10.48 21.52 6 16 6zm6.893 9.187C22.487 11.74 19.553 9.06 16 9.06s-6.487 2.687-6.893 6.127H7.893C8.3 11.073 11.78 7.853 16 7.853c4.22 0 7.693 3.22 8.107 7.334h-1.214z" />
			<path d="M18.927 14.733L16 18.933l-2.927-4.2-1.666 2.867H6.14C6.907 22.36 11.02 26 16 26c4.98 0 9.093-3.64 9.86-8.407h-5.267l-1.666-2.86zm3.42 4.067h1.293c-1.147 3.113-4.133 5.347-7.64 5.347-3.507 0-6.493-2.234-7.64-5.347h1.293c1.08 2.433 3.514 4.14 6.347 4.14 2.833 0 5.267-1.707 6.347-4.14z" />
		</g>
	</g>
</svg>
