<?xml version="1.0"?>
<svg xmlns="http://www.w3.org/2000/svg" version="1.1" width="100" height="100" x="0" y="0" viewBox="0 0 483.013 483.013" xml:space="preserve">
	<defs>
		<linearGradient id="grad1" x1="0%" y1="0%" x2="100%" y2="0%">
			<stop offset="0%" style="stop-color:#104fca;stop-opacity:1" />
			<stop offset="100%" style="stop-color:#417cef;stop-opacity:1" />
		</linearGradient>
	</defs>
	<g transform="matrix(6.123233995736766e-17,-1,1,6.123233995736766e-17,-0.0003676414490030311,483.01362466812134)">
		<path d="M477.043,219.205L378.575,48.677c-7.974-13.802-22.683-22.292-38.607-22.292H143.041c-15.923,0-30.628,8.49-38.608,22.292  L5.971,219.205c-7.961,13.801-7.961,30.785,0,44.588l98.462,170.543c7.98,13.802,22.685,22.293,38.608,22.293h196.926  c15.925,0,30.634-8.491,38.607-22.293l98.469-170.543C485.003,249.99,485.003,233.006,477.043,219.205z" fill="url(#grad1)" data-original="#000000" style="" class="" />
	</g>
	<g transform="scale(11) translate(6 6)">
		<g fill="#fff">
			<path d="M7 9.568l4.234 7.103V24C8.896 24 7 22.164 7 19.899z" fill-opacity=".5" />
			<path d="M20.765 16.663l4.232-7.099h.002V19.9C25 22.164 23.104 24 20.765 24z" fill-opacity=".6" />
			<path d="M15.997 16.458L13.88 20.01c-.439-.11-.911-.536-1.416-1.277L7 9.568c2.025-1.133 4.615-.46 5.784 1.5z" fill-opacity=".8" />
			<path d="M19.216 11.06C20.385 9.098 22.975 8.426 25 9.559l-5.464 9.165A4.267 4.267 0 0116 20.568a4.33 4.33 0 01-1.9-.435l-.22-.123z" />
		</g>
	</g>
</svg>
