<?xml version="1.0"?>
<svg xmlns="http://www.w3.org/2000/svg" version="1.1" width="100" height="100" x="0" y="0" viewBox="0 0 483.013 483.013" xml:space="preserve">
	<defs>
		<linearGradient id="grad1" x1="0%" y1="0%" x2="100%" y2="0%">
			<stop offset="0%" style="stop-color:#fbbf02;stop-opacity:1" />
			<stop offset="100%" style="stop-color:#fdd24c;stop-opacity:1" />
		</linearGradient>
	</defs>
	<g transform="matrix(6.123233995736766e-17,-1,1,6.123233995736766e-17,-0.0003676414490030311,483.01362466812134)">
		<path d="M477.043,219.205L378.575,48.677c-7.974-13.802-22.683-22.292-38.607-22.292H143.041c-15.923,0-30.628,8.49-38.608,22.292  L5.971,219.205c-7.961,13.801-7.961,30.785,0,44.588l98.462,170.543c7.98,13.802,22.685,22.293,38.608,22.293h196.926  c15.925,0,30.634-8.491,38.607-22.293l98.469-170.543C485.003,249.99,485.003,233.006,477.043,219.205z" fill="url(#grad1)" data-original="#000000" style="" class="" />
	</g>
	<g transform="scale(11) translate(6 6)">
		<path fill="#FFF" d="M18.65.226A16 16 0 0016 0C7.16 0 0 7.16 0 16c0 3.394 1.067 6.53 2.86 9.131 1.1-1.616 3.637-2.731 6.578-2.731 2.02 0 3.847.533 5.156 1.39L18.65.226zm8.502 4.315c2.763 6.11.339 9.374.339 9.374-1.875-5.64-7.305-6.464-7.305-6.464s-3.572 19.248-3.572 19.49c0 2.085-2.214 3.847-5.22 4.38A16.01 16.01 0 0016 32c8.84 0 16-7.16 16-16 0-4.493-1.859-8.55-4.848-11.459z" />
	</g>
</svg>
