<?xml version="1.0"?>
<svg xmlns="http://www.w3.org/2000/svg" version="1.1" width="100" height="100" x="0" y="0" viewBox="0 0 483.013 483.013" xml:space="preserve">
	<defs>
		<linearGradient id="grad1" x1="0%" y1="0%" x2="100%" y2="0%">
			<stop offset="0%" style="stop-color:#ffaa05;stop-opacity:1" />
			<stop offset="100%" style="stop-color:#fec350;stop-opacity:1" />
		</linearGradient>
	</defs>
	<g transform="matrix(6.123233995736766e-17,-1,1,6.123233995736766e-17,-0.0003676414490030311,483.01362466812134)">
		<path d="M477.043,219.205L378.575,48.677c-7.974-13.802-22.683-22.292-38.607-22.292H143.041c-15.923,0-30.628,8.49-38.608,22.292  L5.971,219.205c-7.961,13.801-7.961,30.785,0,44.588l98.462,170.543c7.98,13.802,22.685,22.293,38.608,22.293h196.926  c15.925,0,30.634-8.491,38.607-22.293l98.469-170.543C485.003,249.99,485.003,233.006,477.043,219.205z" fill="url(#grad1)" data-original="#000000" style="" class="" />
	</g>
	<g transform="scale(11) translate(6 6)">
		<path fill="#FFF" d="M16.811 11.567v1.863h2.214l-1 1.148h-1.487v1.443h1.547l-.758 1.148h-.789v2.944l-1.273 1.736v-4.68h-1.76l.971-1.148h.789v-1.443h-2.487l1-1.148h1.487V11.5c-.733-.793-1.744-1.19-3.033-1.19-2.472 0-4.428 2.635-4.428 5.255 0 1.746.4 3.228 1.198 4.445l-1.38 1.604C6.541 20.012 6 18.182 6 16.124 6 11.605 9.89 9 12.641 9c1.684 0 2.974.706 3.87 2.117 1.714-1.176 3.467-1.764 5.259-1.764 2.744 0 4.23 3.35 4.23 6.55 0 4.258-2.866 5.902-3.912 6.094a.207.207 0 01-.205-.082.194.194 0 01.051-.276c1.619-1.088 2.428-2.755 2.428-5 0-4.901-2.517-6.035-4.367-6.035a5.693 5.693 0 00-3.184.963z" />
	</g>
</svg>
