<?xml version="1.0"?>
<svg xmlns="http://www.w3.org/2000/svg" version="1.1" width="100" height="100" x="0" y="0" viewBox="0 0 483.013 483.013" xml:space="preserve">
	<defs>
		<linearGradient id="grad1" x1="0%" y1="0%" x2="100%" y2="0%">
			<stop offset="0%" style="stop-color:#4a90e2;stop-opacity:1" />
			<stop offset="100%" style="stop-color:#80b1ea;stop-opacity:1" />
		</linearGradient>
	</defs>
	<g transform="matrix(6.123233995736766e-17,-1,1,6.123233995736766e-17,-0.0003676414490030311,483.01362466812134)">
		<path d="M477.043,219.205L378.575,48.677c-7.974-13.802-22.683-22.292-38.607-22.292H143.041c-15.923,0-30.628,8.49-38.608,22.292  L5.971,219.205c-7.961,13.801-7.961,30.785,0,44.588l98.462,170.543c7.98,13.802,22.685,22.293,38.608,22.293h196.926  c15.925,0,30.634-8.491,38.607-22.293l98.469-170.543C485.003,249.99,485.003,233.006,477.043,219.205z" fill="url(#grad1)" data-original="#000000" style="" class="" />
	</g>
	<g transform="scale(11) translate(6 6)">
		<path d="M24.95 11c-.858 0-1.583.693-1.583 1.583 0 1.254-.198 1.583-1.584 1.583h-.132a1.548 1.548 0 00-1.418 1.55v.034c0 1.22-.23 1.517-1.583 1.517-.066 0-.132 0-.165.033-.792.099-1.418.758-1.418 1.55 0 .858.692 1.583 1.583 1.583.825 0 1.517-.66 1.55-1.451v-.132c0-1.121.363-1.55 1.55-1.583h.033c.825 0 1.518-.66 1.55-1.484v-.1c0-1.154.363-1.583 1.584-1.583.857 0 1.583-.692 1.583-1.583 0-.824-.693-1.517-1.55-1.517zm-9.302 3.166a1.597 1.597 0 011.452 1.518c0 .89-.693 1.583-1.584 1.583-.89 0-1.583-.726-1.583-1.583 0-1.122-.363-1.55-1.583-1.55s-1.583.428-1.583 1.583v.099c-.033.791-.726 1.45-1.55 1.45-.89 0-1.584-.725-1.584-1.582 0-.825.627-1.485 1.419-1.55h.132c1.385 0 1.583-.297 1.583-1.55a1.584 1.584 0 013.166 0c0 1.253.198 1.582 1.583 1.582h.132zm-9.565 6.267a1.583 1.583 0 110-3.166 1.583 1.583 0 010 3.166z" fill="#FFF" />
	</g>
</svg>
