<?xml version="1.0"?>
<svg xmlns="http://www.w3.org/2000/svg" version="1.1" width="100" height="100" x="0" y="0" viewBox="0 0 483.013 483.013" xml:space="preserve">
	<defs>
		<linearGradient id="grad1" x1="0%" y1="0%" x2="100%" y2="0%">
			<stop offset="0%" style="stop-color:#222;stop-opacity:1" />
			<stop offset="100%" style="stop-color:#646464;stop-opacity:1" />
		</linearGradient>
	</defs>
	<g transform="matrix(6.123233995736766e-17,-1,1,6.123233995736766e-17,-0.0003676414490030311,483.01362466812134)">
		<path d="M477.043,219.205L378.575,48.677c-7.974-13.802-22.683-22.292-38.607-22.292H143.041c-15.923,0-30.628,8.49-38.608,22.292  L5.971,219.205c-7.961,13.801-7.961,30.785,0,44.588l98.462,170.543c7.98,13.802,22.685,22.293,38.608,22.293h196.926  c15.925,0,30.634-8.491,38.607-22.293l98.469-170.543C485.003,249.99,485.003,233.006,477.043,219.205z" fill="url(#grad1)" data-original="#000000" style="" class="" />
	</g>
	<g transform="scale(11) translate(6 6)">
		<path d="M12.73 18.655l3.146 6.382 1.616-4.773-4.761-1.609m-5.754-2.769l4.764 1.617 1.618-4.77-6.382 3.153m6.031 2.024c.075.04.106.064.141.076 1.536.522 3.07 1.048 4.61 1.557.125.04.303.006.426-.054 1.761-.859 3.517-1.728 5.273-2.595.5-.247.998-.497 1.543-.769-.12-.046-.182-.072-.247-.094-1.487-.505-2.974-1.013-4.466-1.504a.698.698 0 00-.477.03c-1.872.91-3.737 1.835-5.603 2.756-.389.192-.776.386-1.2.597m6.499-4.065c-1.13-2.294-2.246-4.554-3.39-6.875l-3.48 10.267 6.87-3.392M5 16.002c1.094-.541 2.126-1.055 3.16-1.565 1.758-.867 3.516-1.735 5.277-2.596a.652.652 0 00.364-.414c.688-2.053 1.386-4.102 2.082-6.152.026-.076.057-.15.105-.275.07.136.122.232.17.329 1.345 2.73 2.688 5.46 4.044 8.184.066.132.24.242.389.293 2.036.702 4.076 1.392 6.115 2.085.077.026.153.054.294.104-.188.095-.327.168-.467.237-2.628 1.297-5.255 2.597-7.887 3.885a.88.88 0 00-.493.565c-.679 2.034-1.375 4.062-2.066 6.092-.019.056-.042.11-.087.226-.177-.355-.33-.658-.48-.962-1.224-2.482-2.449-4.964-3.666-7.45a.718.718 0 00-.454-.405c-2.042-.683-4.08-1.38-6.119-2.073-.075-.026-.148-.057-.281-.108" fill="#fff" />
	</g>
</svg>
