<?xml version="1.0"?>
<svg xmlns="http://www.w3.org/2000/svg" version="1.1" width="100" height="100" x="0" y="0" viewBox="0 0 483.013 483.013" xml:space="preserve">
	<defs>
		<linearGradient id="grad1" x1="0%" y1="0%" x2="100%" y2="0%">
			<stop offset="0%" style="stop-color:#622fba;stop-opacity:1" />
			<stop offset="100%" style="stop-color:#8e64d7;stop-opacity:1" />
		</linearGradient>
	</defs>
	<g transform="matrix(6.123233995736766e-17,-1,1,6.123233995736766e-17,-0.0003676414490030311,483.01362466812134)">
		<path d="M477.043,219.205L378.575,48.677c-7.974-13.802-22.683-22.292-38.607-22.292H143.041c-15.923,0-30.628,8.49-38.608,22.292  L5.971,219.205c-7.961,13.801-7.961,30.785,0,44.588l98.462,170.543c7.98,13.802,22.685,22.293,38.608,22.293h196.926  c15.925,0,30.634-8.491,38.607-22.293l98.469-170.543C485.003,249.99,485.003,233.006,477.043,219.205z" fill="url(#grad1)" data-original="#000000" style="" class="" />
	</g>
	<g transform="scale(11) translate(6 6)">
		<path d="M18.586 17.376c-.087.027-.171.06-.253.098l-3.676-3.821a1.91 1.91 0 00-1.14-2.794V8.186l-.984-.55 2.273-1.315a2.384 2.384 0 012.388 0l4.519 2.616-1.786 1.033a1.911 1.911 0 00-2.686 1.747 1.91 1.91 0 001.345 1.824zm1.138 0V13.54a1.91 1.91 0 001.092-2.773l2.03-1.174.97.56A2.372 2.372 0 0125 12.207v7.586c0 .846-.451 1.628-1.185 2.053l-4.09 2.368v-3.192a1.91 1.91 0 00-.001-3.646zm-2.227.869a1.91 1.91 0 001.089 2.777v3.851l-1.392.806a2.384 2.384 0 01-2.388 0L9.94 22.863l1.828-1.428a1.91 1.91 0 001.231.447 1.911 1.911 0 001.914-1.91 1.91 1.91 0 00-1.397-1.838v-3.598c.105-.029.207-.067.304-.113zm-5.118-.079a1.91 1.91 0 00-1.226 2.308L8.882 22.25l-.697-.403A2.372 2.372 0 017 19.793v-7.586c0-.846.451-1.628 1.185-2.053l3.205-1.856.99.553v2.04a1.91 1.91 0 00-.001 3.613zM13 13.523a.827.827 0 11-.002-1.653.827.827 0 01.002 1.653zm0 7.275a.827.827 0 11-.002-1.653.827.827 0 01.002 1.653zm6.155-8.255a.827.827 0 11-.002-1.653.827.827 0 01.002 1.653zm0 7.482a.827.827 0 11-.002-1.654.827.827 0 01.002 1.654z" fill="#fff" />
	</g>
</svg>
