<?xml version="1.0"?>
<svg xmlns="http://www.w3.org/2000/svg" version="1.1" width="100" height="100" x="0" y="0" viewBox="0 0 483.013 483.013" xml:space="preserve">
	<defs>
		<linearGradient id="grad1" x1="0%" y1="0%" x2="100%" y2="0%">
			<stop offset="0%" style="stop-color:#50479e;stop-opacity:1" />
			<stop offset="100%" style="stop-color:#7f77c2;stop-opacity:1" />
		</linearGradient>
	</defs>
	<g transform="matrix(6.123233995736766e-17,-1,1,6.123233995736766e-17,-0.0003676414490030311,483.01362466812134)">
		<path d="M477.043,219.205L378.575,48.677c-7.974-13.802-22.683-22.292-38.607-22.292H143.041c-15.923,0-30.628,8.49-38.608,22.292  L5.971,219.205c-7.961,13.801-7.961,30.785,0,44.588l98.462,170.543c7.98,13.802,22.685,22.293,38.608,22.293h196.926  c15.925,0,30.634-8.491,38.607-22.293l98.469-170.543C485.003,249.99,485.003,233.006,477.043,219.205z" fill="url(#grad1)" data-original="#000000" style="" class="" />
	</g>
	<g transform="scale(11) translate(6 6)">
		<path fill="#FFF" fill-rule="nonzero" d="M20.36 13.66v4.784l-4.307 2.367v-4.782l4.306-2.367zm5.14-1.226v7.131c0 .507-.14 1.003-.403 1.434-.26.43-.637.795-1.104 1.052l-3.212 1.765V19.11l.406-.223v-5.679l3.934-2.163c.244.42.379.895.379 1.39zM8.007 22.051a2.944 2.944 0 01-1.075-1.007 2.763 2.763 0 01-.432-1.478V15l4.424 3.455v.192l.007.198.344.203 4.416 2.428.364.2V26a3.13 3.13 0 01-1.562-.382L8.007 22.05zM7.823 10.06L12.5 7.5l3.18 3.08-4.756 2.623v.4L6.51 16.027l-.01-3.594c0-.507.14-1.005.405-1.436.232-.38.546-.7.918-.938zm16.17-.111a2.94 2.94 0 011.128 1.095l-3.934 2.163v-.036l-.406-.223-4.334-2.382 4.334-2.383 3.212 1.766zM6.51 16.029l4.414-2.427v4.853L6.51 16.028zm9.545-5.649V6a3.124 3.124 0 011.452.383l3.274 1.8-4.334 2.382-.392-.185zm-.364.2l-4.408-2.422 3.402-1.871A3.14 3.14 0 0116.055 6v4.38l-.364.2zm.392 11.111l.364-.2 4.282 2.354-3.222 1.772a3.126 3.126 0 01-1.452.382v-4.323l.028.015zm4.698-2.582v4.707l-.052.029-4.282-2.354 4.334-2.382z" />
	</g>
</svg>
