<?xml version="1.0"?>
<svg xmlns="http://www.w3.org/2000/svg" version="1.1" width="100" height="100" x="0" y="0" viewBox="0 0 483.013 483.013" xml:space="preserve">
	<defs>
		<linearGradient id="grad1" x1="0%" y1="0%" x2="100%" y2="0%">
			<stop offset="0%" style="stop-color:#1a4199;stop-opacity:1" />
			<stop offset="100%" style="stop-color:#386bdd;stop-opacity:1" />
		</linearGradient>
	</defs>
	<g transform="matrix(6.123233995736766e-17,-1,1,6.123233995736766e-17,-0.0003676414490030311,483.01362466812134)">
		<path d="M477.043,219.205L378.575,48.677c-7.974-13.802-22.683-22.292-38.607-22.292H143.041c-15.923,0-30.628,8.49-38.608,22.292  L5.971,219.205c-7.961,13.801-7.961,30.785,0,44.588l98.462,170.543c7.98,13.802,22.685,22.293,38.608,22.293h196.926  c15.925,0,30.634-8.491,38.607-22.293l98.469-170.543C485.003,249.99,485.003,233.006,477.043,219.205z" fill="url(#grad1)" data-original="#000000" style="" class="" />
	</g>
	<g transform="scale(11) translate(6 6)">
		<g fill="#FFF">
			<path d="M10.676 7.125l10.732 6.191v6.319L5 10.159l5.265-3.034a.42.42 0 01.42 0" opacity=".7" />
			<path opacity=".9" d="M21.408 7l-5.467 3.16 5.467 3.156z" />
			<path d="M21.408 7l5.264 3.036a.42.42 0 01.22.367v12.389l-5.484-3.157V7z" />
			<path d="M26.881 22.792l-5.264 3.033a.44.44 0 01-.42 0l-10.732-6.19v-6.328l16.416 9.485z" opacity=".9" />
			<path d="M5 10.16v12.387a.42.42 0 00.22.368l5.265 3.036V13.307L5 10.16z" opacity=".6" />
			<path opacity=".7" d="M10.476 25.95l5.465-3.158-5.465-3.157z" />
		</g>
	</g>
</svg>
