<?xml version="1.0"?>
<svg xmlns="http://www.w3.org/2000/svg" version="1.1" width="100" height="100" x="0" y="0" viewBox="0 0 483.013 483.013" xml:space="preserve">
	<defs>
		<linearGradient id="grad1" x1="0%" y1="0%" x2="100%" y2="0%">
			<stop offset="0%" style="stop-color:#f80000;stop-opacity:1" />
			<stop offset="100%" style="stop-color:#ff4747;stop-opacity:1" />
		</linearGradient>
	</defs>
	<g transform="matrix(6.123233995736766e-17,-1,1,6.123233995736766e-17,-0.0003676414490030311,483.01362466812134)">
		<path d="M477.043,219.205L378.575,48.677c-7.974-13.802-22.683-22.292-38.607-22.292H143.041c-15.923,0-30.628,8.49-38.608,22.292  L5.971,219.205c-7.961,13.801-7.961,30.785,0,44.588l98.462,170.543c7.98,13.802,22.685,22.293,38.608,22.293h196.926  c15.925,0,30.634-8.491,38.607-22.293l98.469-170.543C485.003,249.99,485.003,233.006,477.043,219.205z" fill="url(#grad1)" data-original="#000000" style="" class="" />
	</g>
	<g transform="scale(11) translate(6 6)">
		<path d="M20.5 16.842L13.804 26l.247-7.441H12.5l.634-6.532 7.084-.976-2.326 5.925zm-5.498 6.498v-1.75c0-.13-.11-.236-.246-.236s-.247.105-.247.235v1.751c0 .13.11.236.247.236s.246-.106.246-.236zm-1.832-5.286h1.41l-.065 2.693c-.001.071.027.14.079.19s.123.08.197.08h.012a.27.27 0 00.275-.258l.065-3.177h-1.41l.473-5.219c.005-.06-.016-.12-.059-.165s-.103-.07-.167-.07h-.04a.223.223 0 00-.226.197zm0-6.6L15.778 9.3c.14-2.155-1.27-2.492-1.27-2.492L14.72 6c2.326.673 1.974 3.232 1.974 3.232l3.383 1.414z" fill="#fff" fill-rule="nonzero" />
	</g>
</svg>
