<?xml version="1.0"?>
<svg xmlns="http://www.w3.org/2000/svg" version="1.1" width="100" height="100" x="0" y="0" viewBox="0 0 483.013 483.013" xml:space="preserve">
	<defs>
		<linearGradient id="grad1" x1="0%" y1="0%" x2="100%" y2="0%">
			<stop offset="0%" style="stop-color:#f28f01;stop-opacity:1" />
			<stop offset="100%" style="stop-color:#feb244;stop-opacity:1" />
		</linearGradient>
	</defs>
	<g transform="matrix(6.123233995736766e-17,-1,1,6.123233995736766e-17,-0.0003676414490030311,483.01362466812134)">
		<path d="M477.043,219.205L378.575,48.677c-7.974-13.802-22.683-22.292-38.607-22.292H143.041c-15.923,0-30.628,8.49-38.608,22.292  L5.971,219.205c-7.961,13.801-7.961,30.785,0,44.588l98.462,170.543c7.98,13.802,22.685,22.293,38.608,22.293h196.926  c15.925,0,30.634-8.491,38.607-22.293l98.469-170.543C485.003,249.99,485.003,233.006,477.043,219.205z" fill="url(#grad1)" data-original="#000000" style="" class="" />
	</g>
	<g transform="scale(11) translate(6 6)">
		<path d="M18.151 13.719L16.21 9.903c.404-.88.606-1.38.606-1.495 0-.413-.272-.715-.815-.908h5.948c-.733.33-1.385 1.155-1.955 2.476zm-2.916 5.928l-.905 1.84h5.337c2.417 0 4.033-.453 4.848-1.36L21.663 24.5H7.078c1.575-.303 3.164-2.2 4.766-5.694.54-1.074 1.035-2.066 1.487-2.974zM5 20.25c1.181-.701 5.5-8.172 5.5-10.274 0-.495-.299-.963-.896-1.403h4.644l4.033 7.922 3.912-7.922H27c-2.037.536-6.07 10.146-6.07 11.264 0 .22.04.358.122.413h-4.237l-3.626-7.262-3.585 7.262z" fill="#fff" />
	</g>
</svg>
