<?xml version="1.0"?>
<svg xmlns="http://www.w3.org/2000/svg" version="1.1" width="100" height="100" x="0" y="0" viewBox="0 0 483.013 483.013" xml:space="preserve">
	<defs>
		<linearGradient id="grad1" x1="0%" y1="0%" x2="100%" y2="0%">
			<stop offset="0%" style="stop-color:#2ab0fd;stop-opacity:1" />
			<stop offset="100%" style="stop-color:#69c7fd;stop-opacity:1" />
		</linearGradient>
	</defs>
	<g transform="matrix(6.123233995736766e-17,-1,1,6.123233995736766e-17,-0.0003676414490030311,483.01362466812134)">
		<path d="M477.043,219.205L378.575,48.677c-7.974-13.802-22.683-22.292-38.607-22.292H143.041c-15.923,0-30.628,8.49-38.608,22.292  L5.971,219.205c-7.961,13.801-7.961,30.785,0,44.588l98.462,170.543c7.98,13.802,22.685,22.293,38.608,22.293h196.926  c15.925,0,30.634-8.491,38.607-22.293l98.469-170.543C485.003,249.99,485.003,233.006,477.043,219.205z" fill="url(#grad1)" data-original="#000000" style="" class="" />
	</g>
	<g transform="scale(11) translate(6 6)">
		<path fill="#FFF" d="M25.515 14.804c.165-.002.27.02.336.08.07.064.098.168.113.331.466 5.379-3.602 10.241-8.998 10.74-5.564.515-10.394-3.5-10.922-9.08C5.53 11.456 9.599 6.54 15.03 6.046c3.076-.28 5.732.686 7.968 2.816.023.022.018.114-.008.14a119.48 119.48 0 01-1.52 1.521c-.029.028-.133.024-.165-.005-2.307-2.114-4.98-2.74-7.903-1.675C10.446 9.92 8.755 12.15 8.42 15.29c-.45 4.249 2.757 7.994 7.035 8.317 3.878.292 7.392-2.453 8.035-6.285.006-.038-.08-.133-.124-.133-2.395-.007-4.79-.005-7.184-.014-.062 0-.177-.115-.179-.178a53.477 53.477 0 010-2.008c.001-.06.108-.168.167-.169 1.596-.009 7.826.005 9.344-.017z" />
	</g>
</svg>
