<?xml version="1.0"?>
<svg xmlns="http://www.w3.org/2000/svg" version="1.1" width="100" height="100" x="0" y="0" viewBox="0 0 483.013 483.013" xml:space="preserve">
	<defs>
		<linearGradient id="grad1" x1="0%" y1="0%" x2="100%" y2="0%">
			<stop offset="0%" style="stop-color:#186c9d;stop-opacity:1" />
			<stop offset="100%" style="stop-color:#37a2e0;stop-opacity:1" />
		</linearGradient>
	</defs>
	<g transform="matrix(6.123233995736766e-17,-1,1,6.123233995736766e-17,-0.0003676414490030311,483.01362466812134)">
		<path d="M477.043,219.205L378.575,48.677c-7.974-13.802-22.683-22.292-38.607-22.292H143.041c-15.923,0-30.628,8.49-38.608,22.292  L5.971,219.205c-7.961,13.801-7.961,30.785,0,44.588l98.462,170.543c7.98,13.802,22.685,22.293,38.608,22.293h196.926  c15.925,0,30.634-8.491,38.607-22.293l98.469-170.543C485.003,249.99,485.003,233.006,477.043,219.205z" fill="url(#grad1)" data-original="#000000" style="" class="" />
	</g>
	<g transform="scale(11) translate(6 6)">
		<path fill="#FFF" fill-rule="nonzero" d="M19.261 23.5l.001-.002a1.8 1.8 0 00.458-.05c.876-.205 1.617-.97 1.793-1.796L25 8.556l-2.772-.014-2.286 8.568-6.18-8.597-.004.004.003-.01L12.74 8.5v.001a1.9 1.9 0 00-.459.049c-.875.206-1.616.971-1.793 1.796L7 23.445l2.773.012 2.285-8.568 6.18 8.598h.003l1.02.013zm-6.593-10.894l.483-1.81 6.181 8.599-.483 1.81-6.18-8.6z" />
	</g>
</svg>
