<?xml version="1.0"?>
<svg xmlns="http://www.w3.org/2000/svg" version="1.1" width="100" height="100" x="0" y="0" viewBox="0 0 483.013 483.013" xml:space="preserve">
	<defs>
		<linearGradient id="grad1" x1="0%" y1="0%" x2="100%" y2="0%">
			<stop offset="0%" style="stop-color:#f5d100;stop-opacity:1" />
			<stop offset="100%" style="stop-color:#ffe345;stop-opacity:1" />
		</linearGradient>
	</defs>
	<g transform="matrix(6.123233995736766e-17,-1,1,6.123233995736766e-17,-0.0003676414490030311,483.01362466812134)">
		<path d="M477.043,219.205L378.575,48.677c-7.974-13.802-22.683-22.292-38.607-22.292H143.041c-15.923,0-30.628,8.49-38.608,22.292  L5.971,219.205c-7.961,13.801-7.961,30.785,0,44.588l98.462,170.543c7.98,13.802,22.685,22.293,38.608,22.293h196.926  c15.925,0,30.634-8.491,38.607-22.293l98.469-170.543C485.003,249.99,485.003,233.006,477.043,219.205z" fill="url(#grad1)" data-original="#000000" style="" class="" />
	</g>
	<g transform="scale(11) translate(6 6)">
		<g fill="#FFF">
			<path d="M15.972 4C9.372 4 4 9.372 4 15.972s5.372 11.982 11.982 11.982c6.609 0 11.981-5.372 11.981-11.982C27.963 9.363 22.582 4 15.973 4zm0 23.03c-6.092 0-11.058-4.956-11.058-11.058C4.924 9.88 9.88 4.923 15.972 4.923c6.093 0 11.059 4.957 11.059 11.059 0 6.092-4.957 11.049-11.059 11.049z" />
			<path d="M9.774 10.656l.88-.881 4.688 4.687-.881.88zm6.818 6.821l.881-.881 4.687 4.687-.881.88zm-1.495-1.502l.88-.88.888.886-.88.882zm1.508-1.475l4.687-4.686.88.881-4.686 4.687zm-6.797 6.788l4.686-4.686.881.88-4.686 4.687z" />
		</g>
	</g>
</svg>
