<?xml version="1.0"?>
<svg xmlns="http://www.w3.org/2000/svg" version="1.1" width="100" height="100" x="0" y="0" viewBox="0 0 483.013 483.013" xml:space="preserve">
	<defs>
		<linearGradient id="grad1" x1="0%" y1="0%" x2="100%" y2="0%">
			<stop offset="0%" style="stop-color:#008fbb;stop-opacity:1" />
			<stop offset="100%" style="stop-color:#1cc9ff;stop-opacity:1" />
		</linearGradient>
	</defs>
	<g transform="matrix(6.123233995736766e-17,-1,1,6.123233995736766e-17,-0.0003676414490030311,483.01362466812134)">
		<path d="M477.043,219.205L378.575,48.677c-7.974-13.802-22.683-22.292-38.607-22.292H143.041c-15.923,0-30.628,8.49-38.608,22.292  L5.971,219.205c-7.961,13.801-7.961,30.785,0,44.588l98.462,170.543c7.98,13.802,22.685,22.293,38.608,22.293h196.926  c15.925,0,30.634-8.491,38.607-22.293l98.469-170.543C485.003,249.99,485.003,233.006,477.043,219.205z" fill="url(#grad1)" data-original="#000000" style="" class="" />
	</g>
	<g transform="scale(11) translate(6 6)">
		<path fill="#FFF" d="M26.082 16.833c-.507 0-.918-.373-.918-.833v-.834h-4.612c-.507 0-.918-.373-.918-.833 0-.46.411-.833.918-.833h5.53c.507 0 .918.373.918.833V16c0 .46-.41.833-.918.833zm-4.549 0h1.835c.507 0 .918.373.918.833 0 .46-.41.834-.918.834h-2.816a.987.987 0 01-.423-.094l-5.352-3.24h-1.542c-.507 0-.918-.373-.918-.833 0-.46.41-.833.918-.833h1.835c.198 0 .381.057.531.154l5.232 3.18h.7zm-6.463 0c.507 0 .918.373.918.833 0 .46-.411.834-.918.834h-1.835a.988.988 0 01-.423-.094l-5.352-3.24H5.918c-.507 0-.918-.373-.918-.833 0-.46.41-.833.918-.833h1.835a.98.98 0 01.531.154l5.232 3.18h1.554zm-9.152 0h1.835c.507 0 .918.373.918.834 0 .46-.411.833-.918.833H5.918c-.507 0-.918-.373-.918-.833 0-.46.41-.834.918-.834z" />
	</g>
</svg>
