<?xml version="1.0"?>
<svg xmlns="http://www.w3.org/2000/svg" version="1.1" width="100" height="100" x="0" y="0" viewBox="0 0 483.013 483.013" xml:space="preserve">
	<defs>
		<linearGradient id="grad1" x1="0%" y1="0%" x2="100%" y2="0%">
			<stop offset="0%" style="stop-color:#164b79;stop-opacity:1" />
			<stop offset="100%" style="stop-color:#2684d6;stop-opacity:1" />
		</linearGradient>
	</defs>
	<g transform="matrix(6.123233995736766e-17,-1,1,6.123233995736766e-17,-0.0003676414490030311,483.01362466812134)">
		<path d="M477.043,219.205L378.575,48.677c-7.974-13.802-22.683-22.292-38.607-22.292H143.041c-15.923,0-30.628,8.49-38.608,22.292  L5.971,219.205c-7.961,13.801-7.961,30.785,0,44.588l98.462,170.543c7.98,13.802,22.685,22.293,38.608,22.293h196.926  c15.925,0,30.634-8.491,38.607-22.293l98.469-170.543C485.003,249.99,485.003,233.006,477.043,219.205z" fill="url(#grad1)" data-original="#000000" style="" class="" />
	</g>
	<g transform="scale(11) translate(6 6)">
		<path d="M14.09 18.668l-.623 1.33h-1.382L15.838 12l2.503 5.333h-1.415l-1.12-2.315-1.122 2.354zm5.454 1.3l2.93-3.95-2.951-3.98h1.615l2.141 2.91-.779 1.07.779 1.07-2.14 2.91h-2.963l-.626-1.33h1.382zm4.526-3.967l-.791-1.087 2.141-2.91H27zm0 0L27 19.999h-1.58l-2.14-2.91zm-12.648-2.842a3.965 3.965 0 011.085 2.843 4.124 4.124 0 01-1.085 2.842C10.7 19.653 9.807 20 8.754 20a3.575 3.575 0 01-2.668-1.156A4 4 0 015 16.002a3.965 3.965 0 01.691-2.315l.92.98a2.822 2.822 0 00.362 3.265 2.396 2.396 0 001.78.81c.672 0 1.314-.293 1.78-.81a2.65 2.65 0 00.723-1.895 2.82 2.82 0 00-.724-1.896 2.333 2.333 0 00-1.78-.77 2.19 2.19 0 00-1.249.35l-.92-.98a3.416 3.416 0 012.173-.736 3.51 3.51 0 012.665 1.154z" fill="#fff" />
	</g>
</svg>
