<?xml version="1.0"?>
<svg xmlns="http://www.w3.org/2000/svg" version="1.1" width="100" height="100" x="0" y="0" viewBox="0 0 483.013 483.013" xml:space="preserve">
	<defs>
		<linearGradient id="grad1" x1="0%" y1="0%" x2="100%" y2="0%">
			<stop offset="0%" style="stop-color:#1a53f0;stop-opacity:1" />
			<stop offset="100%" style="stop-color:#5e86f4;stop-opacity:1" />
		</linearGradient>
	</defs>
	<g transform="matrix(6.123233995736766e-17,-1,1,6.123233995736766e-17,-0.0003676414490030311,483.01362466812134)">
		<path d="M477.043,219.205L378.575,48.677c-7.974-13.802-22.683-22.292-38.607-22.292H143.041c-15.923,0-30.628,8.49-38.608,22.292  L5.971,219.205c-7.961,13.801-7.961,30.785,0,44.588l98.462,170.543c7.98,13.802,22.685,22.293,38.608,22.293h196.926  c15.925,0,30.634-8.491,38.607-22.293l98.469-170.543C485.003,249.99,485.003,233.006,477.043,219.205z" fill="url(#grad1)" data-original="#000000" style="" class="" />
	</g>
	<g transform="scale(11) translate(6 6)">
		<path fill="#FFF" fill-rule="nonzero" d="M11.856 17.29a4.353 4.353 0 00-4.35 4.355A4.353 4.353 0 0011.855 26a4.353 4.353 0 004.352-4.355 4.353 4.353 0 00-4.351-4.355zm0 7.393a3.035 3.035 0 01-3.033-3.036 3.035 3.035 0 013.033-3.037 3.035 3.035 0 013.034 3.037 3.04 3.04 0 01-3.034 3.036zM21.15 8a4.353 4.353 0 00-4.351 4.355 4.353 4.353 0 004.35 4.355 4.353 4.353 0 004.352-4.355A4.353 4.353 0 0021.149 8zm0 7.393a3.035 3.035 0 01-3.034-3.036A3.035 3.035 0 0121.15 9.32a3.035 3.035 0 013.033 3.037 3.04 3.04 0 01-3.033 3.036zM11.856 8a4.358 4.358 0 00-1.696 8.37 4.351 4.351 0 005.288-1.556 4.36 4.36 0 00-.475-5.497h1.233V8h-4.35zm3.034 4.355a3.035 3.035 0 01-3.034 3.036 3.035 3.035 0 01-3.033-3.036 3.035 3.035 0 013.033-3.036 3.04 3.04 0 013.035 3.036h-.001z" />
	</g>
</svg>
