<?xml version="1.0"?>
<svg xmlns="http://www.w3.org/2000/svg" version="1.1" width="100" height="100" x="0" y="0" viewBox="0 0 483.013 483.013" xml:space="preserve">
	<defs>
		<linearGradient id="grad1" x1="0%" y1="0%" x2="100%" y2="0%">
			<stop offset="0%" style="stop-color:#000;stop-opacity:1" />
			<stop offset="100%" style="stop-color:#4c4c4c;stop-opacity:1" />
		</linearGradient>
	</defs>
	<g transform="matrix(6.123233995736766e-17,-1,1,6.123233995736766e-17,-0.0003676414490030311,483.01362466812134)">
		<path d="M477.043,219.205L378.575,48.677c-7.974-13.802-22.683-22.292-38.607-22.292H143.041c-15.923,0-30.628,8.49-38.608,22.292  L5.971,219.205c-7.961,13.801-7.961,30.785,0,44.588l98.462,170.543c7.98,13.802,22.685,22.293,38.608,22.293h196.926  c15.925,0,30.634-8.491,38.607-22.293l98.469-170.543C485.003,249.99,485.003,233.006,477.043,219.205z" fill="url(#grad1)" data-original="#000000" style="" class="" />
	</g>
	<g transform="scale(11) translate(6 6)">
		<g transform="translate(5 5)" fill="#FFF">
			<path d="M10.943 21.311c5.74 0 10.088-3.846 10.99-8.878h-4.897c-.732 2.672-3.004 4.628-6.035 4.628-3.009 0-5.31-1.97-6.073-4.628H0c.869 5.05 5.18 8.878 10.943 8.878z" />
			<circle cx="10.971" cy="2.527" r="2.527" />
			<path d="M4.655 12.433v-.05c0-3.593 2.574-6.526 6.285-6.526 3.712 0 6.34 2.983 6.346 6.576H4.655z" />
		</g>
	</g>
</svg>
