<?xml version="1.0"?>
<svg xmlns="http://www.w3.org/2000/svg" version="1.1" width="100" height="100" x="0" y="0" viewBox="0 0 483.013 483.013" xml:space="preserve">
	<defs>
		<linearGradient id="grad1" x1="0%" y1="0%" x2="100%" y2="0%">
			<stop offset="0%" style="stop-color:#34445b;stop-opacity:1" />
			<stop offset="100%" style="stop-color:#5c78a1;stop-opacity:1" />
		</linearGradient>
	</defs>
	<g transform="matrix(6.123233995736766e-17,-1,1,6.123233995736766e-17,-0.0003676414490030311,483.01362466812134)">
		<path d="M477.043,219.205L378.575,48.677c-7.974-13.802-22.683-22.292-38.607-22.292H143.041c-15.923,0-30.628,8.49-38.608,22.292  L5.971,219.205c-7.961,13.801-7.961,30.785,0,44.588l98.462,170.543c7.98,13.802,22.685,22.293,38.608,22.293h196.926  c15.925,0,30.634-8.491,38.607-22.293l98.469-170.543C485.003,249.99,485.003,233.006,477.043,219.205z" fill="url(#grad1)" data-original="#000000" style="" class="" />
	</g>
	<g transform="scale(11) translate(6 6)">
		<g fill="#FFF">
			<path d="M15.937 10.222l2.01-3.136a2.03 2.03 0 00.83-3.97 2.03 2.03 0 00-2.04 3.2l-2.494 3.891a7.96 7.96 0 00-7.142 8.707 7.965 7.965 0 008.706 7.142 7.965 7.965 0 007.143-8.706 7.967 7.967 0 00-7.013-7.128zm-.915 12.122a4.22 4.22 0 01-4.224-4.223 4.22 4.22 0 014.224-4.224 4.22 4.22 0 013.95 2.732 2.442 2.442 0 00-3.424-.433 2.441 2.441 0 00-.433 3.424 2.441 2.441 0 003.849.007 4.214 4.214 0 01-3.942 2.717z" />
			<path d="M15.937 10.222l2.01-3.136a2.03 2.03 0 00.83-3.97 2.03 2.03 0 00-2.04 3.2l-2.494 3.891a7.96 7.96 0 00-7.142 8.707 7.965 7.965 0 008.706 7.142 7.965 7.965 0 007.143-8.706 7.967 7.967 0 00-7.013-7.128zm-.915 12.122a4.22 4.22 0 01-4.224-4.223 4.22 4.22 0 014.224-4.224 4.22 4.22 0 013.95 2.732 2.442 2.442 0 00-3.424-.433 2.441 2.441 0 00-.433 3.424 2.441 2.441 0 003.849.007 4.214 4.214 0 01-3.942 2.717z" />
		</g>
	</g>
</svg>
