<?xml version="1.0"?>
<svg xmlns="http://www.w3.org/2000/svg" version="1.1" width="100" height="100" x="0" y="0" viewBox="0 0 483.013 483.013" xml:space="preserve">
	<defs>
		<linearGradient id="grad1" x1="0%" y1="0%" x2="100%" y2="0%">
			<stop offset="0%" style="stop-color:#4392cd;stop-opacity:1" />
			<stop offset="100%" style="stop-color:#7bb2dc;stop-opacity:1" />
		</linearGradient>
	</defs>
	<g transform="matrix(6.123233995736766e-17,-1,1,6.123233995736766e-17,-0.0003676414490030311,483.01362466812134)">
		<path d="M477.043,219.205L378.575,48.677c-7.974-13.802-22.683-22.292-38.607-22.292H143.041c-15.923,0-30.628,8.49-38.608,22.292  L5.971,219.205c-7.961,13.801-7.961,30.785,0,44.588l98.462,170.543c7.98,13.802,22.685,22.293,38.608,22.293h196.926  c15.925,0,30.634-8.491,38.607-22.293l98.469-170.543C485.003,249.99,485.003,233.006,477.043,219.205z" fill="url(#grad1)" data-original="#000000" style="" class="" />
	</g>
	<g transform="scale(11) translate(6 6)">
		<path d="M16.858 25.5h-1.716c-1.288 0-1.653-1.194-1.653-2.106s.065-1.325.065-1.737c0-.65-.328-2.273-.923-2.953-1.159-1.325-1.889-2.512-1.889-4.234-1.008-.521-2.79-.999-3.476-1.78S6 10.8 6 9.214c0-.405.086-.977.258-1.715.395 1.234 1.003 2.08 1.824 2.54 1.201.674 2.555 1.173 3.712 1.173h8.412c1.157 0 2.51-.5 3.712-1.173.82-.46 1.429-1.306 1.824-2.54.172.738.258 1.31.258 1.715 0 1.585-.58 2.693-1.266 3.474s-2.468 1.26-3.476 1.78c0 1.723-.73 2.91-1.889 4.235-.595.68-.923 2.303-.923 2.953 0 .412.065.825.065 1.737s-.365 2.106-1.653 2.106z" fill="#fff" />
	</g>
</svg>
