<?xml version="1.0"?>
<svg xmlns="http://www.w3.org/2000/svg" version="1.1" width="100" height="100" x="0" y="0" viewBox="0 0 483.013 483.013" xml:space="preserve">
	<defs>
		<linearGradient id="grad1" x1="0%" y1="0%" x2="100%" y2="0%">
			<stop offset="0%" style="stop-color:#f8e42c;stop-opacity:1" />
			<stop offset="100%" style="stop-color:#faec6b;stop-opacity:1" />
		</linearGradient>
	</defs>
	<g transform="matrix(6.123233995736766e-17,-1,1,6.123233995736766e-17,-0.0003676414490030311,483.01362466812134)">
		<path d="M477.043,219.205L378.575,48.677c-7.974-13.802-22.683-22.292-38.607-22.292H143.041c-15.923,0-30.628,8.49-38.608,22.292  L5.971,219.205c-7.961,13.801-7.961,30.785,0,44.588l98.462,170.543c7.98,13.802,22.685,22.293,38.608,22.293h196.926  c15.925,0,30.634-8.491,38.607-22.293l98.469-170.543C485.003,249.99,485.003,233.006,477.043,219.205z" fill="url(#grad1)" data-original="#000000" style="" class="" />
	</g>
	<g transform="scale(11) translate(6 6)">
		<path d="M9.009 19.198v-6.155c0-.889.228-1.73.57-2.543a7.079 7.079 0 0 1 1.853-2.58 7.504 7.504 0 0 1 2.693-1.542 7.28 7.28 0 0 1 2.506-.374c.492.018.984.12 1.47.211a7.21 7.21 0 0 1 1.97.687 7.28 7.28 0 0 1 1.837 1.307 7.752 7.752 0 0 1 1.725 2.621c.075.185.153.37.22.557.08.216.014.31-.213.31-.847.001-1.694.018-2.54-.009-.409-.013-.824-.095-1.181-.313-.168-.102-.301-.265-.435-.413a3.807 3.807 0 0 0-1.48-1.022 3.771 3.771 0 0 0-2.08-.187c-.855.16-1.575.543-2.151 1.18-.498.55-.839 1.18-.926 1.922-.033.273-.06.55-.061.825-.003 2.839-.011 5.678.009 8.517.007 1.107-.405 2.018-1.195 2.774a3.587 3.587 0 0 1-1.666.9c-.246.06-.499.1-.75.129-.053.006-.138-.069-.168-.127-.03-.056-.01-.138-.01-.21v-6.465zm4.506-3.502c.431.51.901.904 1.474 1.168.643.295 1.324.434 2.024.343 1.11-.144 2.028-.644 2.706-1.541.201-.267.498-.402.818-.452a6.98 6.98 0 0 1 .994-.076c.748-.01 1.496-.004 2.244-.002.246 0 .259.014.187.234a9.045 9.045 0 0 1-1.571 2.891c-.75.929-1.643 1.684-2.764 2.135-.503.202-1.04.368-1.575.435-.704.088-1.424.098-2.134.07-.471-.017-.939-.15-1.405-.246-.262-.054-.517-.134-.775-.204-.144-.038-.24-.103-.24-.278.005-1.445.003-2.89.003-4.335 0-.032.006-.063.014-.142z" fill="#fff" />
	</g>
</svg>
