<?xml version="1.0"?>
<svg xmlns="http://www.w3.org/2000/svg" version="1.1" width="100" height="100" x="0" y="0" viewBox="0 0 483.013 483.013" xml:space="preserve">
	<defs>
		<linearGradient id="grad1" x1="0%" y1="0%" x2="100%" y2="0%">
			<stop offset="0%" style="stop-color:#f7931e;stop-opacity:1" />
			<stop offset="100%" style="stop-color:#f9b361;stop-opacity:1" />
		</linearGradient>
	</defs>
	<g transform="matrix(6.123233995736766e-17,-1,1,6.123233995736766e-17,-0.0003676414490030311,483.01362466812134)">
		<path d="M477.043,219.205L378.575,48.677c-7.974-13.802-22.683-22.292-38.607-22.292H143.041c-15.923,0-30.628,8.49-38.608,22.292  L5.971,219.205c-7.961,13.801-7.961,30.785,0,44.588l98.462,170.543c7.98,13.802,22.685,22.293,38.608,22.293h196.926  c15.925,0,30.634-8.491,38.607-22.293l98.469-170.543C485.003,249.99,485.003,233.006,477.043,219.205z" fill="url(#grad1)" data-original="#000000" style="" class="" />
	</g>
	<g transform="scale(11) translate(6 6)">
		<path d="M16 4C9.373 4 4 9.373 4 16s5.373 12 12 12 12-5.373 12-12A12 12 0 0016 4zm6 5.813a2.25 2.25 0 012.25 2.25v3.374a2.25 2.25 0 01-2.25 2.25h-2.786l-.18.844a.488.488 0 01-.454.375h-.563a.294.294 0 01-.295-.375l.18-.843h-1.313l-.18.843a.488.488 0 01-.454.375h-.563a.294.294 0 01-.295-.375l.18-.843H13.87L12.634 23.5h-3l2.192-10.313h3l-.478 2.25h5.777c.621 0 1.125-.503 1.125-1.124v-1.126c0-.62-.504-1.124-1.125-1.124H7.75l1.875-2.25h7.326l.179-.844a.488.488 0 01.454-.375h.563a.294.294 0 01.295.375l-.179.844h1.313l.179-.844a.488.488 0 01.454-.375h.563a.294.294 0 01.295.375l-.179.844H22z" fill="#FFF" />
	</g>
</svg>
