<?xml version="1.0"?>
<svg xmlns="http://www.w3.org/2000/svg" version="1.1" width="100" height="100" x="0" y="0" viewBox="0 0 483.013 483.013" xml:space="preserve">
	<defs>
		<linearGradient id="grad1" x1="0%" y1="0%" x2="100%" y2="0%">
			<stop offset="0%" style="stop-color:#00acff;stop-opacity:1" />
			<stop offset="100%" style="stop-color:#4cc4fe;stop-opacity:1" />
		</linearGradient>
	</defs>
	<g transform="matrix(6.123233995736766e-17,-1,1,6.123233995736766e-17,-0.0003676414490030311,483.01362466812134)">
		<path d="M477.043,219.205L378.575,48.677c-7.974-13.802-22.683-22.292-38.607-22.292H143.041c-15.923,0-30.628,8.49-38.608,22.292  L5.971,219.205c-7.961,13.801-7.961,30.785,0,44.588l98.462,170.543c7.98,13.802,22.685,22.293,38.608,22.293h196.926  c15.925,0,30.634-8.491,38.607-22.293l98.469-170.543C485.003,249.99,485.003,233.006,477.043,219.205z" fill="url(#grad1)" data-original="#000000" style="" class="" />
	</g>
	<g transform="scale(11) translate(6 6)">
		<path d="M15.08 20.156a.51.51 0 01.668.279.515.515 0 01-.277.671l-3.406 1.414-.452 2.48H9.269l.257-1.426-1.382.573a.51.51 0 01-.668-.279.515.515 0 01.277-.67l1.99-.826.15-.839-2.687 1.115a.51.51 0 01-.667-.279.515.515 0 01.277-.671l3.293-1.367L12.507 7.01h6.773c4.147-.143 6.22 1.242 6.22 4.155 0 3.695-2.702 6.553-7.285 6.553H12.94l-.283 1.556 1.487-.617a.51.51 0 01.667.279.515.515 0 01-.277.67l-2.097.871-.153.84zm-.57-11.047l-1.172 6.425h5.218c3.212 0 4.43-2.185 4.43-3.77 0-1.584-.766-2.655-3.322-2.655z" fill="#fff" />
	</g>
</svg>
