<?xml version="1.0"?>
<svg xmlns="http://www.w3.org/2000/svg" version="1.1" width="100" height="100" x="0" y="0" viewBox="0 0 483.013 483.013" xml:space="preserve">
	<defs>
		<linearGradient id="grad1" x1="0%" y1="0%" x2="100%" y2="0%">
			<stop offset="0%" style="stop-color:#ede708;stop-opacity:1" />
			<stop offset="100%" style="stop-color:#f8f44b;stop-opacity:1" />
		</linearGradient>
	</defs>
	<g transform="matrix(6.123233995736766e-17,-1,1,6.123233995736766e-17,-0.0003676414490030311,483.01362466812134)">
		<path d="M477.043,219.205L378.575,48.677c-7.974-13.802-22.683-22.292-38.607-22.292H143.041c-15.923,0-30.628,8.49-38.608,22.292  L5.971,219.205c-7.961,13.801-7.961,30.785,0,44.588l98.462,170.543c7.98,13.802,22.685,22.293,38.608,22.293h196.926  c15.925,0,30.634-8.491,38.607-22.293l98.469-170.543C485.003,249.99,485.003,233.006,477.043,219.205z" fill="url(#grad1)" data-original="#000000" style="" class="" />
	</g>
	<g transform="scale(11) translate(6 6)">
		<path d="M26.88 13.35l.5.75c1-2.52.77-4.49-.13-5.35-1.62-1.56-4-.69-6.58-1.77-2.15-1.58-3.45-2-5.24-2a6.22 6.22 0 00-3.25 1.64 5 5 0 00-3.9 1.53c-1.06 1.25-1.3 4.68-1.46 5.55-.16.87-2 4.38-1.81 6.3.19 1.92 1.6 4 5.59 4.49a7.58 7.58 0 006 2.63c2.09-.22 5-3.42 6.69-4.69 1.69-1.27 7.71-2.37 4.12-8.28a8.89 8.89 0 00-.5-.75l-.03-.05zm-9.13 8.8a6.66 6.66 0 01-7.45-4.06c-.22-.86-.65-5.24 3-7.41 2.72-1.54 6.55-1.75 8.16 1.84 1.61 3.59 1.02 8.62-3.71 9.63z" fill="#FFF" />
	</g>
</svg>
