<?xml version="1.0"?>
<svg xmlns="http://www.w3.org/2000/svg" version="1.1" width="100" height="100" x="0" y="0" viewBox="0 0 483.013 483.013" xml:space="preserve">
	<defs>
		<linearGradient id="grad1" x1="0%" y1="0%" x2="100%" y2="0%">
			<stop offset="0%" style="stop-color:#663300;stop-opacity:1" />
			<stop offset="100%" style="stop-color:#e07000;stop-opacity:1" />
		</linearGradient>
	</defs>
	<g transform="matrix(6.123233995736766e-17,-1,1,6.123233995736766e-17,-0.0003676414490030311,483.01362466812134)">
		<path d="M477.043,219.205L378.575,48.677c-7.974-13.802-22.683-22.292-38.607-22.292H143.041c-15.923,0-30.628,8.49-38.608,22.292  L5.971,219.205c-7.961,13.801-7.961,30.785,0,44.588l98.462,170.543c7.98,13.802,22.685,22.293,38.608,22.293h196.926  c15.925,0,30.634-8.491,38.607-22.293l98.469-170.543C485.003,249.99,485.003,233.006,477.043,219.205z" fill="url(#grad1)" data-original="#000000" style="" class="" />
	</g>
	<g transform="scale(11) translate(6 6)">
		<g fill="#FFF">
			<path d="M11.688 10.063L12.938 7l8.562.031c1.25.094 2.75.094 3.594 1.157 1 1.156.781 2.812.281 4.124A8.712 8.712 0 0119.031 18c-2.062.313-4.156.219-6.25.219.417-1.017.834-2.038 1.25-3.063 1.719 0 3.469.094 5.219-.187 1.594-.406 3.063-2 2.813-3.75-.157-.75-1-1.094-1.72-1.094-2.874-.125-5.75 0-8.624-.063h-.031z" />
			<path d="M8 10.906h10.156l-1.343 3.469H6.624L8 10.937v-.03zm1.625 4.25h3.531L9.47 24.531H6l3.656-9.375h-.031z" />
		</g>
	</g>
</svg>
