<?xml version="1.0"?>
<svg xmlns="http://www.w3.org/2000/svg" version="1.1" width="100" height="100" x="0" y="0" viewBox="0 0 483.013 483.013" xml:space="preserve">
	<defs>
		<linearGradient id="grad1" x1="0%" y1="0%" x2="100%" y2="0%">
			<stop offset="0%" style="stop-color:#ed79aa;stop-opacity:1" />
			<stop offset="100%" style="stop-color:#f2a1c3;stop-opacity:1" />
		</linearGradient>
	</defs>
	<g transform="matrix(6.123233995736766e-17,-1,1,6.123233995736766e-17,-0.0003676414490030311,483.01362466812134)">
		<path d="M477.043,219.205L378.575,48.677c-7.974-13.802-22.683-22.292-38.607-22.292H143.041c-15.923,0-30.628,8.49-38.608,22.292  L5.971,219.205c-7.961,13.801-7.961,30.785,0,44.588l98.462,170.543c7.98,13.802,22.685,22.293,38.608,22.293h196.926  c15.925,0,30.634-8.491,38.607-22.293l98.469-170.543C485.003,249.99,485.003,233.006,477.043,219.205z" fill="url(#grad1)" data-original="#000000" style="" class="" />
	</g>
	<g transform="scale(11) translate(6 6)">
		<g fill="#fff">
			<path d="M23.452 8.929l-1.87 1.883a7.238 7.238 0 00-5.152-2.149c-3.915 0-7.11 3.11-7.278 7.01h-.008v7.122A10.003 10.003 0 016.5 16c0-5.523 4.446-10 9.93-10a9.865 9.865 0 017.022 2.929zm0 14.142A9.865 9.865 0 0116.592 26v-2.664a7.238 7.238 0 004.99-2.147z" opacity=".5" />
			<path d="M11.681 24.784v-9.11h.007C11.828 13.069 13.97 11 16.592 11c2.712 0 4.911 2.214 4.911 4.946 0 2.731-2.199 4.945-4.91 4.945a4.862 4.862 0 01-2.483-.677v5.511a9.822 9.822 0 01-2.429-.94zm4.911-6.338a2.491 2.491 0 002.483-2.5c0-1.381-1.112-2.5-2.483-2.5a2.491 2.491 0 00-2.482 2.5c0 1.38 1.111 2.5 2.482 2.5z" />
		</g>
	</g>
</svg>
