<?xml version="1.0"?>
<svg xmlns="http://www.w3.org/2000/svg" version="1.1" width="100" height="100" x="0" y="0" viewBox="0 0 483.013 483.013" xml:space="preserve">
	<defs>
		<linearGradient id="grad1" x1="0%" y1="0%" x2="100%" y2="0%">
			<stop offset="0%" style="stop-color:#96b73d;stop-opacity:1" />
			<stop offset="100%" style="stop-color:#b7d073;stop-opacity:1" />
		</linearGradient>
	</defs>
	<g transform="matrix(6.123233995736766e-17,-1,1,6.123233995736766e-17,-0.0003676414490030311,483.01362466812134)">
		<path d="M477.043,219.205L378.575,48.677c-7.974-13.802-22.683-22.292-38.607-22.292H143.041c-15.923,0-30.628,8.49-38.608,22.292  L5.971,219.205c-7.961,13.801-7.961,30.785,0,44.588l98.462,170.543c7.98,13.802,22.685,22.293,38.608,22.293h196.926  c15.925,0,30.634-8.491,38.607-22.293l98.469-170.543C485.003,249.99,485.003,233.006,477.043,219.205z" fill="url(#grad1)" data-original="#000000" style="" class="" />
	</g>
	<g transform="scale(11) translate(6 6)">
		<path d="M11.594 16.105c.086.258.213.5.377.718l-2.493-2.518a1.399 1.399 0 010-1.97l3.145-3.147c.065-.048.127-.1.187-.154l.091-.08 2.547-2.549a1.376 1.376 0 011.953.003l8.343 8.403a1.408 1.408 0 01-.151 1.801 1.423 1.423 0 01-1.78.195l-7.37-7.44-.008-.01-.024-.026-3.943 3.944-.06.05a.286.286 0 01-.007.008l3.896 3.927a1.399 1.399 0 01-.62 2.332 1.377 1.377 0 01-1.337-.361l-1.996-2.01c-.029-.026-.058-.06-.094-.096l-.092-.092a2.586 2.586 0 01-.187-.237l.045.053-.03-.039a2.531 2.531 0 01-.392-.705zm8.146 2.573l-3.901-3.929a1.399 1.399 0 010-1.97 1.378 1.378 0 011.956.004l1.997 2.01c.028.025.057.06.094.095l.091.092c.052.058.1.12.144.183l.022.027a4.957 4.957 0 00-.086-.119l2.61 2.627a1.4 1.4 0 010 1.972l-3.147 3.148a2.362 2.362 0 00-.19.151l-2.624 2.624a1.376 1.376 0 01-1.954 0l-8.477-8.547a1.408 1.408 0 01.185-1.876 1.383 1.383 0 011.872.01l7.384 7.455.025.03 3.935-3.934.058-.047a.352.352 0 01.006-.006z" fill="#fff" fill-rule="nonzero" />
	</g>
</svg>
