<?xml version="1.0"?>
<svg xmlns="http://www.w3.org/2000/svg" version="1.1" width="100" height="100" x="0" y="0" viewBox="0 0 483.013 483.013" xml:space="preserve">
	<defs>
		<linearGradient id="grad1" x1="0%" y1="0%" x2="100%" y2="0%">
			<stop offset="0%" style="stop-color:#00bfff;stop-opacity:1" />
			<stop offset="100%" style="stop-color:#4cd2fe;stop-opacity:1" />
		</linearGradient>
	</defs>
	<g transform="matrix(6.123233995736766e-17,-1,1,6.123233995736766e-17,-0.0003676414490030311,483.01362466812134)">
		<path d="M477.043,219.205L378.575,48.677c-7.974-13.802-22.683-22.292-38.607-22.292H143.041c-15.923,0-30.628,8.49-38.608,22.292  L5.971,219.205c-7.961,13.801-7.961,30.785,0,44.588l98.462,170.543c7.98,13.802,22.685,22.293,38.608,22.293h196.926  c15.925,0,30.634-8.491,38.607-22.293l98.469-170.543C485.003,249.99,485.003,233.006,477.043,219.205z" fill="url(#grad1)" data-original="#000000" style="" class="" />
	</g>
	<g transform="scale(11) translate(6 6)">
		<path d="M8.41 20.902h-.098V25H6V11.125h2.26v.64h.089c.789-.756 1.794-.777 2.358-.777 2.364 0 3.914 2.253 3.914 5.262v.39c0 3.131-1.794 4.997-3.954 4.997-1.011.003-1.76-.228-2.257-.735zm4.064-4.076v-.683c0-1.96-.747-3.271-2.078-3.271-1.438 0-2.209 1.524-2.209 3.271v.68c0 1.665.759 2.94 2.249 2.94 1.173-.004 2.038-.918 2.038-2.937zM15.74 7h2.315v14.576H15.74zm8.929 6.409c-1.298 0-2.587 1.03-2.587 2.332v5.844H19.78V11.223h2.133v.637H22c.518-.546 1.785-.802 2.827-.787.104 0 .018.003.119.003l.012 2.333zm-.972 5.686H26v2.481h-2.303z" fill="#fff" fill-rule="nonzero" />
	</g>
</svg>
