<?xml version="1.0"?>
<svg xmlns="http://www.w3.org/2000/svg" version="1.1" width="100" height="100" x="0" y="0" viewBox="0 0 483.013 483.013" xml:space="preserve">
	<defs>
		<linearGradient id="grad1" x1="0%" y1="0%" x2="100%" y2="0%">
			<stop offset="0%" style="stop-color:#444fa1;stop-opacity:1" />
			<stop offset="100%" style="stop-color:#747ec4;stop-opacity:1" />
		</linearGradient>
	</defs>
	<g transform="matrix(6.123233995736766e-17,-1,1,6.123233995736766e-17,-0.0003676414490030311,483.01362466812134)">
		<path d="M477.043,219.205L378.575,48.677c-7.974-13.802-22.683-22.292-38.607-22.292H143.041c-15.923,0-30.628,8.49-38.608,22.292  L5.971,219.205c-7.961,13.801-7.961,30.785,0,44.588l98.462,170.543c7.98,13.802,22.685,22.293,38.608,22.293h196.926  c15.925,0,30.634-8.491,38.607-22.293l98.469-170.543C485.003,249.99,485.003,233.006,477.043,219.205z" fill="url(#grad1)" data-original="#000000" style="" class="" />
	</g>
	<g transform="scale(11) translate(6 6)">
		<path d="M5 24L16 5l11 19zm6.872-9.676c1.285-.858 2.663-1.291 4.128-1.291s2.843.433 4.128 1.291L16 7.194zm-1.951 3.37l-2.997 5.177h18.152l-2.997-5.176c-1.81 1.989-3.843 2.999-6.079 2.999s-4.27-1.01-6.08-3zM16 19.565c1.938 0 3.711-.89 5.338-2.7-1.627-1.813-3.4-2.702-5.338-2.702s-3.711.89-5.338 2.701c1.627 1.812 3.4 2.702 5.338 2.702zm0-.483c-1.16 0-2.101-.975-2.101-2.178 0-1.202.94-2.177 2.101-2.177s2.101.975 2.101 2.177c0 1.203-.94 2.178-2.101 2.178zm0-1.13c.559 0 1.012-.469 1.012-1.048 0-.579-.453-1.048-1.012-1.048s-1.012.47-1.012 1.048c0 .58.453 1.049 1.012 1.049z" fill="#fff" />
	</g>
</svg>
