<?xml version="1.0"?>
<svg xmlns="http://www.w3.org/2000/svg" version="1.1" width="100" height="100" x="0" y="0" viewBox="0 0 483.013 483.013" xml:space="preserve">
	<defs>
		<linearGradient id="grad1" x1="0%" y1="0%" x2="100%" y2="0%">
			<stop offset="0%" style="stop-color:#2c3e50;stop-opacity:1" />
			<stop offset="100%" style="stop-color:#55779a;stop-opacity:1" />
		</linearGradient>
	</defs>
	<g transform="matrix(6.123233995736766e-17,-1,1,6.123233995736766e-17,-0.0003676414490030311,483.01362466812134)">
		<path d="M477.043,219.205L378.575,48.677c-7.974-13.802-22.683-22.292-38.607-22.292H143.041c-15.923,0-30.628,8.49-38.608,22.292  L5.971,219.205c-7.961,13.801-7.961,30.785,0,44.588l98.462,170.543c7.98,13.802,22.685,22.293,38.608,22.293h196.926  c15.925,0,30.634-8.491,38.607-22.293l98.469-170.543C485.003,249.99,485.003,233.006,477.043,219.205z" fill="url(#grad1)" data-original="#000000" style="" class="" />
	</g>
	<g transform="scale(11) translate(6 6)">
		<path d="M25.636 22.68v-1c0-.198-.133-.33-.335-.33h-.665v-1.004c0-.199-.133-.334-.331-.334h-.666v-7.345h.662c.199 0 .335-.132.335-.334v-1h.665a.322.322 0 00.331-.268c.034-.166-.033-.298-.165-.368l-9.318-4.672a.46.46 0 00-.298 0l-9.652 4.672a.333.333 0 00-.166.364c0 .17.133.272.298.272h1v1c0 .198.133.33.331.33h.666v7.349h-.662c-.2 0-.335.132-.335.33v1.004h-.665c-.2 0-.332.132-.332.331v1.003c-.198 0-.334.133-.334.335s.132.334.331.334h19.305c.198 0 .334-.132.334-.33 0-.2-.132-.339-.33-.339h-.004zM7.993 11.998v-.665h15.974v.665H7.993zm13.643.67v7.344h-1.328v-7.345h1.328zm-3.328 0v7.344h-1.331v-7.345h1.33zm-3.328 0v7.344h-1.328v-7.345h1.328zm-3.328 0v7.344h-1.327v-7.345h1.327zm12.315 8.678H7.997v-.669H23.97v.669h-.003z" fill="#FFF" />
	</g>
</svg>
