<?xml version="1.0"?>
<svg xmlns="http://www.w3.org/2000/svg" version="1.1" width="100" height="100" x="0" y="0" viewBox="0 0 483.013 483.013" xml:space="preserve">
	<defs>
		<linearGradient id="grad1" x1="0%" y1="0%" x2="100%" y2="0%">
			<stop offset="0%" style="stop-color:#4c5a95;stop-opacity:1" />
			<stop offset="100%" style="stop-color:#7a87bb;stop-opacity:1" />
		</linearGradient>
	</defs>
	<g transform="matrix(6.123233995736766e-17,-1,1,6.123233995736766e-17,-0.0003676414490030311,483.01362466812134)">
		<path d="M477.043,219.205L378.575,48.677c-7.974-13.802-22.683-22.292-38.607-22.292H143.041c-15.923,0-30.628,8.49-38.608,22.292  L5.971,219.205c-7.961,13.801-7.961,30.785,0,44.588l98.462,170.543c7.98,13.802,22.685,22.293,38.608,22.293h196.926  c15.925,0,30.634-8.491,38.607-22.293l98.469-170.543C485.003,249.99,485.003,233.006,477.043,219.205z" fill="url(#grad1)" data-original="#000000" style="" class="" />
	</g>
	<g transform="scale(11) translate(6 6)">
		<path d="M27 11.263l-.044-.707-.218.593-1.226 1.03-1.404.209-.42-.389 1.231-1.633 1.26-.366-1.364.028-1.983 1.382-1.859-.128L18.363 10l-1.542.299-4.811 3.846-2.318.717-.954.931-1.706.023-.845 1.51L5 17.654l1.122.147 1.043-1.353 1.612.323-.03 1.448-.805 2.084-.46 1.928-.495.769 1.256-.266-.143-.788 1.068-2.118 2.056-.797.796-1.268 1.345-.94 2.67.375 2.689-1.135-.455 1.795-1.196.104-.341 1.472 1.023-.655 1.696-.707 1.325-1.999.084-.945.712.707 2.071 1.249 1.177-.537-.069-2.639-.342-1.021 1.538-.375z" fill="#fff" />
	</g>
</svg>
