<?xml version="1.0"?>
<svg xmlns="http://www.w3.org/2000/svg" version="1.1" width="100" height="100" x="0" y="0" viewBox="0 0 483.013 483.013" xml:space="preserve">
	<defs>
		<linearGradient id="grad1" x1="0%" y1="0%" x2="100%" y2="0%">
			<stop offset="0%" style="stop-color:#105b2f;stop-opacity:1" />
			<stop offset="100%" style="stop-color:#22c164;stop-opacity:1" />
		</linearGradient>
	</defs>
	<g transform="matrix(6.123233995736766e-17,-1,1,6.123233995736766e-17,-0.0003676414490030311,483.01362466812134)">
		<path d="M477.043,219.205L378.575,48.677c-7.974-13.802-22.683-22.292-38.607-22.292H143.041c-15.923,0-30.628,8.49-38.608,22.292  L5.971,219.205c-7.961,13.801-7.961,30.785,0,44.588l98.462,170.543c7.98,13.802,22.685,22.293,38.608,22.293h196.926  c15.925,0,30.634-8.491,38.607-22.293l98.469-170.543C485.003,249.99,485.003,233.006,477.043,219.205z" fill="url(#grad1)" data-original="#000000" style="" class="" />
	</g>
	<g transform="scale(11) translate(6 6)">
		<path fill="#FFF" d="M12.033 18.18l-.39 1.987-.71 3.651c-.02.11-.048.184-.188.182-.882-.013-1.764-.02-2.646-.03-.021 0-.043-.014-.099-.035l1.99-9.94H8.313c.004-.074.002-.118.01-.16.103-.537.214-1.073.307-1.612.026-.15.093-.188.233-.187.41.004.82-.011 1.228.003.195.006.27-.05.308-.242.228-1.188.472-2.372.706-3.558.028-.141.059-.238.243-.238 2.008.006 4.017-.013 6.025.013 1.172.015 2.347.075 3.5.312.397.082.8.188 1.168.352 1.058.47 1.695 1.284 1.872 2.411.275 1.751-.096 3.36-1.22 4.762-.83 1.032-1.968 1.611-3.239 1.963-1.008.279-2.042.366-3.084.368-1.355.003-2.71 0-4.065-.001h-.272zm.555-2.738h.283c1.433 0 2.866.003 4.3-.002.305 0 .614-.013.917-.05 1.157-.138 2.036-.693 2.598-1.7a2.14 2.14 0 00.229-1.434c-.118-.697-.534-1.152-1.241-1.28a9.826 9.826 0 00-1.569-.17c-1.472-.027-2.944-.016-4.417-.02-.053 0-.106.008-.177.014l-.244 1.248h4.09l-.376 1.938h-4.103l-.29 1.456z" />
	</g>
</svg>
