<?xml version="1.0"?>
<svg xmlns="http://www.w3.org/2000/svg" version="1.1" width="100" height="100" x="0" y="0" viewBox="0 0 483.013 483.013" xml:space="preserve">
	<defs>
		<linearGradient id="grad1" x1="0%" y1="0%" x2="100%" y2="0%">
			<stop offset="0%" style="stop-color:#348f8d;stop-opacity:1" />
			<stop offset="100%" style="stop-color:#5dc4c1;stop-opacity:1" />
		</linearGradient>
	</defs>
	<g transform="matrix(6.123233995736766e-17,-1,1,6.123233995736766e-17,-0.0003676414490030311,483.01362466812134)">
		<path d="M477.043,219.205L378.575,48.677c-7.974-13.802-22.683-22.292-38.607-22.292H143.041c-15.923,0-30.628,8.49-38.608,22.292  L5.971,219.205c-7.961,13.801-7.961,30.785,0,44.588l98.462,170.543c7.98,13.802,22.685,22.293,38.608,22.293h196.926  c15.925,0,30.634-8.491,38.607-22.293l98.469-170.543C485.003,249.99,485.003,233.006,477.043,219.205z" fill="url(#grad1)" data-original="#000000" style="" class="" />
	</g>
	<g transform="scale(11) translate(6 6)">
		<path d="M23.312 7.044a1.33 1.33 0 010 1.846l-3.13 3.209a1.29 1.29 0 01-.342.25 1.19 1.19 0 01-1.442-.211L15.28 8.944l-6.005 6.159 1.45 1.483a1.17 1.17 0 01-.007 1.62 1.105 1.105 0 01-1.582.007L6.83 15.86a1.174 1.174 0 010-1.632l.016-.015a.198.198 0 00.014-.015l7.624-7.82h.001l.001-.001.025-.026A1.147 1.147 0 0116 6.21c.072.049.14.104.2.167l2.984 3.053 2.327-2.386a1.255 1.255 0 011.802 0zm1.858 9.102a1.165 1.165 0 01.001 1.627l-.016.015a.198.198 0 00-.015.015l-7.654 7.847a1.148 1.148 0 01-1.754-.121l-2.917-2.984-2.313 2.378c-.322.332-.792.463-1.233.342s-.786-.473-.904-.925c-.117-.451.01-.933.335-1.262l3.129-3.208c.178-.186.407-.312.657-.362.404-.09.826.036 1.119.336l3.126 3.198 5.994-6.144-1.45-1.483a1.17 1.17 0 01.007-1.62 1.105 1.105 0 011.582-.007l2.273 2.325.002.002.003.002z" fill="#fff" fill-rule="nonzero" />
	</g>
</svg>
