<?xml version="1.0"?>
<svg xmlns="http://www.w3.org/2000/svg" version="1.1" width="100" height="100" x="0" y="0" viewBox="0 0 483.013 483.013" xml:space="preserve">
	<defs>
		<linearGradient id="grad1" x1="0%" y1="0%" x2="100%" y2="0%">
			<stop offset="0%" style="stop-color:#152743;stop-opacity:1" />
			<stop offset="100%" style="stop-color:#335fa3;stop-opacity:1" />
		</linearGradient>
	</defs>
	<g transform="matrix(6.123233995736766e-17,-1,1,6.123233995736766e-17,-0.0003676414490030311,483.01362466812134)">
		<path d="M477.043,219.205L378.575,48.677c-7.974-13.802-22.683-22.292-38.607-22.292H143.041c-15.923,0-30.628,8.49-38.608,22.292  L5.971,219.205c-7.961,13.801-7.961,30.785,0,44.588l98.462,170.543c7.98,13.802,22.685,22.293,38.608,22.293h196.926  c15.925,0,30.634-8.491,38.607-22.293l98.469-170.543C485.003,249.99,485.003,233.006,477.043,219.205z" fill="url(#grad1)" data-original="#000000" style="" class="" />
	</g>
	<g transform="scale(11) translate(6 6)">
		<path fill="#FFF" d="M16.049 8.316c-1.316 0-2.383-.733-2.383-1.638 0-.905 1.067-1.638 2.383-1.638s2.382.733 2.382 1.638c0 .905-1.066 1.638-2.382 1.638zM14.816 26.6V9.104h5.312c.197 0 .336.147.336.344v9.708c0 .196-.14.364-.336.364H17.2v7.08c0 .197-.15.376-.347.376h-1.668a.384.384 0 01-.369-.375zm-.896-7.081h-2.01a.378.378 0 01-.374-.364V9.448c0-.197.177-.344.373-.344h2.011V19.52z" />
	</g>
</svg>
