<?xml version="1.0"?>
<svg xmlns="http://www.w3.org/2000/svg" version="1.1" width="100" height="100" x="0" y="0" viewBox="0 0 483.013 483.013" xml:space="preserve">
	<defs>
		<linearGradient id="grad1" x1="0%" y1="0%" x2="100%" y2="0%">
			<stop offset="0%" style="stop-color:#3a8cbd;stop-opacity:1" />
			<stop offset="100%" style="stop-color:#72afd3;stop-opacity:1" />
		</linearGradient>
	</defs>
	<g transform="matrix(6.123233995736766e-17,-1,1,6.123233995736766e-17,-0.0003676414490030311,483.01362466812134)">
		<path d="M477.043,219.205L378.575,48.677c-7.974-13.802-22.683-22.292-38.607-22.292H143.041c-15.923,0-30.628,8.49-38.608,22.292  L5.971,219.205c-7.961,13.801-7.961,30.785,0,44.588l98.462,170.543c7.98,13.802,22.685,22.293,38.608,22.293h196.926  c15.925,0,30.634-8.491,38.607-22.293l98.469-170.543C485.003,249.99,485.003,233.006,477.043,219.205z" fill="url(#grad1)" data-original="#000000" style="" class="" />
	</g>
	<g transform="scale(11) translate(6 6)">
		<g fill="#FFF">
			<path d="M13.47 18.045h1.678a3.23 3.23 0 001.387-.308c.41-.203.776-.484 1.077-.828.299-.356.53-.763.684-1.201a3.92 3.92 0 00.248-1.388 3.393 3.393 0 00-.27-1.346 4.143 4.143 0 00-.724-1.18 3.636 3.636 0 00-1.098-.848 2.974 2.974 0 00-1.384-.332h-4.41v10.703h2.816l-.004-3.272zm0-4.846h1.427a.77.77 0 01.518.249c.166.165.27.456.27.911s-.103.725-.25.872c-.123.145-.289.248-.475.248h-1.49V13.2z" />
			<path d="M7.023 8.03v15.888c0 .57.461 1.03 1.03 1.03h15.888c.569 0 1.03-.46 1.03-1.03V8.03a1.03 1.03 0 00-1.03-1.031H8.053a1.03 1.03 0 00-1.03 1.03zm14.803 14.804h-11.68a1.03 1.03 0 01-1.031-1.03v-11.68a1.03 1.03 0 011.031-1.031h11.68c.57 0 1.03.461 1.03 1.03v11.68c0 .57-.46 1.031-1.03 1.031z" />
			<path d="M14.733 19.309h6.607v2.03h-6.607z" />
		</g>
	</g>
</svg>
