<?xml version="1.0"?>
<svg xmlns="http://www.w3.org/2000/svg" version="1.1" width="100" height="100" x="0" y="0" viewBox="0 0 483.013 483.013" xml:space="preserve">
	<defs>
		<linearGradient id="grad1" x1="0%" y1="0%" x2="100%" y2="0%">
			<stop offset="0%" style="stop-color:#9d4bef;stop-opacity:1" />
			<stop offset="100%" style="stop-color:#ba81f3;stop-opacity:1" />
		</linearGradient>
	</defs>
	<g transform="matrix(6.123233995736766e-17,-1,1,6.123233995736766e-17,-0.0003676414490030311,483.01362466812134)">
		<path d="M477.043,219.205L378.575,48.677c-7.974-13.802-22.683-22.292-38.607-22.292H143.041c-15.923,0-30.628,8.49-38.608,22.292  L5.971,219.205c-7.961,13.801-7.961,30.785,0,44.588l98.462,170.543c7.98,13.802,22.685,22.293,38.608,22.293h196.926  c15.925,0,30.634-8.491,38.607-22.293l98.469-170.543C485.003,249.99,485.003,233.006,477.043,219.205z" fill="url(#grad1)" data-original="#000000" style="" class="" />
	</g>
	<g transform="scale(11) translate(6 6)">
		<path d="M11.47 7.661a3.808 3.808 0 110 7.616 3.808 3.808 0 010-7.616zm3.807 12.87a3.808 3.808 0 11-3.808-3.808 5.253 5.253 0 005.253-5.253 3.808 3.808 0 113.808 3.808 5.253 5.253 0 00-5.252 5.253zm5.253 3.808a3.808 3.808 0 110-7.616 3.808 3.808 0 010 7.616zm0-2.66a1.148 1.148 0 100-2.296 1.148 1.148 0 000 2.296zm-9.06 0a1.148 1.148 0 100-2.296 1.148 1.148 0 000 2.296zm9.06-9.062a1.148 1.148 0 100-2.296 1.148 1.148 0 000 2.296zm-9.06 0a1.148 1.148 0 100-2.296 1.148 1.148 0 000 2.296z" fill="#fff" fill-rule="nonzero" />
	</g>
</svg>
