<?xml version="1.0"?>
<svg xmlns="http://www.w3.org/2000/svg" version="1.1" width="100" height="100" x="0" y="0" viewBox="0 0 483.013 483.013" xml:space="preserve">
	<defs>
		<linearGradient id="grad1" x1="0%" y1="0%" x2="100%" y2="0%">
			<stop offset="0%" style="stop-color:#e30613;stop-opacity:1" />
			<stop offset="100%" style="stop-color:#fa424c;stop-opacity:1" />
		</linearGradient>
	</defs>
	<g transform="matrix(6.123233995736766e-17,-1,1,6.123233995736766e-17,-0.0003676414490030311,483.01362466812134)">
		<path d="M477.043,219.205L378.575,48.677c-7.974-13.802-22.683-22.292-38.607-22.292H143.041c-15.923,0-30.628,8.49-38.608,22.292  L5.971,219.205c-7.961,13.801-7.961,30.785,0,44.588l98.462,170.543c7.98,13.802,22.685,22.293,38.608,22.293h196.926  c15.925,0,30.634-8.491,38.607-22.293l98.469-170.543C485.003,249.99,485.003,233.006,477.043,219.205z" fill="url(#grad1)" data-original="#000000" style="" class="" />
	</g>
	<g transform="scale(11) translate(6 6)">
		<g fill="#FFF">
			<path d="M15.361 27C9.64 27 5 22.407 5 16.742 5 11.077 9.639 6.484 15.361 6.484c5.723 0 10.362 4.593 10.362 10.258C25.723 22.407 21.083 27 15.36 27zM17.15 9.423c2.416.989 4.152 2.85 5.384 5.358l.93-.647c-1.044-2.512-2.973-4.486-6.076-5.766l-.238 1.055z" opacity=".75" />
			<path fill-rule="nonzero" d="M26.992 9.321C26.992 6.935 25.037 5 22.627 5s-4.365 1.935-4.365 4.321c0 .228.018.455.054.68 1.453.846 2.62 2.06 3.553 3.576.25.043.504.066.758.066 2.41 0 4.365-1.935 4.365-4.322z" />
		</g>
	</g>
</svg>
