<?xml version="1.0"?>
<svg xmlns="http://www.w3.org/2000/svg" version="1.1" width="100" height="100" x="0" y="0" viewBox="0 0 483.013 483.013" xml:space="preserve">
	<defs>
		<linearGradient id="grad1" x1="0%" y1="0%" x2="100%" y2="0%">
			<stop offset="0%" style="stop-color:#2a2a2a;stop-opacity:1" />
			<stop offset="100%" style="stop-color:#696969;stop-opacity:1" />
		</linearGradient>
	</defs>
	<g transform="matrix(6.123233995736766e-17,-1,1,6.123233995736766e-17,-0.0003676414490030311,483.01362466812134)">
		<path d="M477.043,219.205L378.575,48.677c-7.974-13.802-22.683-22.292-38.607-22.292H143.041c-15.923,0-30.628,8.49-38.608,22.292  L5.971,219.205c-7.961,13.801-7.961,30.785,0,44.588l98.462,170.543c7.98,13.802,22.685,22.293,38.608,22.293h196.926  c15.925,0,30.634-8.491,38.607-22.293l98.469-170.543C485.003,249.99,485.003,233.006,477.043,219.205z" fill="url(#grad1)" data-original="#000000" style="" class="" />
	</g>
	<g transform="scale(11) translate(6 6)">
		<path fill="#FFF" d="M10 6.006h8.111c.098-.03.148.06.212.11a14.88 14.88 0 012.046 2.39 15.153 15.153 0 011.972 3.946c.482 1.484.71 3.054.65 4.614h-4.135a5 5 0 00.022-.624c-.043-1.471-.497-2.914-1.212-4.192-.765-1.369-1.833-2.55-3.047-3.531-1.322-1.069-2.81-1.913-4.36-2.595-.086-.04-.176-.072-.259-.118zm3.002 7.327a4715.11 4715.11 0 014.155 7.533c.333.606.67 1.21 1 1.817C16.436 23.785 14.72 24.897 13 26V13.333z" />
	</g>
</svg>
