<?xml version="1.0"?>
<svg xmlns="http://www.w3.org/2000/svg" version="1.1" width="100" height="100" x="0" y="0" viewBox="0 0 483.013 483.013" xml:space="preserve">
	<defs>
		<linearGradient id="grad1" x1="0%" y1="0%" x2="100%" y2="0%">
			<stop offset="0%" style="stop-color:#001b3a;stop-opacity:1" />
			<stop offset="100%" style="stop-color:#005ac1;stop-opacity:1" />
		</linearGradient>
	</defs>
	<g transform="matrix(6.123233995736766e-17,-1,1,6.123233995736766e-17,-0.0003676414490030311,483.01362466812134)">
		<path d="M477.043,219.205L378.575,48.677c-7.974-13.802-22.683-22.292-38.607-22.292H143.041c-15.923,0-30.628,8.49-38.608,22.292  L5.971,219.205c-7.961,13.801-7.961,30.785,0,44.588l98.462,170.543c7.98,13.802,22.685,22.293,38.608,22.293h196.926  c15.925,0,30.634-8.491,38.607-22.293l98.469-170.543C485.003,249.99,485.003,233.006,477.043,219.205z" fill="url(#grad1)" data-original="#000000" style="" class="" />
	</g>
	<g transform="scale(11) translate(6 6)">
		<path d="M9.026 9.636l-.228-.374L6 10.872v-.244L15.743 5l.21.13.442.244.438.26-5.97 3.448-.227-.374-1.61.928zm0 3.545l-.228-.374L6 14.417v-.261l12.816-7.383.214.13.438.243.439.26-5.987 3.45-.21-.375-4.684 2.7zm0 1.772l-.228-.388L6 16.189v-.258L20.346 7.65l.21.13.442.261.438.246-5.987 3.447-.21-.373-6.213 3.592zm0 1.758l-.228-.374L6 17.947v-.243l15.875-9.159.21.115.44.259.44.245-5.936 3.433-.213-.376-7.79 4.49zm0 1.772l-.228-.373L6 19.72v-.244l17.404-10.05.229.127.42.246.442.26-5.937 3.433-.213-.391-9.319 5.382zm16.133-8.05l.326.195v.635l-6.927 3.984-.213-.374-9.319 5.383-.228-.374L6 21.492v-.243l18.934-10.946.225.13zM7.203 22.567l-.21-.13 18.492-10.67v1.251l-6.962 4.034-.226-.389-9.303 5.383-.229-.374-1.562.895zm11.094-4.131l-7.744 4.472-.226-.373-1.594.927-.21-.13 16.962-9.793v1.254l-6.962 4.034-.226-.391zm-8.035 5.904l-.213-.13 15.436-8.913v1.268l-6.962 4.017-.226-.374-6.215 3.595-.21-.39-1.61.927zm1.544.877l-.228-.112 13.907-8.036v1.269l-6.962 4.016-.226-.373-4.685 2.7-.211-.374-1.595.91zm1.302.765l12.377-7.14v1.268l-6.962 4.02-.226-.377-3.156 1.823-.21-.391-1.595.927-.228-.13zm1.757 1.008l-.213-.113 10.833-6.263v1.269l-6.962 4.019-.226-.391-1.612.942-.225-.373-1.595.91zm3.513-20.478l-5.985 3.45-.213-.374-3.154 1.82-.228-.373L6 12.645V12.4l11.272-6.524.228.13.439.262.439.243z" fill="#FFF" />
	</g>
</svg>
