<?xml version="1.0"?>
<svg xmlns="http://www.w3.org/2000/svg" version="1.1" width="100" height="100" x="0" y="0" viewBox="0 0 483.013 483.013" xml:space="preserve">
	<defs>
		<linearGradient id="grad1" x1="0%" y1="0%" x2="100%" y2="0%">
			<stop offset="0%" style="stop-color:#6cfccd;stop-opacity:1" />
			<stop offset="100%" style="stop-color:#98fcdc;stop-opacity:1" />
		</linearGradient>
	</defs>
	<g transform="matrix(6.123233995736766e-17,-1,1,6.123233995736766e-17,-0.0003676414490030311,483.01362466812134)">
		<path d="M477.043,219.205L378.575,48.677c-7.974-13.802-22.683-22.292-38.607-22.292H143.041c-15.923,0-30.628,8.49-38.608,22.292  L5.971,219.205c-7.961,13.801-7.961,30.785,0,44.588l98.462,170.543c7.98,13.802,22.685,22.293,38.608,22.293h196.926  c15.925,0,30.634-8.491,38.607-22.293l98.469-170.543C485.003,249.99,485.003,233.006,477.043,219.205z" fill="url(#grad1)" data-original="#000000" style="" class="" />
	</g>
	<g transform="scale(11) translate(6 6)">
		<path fill="#FFF" d="M10 6h6.607c.902.007 1.574.057 2.016.15a5.389 5.389 0 013.589 2.436c.918 1.457 1.038 3.358.34 4.925-.632 1.442-1.954 2.571-3.5 2.98-.981.278-2.01.175-3.018.193a5181.37 5181.37 0 015.165 8.418L19.77 26c-2.995-4.88-5.24-8.54-6.735-10.98 1.593-.008 3.186.012 4.778-.01 1.837-.049 3.444-1.642 3.482-3.444.12-1.557-.91-3.11-2.415-3.622-.416-.159-1.07-.233-1.963-.22L10 7.721V6z" />
	</g>
</svg>
