<?xml version="1.0"?>
<svg xmlns="http://www.w3.org/2000/svg" version="1.1" width="100" height="100" x="0" y="0" viewBox="0 0 483.013 483.013" xml:space="preserve">
	<defs>
		<linearGradient id="grad1" x1="0%" y1="0%" x2="100%" y2="0%">
			<stop offset="0%" style="stop-color:#cc1e46;stop-opacity:1" />
			<stop offset="100%" style="stop-color:#e65677;stop-opacity:1" />
		</linearGradient>
	</defs>
	<g transform="matrix(6.123233995736766e-17,-1,1,6.123233995736766e-17,-0.0003676414490030311,483.01362466812134)">
		<path d="M477.043,219.205L378.575,48.677c-7.974-13.802-22.683-22.292-38.607-22.292H143.041c-15.923,0-30.628,8.49-38.608,22.292  L5.971,219.205c-7.961,13.801-7.961,30.785,0,44.588l98.462,170.543c7.98,13.802,22.685,22.293,38.608,22.293h196.926  c15.925,0,30.634-8.491,38.607-22.293l98.469-170.543C485.003,249.99,485.003,233.006,477.043,219.205z" fill="url(#grad1)" data-original="#000000" style="" class="" />
	</g>
	<g transform="scale(11) translate(6 6)">
		<path fill="#FFF" d="M11.816 9.24a11.174 11.174 0 015.753-2.2c.212-.043.442.091.435.325.02.56.006 1.12.006 1.68.014.174-.078.4-.278.405-1.846.204-3.6.958-5.124 2-.144.081-.112.268-.1.404.106.982.034 1.971.063 2.956 4.974.014 9.95-.002 14.926.008.237-.02.487.115.468.38.025 1.675.005 3.35.01 5.024.004.91-.19 1.852-.741 2.596-.87 1.169-2.4 1.87-3.854 1.612-1.03-.154-1.92-.793-2.544-1.604a11.207 11.207 0 01-5.844 2.215c-.215.003-.376-.208-.343-.414.007-.586-.012-1.174.01-1.76.05-.31.432-.25.659-.301 1.744-.272 3.412-1.003 4.836-2.04a37.333 37.333 0 01-.077-3.269c-4.992-.032-9.986-.002-14.978-.016-.22.025-.432-.14-.411-.373-.004-1.763-.003-3.527.002-5.29.01-.922.301-1.854.912-2.557.805-.916 2.019-1.501 3.251-1.429 1.18.047 2.263.718 2.963 1.648zM6.7 11.882c-.002 1.033-.003 2.067.002 3.102 1.234-.001 2.466.017 3.699-.01.002-1.008.015-2.015-.006-3.023-.019-.966-.892-1.82-1.862-1.8-.947-.039-1.81.79-1.833 1.73zm15.709 5.29c-.01.982-.002 1.965-.006 2.947-.006.393.113.777.34 1.097.474.677 1.418.973 2.19.674.713-.264 1.184-1.01 1.176-1.76 0-.986.005-1.97-.004-2.956-1.232-.01-2.464-.005-3.696-.003z" />
	</g>
</svg>
