<?xml version="1.0"?>
<svg xmlns="http://www.w3.org/2000/svg" version="1.1" width="100" height="100" x="0" y="0" viewBox="0 0 483.013 483.013" xml:space="preserve">
	<defs>
		<linearGradient id="grad1" x1="0%" y1="0%" x2="100%" y2="0%">
			<stop offset="0%" style="stop-color:#60e4dd;stop-opacity:1" />
			<stop offset="100%" style="stop-color:#8fece7;stop-opacity:1" />
		</linearGradient>
	</defs>
	<g transform="matrix(6.123233995736766e-17,-1,1,6.123233995736766e-17,-0.0003676414490030311,483.01362466812134)">
		<path d="M477.043,219.205L378.575,48.677c-7.974-13.802-22.683-22.292-38.607-22.292H143.041c-15.923,0-30.628,8.49-38.608,22.292  L5.971,219.205c-7.961,13.801-7.961,30.785,0,44.588l98.462,170.543c7.98,13.802,22.685,22.293,38.608,22.293h196.926  c15.925,0,30.634-8.491,38.607-22.293l98.469-170.543C485.003,249.99,485.003,233.006,477.043,219.205z" fill="url(#grad1)" data-original="#000000" style="" class="" />
	</g>
	<g transform="scale(11) translate(6 6)">
		<path d="M10.144 20.024c.3-.455.584-.881.852-1.28H7.932a.093.093 0 01-.093-.093v-.636c0-.051.042-.093.093-.093h3.622c1.937-2.829 2.905-3.994 2.905-4.113 0-.183-.04-.274-.7-.274-1.304 0-3.449-.931-3.449-3.473C10.31 8.679 12.547 7 13.853 7c.606 0 .699.257.42.274-.746.046-2.378 1.536-2.378 2.97 0 .96.852 2.605 2.75 2.605 2.242 0 4.157-3.564 8.812-3.564 2.797 0 3.543 2.188 3.543 2.788 0 .6-.873.914-2.051.914-1.178 0-1.222-2.103-3.59-2.103-3.718 0-6.884 4.026-8.405 7.038h2.624c.052 0 .093.042.093.093v.636a.093.093 0 01-.093.094h-3.01c-.208.48-.363.915-.46 1.28h2.63c.052 0 .094.04.094.092v.637a.093.093 0 01-.093.093H11.99c.049 1.166 1.027 2.217 2.936 3.153h-7.32a185.324 185.324 0 012-3.153H7.094A.093.093 0 017 20.754v-.637c0-.051.042-.093.093-.093z" fill="#fff" />
	</g>
</svg>
