<?xml version="1.0"?>
<svg xmlns="http://www.w3.org/2000/svg" version="1.1" width="100" height="100" x="0" y="0" viewBox="0 0 483.013 483.013" xml:space="preserve">
	<defs>
		<linearGradient id="grad1" x1="0%" y1="0%" x2="100%" y2="0%">
			<stop offset="0%" style="stop-color:#f49352;stop-opacity:1" />
			<stop offset="100%" style="stop-color:#f7b385;stop-opacity:1" />
		</linearGradient>
	</defs>
	<g transform="matrix(6.123233995736766e-17,-1,1,6.123233995736766e-17,-0.0003676414490030311,483.01362466812134)">
		<path d="M477.043,219.205L378.575,48.677c-7.974-13.802-22.683-22.292-38.607-22.292H143.041c-15.923,0-30.628,8.49-38.608,22.292  L5.971,219.205c-7.961,13.801-7.961,30.785,0,44.588l98.462,170.543c7.98,13.802,22.685,22.293,38.608,22.293h196.926  c15.925,0,30.634-8.491,38.607-22.293l98.469-170.543C485.003,249.99,485.003,233.006,477.043,219.205z" fill="url(#grad1)" data-original="#000000" style="" class="" />
	</g>
	<g transform="scale(11) translate(6 6)">
		<path d="M12.605 9.155c-.857 0-1.552-.706-1.552-1.577S11.748 6 12.605 6c.858 0 1.553.706 1.553 1.578s-.695 1.577-1.553 1.577zM19.447 26a1.565 1.565 0 01-1.552-1.578c0-.87.695-1.577 1.552-1.577.858 0 1.553.706 1.553 1.577 0 .872-.695 1.578-1.553 1.578zm-6.205-11.79a1.38 1.38 0 01-1.955-.265 1.432 1.432 0 01.26-1.986l7.158-5.562a1.38 1.38 0 011.955.265 1.432 1.432 0 01-.26 1.987zm.053 5.669a1.38 1.38 0 01-1.955-.265 1.432 1.432 0 01.26-1.987l7.158-5.561a1.38 1.38 0 011.955.265 1.432 1.432 0 01-.26 1.986zm0 5.829a1.38 1.38 0 01-1.955-.265 1.432 1.432 0 01.26-1.987l7.158-5.561a1.38 1.38 0 011.955.265 1.432 1.432 0 01-.26 1.986z" fill="#fff" />
	</g>
</svg>
