<?xml version="1.0"?>
<svg xmlns="http://www.w3.org/2000/svg" version="1.1" width="100" height="100" x="0" y="0" viewBox="0 0 483.013 483.013" xml:space="preserve">
	<defs>
		<linearGradient id="grad1" x1="0%" y1="0%" x2="100%" y2="0%">
			<stop offset="0%" style="stop-color:#8d181b;stop-opacity:1" />
			<stop offset="100%" style="stop-color:#db3035;stop-opacity:1" />
		</linearGradient>
	</defs>
	<g transform="matrix(6.123233995736766e-17,-1,1,6.123233995736766e-17,-0.0003676414490030311,483.01362466812134)">
		<path d="M477.043,219.205L378.575,48.677c-7.974-13.802-22.683-22.292-38.607-22.292H143.041c-15.923,0-30.628,8.49-38.608,22.292  L5.971,219.205c-7.961,13.801-7.961,30.785,0,44.588l98.462,170.543c7.98,13.802,22.685,22.293,38.608,22.293h196.926  c15.925,0,30.634-8.491,38.607-22.293l98.469-170.543C485.003,249.99,485.003,233.006,477.043,219.205z" fill="url(#grad1)" data-original="#000000" style="" class="" />
	</g>
	<g transform="scale(11) translate(6 6)">
		<path d="M25.696 15.732c.72 0 1.304.57 1.304 1.275s-.584 1.275-1.304 1.275c-.55 0-1.021-.334-1.212-.805h-3.72l-1.372 2.44c-.226.402-.845.283-.899-.172l-.308-2.607-1.14 8.454c-.076.562-.917.536-.956-.03l-.935-13.667-.99 9.054c-.06.54-.853.568-.95.033l-1.048-5.756-.484 1.895a.479.479 0 01-.466.356H6.48c-.265 0-.48-.21-.48-.47s.215-.47.48-.47h4.36l.939-3.671c.126-.492.848-.467.94.032l.849 4.669L14.787 6.42c.063-.571.918-.555.957.018l.981 14.34 1.014-7.524c.074-.549.889-.543.954.007l.582 4.915.784-1.396a.482.482 0 01.421-.243h4.004a1.304 1.304 0 011.212-.805z" fill="#fff" />
	</g>
</svg>
