<?xml version="1.0"?>
<svg xmlns="http://www.w3.org/2000/svg" version="1.1" width="100" height="100" x="0" y="0" viewBox="0 0 483.013 483.013" xml:space="preserve">
	<defs>
		<linearGradient id="grad1" x1="0%" y1="0%" x2="100%" y2="0%">
			<stop offset="0%" style="stop-color:#64d1ff;stop-opacity:1" />
			<stop offset="100%" style="stop-color:#92defe;stop-opacity:1" />
		</linearGradient>
	</defs>
	<g transform="matrix(6.123233995736766e-17,-1,1,6.123233995736766e-17,-0.0003676414490030311,483.01362466812134)">
		<path d="M477.043,219.205L378.575,48.677c-7.974-13.802-22.683-22.292-38.607-22.292H143.041c-15.923,0-30.628,8.49-38.608,22.292  L5.971,219.205c-7.961,13.801-7.961,30.785,0,44.588l98.462,170.543c7.98,13.802,22.685,22.293,38.608,22.293h196.926  c15.925,0,30.634-8.491,38.607-22.293l98.469-170.543C485.003,249.99,485.003,233.006,477.043,219.205z" fill="url(#grad1)" data-original="#000000" style="" class="" />
	</g>
	<g transform="scale(11) translate(6 6)">
		<path d="M10.5 15.238h1.764V7h4.547c.844 0 1.614.099 2.31.297.696.198 1.292.5 1.789.904s.886.917 1.168 1.536c.281.62.422 1.36.422 2.221s-.15 1.61-.447 2.247a4.478 4.478 0 01-1.218 1.588 5.113 5.113 0 01-1.813.943 7.91 7.91 0 01-2.261.31h-2.51v2.608h4v1.705h-4V25h-1.987v-3.641H10.5v-1.705h1.764v-2.608H10.5zm6.31 0c1.143 0 2.042-.271 2.696-.813.654-.543.982-1.365.982-2.467 0-1.101-.328-1.902-.982-2.401-.654-.5-1.553-.75-2.695-.75h-2.56v6.431z" fill="#fff" />
	</g>
</svg>
