<?xml version="1.0"?>
<svg xmlns="http://www.w3.org/2000/svg" version="1.1" width="100" height="100" x="0" y="0" viewBox="0 0 483.013 483.013" xml:space="preserve">
	<defs>
		<linearGradient id="grad1" x1="0%" y1="0%" x2="100%" y2="0%">
			<stop offset="0%" style="stop-color:#384182;stop-opacity:1" />
			<stop offset="100%" style="stop-color:#606bba;stop-opacity:1" />
		</linearGradient>
	</defs>
	<g transform="matrix(6.123233995736766e-17,-1,1,6.123233995736766e-17,-0.0003676414490030311,483.01362466812134)">
		<path d="M477.043,219.205L378.575,48.677c-7.974-13.802-22.683-22.292-38.607-22.292H143.041c-15.923,0-30.628,8.49-38.608,22.292  L5.971,219.205c-7.961,13.801-7.961,30.785,0,44.588l98.462,170.543c7.98,13.802,22.685,22.293,38.608,22.293h196.926  c15.925,0,30.634-8.491,38.607-22.293l98.469-170.543C485.003,249.99,485.003,233.006,477.043,219.205z" fill="url(#grad1)" data-original="#000000" style="" class="" />
	</g>
	<g transform="scale(11) translate(6 6)">
		<path fill="#FFF" d="M9.5 27l3.618-16.789 2.03 12.6L9.5 27zm3.688-16.885l5.497 12.709-3.443-.06-2.054-12.65zm.082-.096l7.2 1.023-1.668 11.782-5.532-12.805zm5.66 12.624l1.623-11.493 1.062 1.348-2.685 10.145zm1.517-11.71l-7.026-.999 6.326-2.082.7 3.081zm-7.06-1.107l4.306-2.985 2.054.903-6.36 2.082zm-.106-.036l.83-1.589 3.512-1.408-4.342 2.997zm.83-1.66l.396-1.24 2.894-.097-3.29 1.336zm.373-1.337l.933-.999 2.008.903-2.941.096zm.992-1.059l1.4-.686 1.81 2.118-3.21-1.432zm1.599-.602l2.089.915-.374 1.131-1.715-2.046zm1.785 2.082l.385-1.155.467 1.589-.852-.434zM16.923 5h1.529l.757.842a.048.048 0 01-.054.076L16.923 5zm2.416.963l3.11.868a.072.072 0 010 .14l-2.643.725-.467-1.733z" />
	</g>
</svg>
