<?xml version="1.0"?>
<svg xmlns="http://www.w3.org/2000/svg" version="1.1" width="100" height="100" x="0" y="0" viewBox="0 0 483.013 483.013" xml:space="preserve">
	<defs>
		<linearGradient id="grad1" x1="0%" y1="0%" x2="100%" y2="0%">
			<stop offset="0%" style="stop-color:#3d58b0;stop-opacity:1" />
			<stop offset="100%" style="stop-color:#7186cd;stop-opacity:1" />
		</linearGradient>
	</defs>
	<g transform="matrix(6.123233995736766e-17,-1,1,6.123233995736766e-17,-0.0003676414490030311,483.01362466812134)">
		<path d="M477.043,219.205L378.575,48.677c-7.974-13.802-22.683-22.292-38.607-22.292H143.041c-15.923,0-30.628,8.49-38.608,22.292  L5.971,219.205c-7.961,13.801-7.961,30.785,0,44.588l98.462,170.543c7.98,13.802,22.685,22.293,38.608,22.293h196.926  c15.925,0,30.634-8.491,38.607-22.293l98.469-170.543C485.003,249.99,485.003,233.006,477.043,219.205z" fill="url(#grad1)" data-original="#000000" style="" class="" />
	</g>
	<g transform="scale(11) translate(6 6)">
		<g fill="#FFF">
			<path d="M15.986 4C9.376 4 4 9.376 4 15.986S9.376 27.97 15.986 27.97 27.97 22.595 27.97 15.986C27.971 9.376 22.595 4 15.986 4zm0 1.632a10.34 10.34 0 0110.353 10.354 10.34 10.34 0 01-10.353 10.353A10.34 10.34 0 015.632 15.986 10.341 10.341 0 0115.986 5.632z" />
			<path d="M11.533 11.56v8.85h8.905v-8.85h-8.905zm1.45 1.45h6.004v5.95h-6.003v-5.95z" />
		</g>
	</g>
</svg>
