<?xml version="1.0"?>
<svg xmlns="http://www.w3.org/2000/svg" version="1.1" width="100" height="100" x="0" y="0" viewBox="0 0 483.013 483.013" xml:space="preserve">
	<defs>
		<linearGradient id="grad1" x1="0%" y1="0%" x2="100%" y2="0%">
			<stop offset="0%" style="stop-color:#0072ff;stop-opacity:1" />
			<stop offset="100%" style="stop-color:#4c9cfe;stop-opacity:1" />
		</linearGradient>
	</defs>
	<g transform="matrix(6.123233995736766e-17,-1,1,6.123233995736766e-17,-0.0003676414490030311,483.01362466812134)">
		<path d="M477.043,219.205L378.575,48.677c-7.974-13.802-22.683-22.292-38.607-22.292H143.041c-15.923,0-30.628,8.49-38.608,22.292  L5.971,219.205c-7.961,13.801-7.961,30.785,0,44.588l98.462,170.543c7.98,13.802,22.685,22.293,38.608,22.293h196.926  c15.925,0,30.634-8.491,38.607-22.293l98.469-170.543C485.003,249.99,485.003,233.006,477.043,219.205z" fill="url(#grad1)" data-original="#000000" style="" class="" />
	</g>
	<g transform="scale(11) translate(6 6)">
		<path fill="#FFF" d="M24.027 12.803L19.215 23.5h-1.923l5.065-11.26a5.384 5.384 0 011.67.563zm-8.42-6.284L8.204 22.978C6.316 22.082 5 20.119 5 17.833c0-3.13 2.462-5.666 5.5-5.666 0-2.995 2.254-5.44 5.107-5.648zm5.894 5.648L16.402 23.5h-2.083l6.402-14.23c.493.848.78 1.836.78 2.897zm1.894 10.982l3.266-7.256c.216.608.339 1.26.339 1.943 0 2.438-1.5 4.515-3.605 5.313zm1.442-9.814c.456.36.86.788 1.186 1.279l-3.986 8.858a5.025 5.025 0 01-.536.028h-1.236l4.572-10.165zM16.02 6.5c.78.003 1.519.174 2.19.481L10.78 23.5h-.28c-.69 0-1.35-.136-1.957-.377L16.02 6.5zm4.267 2.118L13.592 23.5h-2.246l7.327-16.285c.622.358 1.17.836 1.614 1.403z" />
	</g>
</svg>
