<?xml version="1.0"?>
<svg xmlns="http://www.w3.org/2000/svg" version="1.1" width="100" height="100" x="0" y="0" viewBox="0 0 483.013 483.013" xml:space="preserve">
	<defs>
		<linearGradient id="grad1" x1="0%" y1="0%" x2="100%" y2="0%">
			<stop offset="0%" style="stop-color:#8e9495;stop-opacity:1" />
			<stop offset="100%" style="stop-color:#afb4b4;stop-opacity:1" />
		</linearGradient>
	</defs>
	<g transform="matrix(6.123233995736766e-17,-1,1,6.123233995736766e-17,-0.0003676414490030311,483.01362466812134)">
		<path d="M477.043,219.205L378.575,48.677c-7.974-13.802-22.683-22.292-38.607-22.292H143.041c-15.923,0-30.628,8.49-38.608,22.292  L5.971,219.205c-7.961,13.801-7.961,30.785,0,44.588l98.462,170.543c7.98,13.802,22.685,22.293,38.608,22.293h196.926  c15.925,0,30.634-8.491,38.607-22.293l98.469-170.543C485.003,249.99,485.003,233.006,477.043,219.205z" fill="url(#grad1)" data-original="#000000" style="" class="" />
	</g>
	<g transform="scale(11) translate(6 6)">
		<path d="M7.623 20.711a6.907 6.907 0 01-.506-1.547A5.396 5.396 0 017 18.31h.894a6.195 6.195 0 00.1.688c.097.469.243.935.443 1.36.536 1.136 1.35 1.784 2.532 1.784.924 0 1.64-.37 2.144-1.022.428-.551.67-1.282.67-1.896 0-.787-.298-1.367-.893-1.858-.484-.4-1.041-.68-2.191-1.158l-.203-.084c-1.196-.495-1.748-.767-2.285-1.191-.742-.586-1.136-1.313-1.136-2.244 0-1.115.401-2.06 1.119-2.728A3.663 3.663 0 0110.689 9c1.28 0 2.257.533 2.907 1.467v-1.27h2.888v12.747h.858v-3.577a.898.898 0 010-.088l.894.03v.045a5.685 5.685 0 00.09.646c.093.465.237.932.437 1.357.533 1.135 1.348 1.784 2.529 1.784.924 0 1.64-.37 2.144-1.022.428-.551.67-1.282.67-1.896 0-.787-.298-1.367-.893-1.858-.484-.4-1.041-.68-2.191-1.158l-.203-.084c-1.196-.495-1.748-.767-2.285-1.191-.742-.586-1.136-1.313-1.136-2.244 0-1.115.401-2.06 1.119-2.728A3.663 3.663 0 0121.012 9c1.28 0 2.257.533 2.907 1.467V9.251h.895v4.422h-.895c0-.924-.212-1.86-.629-2.551-.492-.817-1.232-1.263-2.278-1.263a2.75 2.75 0 00-1.873.718c-.54.504-.847 1.225-.847 2.111 0 .66.266 1.15.81 1.58.45.355.954.603 2.071 1.066l.203.084c1.233.511 1.844.82 2.42 1.295.787.65 1.204 1.464 1.204 2.51 0 .796-.302 1.706-.846 2.41-.669.863-1.646 1.367-2.862 1.367-.843 0-1.566-.256-2.16-.73a3.967 3.967 0 01-.896-1.025v1.558H15.59V10.056h-1.1v3.617h-.894c0-.924-.212-1.86-.629-2.551-.492-.817-1.232-1.263-2.278-1.263a2.75 2.75 0 00-1.873.718c-.54.504-.847 1.225-.847 2.111 0 .66.266 1.15.81 1.58.45.355.954.603 2.071 1.066l.203.084c1.233.511 1.844.82 2.42 1.295.787.65 1.204 1.464 1.204 2.51 0 .796-.302 1.706-.846 2.41-.669.863-1.646 1.367-2.862 1.367-.843 0-1.566-.256-2.16-.73a3.994 3.994 0 01-.915-1.053v1.532H7v-4.44h.894v2.908a5.306 5.306 0 01-.271-.506z" fill="#fff" fill-rule="nonzero" />
	</g>
</svg>
