<?xml version="1.0"?>
<svg xmlns="http://www.w3.org/2000/svg" version="1.1" width="100" height="100" x="0" y="0" viewBox="0 0 483.013 483.013" xml:space="preserve">
	<defs>
		<linearGradient id="grad1" x1="0%" y1="0%" x2="100%" y2="0%">
			<stop offset="0%" style="stop-color:#b30d23;stop-opacity:1" />
			<stop offset="100%" style="stop-color:#ef2f48;stop-opacity:1" />
		</linearGradient>
	</defs>
	<g transform="matrix(6.123233995736766e-17,-1,1,6.123233995736766e-17,-0.0003676414490030311,483.01362466812134)">
		<path d="M477.043,219.205L378.575,48.677c-7.974-13.802-22.683-22.292-38.607-22.292H143.041c-15.923,0-30.628,8.49-38.608,22.292  L5.971,219.205c-7.961,13.801-7.961,30.785,0,44.588l98.462,170.543c7.98,13.802,22.685,22.293,38.608,22.293h196.926  c15.925,0,30.634-8.491,38.607-22.293l98.469-170.543C485.003,249.99,485.003,233.006,477.043,219.205z" fill="url(#grad1)" data-original="#000000" style="" class="" />
	</g>
	<g transform="scale(11) translate(6 6)">
		<path fill="#FFF" fill-rule="nonzero" d="M16.913 21.234l-.932 1.736-.932-1.736C9.419 20.797 5 16.599 5 16.599c0-.01 4.294-4.078 9.809-4.614l.73-1.25.442-.735.75 1.25.422.735c5.514.526 9.809 4.614 9.809 4.614s-4.42 4.198-10.05 4.635zM5.932 16.599c-.01 0 4.246 2.908 8.521 3.523l-2.084-3.9.566-.982.52.972-.01.01 2.027 3.99c.163.01.326.01.49.01.163 0 .317 0 .48-.01l1.489-2.968 1.086-2.024.566.982-2.084 3.91c4.275-.605 8.53-3.443 8.53-3.523 0-.07-4.053-2.778-8.223-3.473l.634 1.102-.528 1.061-1.374-2.302a10.45 10.45 0 00-.557-.02c-.183 0-.375.01-.567.02l-1.403 2.302-.518-1.012.662-1.141c-4.169.705-8.223 3.473-8.223 3.473z" />
	</g>
</svg>
