<?xml version="1.0"?>
<svg xmlns="http://www.w3.org/2000/svg" version="1.1" width="100" height="100" x="0" y="0" viewBox="0 0 483.013 483.013" xml:space="preserve">
	<defs>
		<linearGradient id="grad1" x1="0%" y1="0%" x2="100%" y2="0%">
			<stop offset="0%" style="stop-color:#5b6dee;stop-opacity:1" />
			<stop offset="100%" style="stop-color:#8c98f3;stop-opacity:1" />
		</linearGradient>
	</defs>
	<g transform="matrix(6.123233995736766e-17,-1,1,6.123233995736766e-17,-0.0003676414490030311,483.01362466812134)">
		<path d="M477.043,219.205L378.575,48.677c-7.974-13.802-22.683-22.292-38.607-22.292H143.041c-15.923,0-30.628,8.49-38.608,22.292  L5.971,219.205c-7.961,13.801-7.961,30.785,0,44.588l98.462,170.543c7.98,13.802,22.685,22.293,38.608,22.293h196.926  c15.925,0,30.634-8.491,38.607-22.293l98.469-170.543C485.003,249.99,485.003,233.006,477.043,219.205z" fill="url(#grad1)" data-original="#000000" style="" class="" />
	</g>
	<g transform="scale(11) translate(6 6)">
		<path fill="#FFF" d="M13.3 15.02a9.144 9.144 0 00-1.664.144c.452-4.18 3.936-7.346 8.084-7.346 2.54 0 4.28 1.244 4.28 3.818 0 2.575-2.089 3.819-5.136 3.819-2.25 0-3.314-.434-5.564-.434m-.164 1.524C10.089 16.545 8 17.79 8 20.364s1.74 3.818 4.28 3.818c4.148 0 7.632-3.165 8.084-7.346a9.144 9.144 0 01-1.664.144c-2.25 0-3.315-.435-5.564-.435" />
	</g>
</svg>
