<?xml version="1.0"?>
<svg xmlns="http://www.w3.org/2000/svg" version="1.1" width="100" height="100" x="0" y="0" viewBox="0 0 483.013 483.013" xml:space="preserve">
	<defs>
		<linearGradient id="grad1" x1="0%" y1="0%" x2="100%" y2="0%">
			<stop offset="0%" style="stop-color:#199248;stop-opacity:1" />
			<stop offset="100%" style="stop-color:#34dc75;stop-opacity:1" />
		</linearGradient>
	</defs>
	<g transform="matrix(6.123233995736766e-17,-1,1,6.123233995736766e-17,-0.0003676414490030311,483.01362466812134)">
		<path d="M477.043,219.205L378.575,48.677c-7.974-13.802-22.683-22.292-38.607-22.292H143.041c-15.923,0-30.628,8.49-38.608,22.292  L5.971,219.205c-7.961,13.801-7.961,30.785,0,44.588l98.462,170.543c7.98,13.802,22.685,22.293,38.608,22.293h196.926  c15.925,0,30.634-8.491,38.607-22.293l98.469-170.543C485.003,249.99,485.003,233.006,477.043,219.205z" fill="url(#grad1)" data-original="#000000" style="" class="" />
	</g>
	<g transform="scale(11) translate(6 6)">
		<g fill="#FFF">
			<path d="M16 4C9.373 4 4 9.373 4 16s5.373 12 12 12 12-5.373 12-12A12 12 0 0016 4zm2.743 22.236a10.596 10.596 0 11-4.595-20.669 10.597 10.597 0 014.595 20.669z" />
			<path d="M18.93 7.287c0 .517 0 1.033.02 1.55a9.75 9.75 0 00-2.146-.562c-.03-.469.104-.984-.033-1.429a13.313 13.313 0 00-1.572-.019c-.026.482-.016.966 0 1.45a9.864 9.864 0 00-2.146.574c.015-.522.02-1.043.013-1.566a9.2 9.2 0 000 17.438c0-.512-.005-1.022-.015-1.532a9.113 9.113 0 002.133.549c0 .469 0 .938-.028 1.402.56.08 1.128.08 1.688 0a26.363 26.363 0 01-.04-1.387 10.122 10.122 0 002.14-.544 24.187 24.187 0 000 1.52 9.2 9.2 0 00-.011-17.437l-.002-.007zm1.37 13.935c-1.208 1.095-2.924 1.354-4.5 1.331-1.383 0-2.847-.375-3.846-1.376-.53-.512-.83-1.196-1.099-1.875.966-.25 1.963-.334 2.936-.542a1.706 1.706 0 001.138 1.277c.883.276 1.977.315 2.713-.315.522-.433.537-1.38-.11-1.704-1.517-.784-3.407-.518-4.841-1.51-1.975-1.245-2.121-4.547-.188-5.891 1.478-1.037 3.454-1.166 5.168-.75 1.55.392 2.655 1.706 3.187 3.161-.954.165-1.907.334-2.861.495-.251-1.515-2.372-1.875-3.426-.992-.6.499-.446 1.562.304 1.828 1.64.68 3.61.484 5.063 1.622 1.687 1.144 1.863 3.876.361 5.24z" />
		</g>
	</g>
</svg>
