<?xml version="1.0"?>
<svg xmlns="http://www.w3.org/2000/svg" version="1.1" width="100" height="100" x="0" y="0" viewBox="0 0 483.013 483.013" xml:space="preserve">
	<defs>
		<linearGradient id="grad1" x1="0%" y1="0%" x2="100%" y2="0%">
			<stop offset="0%" style="stop-color:#00b098;stop-opacity:1" />
			<stop offset="100%" style="stop-color:#15ffdf;stop-opacity:1" />
		</linearGradient>
	</defs>
	<g transform="matrix(6.123233995736766e-17,-1,1,6.123233995736766e-17,-0.0003676414490030311,483.01362466812134)">
		<path d="M477.043,219.205L378.575,48.677c-7.974-13.802-22.683-22.292-38.607-22.292H143.041c-15.923,0-30.628,8.49-38.608,22.292  L5.971,219.205c-7.961,13.801-7.961,30.785,0,44.588l98.462,170.543c7.98,13.802,22.685,22.293,38.608,22.293h196.926  c15.925,0,30.634-8.491,38.607-22.293l98.469-170.543C485.003,249.99,485.003,233.006,477.043,219.205z" fill="url(#grad1)" data-original="#000000" style="" class="" />
	</g>
	<g transform="scale(11) translate(6 6)">
		<path d="M6 12.391v-.356h8.417v.356zm0-1.035V11h8.417v.356zm3.55 10.64v-8.893h.338v8.893zm.98 0v-8.893h.337v8.893zm15.232-.728l-3.798-4.013.238-.251L26 21.016zM16.519 11l3.798 4.013-.238.251-3.798-4.012zm8.55 11l-3.798-4.013.238-.252 3.798 4.013zm-9.242-10.268l3.798 4.012-.239.252-3.798-4.012zm5.421 4.768l.239-.252 4.275-4.516.238.252-4.275 4.516-.238.252-.454.48-.239.252L16.52 22l-.238-.252 4.275-4.516.238-.252zm-.454-.984L25.07 11l.238.252-4.275 4.516-.238.252-.454.48-.239.252-4.274 4.516-.239-.252 4.275-4.516.238-.252.455-.48z" fill="#fff" fill-rule="nonzero" />
	</g>
</svg>
