<?xml version="1.0"?>
<svg xmlns="http://www.w3.org/2000/svg" version="1.1" width="100" height="100" x="0" y="0" viewBox="0 0 483.013 483.013" xml:space="preserve">
	<defs>
		<linearGradient id="grad1" x1="0%" y1="0%" x2="100%" y2="0%">
			<stop offset="0%" style="stop-color:#f2941b;stop-opacity:1" />
			<stop offset="100%" style="stop-color:#f5b45f;stop-opacity:1" />
		</linearGradient>
	</defs>
	<g transform="matrix(6.123233995736766e-17,-1,1,6.123233995736766e-17,-0.0003676414490030311,483.01362466812134)">
		<path d="M477.043,219.205L378.575,48.677c-7.974-13.802-22.683-22.292-38.607-22.292H143.041c-15.923,0-30.628,8.49-38.608,22.292  L5.971,219.205c-7.961,13.801-7.961,30.785,0,44.588l98.462,170.543c7.98,13.802,22.685,22.293,38.608,22.293h196.926  c15.925,0,30.634-8.491,38.607-22.293l98.469-170.543C485.003,249.99,485.003,233.006,477.043,219.205z" fill="url(#grad1)" data-original="#000000" style="" class="" />
	</g>
	<g transform="scale(11) translate(6 6)">
		<path d="M16.566 5h.011c2.072 2.05 4.121 4.12 6.181 6.181h5.14l-11.57 16.393c-.192-1.925-.34-3.85-.51-5.774 1.676-2.411 3.397-4.8 5.073-7.2l-3.827-3.815a8.889 8.889 0 00-.113-1.347c-.125-1.472-.204-2.966-.385-4.438zM4.011 21.46c3.883-5.456 7.732-10.935 11.604-16.403l.487 5.796c-1.687 2.411-3.385 4.789-5.072 7.189 1.257 1.256 2.513 2.535 3.793 3.792.17 1.924.317 3.872.51 5.808h-.024l-6.147-6.159c-1.72.023-3.441-.011-5.162.023v-.046h.011z" fill="#FFF" />
	</g>
</svg>
