<?xml version="1.0"?>
<svg xmlns="http://www.w3.org/2000/svg" version="1.1" width="100" height="100" x="0" y="0" viewBox="0 0 483.013 483.013" xml:space="preserve">
	<defs>
		<linearGradient id="grad1" x1="0%" y1="0%" x2="100%" y2="0%">
			<stop offset="0%" style="stop-color:#4ba2f2;stop-opacity:1" />
			<stop offset="100%" style="stop-color:#81bdf5;stop-opacity:1" />
		</linearGradient>
	</defs>
	<g transform="matrix(6.123233995736766e-17,-1,1,6.123233995736766e-17,-0.0003676414490030311,483.01362466812134)">
		<path d="M477.043,219.205L378.575,48.677c-7.974-13.802-22.683-22.292-38.607-22.292H143.041c-15.923,0-30.628,8.49-38.608,22.292  L5.971,219.205c-7.961,13.801-7.961,30.785,0,44.588l98.462,170.543c7.98,13.802,22.685,22.293,38.608,22.293h196.926  c15.925,0,30.634-8.491,38.607-22.293l98.469-170.543C485.003,249.99,485.003,233.006,477.043,219.205z" fill="url(#grad1)" data-original="#000000" style="" class="" />
	</g>
	<g transform="scale(11) translate(6 6)">
		<path fill="#FFF" fill-rule="nonzero" d="M9.87 8.229c.216.037-.322 1.47-.022 3.107.26 1.403 3.507 6.836 3.373 8.7-.104 1.17-2.77 3.915-3.051 3.732-.307-.085.81-1.95.396-3.504-.482-1.812-3.34-6.496-3.337-8.564 0-1.513 2.448-3.569 2.64-3.471zm6.109-2.14c.274.047-.41 1.876-.028 3.959.33 1.792 4.473 8.72 4.301 11.095-.134 1.494-3.532 4.991-3.892 4.76-.39-.107 1.034-2.486.506-4.468-.613-2.308-4.258-8.282-4.255-10.919 0-1.931 3.122-4.55 3.368-4.426zm6.305 2.14c.216.037-.321 1.47-.022 3.107.26 1.403 3.507 6.836 3.374 8.7-.103 1.17-2.77 3.915-3.052 3.732-.306-.085.81-1.95.396-3.504-.481-1.812-3.34-6.496-3.337-8.564 0-1.513 2.45-3.569 2.641-3.471z" />
	</g>
</svg>
