<?xml version="1.0"?>
<svg xmlns="http://www.w3.org/2000/svg" version="1.1" width="100" height="100" x="0" y="0" viewBox="0 0 483.013 483.013" xml:space="preserve">
	<defs>
		<linearGradient id="grad1" x1="0%" y1="0%" x2="100%" y2="0%">
			<stop offset="0%" style="stop-color:#1387c9;stop-opacity:1" />
			<stop offset="100%" style="stop-color:#45b0ed;stop-opacity:1" />
		</linearGradient>
	</defs>
	<g transform="matrix(6.123233995736766e-17,-1,1,6.123233995736766e-17,-0.0003676414490030311,483.01362466812134)">
		<path d="M477.043,219.205L378.575,48.677c-7.974-13.802-22.683-22.292-38.607-22.292H143.041c-15.923,0-30.628,8.49-38.608,22.292  L5.971,219.205c-7.961,13.801-7.961,30.785,0,44.588l98.462,170.543c7.98,13.802,22.685,22.293,38.608,22.293h196.926  c15.925,0,30.634-8.491,38.607-22.293l98.469-170.543C485.003,249.99,485.003,233.006,477.043,219.205z" fill="url(#grad1)" data-original="#000000" style="" class="" />
	</g>
	<g transform="scale(11) translate(6 6)">
		<path fill="#FFF" fill-rule="nonzero" d="M16.053 18.373l9.594-5.584-9.594-5.684-9.498 5.684 9.498 5.584zm-10.006-2.92a.76.76 0 00.376.657l9.627 5.608 9.785-5.788a.739.739 0 011.109.64v2.626a.743.743 0 01-.361.637l-10.157 6.063a.732.732 0 01-.746.003L5.26 19.773a.53.53 0 01-.189-.721.521.521 0 01.716-.19l10.263 6.033 9.847-5.878v-1.9l-9.473 5.603a.732.732 0 01-.742.003l-9.783-5.7A1.815 1.815 0 015 15.453V12.98a.631.631 0 01.947-.548l.608.357-.764.457a.521.521 0 01-.784-.364.529.529 0 01.25-.542l10.419-6.236a.732.732 0 01.75-.002l10.211 6.05a.744.744 0 01-.005 1.281L16.42 19.377a.732.732 0 01-.74-.001L5.42 13.343a.415.415 0 00.608-.239.423.423 0 00.02-.124v2.474z" />
	</g>
</svg>
