<?xml version="1.0"?>
<svg xmlns="http://www.w3.org/2000/svg" version="1.1" width="100" height="100" x="0" y="0" viewBox="0 0 483.013 483.013" xml:space="preserve">
	<defs>
		<linearGradient id="grad1" x1="0%" y1="0%" x2="100%" y2="0%">
			<stop offset="0%" style="stop-color:#2d9cdb;stop-opacity:1" />
			<stop offset="100%" style="stop-color:#6cb9e5;stop-opacity:1" />
		</linearGradient>
	</defs>
	<g transform="matrix(6.123233995736766e-17,-1,1,6.123233995736766e-17,-0.0003676414490030311,483.01362466812134)">
		<path d="M477.043,219.205L378.575,48.677c-7.974-13.802-22.683-22.292-38.607-22.292H143.041c-15.923,0-30.628,8.49-38.608,22.292  L5.971,219.205c-7.961,13.801-7.961,30.785,0,44.588l98.462,170.543c7.98,13.802,22.685,22.293,38.608,22.293h196.926  c15.925,0,30.634-8.491,38.607-22.293l98.469-170.543C485.003,249.99,485.003,233.006,477.043,219.205z" fill="url(#grad1)" data-original="#000000" style="" class="" />
	</g>
	<g transform="scale(11) translate(6 6)">
		<path fill="#FFF" d="M18.061 9.084c3.404 3.566 4.268 4.196 5.095 4.423-2.875-.36-4.497-.564-7.206-1.986l-1.71 1.99L25 15.9c-3.366 2.862-4.824 4.387-6.939 7.014H13.99c-1.789-2.618-2.982-3.468-5.28-4.527 3.058.282 4.758.47 7.24 1.94l1.861-2.09L7 15.9c2.514-2.072 3.977-3.454 6.989-6.816h4.072zm-3.821-.497c.93-1.145 1.31-1.702 1.81-2.587.49.912.869 1.475 1.76 2.587h-3.57zm3.57 14.826C16.879 24.558 16.498 25.115 16 26c-.49-.912-.87-1.475-1.76-2.587h3.57z" />
	</g>
</svg>
