<?xml version="1.0"?>
<svg xmlns="http://www.w3.org/2000/svg" version="1.1" width="100" height="100" x="0" y="0" viewBox="0 0 483.013 483.013" xml:space="preserve">
	<defs>
		<linearGradient id="grad1" x1="0%" y1="0%" x2="100%" y2="0%">
			<stop offset="0%" style="stop-color:#0082c6;stop-opacity:1" />
			<stop offset="100%" style="stop-color:#24b3ff;stop-opacity:1" />
		</linearGradient>
	</defs>
	<g transform="matrix(6.123233995736766e-17,-1,1,6.123233995736766e-17,-0.0003676414490030311,483.01362466812134)">
		<path d="M477.043,219.205L378.575,48.677c-7.974-13.802-22.683-22.292-38.607-22.292H143.041c-15.923,0-30.628,8.49-38.608,22.292  L5.971,219.205c-7.961,13.801-7.961,30.785,0,44.588l98.462,170.543c7.98,13.802,22.685,22.293,38.608,22.293h196.926  c15.925,0,30.634-8.491,38.607-22.293l98.469-170.543C485.003,249.99,485.003,233.006,477.043,219.205z" fill="url(#grad1)" data-original="#000000" style="" class="" />
	</g>
	<g transform="scale(11) translate(6 6)">
		<path d="M18.046 15.103a.117.117 0 00-.114.041.108.108 0 00.023.156C22.334 18.478 16.101 25.754 4 18.011c10.26 9.655 24.547-1.01 14.046-2.908zm-5.844-4.248c-9.086 2.907 1.323 9.763 2.226 6.3a.11.11 0 00-.083-.137.12.12 0 00-.064.001c-1.337.435-8.701-1.624-2.08-6.164zM28 12.602c-7.867-5.61-22.628-.984-15.013 2.977a.119.119 0 00.157-.047.11.11 0 00.003-.098C10.05 8.89 25.781 10.88 28 12.602zm-6.528 8.151c4.159-1.89.777-8.361-4.724-7.112a.116.116 0 01-.138-.085.107.107 0 01.04-.11c4.28-3.216 12.314 4.292 4.822 7.307z" fill="#fff" />
	</g>
</svg>
