<?xml version="1.0"?>
<svg xmlns="http://www.w3.org/2000/svg" version="1.1" width="100" height="100" x="0" y="0" viewBox="0 0 483.013 483.013" xml:space="preserve">
	<defs>
		<linearGradient id="grad1" x1="0%" y1="0%" x2="100%" y2="0%">
			<stop offset="0%" style="stop-color:#002342;stop-opacity:1" />
			<stop offset="100%" style="stop-color:#0069c7;stop-opacity:1" />
		</linearGradient>
	</defs>
	<g transform="matrix(6.123233995736766e-17,-1,1,6.123233995736766e-17,-0.0003676414490030311,483.01362466812134)">
		<path d="M477.043,219.205L378.575,48.677c-7.974-13.802-22.683-22.292-38.607-22.292H143.041c-15.923,0-30.628,8.49-38.608,22.292  L5.971,219.205c-7.961,13.801-7.961,30.785,0,44.588l98.462,170.543c7.98,13.802,22.685,22.293,38.608,22.293h196.926  c15.925,0,30.634-8.491,38.607-22.293l98.469-170.543C485.003,249.99,485.003,233.006,477.043,219.205z" fill="url(#grad1)" data-original="#000000" style="" class="" />
	</g>
	<g transform="scale(11) translate(6 6)">
		<path fill="#FFF" d="M4 13h1.298v1.221H4V13zm1.298 4.774h3.777V19H4v-3.558h3.81v1.22H5.299v1.112zm17.627-2.332H28V19h-3.81v-1.226h2.512v-1.111h-3.777v-1.221zm3.798-1.162h-3.8v-1.221h3.8v1.22zm-16.411 1.162h5.075v2.384h-1.264V19h-3.811v-3.558zm3.777 2.332v-1.111H11.61v1.11h2.48zM10.312 13h5.075v1.221h-5.075V13zm6.334 2.442h5.075v2.384h-1.264V19h-3.81v-3.558zm3.772 2.332v-1.111h-2.48v1.11h2.48zM16.646 13h5.075v1.221h-5.075V13z" />
	</g>
</svg>
