<?xml version="1.0"?>
<svg xmlns="http://www.w3.org/2000/svg" version="1.1" width="100" height="100" x="0" y="0" viewBox="0 0 483.013 483.013" xml:space="preserve">
	<defs>
		<linearGradient id="grad1" x1="0%" y1="0%" x2="100%" y2="0%">
			<stop offset="0%" style="stop-color:#7b346e;stop-opacity:1" />
			<stop offset="100%" style="stop-color:#b95aa7;stop-opacity:1" />
		</linearGradient>
	</defs>
	<g transform="matrix(6.123233995736766e-17,-1,1,6.123233995736766e-17,-0.0003676414490030311,483.01362466812134)">
		<path d="M477.043,219.205L378.575,48.677c-7.974-13.802-22.683-22.292-38.607-22.292H143.041c-15.923,0-30.628,8.49-38.608,22.292  L5.971,219.205c-7.961,13.801-7.961,30.785,0,44.588l98.462,170.543c7.98,13.802,22.685,22.293,38.608,22.293h196.926  c15.925,0,30.634-8.491,38.607-22.293l98.469-170.543C485.003,249.99,485.003,233.006,477.043,219.205z" fill="url(#grad1)" data-original="#000000" style="" class="" />
	</g>
	<g transform="scale(11) translate(6 6)">
		<path d="M8.094 13.678l2.11 2.11H6zm2.11 2.55l-2.11 2.094L6 16.228zm2.852-2.853l-2.11 2.094v-4.203zm-2.55 2.094l-2.093-2.094 2.094-2.11zm2.854-2.413l-2.094-2.094h4.203zm0-4.643l2.109 2.109h-4.203zm4.962-.304l-2.11 2.094V6zm-2.55 2.094L13.678 8.11 15.772 6zm-2.716 8.437l-2.11 2.094v-4.203zm-4.643 0l2.094-2.109v4.203zm10.212-5.584l-2.094-2.094h4.203zm-2.094-2.534l2.094-2.11 2.11 2.11zM15.47 21.493l-2.11 2.094-2.093-2.094zm-2.11-2.55l2.11 2.11h-4.203zm10.228-5.568l-2.109 2.094v-4.203zm-4.643 0l2.094-2.11v4.204zm-5.266 10.53l2.094-2.108V26zm2.534-2.108l2.11 2.109L16.212 26zm2.413 1.79l-2.094-2.094h4.203zm0-4.643l2.11 2.11H16.53zm2.853-2.413l2.11 2.11-2.11 2.093zm-2.534 2.11l2.094-2.11v4.203zm4.947-.32l-2.094-2.093H26zm0-4.643L26 15.788h-4.203z" fill="#fff" fill-rule="nonzero" />
	</g>
</svg>
