<?xml version="1.0"?>
<svg xmlns="http://www.w3.org/2000/svg" version="1.1" width="100" height="100" x="0" y="0" viewBox="0 0 483.013 483.013" xml:space="preserve">
	<defs>
		<linearGradient id="grad1" x1="0%" y1="0%" x2="100%" y2="0%">
			<stop offset="0%" style="stop-color:#14c8ff;stop-opacity:1" />
			<stop offset="100%" style="stop-color:#5ad8ff;stop-opacity:1" />
		</linearGradient>
	</defs>
	<g transform="matrix(6.123233995736766e-17,-1,1,6.123233995736766e-17,-0.0003676414490030311,483.01362466812134)">
		<path d="M477.043,219.205L378.575,48.677c-7.974-13.802-22.683-22.292-38.607-22.292H143.041c-15.923,0-30.628,8.49-38.608,22.292  L5.971,219.205c-7.961,13.801-7.961,30.785,0,44.588l98.462,170.543c7.98,13.802,22.685,22.293,38.608,22.293h196.926  c15.925,0,30.634-8.491,38.607-22.293l98.469-170.543C485.003,249.99,485.003,233.006,477.043,219.205z" fill="url(#grad1)" data-original="#000000" style="" class="" />
	</g>
	<g transform="scale(11) translate(6 6)">
		<path d="M25.08 11.478c.633.513 1.032 1.574.892 2.353l-1.36 7.524c-.142.784-.892 1.647-1.664 1.918l-7.419 2.605c-.772.271-1.92.075-2.552-.438l-6.058-4.917c-.633-.513-1.033-1.569-.89-2.353l1.36-7.524C7.53 9.862 8.28 9 9.053 8.728l7.42-2.606c.773-.272 1.92-.074 2.553.438zm-6.311 3.378l.302-1.53-2.832.005.4-2.016h-.915a5.759 5.759 0 01-2.748 2.225l-.257 1.319h1.238s-.419 1.894-.56 2.593c-.35 1.78.53 3.042 1.882 3.042h2.288l.4-1.69h-1.914c-.85 0-.805-.465-.64-1.29l.527-2.662z" fill="#fff" fill-rule="nonzero" />
	</g>
</svg>
