<?xml version="1.0"?>
<svg xmlns="http://www.w3.org/2000/svg" version="1.1" width="100" height="100" x="0" y="0" viewBox="0 0 483.013 483.013" xml:space="preserve">
	<defs>
		<linearGradient id="grad1" x1="0%" y1="0%" x2="100%" y2="0%">
			<stop offset="0%" style="stop-color:#f4c257;stop-opacity:1" />
			<stop offset="100%" style="stop-color:#f7d489;stop-opacity:1" />
		</linearGradient>
	</defs>
	<g transform="matrix(6.123233995736766e-17,-1,1,6.123233995736766e-17,-0.0003676414490030311,483.01362466812134)">
		<path d="M477.043,219.205L378.575,48.677c-7.974-13.802-22.683-22.292-38.607-22.292H143.041c-15.923,0-30.628,8.49-38.608,22.292  L5.971,219.205c-7.961,13.801-7.961,30.785,0,44.588l98.462,170.543c7.98,13.802,22.685,22.293,38.608,22.293h196.926  c15.925,0,30.634-8.491,38.607-22.293l98.469-170.543C485.003,249.99,485.003,233.006,477.043,219.205z" fill="url(#grad1)" data-original="#000000" style="" class="" />
	</g>
	<g transform="scale(11) translate(6 6)">
		<path d="M8.395 21.539l-1.162-.675V10.685l1.872-1.088 1.162.674-1.872 1.089v3.538l4.734 2.752v1.309l-4.734-2.751v5.33zm16.355-2.025v1.35l-8.758 5.09-1.872-1.089v-1.35l1.872 1.088 3.045-1.769v-5.502l1.126-.655v5.503l4.587-2.666zm2.233-3.74v-.23l-4.52 2.628v-1.31l4.52-2.627V9.387L15.99 3l-5.495 3.194-.198.115 4.52 2.627-1.126.654-4.52-2.627L5 9.387v12.774l5.495 3.194.199.115v-5.254l1.126.654v5.255l4.172 2.423 10.991-6.387v-6.387zm-5.695-2.424l-4.55 2.646v5.502l-.746.433-.563-.327v-5.29l-4.735-2.752v-.866l.563-.328 4.552 2.645 4.735-2.75.745.433v.655zM14.83 6.27l1.161-.674 8.758 5.09v2.175l-1.16.674v-2.176L20.542 9.59l-4.734 2.751-1.127-.654 4.735-2.752L14.83 6.27z" fill="#FFF" />
	</g>
</svg>
