<?xml version="1.0"?>
<svg xmlns="http://www.w3.org/2000/svg" version="1.1" width="100" height="100" x="0" y="0" viewBox="0 0 483.013 483.013" xml:space="preserve">
	<defs>
		<linearGradient id="grad1" x1="0%" y1="0%" x2="100%" y2="0%">
			<stop offset="0%" style="stop-color#434247;stop-opacity:1" />
			<stop offset="100%" style="stop-color:#797780;stop-opacity:1" />
		</linearGradient>
	</defs>
	<g transform="matrix(6.123233995736766e-17,-1,1,6.123233995736766e-17,-0.0003676414490030311,483.01362466812134)">
		<path d="M477.043,219.205L378.575,48.677c-7.974-13.802-22.683-22.292-38.607-22.292H143.041c-15.923,0-30.628,8.49-38.608,22.292  L5.971,219.205c-7.961,13.801-7.961,30.785,0,44.588l98.462,170.543c7.98,13.802,22.685,22.293,38.608,22.293h196.926  c15.925,0,30.634-8.491,38.607-22.293l98.469-170.543C485.003,249.99,485.003,233.006,477.043,219.205z" fill="url(#grad1)" data-original="#000000" style="" class="" />
	</g>
	<g transform="scale(11) translate(6 6)">
		<g fill="#FFF">
			<path d="M16 4a11.911 11.911 0 100 23.823c6.579 0 11.911-5.333 11.911-11.912C27.911 9.333 22.58 4 16 4m0 23.341c-6.318 0-11.44-5.122-11.44-11.44C4.56 9.585 9.683 4.463 16 4.463s11.44 5.122 11.44 11.44c0 6.317-5.122 11.439-11.44 11.439" />
			<path d="M17.308 17.082h3.02v4.456c0 .442-.453.678-.885.905-.423.226-1.112.177-2.273.177h-1.416c-2.174.049-2.784-.118-3.305-.345-.521-.236-.787-.57-.787-1.003v-4.19h-1.564v4.721c0 .256.128.551.325.817.226.305.197.393.688.639.443.226.886.403 1.682.502.62.078.512.059 1.614.078h2.616c1.967-.039 2.37.099 3.54-.491.955-.473 1.28-1.023 1.348-1.378v-6.422h-4.593v1.534m-4.082-9.089c-.797.05-1.456.296-1.967.492-.521.197-.63.433-.846.689-.2.232-.312.529-.315.836v5.233h1.574V10.51c0-.403.246-.727.728-.963.492-.246 1.21-.364 1.879-.364h3.068c1.17 0 1.8-.02 2.164.196.374.236.817.443.817.886v1.249h1.573V9.833c-.029-.217-.265-.836-1.377-1.358-1.003-.472-1.327-.501-2.901-.501" />
		</g>
	</g>
</svg>
