<?xml version="1.0"?>
<svg xmlns="http://www.w3.org/2000/svg" version="1.1" width="100" height="100" x="0" y="0" viewBox="0 0 483.013 483.013" xml:space="preserve">
	<defs>
		<linearGradient id="grad1" x1="0%" y1="0%" x2="100%" y2="0%">
			<stop offset="0%" style="stop-color:#2ab8e6;stop-opacity:1" />
			<stop offset="100%" style="stop-color:#69cded;stop-opacity:1" />
		</linearGradient>
	</defs>
	<g transform="matrix(6.123233995736766e-17,-1,1,6.123233995736766e-17,-0.0003676414490030311,483.01362466812134)">
		<path d="M477.043,219.205L378.575,48.677c-7.974-13.802-22.683-22.292-38.607-22.292H143.041c-15.923,0-30.628,8.49-38.608,22.292  L5.971,219.205c-7.961,13.801-7.961,30.785,0,44.588l98.462,170.543c7.98,13.802,22.685,22.293,38.608,22.293h196.926  c15.925,0,30.634-8.491,38.607-22.293l98.469-170.543C485.003,249.99,485.003,233.006,477.043,219.205z" fill="url(#grad1)" data-original="#000000" style="" class="" />
	</g>
	<g transform="scale(11) translate(6 6)">
		<path d="M10.96 6h10.08l.96.993v18.014l-.96.993H10.96l-.96-.993V6.993zm.96 18.013h8.16V7.987h-8.16zm7.134-5.17h-2.087v2.263h-1.884v-2.262h-2.087v-1.949h6.058zm0-5.582v1.948h-6.058v-1.948h2.087v-2.263h1.884v2.263z" fill="#fff" fill-rule="nonzero" />
	</g>
</svg>
