<?xml version="1.0"?>
<svg xmlns="http://www.w3.org/2000/svg" version="1.1" width="100" height="100" x="0" y="0" viewBox="0 0 483.013 483.013" xml:space="preserve">
	<defs>
		<linearGradient id="grad1" x1="0%" y1="0%" x2="100%" y2="0%">
			<stop offset="0%" style="stop-color:#ef494d;stop-opacity:1" />
			<stop offset="100%" style="stop-color:#f37f82;stop-opacity:1" />
		</linearGradient>
	</defs>
	<g transform="matrix(6.123233995736766e-17,-1,1,6.123233995736766e-17,-0.0003676414490030311,483.01362466812134)">
		<path d="M477.043,219.205L378.575,48.677c-7.974-13.802-22.683-22.292-38.607-22.292H143.041c-15.923,0-30.628,8.49-38.608,22.292  L5.971,219.205c-7.961,13.801-7.961,30.785,0,44.588l98.462,170.543c7.98,13.802,22.685,22.293,38.608,22.293h196.926  c15.925,0,30.634-8.491,38.607-22.293l98.469-170.543C485.003,249.99,485.003,233.006,477.043,219.205z" fill="url(#grad1)" data-original="#000000" style="" class="" />
	</g>
	<g transform="scale(11) translate(6 6)">
		<path d="M6 11.386c0-.213.173-.386.387-.386h5.024c2.318 0 3.768 1.196 3.768 2.885 0 .705-.322 1.346-.966 1.923.901.513 1.352 1.282 1.352 2.307C15.565 20.52 13.246 21 11.7 21H6.386A.386.386 0 016 20.614v-1.15c0-.214.173-.387.386-.387H11.7c1.095 0 1.643-.353 1.643-1.058s-.548-1.09-1.643-1.154H6.386A.386.386 0 016 16.48v-1.15c0-.214.173-.387.386-.387H11.7c.773-.128 1.16-.448 1.16-.961 0-.705-.387-1.058-1.16-1.058H6.386A.386.386 0 016 12.537v-1.15zm10.435 0c0-.213.173-.386.386-.386h5.121c.213 0 .387.173.387.386v9.228a.386.386 0 01-.387.386h-1.45a.386.386 0 01-.386-.386V13.31a.386.386 0 00-.386-.387h-2.9a.386.386 0 01-.386-.386zM23.68 11h1.933c.213 0 .386.173.386.386v1.15a.386.386 0 01-.386.387H23.68a.386.386 0 01-.386-.386v-1.15c0-.214.173-.387.386-.387z" fill="#fff" />
	</g>
</svg>
