<?xml version="1.0"?>
<svg xmlns="http://www.w3.org/2000/svg" version="1.1" width="100" height="100" x="0" y="0" viewBox="0 0 483.013 483.013" xml:space="preserve">
	<defs>
		<linearGradient id="grad1" x1="0%" y1="0%" x2="100%" y2="0%">
			<stop offset="0%" style="stop-color:#895af8;stop-opacity:1" />
			<stop offset="100%" style="stop-color:#ac8bfa;stop-opacity:1" />
		</linearGradient>
	</defs>
	<g transform="matrix(6.123233995736766e-17,-1,1,6.123233995736766e-17,-0.0003676414490030311,483.01362466812134)">
		<path d="M477.043,219.205L378.575,48.677c-7.974-13.802-22.683-22.292-38.607-22.292H143.041c-15.923,0-30.628,8.49-38.608,22.292  L5.971,219.205c-7.961,13.801-7.961,30.785,0,44.588l98.462,170.543c7.98,13.802,22.685,22.293,38.608,22.293h196.926  c15.925,0,30.634-8.491,38.607-22.293l98.469-170.543C485.003,249.99,485.003,233.006,477.043,219.205z" fill="url(#grad1)" data-original="#000000" style="" class="" />
	</g>
	<g transform="scale(11) translate(6 6)">
		<g fill="#FFF">
			<path d="M17.77 14.25a4 4 0 01.48 0c1.48.1 2.16 2.11 3.1 2a8.16 8.16 0 01-3 1.55 2 2 0 01-2.17-1.3v4L22 17.18V12l-4.23 2.25zm-2.89-.01a2.05 2.05 0 01-.74-1.49v-.08c0-1.16 1.87-3 1.93-3 .06.06 1.93 1.85 1.93 3v.09a2 2 0 01-.6 1.36l4.6-2.47-6-2.94-6 2.91 4.88 2.62zm.98 2.3a2 2 0 01-2.17 1.31 8.16 8.16 0 01-3-1.55c.94.07 1.61-1.95 3.1-2a4 4 0 01.48 0L10 12v5.19l5.87 3.39-.01-4.04z" />
			<path d="M16 4C9.373 4 4 9.373 4 16s5.373 12 12 12 12-5.373 12-12A12 12 0 0016 4zm-6.7 7.19L16 7.94l6.71 3.25v6.39L16 21.45l-6.7-3.87v-6.39zm13.43 9l-6.68 3.86-6.76-3.9v-.37l6.76 3.9 6.68-3.86v.37zm0-.75l-6.68 3.86-6.76-3.9V19l6.76 3.91 6.68-3.86v.39zm0-.75l-6.68 3.86-6.76-3.9v-.37l6.76 3.91 6.68-3.86v.36z" fill-rule="nonzero" />
		</g>
	</g>
</svg>
