<?xml version="1.0"?>
<svg xmlns="http://www.w3.org/2000/svg" version="1.1" width="100" height="100" x="0" y="0" viewBox="0 0 483.013 483.013" xml:space="preserve">
	<defs>
		<linearGradient id="grad1" x1="0%" y1="0%" x2="100%" y2="0%">
			<stop offset="0%" style="stop-color:#ffc04e;stop-opacity:1" />
			<stop offset="100%" style="stop-color:#ffd283;stop-opacity:1" />
		</linearGradient>
	</defs>
	<g transform="matrix(6.123233995736766e-17,-1,1,6.123233995736766e-17,-0.0003676414490030311,483.01362466812134)">
		<path d="M477.043,219.205L378.575,48.677c-7.974-13.802-22.683-22.292-38.607-22.292H143.041c-15.923,0-30.628,8.49-38.608,22.292  L5.971,219.205c-7.961,13.801-7.961,30.785,0,44.588l98.462,170.543c7.98,13.802,22.685,22.293,38.608,22.293h196.926  c15.925,0,30.634-8.491,38.607-22.293l98.469-170.543C485.003,249.99,485.003,233.006,477.043,219.205z" fill="url(#grad1)" data-original="#000000" style="" class="" />
	</g>
	<g transform="scale(11) translate(6 6)">
		<path d="M15.598 11.857h.003l-.03.13-.26 1.227h-.03L13.568 20.5h-2.179l1.747-7.286h-2.932L8.558 20.5H6.162l2.178-9h7.333zm4.141-.357h3.63c3.123.143 2.832 2.214 2.832 2.214H27l-.29.857h-.727c-.217.786-1.67 1.215-1.67 1.215 1.67.214 1.598 1.5 1.598 1.5h.799l-.218.857h-.654c-.167 1.19-1.222 1.768-2.089 2.043a5.35 5.35 0 01-1.62.243H17.56zM7.323 13.214H5l.436-1.714h2.323zm9.948 6.286l-1.888-4.429.799-3.428 1.887 4.214zm5.554-4.429c.26 0 .51-.1.693-.282s.287-.426.287-.682c0-.256-.103-.501-.287-.682s-.433-.282-.693-.282H21.41l-.435 1.928zm-.489 3.715c.651 0 1.179-.496 1.179-1.107 0-.612-.525-1.108-1.179-1.108h-1.702l-.524 2.215z" fill="#fff" fill-rule="nonzero" />
	</g>
</svg>
