<?xml version="1.0"?>
<svg xmlns="http://www.w3.org/2000/svg" version="1.1" width="100" height="100" x="0" y="0" viewBox="0 0 483.013 483.013" xml:space="preserve">
	<defs>
		<linearGradient id="grad1" x1="0%" y1="0%" x2="100%" y2="0%">
			<stop offset="0%" style="stop-color:#1a1f36;stop-opacity:1" />
			<stop offset="100%" style="stop-color:#43508d;stop-opacity:1" />
		</linearGradient>
	</defs>
	<g transform="matrix(6.123233995736766e-17,-1,1,6.123233995736766e-17,-0.0003676414490030311,483.01362466812134)">
		<path d="M477.043,219.205L378.575,48.677c-7.974-13.802-22.683-22.292-38.607-22.292H143.041c-15.923,0-30.628,8.49-38.608,22.292  L5.971,219.205c-7.961,13.801-7.961,30.785,0,44.588l98.462,170.543c7.98,13.802,22.685,22.293,38.608,22.293h196.926  c15.925,0,30.634-8.491,38.607-22.293l98.469-170.543C485.003,249.99,485.003,233.006,477.043,219.205z" fill="url(#grad1)" data-original="#000000" style="" class="" />
	</g>
	<g transform="scale(11) translate(6 6)">
		<path d="M18.525 14.464a.548.548 0 00.048-1.094h-3.84v-.96a.634.634 0 00-1.22 0v.96h-1.027a.547.547 0 100 1.094h1.028v3.34a3.187 3.187 0 003.177 3.169 3.11 3.11 0 001.92-.701l.23-.192a.643.643 0 10-.844-.96l-.173.144a1.843 1.843 0 01-1.997.23 1.92 1.92 0 01-1.094-1.728v-3.302h3.792zm6.24 3.725a.48.48 0 00-.375-.567h-.24a.47.47 0 00-.46.365 7.488 7.488 0 11-14.132-4.733 6.845 6.845 0 013.706-3.705 7.546 7.546 0 019.331 2.669.48.48 0 00.653.134l.086-.058a.518.518 0 00.164-.71A8.64 8.64 0 0013.37 8.33a8.102 8.102 0 00-4.992 4.924 8.582 8.582 0 1016.387 4.935zM16.874 4.95h-.96A11.443 11.443 0 005.41 19.59a.547.547 0 00.682.365h.077a.547.547 0 00.288-.643 10.349 10.349 0 117.68 7.2.518.518 0 00-.519.192.557.557 0 00.317.893A11.434 11.434 0 1016.874 4.95z" fill="#FFF" />
	</g>
</svg>
