<?xml version="1.0"?>
<svg xmlns="http://www.w3.org/2000/svg" version="1.1" width="100" height="100" x="0" y="0" viewBox="0 0 483.013 483.013" xml:space="preserve">
	<defs>
		<linearGradient id="grad1" x1="0%" y1="0%" x2="100%" y2="0%">
			<stop offset="0%" style="stop-color:#3058a6;stop-opacity:1" />
			<stop offset="100%" style="stop-color:#5e85d0;stop-opacity:1" />
		</linearGradient>
	</defs>
	<g transform="matrix(6.123233995736766e-17,-1,1,6.123233995736766e-17,-0.0003676414490030311,483.01362466812134)">
		<path d="M477.043,219.205L378.575,48.677c-7.974-13.802-22.683-22.292-38.607-22.292H143.041c-15.923,0-30.628,8.49-38.608,22.292  L5.971,219.205c-7.961,13.801-7.961,30.785,0,44.588l98.462,170.543c7.98,13.802,22.685,22.293,38.608,22.293h196.926  c15.925,0,30.634-8.491,38.607-22.293l98.469-170.543C485.003,249.99,485.003,233.006,477.043,219.205z" fill="url(#grad1)" data-original="#000000" style="" class="" />
	</g>
	<g transform="scale(11) translate(6 6)">
		<g fill="#FFF">
			<path d="M15.995 27.228c-6.198 0-11.223-5.025-11.223-11.223S9.797 4.782 15.995 4.782s11.223 5.025 11.223 11.223-5.025 11.223-11.223 11.223m0-23.161c-6.583 0-11.938 5.355-11.938 11.938s5.355 11.938 11.938 11.938 11.938-5.355 11.938-11.938S22.578 4.067 15.995 4.067" fill-rule="nonzero" />
			<path d="M20.199 20.275l-.623 2.699-.15.653h-.67l-3.445-.002h-.014c-1.381-.023-2.465-.39-3.176-1.038.614 1.083 1.918 1.71 3.738 1.74h.014l3.444.002h.67l.151-.653.623-2.699-.486-1.031-.076.329zM19.116 8.704l-.492-1.023-.07.32-.467 2.127h.716zm2.487 2.461l-.62 2.625-.154.648h-3.733l-.948 4.328c-.02.124-.032.25-.032.32 0 .061.007.1.013.119a.6.6 0 00.223.038h.408l.898-4.102h3.733l.153-.649.62-2.625-.482-1.036-.08.334zm-9.262 3.273H9.74l.896.703h1.552z" />
			<path d="M16.434 20.086h-.095c-.724-.019-1.066-.396-1.066-1 0-.144.024-.335.048-.478l1.098-5.012h3.744l.62-2.625h-3.744l.692-3.15h-3.054l-.693 3.15H10.67l-.596 2.625h3.314l-1.29 5.895c-.07.286-.095.62-.095.787 0 1.682 1.327 2.472 3.308 2.505l3.444.001.623-2.698h-2.944z" />
		</g>
	</g>
</svg>
