<?xml version="1.0"?>
<svg xmlns="http://www.w3.org/2000/svg" version="1.1" width="100" height="100" x="0" y="0" viewBox="0 0 483.013 483.013" xml:space="preserve">
	<defs>
		<linearGradient id="grad1" x1="0%" y1="0%" x2="100%" y2="0%">
			<stop offset="0%" style="stop-color:#30c0f2;stop-opacity:1" />
			<stop offset="100%" style="stop-color:#6ed2f5;stop-opacity:1" />
		</linearGradient>
	</defs>
	<g transform="matrix(6.123233995736766e-17,-1,1,6.123233995736766e-17,-0.0003676414490030311,483.01362466812134)">
		<path d="M477.043,219.205L378.575,48.677c-7.974-13.802-22.683-22.292-38.607-22.292H143.041c-15.923,0-30.628,8.49-38.608,22.292  L5.971,219.205c-7.961,13.801-7.961,30.785,0,44.588l98.462,170.543c7.98,13.802,22.685,22.293,38.608,22.293h196.926  c15.925,0,30.634-8.491,38.607-22.293l98.469-170.543C485.003,249.99,485.003,233.006,477.043,219.205z" fill="url(#grad1)" data-original="#000000" style="" class="" />
	</g>
	<g transform="scale(11) translate(6 6)">
		<path d="M10.123 7h11.774s.312 1.554 1.98 1.658c0 0 5.522 12.85-7.919 18.342 0 0-12.399-3.938-8.023-18.238 0 0 1.876-.104 2.188-1.762zm11.15 1.023h-10.52l-.014.224c-.088.489-.333.83-.692 1.06a1.89 1.89 0 01-.732.271l-.184.018-.052.178c-.969 3.31-1.002 6.17-.239 8.61.626 2 1.759 3.64 3.252 4.95a12.48 12.48 0 002.595 1.753c.31.157.6.286.859.39.157.063.272.104.335.125l.098.03.095-.04c3.706-1.584 5.948-3.978 6.952-6.96.83-2.46.756-5.079.137-7.559a14.225 14.225 0 00-.43-1.406 4.272 4.272 0 00-.042-.109l-.064-.158-.171-.011c-.486-.032-.795-.23-.986-.548a1.367 1.367 0 01-.185-.56zm-10.045.545c6.367.001 9.55.002 9.55.003.044.187.115.373.22.55.256.425.667.712 1.243.794a13.684 13.684 0 01.39 1.29c.596 2.388.666 4.906-.125 7.254-.945 2.807-3.046 5.067-6.551 6.59a10.218 10.218 0 01-1.019-.449 11.936 11.936 0 01-2.481-1.674c-1.421-1.248-2.497-2.804-3.091-4.703-.718-2.295-.699-4.993.194-8.134a2.556 2.556 0 00.785-.324 2.03 2.03 0 00.885-1.197zm7.36 5.582h-.303c.03-.608-.105-1.932-1.75-2.3a2.612 2.612 0 00-1.444.066c-.642.228-1.408.801-1.437 2.234h-.223a.86.86 0 00-.86.855v3.575a.86.86 0 00.86.855h5.158a.86.86 0 00.86-.855v-3.575a.86.86 0 00-.86-.855zm-2.005 4.042h-1.146l.303-1.507a.673.673 0 01.27-1.291.673.673 0 11.27 1.291zm-2.188-4.042c.028-.468.226-1.576 1.459-1.658 0 0 1.626-.089 1.597 1.658z" fill="#fff" fill-rule="nonzero" />
	</g>
</svg>
