<?xml version="1.0"?>
<svg xmlns="http://www.w3.org/2000/svg" version="1.1" width="100" height="100" x="0" y="0" viewBox="0 0 483.013 483.013" xml:space="preserve">
	<defs>
		<linearGradient id="grad1" x1="0%" y1="0%" x2="100%" y2="0%">
			<stop offset="0%" style="stop-color:#374851;stop-opacity:1" />
			<stop offset="100%" style="stop-color:#648393;stop-opacity:1" />
		</linearGradient>
	</defs>
	<g transform="matrix(6.123233995736766e-17,-1,1,6.123233995736766e-17,-0.0003676414490030311,483.01362466812134)">
		<path d="M477.043,219.205L378.575,48.677c-7.974-13.802-22.683-22.292-38.607-22.292H143.041c-15.923,0-30.628,8.49-38.608,22.292  L5.971,219.205c-7.961,13.801-7.961,30.785,0,44.588l98.462,170.543c7.98,13.802,22.685,22.293,38.608,22.293h196.926  c15.925,0,30.634-8.491,38.607-22.293l98.469-170.543C485.003,249.99,485.003,233.006,477.043,219.205z" fill="url(#grad1)" data-original="#000000" style="" class="" />
	</g>
	<g transform="scale(11) translate(6 6)">
		<path d="M17.7 15.4v7.598c.204-.05.404-.107.6-.173v2.91a10.029 10.029 0 01-4 .121V15.4h-3.5v-2.8h10.4v2.8zm1.4 10.11V22.5a7.2 7.2 0 10-6.2 0v3.01C8.895 24.205 6 20.44 6 16c0-5.523 4.477-10 10-10s10 4.477 10 10c0 4.44-2.895 8.205-6.9 9.51z" fill="#fff" />
	</g>
</svg>
