<?xml version="1.0"?>
<svg xmlns="http://www.w3.org/2000/svg" version="1.1" width="100" height="100" x="0" y="0" viewBox="0 0 483.013 483.013" xml:space="preserve">
	<defs>
		<linearGradient id="grad1" x1="0%" y1="0%" x2="100%" y2="0%">
			<stop offset="0%" style="stop-color:#f58634;stop-opacity:1" />
			<stop offset="100%" style="stop-color:#f8aa70;stop-opacity:1" />
		</linearGradient>
	</defs>
	<g transform="matrix(6.123233995736766e-17,-1,1,6.123233995736766e-17,-0.0003676414490030311,483.01362466812134)">
		<path d="M477.043,219.205L378.575,48.677c-7.974-13.802-22.683-22.292-38.607-22.292H143.041c-15.923,0-30.628,8.49-38.608,22.292  L5.971,219.205c-7.961,13.801-7.961,30.785,0,44.588l98.462,170.543c7.98,13.802,22.685,22.293,38.608,22.293h196.926  c15.925,0,30.634-8.491,38.607-22.293l98.469-170.543C485.003,249.99,485.003,233.006,477.043,219.205z" fill="url(#grad1)" data-original="#000000" style="" class="" />
	</g>
	<g transform="scale(11) translate(6 6)">
		<g fill="#fff" fill-rule="nonzero">
			<path d="M13.288 22.732h.004c1.189-.144 2.189-.504 3-1.08 1.074-.77 1.611-1.748 1.611-2.934 0-1-.393-1.837-1.178-2.522-.787-.683-1.853-1.098-3.198-1.242-.457-.059-1.105-.102-1.937-.15-1.814-.11-2.991-.358-3.537-.747a1.742 1.742 0 01-.48-.522 1.236 1.236 0 01-.156-.61c0-.561.324-1.035.977-1.408.652-.372 1.476-.562 2.478-.562.949 0 1.89.162 2.78.48 3.826 1.364 7.48 6.132 9.913 9.546-1.983 1.205-4.684 1.948-7.66 1.948-.876 0-1.751-.065-2.617-.197zM9.009 20.79c-3.493-1.275-5.022-4.426-3.297-7.486.048.43.207.843.463 1.2.32.449.79.814 1.407 1.101 2.155.936 6.118.338 7.75 1.527.549.4.824.911.824 1.534 0 .783-.383 1.424-1.149 1.922-.765.498-1.761.747-2.987.747a8.86 8.86 0 01-3.01-.545z" />
			<path d="M25.912 18.875v-5.854c.657.889 1.024 1.882 1.024 2.927 0 1.046-.367 2.037-1.024 2.927zm-1.649-7.46l.005 7.461c-2.343-3.326-5.844-7.511-10.147-8.909a10.616 10.616 0 00-2.293-.477A16.87 16.87 0 0115.905 9c3.34 0 6.335.936 8.358 2.415z" opacity=".5" />
		</g>
	</g>
</svg>
