<?xml version="1.0"?>
<svg xmlns="http://www.w3.org/2000/svg" version="1.1" width="100" height="100" x="0" y="0" viewBox="0 0 483.013 483.013" xml:space="preserve">
	<defs>
		<linearGradient id="grad1" x1="0%" y1="0%" x2="100%" y2="0%">
			<stop offset="0%" style="stop-color:#6cde07;stop-opacity:1" />
			<stop offset="100%" style="stop-color:#97f840;stop-opacity:1" />
		</linearGradient>
	</defs>
	<g transform="matrix(6.123233995736766e-17,-1,1,6.123233995736766e-17,-0.0003676414490030311,483.01362466812134)">
		<path d="M477.043,219.205L378.575,48.677c-7.974-13.802-22.683-22.292-38.607-22.292H143.041c-15.923,0-30.628,8.49-38.608,22.292  L5.971,219.205c-7.961,13.801-7.961,30.785,0,44.588l98.462,170.543c7.98,13.802,22.685,22.293,38.608,22.293h196.926  c15.925,0,30.634-8.491,38.607-22.293l98.469-170.543C485.003,249.99,485.003,233.006,477.043,219.205z" fill="url(#grad1)" data-original="#000000" style="" class="" />
	</g>
	<g transform="scale(11) translate(6 6)">
		<path d="M22.5 19.154c0 2.57-2.086 4.276-5.166 4.533V26h-2.11v-2.336A11.495 11.495 0 019.5 21.35l1.552-2.126c1.383 1.075 2.692 1.776 4.269 2.01v-4.58c-3.541-.888-5.19-2.173-5.19-4.813 0-2.523 2.061-4.252 5.093-4.486V6h2.11v1.402a9.49 9.49 0 014.56 1.776l-1.359 2.196c-1.067-.771-2.158-1.262-3.298-1.495v4.439c3.687.888 5.263 2.313 5.263 4.836zm-7.18-5.327V9.715c-1.527.117-2.327.935-2.327 1.963 0 .98.46 1.612 2.328 2.15zm4.318 5.49c0-1.05-.51-1.681-2.401-2.219v4.23c1.528-.118 2.401-.889 2.401-2.01z" fill="#fff" />
	</g>
</svg>
