<?xml version="1.0"?>
<svg xmlns="http://www.w3.org/2000/svg" version="1.1" width="100" height="100" x="0" y="0" viewBox="0 0 483.013 483.013" xml:space="preserve">
	<defs>
		<linearGradient id="grad1" x1="0%" y1="0%" x2="100%" y2="0%">
			<stop offset="0%" style="stop-color:#2775c9;stop-opacity:1" />
			<stop offset="100%" style="stop-color:#609ee0;stop-opacity:1" />
		</linearGradient>
	</defs>
	<g transform="matrix(6.123233995736766e-17,-1,1,6.123233995736766e-17,-0.0003676414490030311,483.01362466812134)">
		<path d="M477.043,219.205L378.575,48.677c-7.974-13.802-22.683-22.292-38.607-22.292H143.041c-15.923,0-30.628,8.49-38.608,22.292  L5.971,219.205c-7.961,13.801-7.961,30.785,0,44.588l98.462,170.543c7.98,13.802,22.685,22.293,38.608,22.293h196.926  c15.925,0,30.634-8.491,38.607-22.293l98.469-170.543C485.003,249.99,485.003,233.006,477.043,219.205z" fill="url(#grad1)" data-original="#000000" style="" class="" />
	</g>
	<g transform="scale(11) translate(6 6)">
		<path d="M15.75 27.5C9.26 27.5 4 22.24 4 15.75S9.26 4 15.75 4 27.5 9.26 27.5 15.75A11.75 11.75 0 0115.75 27.5zm-.7-16.11a2.58 2.58 0 00-2.45 2.47c0 1.21.74 2 2.31 2.33l1.1.26c1.07.25 1.51.61 1.51 1.22s-.77 1.21-1.77 1.21a1.9 1.9 0 01-1.8-.91.68.68 0 00-.61-.39h-.59a.35.35 0 00-.28.41 2.73 2.73 0 002.61 2.08v.84a.705.705 0 001.41 0v-.85a2.62 2.62 0 002.59-2.58c0-1.27-.73-2-2.46-2.37l-1-.22c-1-.25-1.47-.58-1.47-1.14 0-.56.6-1.18 1.6-1.18a1.64 1.64 0 011.59.81.8.8 0 00.72.46h.47a.42.42 0 00.31-.5 2.65 2.65 0 00-2.38-2v-.69a.705.705 0 00-1.41 0v.74zm-8.11 4.36a8.79 8.79 0 006 8.33h.14a.45.45 0 00.45-.45v-.21a.94.94 0 00-.58-.87 7.36 7.36 0 010-13.65.93.93 0 00.58-.86v-.23a.42.42 0 00-.56-.4 8.79 8.79 0 00-6.03 8.34zm17.62 0a8.79 8.79 0 00-6-8.32h-.15a.47.47 0 00-.47.47v.15a1 1 0 00.61.9 7.36 7.36 0 010 13.64 1 1 0 00-.6.89v.17a.47.47 0 00.62.44 8.79 8.79 0 005.99-8.34z" fill="#FFF" />
	</g>
</svg>
