<?xml version="1.0"?>
<svg xmlns="http://www.w3.org/2000/svg" version="1.1" width="100" height="100" x="0" y="0" viewBox="0 0 483.013 483.013" xml:space="preserve">
	<defs>
		<linearGradient id="grad1" x1="0%" y1="0%" x2="100%" y2="0%">
			<stop offset="0%" style="stop-color:#ff9933;stop-opacity:1" />
			<stop offset="100%" style="stop-color:#ffb770;stop-opacity:1" />
		</linearGradient>
	</defs>
	<g transform="matrix(6.123233995736766e-17,-1,1,6.123233995736766e-17,-0.0003676414490030311,483.01362466812134)">
		<path d="M477.043,219.205L378.575,48.677c-7.974-13.802-22.683-22.292-38.607-22.292H143.041c-15.923,0-30.628,8.49-38.608,22.292  L5.971,219.205c-7.961,13.801-7.961,30.785,0,44.588l98.462,170.543c7.98,13.802,22.685,22.293,38.608,22.293h196.926  c15.925,0,30.634-8.491,38.607-22.293l98.469-170.543C485.003,249.99,485.003,233.006,477.043,219.205z" fill="url(#grad1)" data-original="#000000" style="" class="" />
	</g>
	<g transform="scale(11) translate(6 6)">
		<path fill="#FFF" d="M6 8c1.104.002 2.209.002 3.312 0l2.091 11.18c.033.165.073.328.116.49.164-.65.267-1.314.404-1.97L13.827 8l3.204.001c-1.175 5.232-2.35 10.465-3.527 15.697H9.527C8.35 18.469 7.175 13.24 6 8.01V8zm12.314 4.932c.697-.876 1.811-1.273 2.885-1.343 1.06-.074 2.202.022 3.1.654.795.556 1.231 1.496 1.438 2.431.251 1.172.264 2.376.263 3.57h-5.87c.005.883-.05 1.794.245 2.64.143.416.41.83.834.981.452.147.996.051 1.326-.313.44-.498.532-1.196.628-1.835h2.664c-.06 1.06-.256 2.18-.95 3.013-.696.866-1.818 1.22-2.88 1.263-1.154.044-2.407-.113-3.327-.89-.855-.713-1.228-1.843-1.376-2.926-.148-1.247-.156-2.509-.087-3.762.093-1.222.314-2.516 1.106-3.484zm2.274 1.245c-.454.654-.466 1.496-.458 2.267h3.032c-.047-.733-.042-1.507-.372-2.178-.41-.828-1.706-.831-2.2-.088h-.002z" />
	</g>
</svg>
