<?xml version="1.0"?>
<svg xmlns="http://www.w3.org/2000/svg" version="1.1" width="100" height="100" x="0" y="0" viewBox="0 0 483.013 483.013" xml:space="preserve">
	<defs>
		<linearGradient id="grad1" x1="0%" y1="0%" x2="100%" y2="0%">
			<stop offset="0%" style="stop-color:#565656;stop-opacity:1" />
			<stop offset="100%" style="stop-color:#888888;stop-opacity:1" />
		</linearGradient>
	</defs>
	<g transform="matrix(6.123233995736766e-17,-1,1,6.123233995736766e-17,-0.0003676414490030311,483.01362466812134)">
		<path d="M477.043,219.205L378.575,48.677c-7.974-13.802-22.683-22.292-38.607-22.292H143.041c-15.923,0-30.628,8.49-38.608,22.292  L5.971,219.205c-7.961,13.801-7.961,30.785,0,44.588l98.462,170.543c7.98,13.802,22.685,22.293,38.608,22.293h196.926  c15.925,0,30.634-8.491,38.607-22.293l98.469-170.543C485.003,249.99,485.003,233.006,477.043,219.205z" fill="url(#grad1)" data-original="#000000" style="" class="" />
	</g>
	<g transform="scale(11) translate(6 6)">
		<path d="M11.133 14.296H8.005v-1.719h2.47L8.58 7.627 10.144 7l3.55 9.267 4.601.03L21.856 7l1.565.627-1.896 4.95h2.47v1.72h-3.128l-.771 2.01 3.904.025-.01 1.719-4.55-.029L16 27l-3.456-9.021L8 17.949l.01-1.718 3.874.025zm3.22 3.694L16 22.288l1.638-4.277z" fill="#fff" fill-rule="nonzero" />
	</g>
</svg>
