<?xml version="1.0"?>
<svg xmlns="http://www.w3.org/2000/svg" version="1.1" width="100" height="100" x="0" y="0" viewBox="0 0 483.013 483.013" xml:space="preserve">
	<defs>
		<linearGradient id="grad1" x1="0%" y1="0%" x2="100%" y2="0%">
			<stop offset="0%" style="stop-color:#408af1;stop-opacity:1" />
			<stop offset="100%" style="stop-color:#79adf5;stop-opacity:1" />
		</linearGradient>
	</defs>
	<g transform="matrix(6.123233995736766e-17,-1,1,6.123233995736766e-17,-0.0003676414490030311,483.01362466812134)">
		<path d="M477.043,219.205L378.575,48.677c-7.974-13.802-22.683-22.292-38.607-22.292H143.041c-15.923,0-30.628,8.49-38.608,22.292  L5.971,219.205c-7.961,13.801-7.961,30.785,0,44.588l98.462,170.543c7.98,13.802,22.685,22.293,38.608,22.293h196.926  c15.925,0,30.634-8.491,38.607-22.293l98.469-170.543C485.003,249.99,485.003,233.006,477.043,219.205z" fill="url(#grad1)" data-original="#000000" style="" class="" />
	</g>
	<g transform="scale(11) translate(6 6)">
		<path d="M23.049 10.277a1.574 1.574 0 012.19-.537c.75.47.986 1.47.526 2.237-1.704 2.838-3.627 5.808-5.23 8.076-2.34 3.31-2.847 4.447-4.535 4.447s-2.068-1.003-4.475-4.456c-1.43-2.05-3.223-4.795-5.27-8.036A1.647 1.647 0 016.73 9.76a1.573 1.573 0 012.202.485c2.023 3.202 6.593 9.876 7.081 10.471.51-.604 5.372-7.667 7.036-10.44z" fill="#fff" fill-rule="nonzero" />
	</g>
</svg>
