<?xml version="1.0"?>
<svg xmlns="http://www.w3.org/2000/svg" version="1.1" width="100" height="100" x="0" y="0" viewBox="0 0 483.013 483.013" xml:space="preserve">
	<defs>
		<linearGradient id="grad1" x1="0%" y1="0%" x2="100%" y2="0%">
			<stop offset="0%" style="stop-color:#418bca;stop-opacity:1" />
			<stop offset="100%" style="stop-color:#79add9;stop-opacity:1" />
		</linearGradient>
	</defs>
	<g transform="matrix(6.123233995736766e-17,-1,1,6.123233995736766e-17,-0.0003676414490030311,483.01362466812134)">
		<path d="M477.043,219.205L378.575,48.677c-7.974-13.802-22.683-22.292-38.607-22.292H143.041c-15.923,0-30.628,8.49-38.608,22.292  L5.971,219.205c-7.961,13.801-7.961,30.785,0,44.588l98.462,170.543c7.98,13.802,22.685,22.293,38.608,22.293h196.926  c15.925,0,30.634-8.491,38.607-22.293l98.469-170.543C485.003,249.99,485.003,233.006,477.043,219.205z" fill="url(#grad1)" data-original="#000000" style="" class="" />
	</g>
	<g transform="scale(11) translate(6 6)">
		<path d="M20.265 8H25l-9 18L7 8h4.704l4.327 9.113zM16 12.959c-.788 0-1.427-.656-1.427-1.465s.639-1.466 1.427-1.466 1.427.657 1.427 1.466-.64 1.465-1.427 1.465zm6.465 4.04c.788 0 1.427.657 1.426 1.466 0 .81-.638 1.465-1.426 1.465-.788 0-1.427-.656-1.427-1.465S21.677 17 22.465 17z" fill="#fff" fill-rule="nonzero" />
	</g>
</svg>
