<?xml version="1.0"?>
<svg xmlns="http://www.w3.org/2000/svg" version="1.1" width="100" height="100" x="0" y="0" viewBox="0 0 483.013 483.013" xml:space="preserve">
	<defs>
		<linearGradient id="grad1" x1="0%" y1="0%" x2="100%" y2="0%">
			<stop offset="0%" style="stop-color:#136aad;stop-opacity:1" />
			<stop offset="100%" style="stop-color:#369be8;stop-opacity:1" />
		</linearGradient>
	</defs>
	<g transform="matrix(6.123233995736766e-17,-1,1,6.123233995736766e-17,-0.0003676414490030311,483.01362466812134)">
		<path d="M477.043,219.205L378.575,48.677c-7.974-13.802-22.683-22.292-38.607-22.292H143.041c-15.923,0-30.628,8.49-38.608,22.292  L5.971,219.205c-7.961,13.801-7.961,30.785,0,44.588l98.462,170.543c7.98,13.802,22.685,22.293,38.608,22.293h196.926  c15.925,0,30.634-8.491,38.607-22.293l98.469-170.543C485.003,249.99,485.003,233.006,477.043,219.205z" fill="url(#grad1)" data-original="#000000" style="" class="" />
	</g>
	<g transform="scale(11) translate(6 6)">
		<path fill="#FFF" d="M7 11.09l2.667 1.13v6.353L16 14.786l6.394 3.787V12.22L25 11.09v11.974l-9-5.315-9 5.315V11.09zm.303-.489L16 5.5l8.758 5.101-2.364.978L16 7.883l-6.333 3.696-2.364-.978zm1.879 11.821l1.97-1.13 4.878 2.825 4.818-2.825 2.03 1.13L16.03 26.5l-6.848-4.078z" />
	</g>
</svg>
