<?xml version="1.0"?>
<svg xmlns="http://www.w3.org/2000/svg" version="1.1" width="100" height="100" x="0" y="0" viewBox="0 0 483.013 483.013" xml:space="preserve">
	<defs>
		<linearGradient id="grad1" x1="0%" y1="0%" x2="100%" y2="0%">
			<stop offset="0%" style="stop-color:#f89022;stop-opacity:1" />
			<stop offset="100%" style="stop-color:#fab164;stop-opacity:1" />
		</linearGradient>
	</defs>
	<g transform="matrix(6.123233995736766e-17,-1,1,6.123233995736766e-17,-0.0003676414490030311,483.01362466812134)">
		<path d="M477.043,219.205L378.575,48.677c-7.974-13.802-22.683-22.292-38.607-22.292H143.041c-15.923,0-30.628,8.49-38.608,22.292  L5.971,219.205c-7.961,13.801-7.961,30.785,0,44.588l98.462,170.543c7.98,13.802,22.685,22.293,38.608,22.293h196.926  c15.925,0,30.634-8.491,38.607-22.293l98.469-170.543C485.003,249.99,485.003,233.006,477.043,219.205z" fill="url(#grad1)" data-original="#000000" style="" class="" />
	</g>
	<g transform="scale(11) translate(6 6)">
		<path d="M28 18.962h-2.364l-1.677-1.436-1.671 1.43H20.29l-.955-1.16h-3.292l.833-1.029h1.619l-1.233-1.508-4.305 5.241H10.96l1.246-1.522h-2.081L9 15.824l-1.116 3.13H5.773L4 14.041h1.62l1.192 3.346L8 14.056h2l1.185 3.324 1.184-3.325h1.625l-1.788 4.923.398-.486 3.652-4.445h2.01l3.039 3.708 1.462-1.257L18.14 12.5h2.375zm-2.345-2.972l-1.115-.956 1.113-.948 2.25.002z" fill="#fff" />
	</g>
</svg>
