<?xml version="1.0"?>
<svg xmlns="http://www.w3.org/2000/svg" version="1.1" width="100" height="100" x="0" y="0" viewBox="0 0 483.013 483.013" xml:space="preserve">
	<defs>
		<linearGradient id="grad1" x1="0%" y1="0%" x2="100%" y2="0%">
			<stop offset="0%" style="stop-color:#0dc9f7;stop-opacity:1" />
			<stop offset="100%" style="stop-color:#55d9f9;stop-opacity:1" />
		</linearGradient>
	</defs>
	<g transform="matrix(6.123233995736766e-17,-1,1,6.123233995736766e-17,-0.0003676414490030311,483.01362466812134)">
		<path d="M477.043,219.205L378.575,48.677c-7.974-13.802-22.683-22.292-38.607-22.292H143.041c-15.923,0-30.628,8.49-38.608,22.292  L5.971,219.205c-7.961,13.801-7.961,30.785,0,44.588l98.462,170.543c7.98,13.802,22.685,22.293,38.608,22.293h196.926  c15.925,0,30.634-8.491,38.607-22.293l98.469-170.543C485.003,249.99,485.003,233.006,477.043,219.205z" fill="url(#grad1)" data-original="#000000" style="" class="" />
	</g>
	<g transform="scale(11) translate(6 6)">
		<g fill="#fff" fill-rule="nonzero">
			<path d="M18.904 15.739l-3.045 2.364-1.247-4.325-7.224-1.935 9.481.487z" fill-opacity=".305" />
			<path d="M8.27 23.993L24.586 11.33 26 14.476l-1.855-.513-.065 3.264z" fill-opacity=".7" />
			<path d="M22.796 17.78l-4.747-8.161L6 9l9.183 2.461 2.49 8.49z" />
		</g>
	</g>
</svg>
