<?xml version="1.0"?>
<svg xmlns="http://www.w3.org/2000/svg" version="1.1" width="100" height="100" x="0" y="0" viewBox="0 0 483.013 483.013" xml:space="preserve">
	<defs>
		<linearGradient id="grad1" x1="0%" y1="0%" x2="100%" y2="0%">
			<stop offset="0%" style="stop-color:#8200ff;stop-opacity:1" />
			<stop offset="100%" style="stop-color:#a74cfe;stop-opacity:1" />
		</linearGradient>
	</defs>
	<g transform="matrix(6.123233995736766e-17,-1,1,6.123233995736766e-17,-0.0003676414490030311,483.01362466812134)">
		<path d="M477.043,219.205L378.575,48.677c-7.974-13.802-22.683-22.292-38.607-22.292H143.041c-15.923,0-30.628,8.49-38.608,22.292  L5.971,219.205c-7.961,13.801-7.961,30.785,0,44.588l98.462,170.543c7.98,13.802,22.685,22.293,38.608,22.293h196.926  c15.925,0,30.634-8.491,38.607-22.293l98.469-170.543C485.003,249.99,485.003,233.006,477.043,219.205z" fill="url(#grad1)" data-original="#000000" style="" class="" />
	</g>
	<g transform="scale(11) translate(6 6)">
		<path fill="#FFF" d="M18.414 13.166l-.68.167c-.614.15-1.044.69-1.044 1.31v4.538l-2.247.55a.69.69 0 01-.836-.492.662.662 0 01-.02-.164V11.52c0-.31.215-.58.522-.656l3.448-.844a.69.69 0 01.836.492c.014.053.02.108.02.163v2.491zm-7.586-.042l-.852.209c-.614.15-1.045.69-1.045 1.31v4.58l-2.074.508a.69.69 0 01-.836-.492.662.662 0 01-.021-.164V11.52c0-.31.215-.58.522-.656l3.449-.844a.69.69 0 01.836.492c.014.053.02.108.02.163v2.45zm10.867-2.239l3.448-.844a.69.69 0 01.836.491.653.653 0 01.021.164v7.556c0 .31-.215.58-.522.655l-3.449.844a.69.69 0 01-.836-.491.662.662 0 01-.02-.164V11.54c0-.31.215-.58.522-.655z" />
		<path fill="#FFF" d="M12.897 13.314v5.761c0 .11.013.22.04.328a1.38 1.38 0 001.511 1.013v.939c0 .31-.215.58-.522.655l-3.448.844a.69.69 0 01-.837-.491.662.662 0 01-.02-.164v-7.556c0-.31.215-.58.522-.655l2.754-.674zm7.586.042v5.74c0 .11.014.22.04.328.186.723.935 1.163 1.674.982l.01-.002v.95a.68.68 0 01-.522.656l-3.449.844a.69.69 0 01-.836-.491.662.662 0 01-.02-.164v-7.556c0-.31.215-.58.522-.655l2.58-.632z" opacity=".504" />
	</g>
</svg>
