<?xml version="1.0"?>
<svg xmlns="http://www.w3.org/2000/svg" version="1.1" width="100" height="100" x="0" y="0" viewBox="0 0 483.013 483.013" xml:space="preserve">
	<defs>
		<linearGradient id="grad1" x1="0%" y1="0%" x2="100%" y2="0%">
			<stop offset="0%" style="stop-color:#3b5998;stop-opacity:1" />
			<stop offset="100%" style="stop-color:#6885c4;stop-opacity:1" />
		</linearGradient>
	</defs>
	<g transform="matrix(6.123233995736766e-17,-1,1,6.123233995736766e-17,-0.0003676414490030311,483.01362466812134)">
		<path d="M477.043,219.205L378.575,48.677c-7.974-13.802-22.683-22.292-38.607-22.292H143.041c-15.923,0-30.628,8.49-38.608,22.292  L5.971,219.205c-7.961,13.801-7.961,30.785,0,44.588l98.462,170.543c7.98,13.802,22.685,22.293,38.608,22.293h196.926  c15.925,0,30.634-8.491,38.607-22.293l98.469-170.543C485.003,249.99,485.003,233.006,477.043,219.205z" fill="url(#grad1)" data-original="#000000" style="" class="" />
	</g>
	<g transform="scale(11) translate(6 6)">
		<g fill="#FFF">
			<path d="M14.116 6.01h1.88v5.882l-1.88-1.963z" />
			<path d="M6.011 7.993h4.949c1.677 1.755 3.361 3.507 5.038 5.266.971-1.009 1.939-2.025 2.906-3.037.715-.741 1.427-1.486 2.14-2.23h4.937c-2.304 2.33-4.605 4.662-6.91 6.99-.242.243-.485.488-.722.734.058.062.12.123.172.189l6.771 6.846.691.696h-3.83c-.099 0-.198.006-.295-.007-.273-.008-.547.004-.82-.006-.495-.511-.984-1.029-1.479-1.542-.973-1.012-1.942-2.03-2.915-3.044-.216-.224-.427-.454-.648-.672-.47.5-.952.993-1.425 1.493l-2.677 2.794c-.312.325-.62.652-.934.971-.27.008-.542 0-.814.004-.155.019-.312.006-.467.01H6.01l7.268-7.35c.125-.126.249-.253.37-.382L6.01 7.993z" />
			<path d="M16 19.531c.626.663 1.26 1.319 1.888 1.98.004 1.307 0 2.612 0 3.92h-1.89c0-1.967 0-3.933.004-5.9H16z" />
		</g>
	</g>
</svg>
