<?xml version="1.0"?>
<svg xmlns="http://www.w3.org/2000/svg" version="1.1" width="100" height="100" x="0" y="0" viewBox="0 0 483.013 483.013" xml:space="preserve">
	<defs>
		<linearGradient id="grad1" x1="0%" y1="0%" x2="100%" y2="0%">
			<stop offset="0%" style="stop-color:#faa00d;stop-opacity:1" />
			<stop offset="100%" style="stop-color:#fbbc55;stop-opacity:1" />
		</linearGradient>
	</defs>
	<g transform="matrix(6.123233995736766e-17,-1,1,6.123233995736766e-17,-0.0003676414490030311,483.01362466812134)">
		<path d="M477.043,219.205L378.575,48.677c-7.974-13.802-22.683-22.292-38.607-22.292H143.041c-15.923,0-30.628,8.49-38.608,22.292  L5.971,219.205c-7.961,13.801-7.961,30.785,0,44.588l98.462,170.543c7.98,13.802,22.685,22.293,38.608,22.293h196.926  c15.925,0,30.634-8.491,38.607-22.293l98.469-170.543C485.003,249.99,485.003,233.006,477.043,219.205z" fill="url(#grad1)" data-original="#000000" style="" class="" />
	</g>
	<g transform="scale(11) translate(6 6)">
		<path d="M25.992 14.471l-9.469 11.01-.425.519L6.007 14.582l.032-.013L6 14.563l3.922-6.557.002.002L9.922 8h12.254l-.002.007L26 14.47zm-13.136.459l-2.17 3.674 5.352 6.112 5.363-6.162-2.122-3.635zm-2.778 2.98l1.76-2.979-4.362.007zm9.723-3.846l4.954-.008-3.11-5.208-4.882.01zm4.771.846l-4.273.007 1.713 2.935zm-5.791-.844L16.09 9.454l-2.73 4.62zm-8.399-5.194l-3.1 5.213 5.06-.009 3.08-5.214z" fill="#fff" fill-rule="nonzero" />
	</g>
</svg>
