<?xml version="1.0"?>
<svg xmlns="http://www.w3.org/2000/svg" version="1.1" width="100" height="100" x="0" y="0" viewBox="0 0 483.013 483.013" xml:space="preserve">
	<defs>
		<linearGradient id="grad1" x1="0%" y1="0%" x2="100%" y2="0%">
			<stop offset="0%" style="stop-color:#56f4f1;stop-opacity:1" />
			<stop offset="100%" style="stop-color:#88f7f5;stop-opacity:1" />
		</linearGradient>
	</defs>
	<g transform="matrix(6.123233995736766e-17,-1,1,6.123233995736766e-17,-0.0003676414490030311,483.01362466812134)">
		<path d="M477.043,219.205L378.575,48.677c-7.974-13.802-22.683-22.292-38.607-22.292H143.041c-15.923,0-30.628,8.49-38.608,22.292  L5.971,219.205c-7.961,13.801-7.961,30.785,0,44.588l98.462,170.543c7.98,13.802,22.685,22.293,38.608,22.293h196.926  c15.925,0,30.634-8.491,38.607-22.293l98.469-170.543C485.003,249.99,485.003,233.006,477.043,219.205z" fill="url(#grad1)" data-original="#000000" style="" class="" />
	</g>
	<g transform="scale(11) translate(6 6)">
		<path d="M6 9.016c0-.015.21-.016 2.918-.014l2.919.003 1.66 2.793 1.688 2.841.028.047.264-.45c.144-.248.262-.455.26-.461-.002-.006-.637-1.078-1.41-2.38s-1.406-2.373-1.406-2.38c0-.013.439-.015 3.073-.015 1.706 0 3.072.004 3.072.01 0 .02-6.515 11.097-6.53 11.1-.011.002-.964-1.608-3.276-5.537C7.467 11.526 6 9.026 6 9.016zm14.14-.009c0-.004 1.32-.007 2.931-.007H26l-.004.022c-.003.013-1.463 2.501-3.244 5.529-2.159 3.667-3.246 5.506-3.26 5.508-.013.002-.319-.507-1.345-2.234-.732-1.23-1.333-2.24-1.337-2.242-.008-.005-.533.886-.529.898.001.005.604 1.02 1.338 2.256a127.572 127.572 0 011.33 2.265c-.009.035-2.936 4.995-2.948 4.998-.019.004-2.929-4.94-2.923-4.965.005-.011 6.954-11.85 7.061-12.028z" fill="#fff" fill-rule="nonzero" />
	</g>
</svg>
