<?xml version="1.0"?>
<svg xmlns="http://www.w3.org/2000/svg" version="1.1" width="100" height="100" x="0" y="0" viewBox="0 0 483.013 483.013" xml:space="preserve">
	<defs>
		<linearGradient id="grad1" x1="0%" y1="0%" x2="100%" y2="0%">
			<stop offset="0%" style="stop-color:#ed1650;stop-opacity:1" />
			<stop offset="100%" style="stop-color:#f25b84;stop-opacity:1" />
		</linearGradient>
	</defs>
	<g transform="matrix(6.123233995736766e-17,-1,1,6.123233995736766e-17,-0.0003676414490030311,483.01362466812134)">
		<path d="M477.043,219.205L378.575,48.677c-7.974-13.802-22.683-22.292-38.607-22.292H143.041c-15.923,0-30.628,8.49-38.608,22.292  L5.971,219.205c-7.961,13.801-7.961,30.785,0,44.588l98.462,170.543c7.98,13.802,22.685,22.293,38.608,22.293h196.926  c15.925,0,30.634-8.491,38.607-22.293l98.469-170.543C485.003,249.99,485.003,233.006,477.043,219.205z" fill="url(#grad1)" data-original="#000000" style="" class="" />
	</g>
	<g transform="scale(11) translate(6 6)">
		<path fill="#FFF" d="M23.48 10h-4.044a.616.616 0 00-.44.186l-7.375 7.529a.616.616 0 01-.44.186H9.829a.616.616 0 01-.44-.186l-.956-.974a.639.639 0 01-.183-.447v-1.377a.64.64 0 01.183-.448l.956-.974a.617.617 0 01.44-.186h1.352c.165 0 .323.067.44.186l.587.598a.614.614 0 00.88 0l1.419-1.444a.642.642 0 000-.896l-1.54-1.567a.617.617 0 00-.44-.186H8.483a.617.617 0 00-.44.186l-2.86 2.912a.64.64 0 00-.182.448v4.118c0 .168.066.33.182.448l2.86 2.913a.617.617 0 00.44.185h4.045a.617.617 0 00.44-.186l7.375-7.528a.617.617 0 01.44-.187h1.352c.165 0 .323.067.44.186l.956.974a.64.64 0 01.183.448v1.377a.64.64 0 01-.183.447l-.956.974a.616.616 0 01-.44.186h-1.352a.616.616 0 01-.44-.186l-.592-.603a.614.614 0 00-.875-.005l-1.75 1.742a.64.64 0 00-.187.453v4.04c0 .35.279.634.622.634h2.04a.628.628 0 00.623-.633v-1.5c0-.35.279-.633.622-.633h2.635a.617.617 0 00.44-.185l2.86-2.913a.64.64 0 00.183-.448v-4.118a.64.64 0 00-.182-.448l-2.86-2.912a.617.617 0 00-.44-.186" />
	</g>
</svg>
