<?xml version="1.0"?>
<svg xmlns="http://www.w3.org/2000/svg" version="1.1" width="100" height="100" x="0" y="0" viewBox="0 0 483.013 483.013" xml:space="preserve">
	<defs>
		<linearGradient id="grad1" x1="0%" y1="0%" x2="100%" y2="0%">
			<stop offset="0%" style="stop-color:#67b2e8;stop-opacity:1" />
			<stop offset="100%" style="stop-color:#94c9ee;stop-opacity:1" />
		</linearGradient>
	</defs>
	<g transform="matrix(6.123233995736766e-17,-1,1,6.123233995736766e-17,-0.0003676414490030311,483.01362466812134)">
		<path d="M477.043,219.205L378.575,48.677c-7.974-13.802-22.683-22.292-38.607-22.292H143.041c-15.923,0-30.628,8.49-38.608,22.292  L5.971,219.205c-7.961,13.801-7.961,30.785,0,44.588l98.462,170.543c7.98,13.802,22.685,22.293,38.608,22.293h196.926  c15.925,0,30.634-8.491,38.607-22.293l98.469-170.543C485.003,249.99,485.003,233.006,477.043,219.205z" fill="url(#grad1)" data-original="#000000" style="" class="" />
	</g>
	<g transform="scale(11) translate(6 6)">
		<path fill="#FFF" d="M6.145 11.954A19.83 19.83 0 016 9.636a20.035 20.035 0 014.152-1.779 20.221 20.221 0 016.262-.853c.568.011 1.39.074 2.014.141a6.005 6.005 0 00-3.065 4.19c-.06.314-.093.64-.104.988-.016.536-.068.958-.18 1.353a4.53 4.53 0 01-8.469.672 1.475 1.475 0 01-.1-.3 20.172 20.172 0 01-.365-2.094zm16.613 8.56c-.238.37-.49.73-.752 1.085a5.898 5.898 0 00-.73-2.89 5.933 5.933 0 00-2.146-2.263l-.09-.055a7.075 7.075 0 01-.149-.09c-1.137-.723-1.83-1.735-2.074-3.041A4.518 4.518 0 0120.2 8.041c.82-.198 1.63-.17 2.437.083.619.195 1.245.45 2.008.807.44.207.884.437 1.356.704a20.113 20.113 0 01-.452 4.148 20.147 20.147 0 01-2.79 6.731zm-3.037 3.673A20.522 20.522 0 0116.001 27a15.74 15.74 0 01-1.017-.639 20.375 20.375 0 01-7.288-8.722 5.882 5.882 0 002.42.785 6.027 6.027 0 003.614-.773 4.618 4.618 0 011.706-.569 4.52 4.52 0 014.902 3.206c.335 1.121.237 2.222-.283 3.307-.044.092-.082.166-.172.343l-.044.087a.581.581 0 01-.118.162z" />
	</g>
</svg>
