<?xml version="1.0"?>
<svg xmlns="http://www.w3.org/2000/svg" version="1.1" width="100" height="100" x="0" y="0" viewBox="0 0 483.013 483.013" xml:space="preserve">
	<defs>
		<linearGradient id="grad1" x1="0%" y1="0%" x2="100%" y2="0%">
			<stop offset="0%" style="stop-color:#1eb5fa;stop-opacity:1" />
			<stop offset="100%" style="stop-color:#61cbfb;stop-opacity:1" />
		</linearGradient>
	</defs>
	<g transform="matrix(6.123233995736766e-17,-1,1,6.123233995736766e-17,-0.0003676414490030311,483.01362466812134)">
		<path d="M477.043,219.205L378.575,48.677c-7.974-13.802-22.683-22.292-38.607-22.292H143.041c-15.923,0-30.628,8.49-38.608,22.292  L5.971,219.205c-7.961,13.801-7.961,30.785,0,44.588l98.462,170.543c7.98,13.802,22.685,22.293,38.608,22.293h196.926  c15.925,0,30.634-8.491,38.607-22.293l98.469-170.543C485.003,249.99,485.003,233.006,477.043,219.205z" fill="url(#grad1)" data-original="#000000" style="" class="" />
	</g>
	<g transform="scale(11) translate(6 6)">
		<path d="M26.405 7.151l-3.63 1.61a.673.673 0 00-.35.59v12.98a.66.66 0 00.36.59l3.63 1.57a.338.338 0 00.5-.3V7.451a.35.35 0 00-.51-.3zM9.02 8.741l-3.52-1.6a.338.338 0 00-.5.3v16.74a.341.341 0 00.52.29l3.54-1.87a.667.667 0 00.32-.57v-12.7a.7.7 0 00-.36-.59zm11.04 4.43l-3.79-2.17a.668.668 0 00-.67 0l-3.86 2.15a.684.684 0 00-.34.59v4.4c0 .243.13.468.34.59l3.86 2.22c.207.12.463.12.67 0l3.79-2.2a.684.684 0 00.34-.59v-4.4a.672.672 0 00-.34-.59z" fill="#FFF" />
	</g>
</svg>
