<?xml version="1.0"?>
<svg xmlns="http://www.w3.org/2000/svg" version="1.1" width="100" height="100" x="0" y="0" viewBox="0 0 483.013 483.013" xml:space="preserve">
	<defs>
		<linearGradient id="grad1" x1="0%" y1="0%" x2="100%" y2="0%">
			<stop offset="0%" style="stop-color:#000;stop-opacity:1" />
			<stop offset="100%" style="stop-color:#4c4c4c;stop-opacity:1" />
		</linearGradient>
	</defs>
	<g transform="matrix(6.123233995736766e-17,-1,1,6.123233995736766e-17,-0.0003676414490030311,483.01362466812134)">
		<path d="M477.043,219.205L378.575,48.677c-7.974-13.802-22.683-22.292-38.607-22.292H143.041c-15.923,0-30.628,8.49-38.608,22.292  L5.971,219.205c-7.961,13.801-7.961,30.785,0,44.588l98.462,170.543c7.98,13.802,22.685,22.293,38.608,22.293h196.926  c15.925,0,30.634-8.491,38.607-22.293l98.469-170.543C485.003,249.99,485.003,233.006,477.043,219.205z" fill="url(#grad1)" data-original="#000000" style="" class="" />
	</g>
	<g transform="scale(11) translate(6 6)">
		<path d="M23.13 9.292l-2.4 1.224-11.598 5.907A6.909 6.909 0 0119.35 9.498l1.374-.7.205-.105a8.439 8.439 0 00-13.371 7.472 1.535 1.535 0 01-.834 1.484l-.725.37v1.724l2.134-1.088.691-.353.681-.347 12.226-6.23 1.374-.699 2.84-1.447V7.856L23.13 9.292zm2.816 2.012L10.201 19.32l-1.374.7L6 21.463v1.723l2.808-1.43 2.401-1.224 11.61-5.916a6.909 6.909 0 01-10.229 6.93l-.085.045-1.49.76a8.439 8.439 0 0013.372-7.475 1.536 1.536 0 01.833-1.483l.726-.37v-1.718z" fill="#FFF" />
	</g>
</svg>
