<?xml version="1.0"?>
<svg xmlns="http://www.w3.org/2000/svg" version="1.1" width="100" height="100" x="0" y="0" viewBox="0 0 483.013 483.013" xml:space="preserve">
	<defs>
		<linearGradient id="grad1" x1="0%" y1="0%" x2="100%" y2="0%">
			<stop offset="0%" style="stop-color:#dd0632;stop-opacity:1" />
			<stop offset="100%" style="stop-color:#f93e64;stop-opacity:1" />
		</linearGradient>
	</defs>
	<g transform="matrix(6.123233995736766e-17,-1,1,6.123233995736766e-17,-0.0003676414490030311,483.01362466812134)">
		<path d="M477.043,219.205L378.575,48.677c-7.974-13.802-22.683-22.292-38.607-22.292H143.041c-15.923,0-30.628,8.49-38.608,22.292  L5.971,219.205c-7.961,13.801-7.961,30.785,0,44.588l98.462,170.543c7.98,13.802,22.685,22.293,38.608,22.293h196.926  c15.925,0,30.634-8.491,38.607-22.293l98.469-170.543C485.003,249.99,485.003,233.006,477.043,219.205z" fill="url(#grad1)" data-original="#000000" style="" class="" />
	</g>
	<g transform="scale(11) translate(6 6)">
		<path d="M22.682 7h-5.16l-1.534 2.652L14.459 7H9.297L4 16.175l5.129 8.88 3.477-6.019L16 24.896l3.384-5.86 3.485 6.06L28 16.216 22.682 7zM9.122 21.544L6.02 16.178l2.467-4.272 3.1 5.37-2.466 4.273v-.005zm.384-11.402l.818-1.421h3.091l1.555 2.693-2.364 4.099-3.1-5.371zm6.48 11.232l-2.362-4.102 2.364-4.097L17.044 15l1.31 2.273-2.366 4.097-.002.005zm1.017-9.96l1.558-2.693h3.091l.828 1.42-3.12 5.372-2.357-4.1zm7.968 6.537l-2.093 3.631-2.488-4.32 3.1-5.359.836 1.44 1.653 2.863-1.008 1.745z" fill="#FFF" />
	</g>
</svg>
