<?xml version="1.0"?>
<svg xmlns="http://www.w3.org/2000/svg" version="1.1" width="100" height="100" x="0" y="0" viewBox="0 0 483.013 483.013" xml:space="preserve">
	<defs>
		<linearGradient id="grad1" x1="0%" y1="0%" x2="100%" y2="0%">
			<stop offset="0%" style="stop-color:#004a80;stop-opacity:1" />
			<stop offset="100%" style="stop-color:#008cf2;stop-opacity:1" />
		</linearGradient>
	</defs>
	<g transform="matrix(6.123233995736766e-17,-1,1,6.123233995736766e-17,-0.0003676414490030311,483.01362466812134)">
		<path d="M477.043,219.205L378.575,48.677c-7.974-13.802-22.683-22.292-38.607-22.292H143.041c-15.923,0-30.628,8.49-38.608,22.292  L5.971,219.205c-7.961,13.801-7.961,30.785,0,44.588l98.462,170.543c7.98,13.802,22.685,22.293,38.608,22.293h196.926  c15.925,0,30.634-8.491,38.607-22.293l98.469-170.543C485.003,249.99,485.003,233.006,477.043,219.205z" fill="url(#grad1)" data-original="#000000" style="" class="" />
	</g>
	<g transform="scale(11) translate(6 6)">
		<path d="M23 19.54L21.517 25H9v-.913l6.79-7.719-6.653-8.376V7h12.331l.43 4.252h-.79c-.521-.969-.963-1.694-1.328-2.175-.364-.481-.689-.78-.975-.899-.202-.098-.48-.168-.834-.21a10.88 10.88 0 00-1.273-.065h-3.503l5.249 6.54v.315l-6.488 7.365h7.405c.364 0 .698-.087 1-.26.302-.174.564-.392.785-.654a5.63 5.63 0 00.615-.873 8.22 8.22 0 00.498-1.022z" fill="#fff" />
	</g>
</svg>
