<?xml version="1.0"?>
<svg xmlns="http://www.w3.org/2000/svg" version="1.1" width="100" height="100" x="0" y="0" viewBox="0 0 483.013 483.013" xml:space="preserve">
	<defs>
		<linearGradient id="grad1" x1="0%" y1="0%" x2="100%" y2="0%">
			<stop offset="0%" style="stop-color:#ff6600;stop-opacity:1" />
			<stop offset="100%" style="stop-color:#fe934c;stop-opacity:1" />
		</linearGradient>
	</defs>
	<g transform="matrix(6.123233995736766e-17,-1,1,6.123233995736766e-17,-0.0003676414490030311,483.01362466812134)">
		<path d="M477.043,219.205L378.575,48.677c-7.974-13.802-22.683-22.292-38.607-22.292H143.041c-15.923,0-30.628,8.49-38.608,22.292  L5.971,219.205c-7.961,13.801-7.961,30.785,0,44.588l98.462,170.543c7.98,13.802,22.685,22.293,38.608,22.293h196.926  c15.925,0,30.634-8.491,38.607-22.293l98.469-170.543C485.003,249.99,485.003,233.006,477.043,219.205z" fill="url(#grad1)" data-original="#000000" style="" class="" />
	</g>
	<g transform="scale(11) translate(6 6)">
		<g fill="#FFF">
			<path d="M28 16c0 6.628-5.372 12-12 12S4 22.628 4 16c0-2.681.881-5.156 2.362-7.153l1.96 1.96A9.222 9.222 0 006.728 16c0 5.11 4.153 9.262 9.263 9.262 5.109 0 9.262-4.153 9.262-9.262a9.272 9.272 0 00-1.594-5.194l1.96-1.96A11.86 11.86 0 0128 16" />
			<path d="M22.637 16A6.644 6.644 0 0116 22.637 6.644 6.644 0 019.362 16c0-1.153.3-2.287.872-3.29L16 18.474l5.766-5.766A6.644 6.644 0 0122.638 16" />
			<path d="M23.847 6.925L16 14.762l-5.981-5.971-1.866-1.866A11.907 11.907 0 0116 4c3 0 5.738 1.097 7.847 2.925" />
		</g>
	</g>
</svg>
