<?xml version="1.0"?>
<svg xmlns="http://www.w3.org/2000/svg" version="1.1" width="100" height="100" x="0" y="0" viewBox="0 0 483.013 483.013" xml:space="preserve">
	<defs>
		<linearGradient id="grad1" x1="0%" y1="0%" x2="100%" y2="0%">
			<stop offset="0%" style="stop-color:#ec1076;stop-opacity:1" />
			<stop offset="100%" style="stop-color:#f3559e;stop-opacity:1" />
		</linearGradient>
	</defs>
	<g transform="matrix(6.123233995736766e-17,-1,1,6.123233995736766e-17,-0.0003676414490030311,483.01362466812134)">
		<path d="M477.043,219.205L378.575,48.677c-7.974-13.802-22.683-22.292-38.607-22.292H143.041c-15.923,0-30.628,8.49-38.608,22.292  L5.971,219.205c-7.961,13.801-7.961,30.785,0,44.588l98.462,170.543c7.98,13.802,22.685,22.293,38.608,22.293h196.926  c15.925,0,30.634-8.491,38.607-22.293l98.469-170.543C485.003,249.99,485.003,233.006,477.043,219.205z" fill="url(#grad1)" data-original="#000000" style="" class="" />
	</g>
	<g transform="scale(11) translate(6 6)">
		<path d="M21.05 21c-.602 0-1.263-.303-1.263-1.212 0-.448.35-1.825 1.048-4.132.143-.356.214-.676.214-.959 0-.545-.42-1.09-1.202-1.09-.454 0-1.443.18-1.743 1.15-.2.647-.661 2.364-1.383 5.152-.28.727-.781 1.091-1.502 1.091-1.082 0-1.263-.788-1.263-1.273 0-.192.288-1.353.865-3.48.225-.71.337-1.227.337-1.55 0-.485-.36-1.09-1.202-1.09-.841 0-1.623.605-1.983 1.938-.24.89-.581 2.223-1.022 4-.24.97-.782 1.455-1.623 1.455-.762 0-1.162-.424-1.202-1.273l1.382-5.757H6.443a1.425 1.425 0 11-.03-2.849h5.139c.721 0 1.162.344 1.322 1.03C13.596 11.243 14.557 11 15.4 11s1.923.485 2.404 1.576c.66-.728 1.803-1.576 3.426-1.576 1.502 0 2.765 1.03 2.765 2.848 0 .687-.341 2.122-1.022 4.304l2.637-.018c.771 0 1.39.642 1.39 1.433S26.381 21 25.617 21z" fill="#fff" />
	</g>
</svg>
