<?xml version="1.0"?>
<svg xmlns="http://www.w3.org/2000/svg" version="1.1" width="100" height="100" x="0" y="0" viewBox="0 0 483.013 483.013" xml:space="preserve">
	<defs>
		<linearGradient id="grad1" x1="0%" y1="0%" x2="100%" y2="0%">
			<stop offset="0%" style="stop-color:#008200;stop-opacity:1" />
			<stop offset="100%" style="stop-color:#00f300;stop-opacity:1" />
		</linearGradient>
	</defs>
	<g transform="matrix(6.123233995736766e-17,-1,1,6.123233995736766e-17,-0.0003676414490030311,483.01362466812134)">
		<path d="M477.043,219.205L378.575,48.677c-7.974-13.802-22.683-22.292-38.607-22.292H143.041c-15.923,0-30.628,8.49-38.608,22.292  L5.971,219.205c-7.961,13.801-7.961,30.785,0,44.588l98.462,170.543c7.98,13.802,22.685,22.293,38.608,22.293h196.926  c15.925,0,30.634-8.491,38.607-22.293l98.469-170.543C485.003,249.99,485.003,233.006,477.043,219.205z" fill="url(#grad1)" data-original="#000000" style="" class="" />
	</g>
	<g transform="scale(11) translate(6 6)">
		<path d="M14.79 23h-1.798l-1.082-4.25 2.645-1.382.861 2.46.641-3.245 3.515-1.837-.194.976 2.03.019c.784-.012 1.391-.277 1.823-.793.432-.517.637-1.21.615-2.083a2.31 2.31 0 00-.035-.335l2.73-1.427c.378.695.522 1.514.434 2.455-.146 1.372-.74 2.47-1.779 3.293-1.039.824-2.364 1.236-3.973 1.236l-2.306-.01L17.94 23zm.421-10.99h1.75l-2.697 3.825-6.66 3.481 2.468-3.49L7.7 9h3.48l1.23 4.789 1.052-1.78h1.75-1.75L15.34 9h2.215l5.126.01c1.165.032 2.12.341 2.866.927l-2.8 1.464a1.773 1.773 0 00-.208-.026l-2.294-.02-.3 1.51-3.517 1.838.532-2.694zm-9.425 9.942l5.327-2.785L8.765 23H5l.767-1.085z" fill="#fff" fill-rule="nonzero" />
	</g>
</svg>
