<?xml version="1.0"?>
<svg xmlns="http://www.w3.org/2000/svg" version="1.1" width="100" height="100" x="0" y="0" viewBox="0 0 483.013 483.013" xml:space="preserve">
	<defs>
		<linearGradient id="grad1" x1="0%" y1="0%" x2="100%" y2="0%">
			<stop offset="0%" style="stop-color:#4fa784;stop-opacity:1" />
			<stop offset="100%" style="stop-color:#81c3a9;stop-opacity:1" />
		</linearGradient>
	</defs>
	<g transform="matrix(6.123233995736766e-17,-1,1,6.123233995736766e-17,-0.0003676414490030311,483.01362466812134)">
		<path d="M477.043,219.205L378.575,48.677c-7.974-13.802-22.683-22.292-38.607-22.292H143.041c-15.923,0-30.628,8.49-38.608,22.292  L5.971,219.205c-7.961,13.801-7.961,30.785,0,44.588l98.462,170.543c7.98,13.802,22.685,22.293,38.608,22.293h196.926  c15.925,0,30.634-8.491,38.607-22.293l98.469-170.543C485.003,249.99,485.003,233.006,477.043,219.205z" fill="url(#grad1)" data-original="#000000" style="" class="" />
	</g>
	<g transform="scale(11) translate(6 6)">
		<path fill="#FFF" d="M25.575 12.846l-8.11-2.324-2.774 4.725-3.222-3.737 1.46-.188 1.505 1.768 1.67-2.959-7.35-2.107a.586.586 0 00-.736.7L11.274 21.8l3.497-5.888 3.222 3.737-1.46.188-1.504-1.768-3.31 5.517.49 1.97a.59.59 0 00.98.28l12.63-12.01a.58.58 0 00-.244-.98z" />
	</g>
</svg>
