<?xml version="1.0"?>
<svg xmlns="http://www.w3.org/2000/svg" version="1.1" width="100" height="100" x="0" y="0" viewBox="0 0 483.013 483.013" xml:space="preserve">
	<defs>
		<linearGradient id="grad1" x1="0%" y1="0%" x2="100%" y2="0%">
			<stop offset="0%" style="stop-color:#a6e000;stop-opacity:1" />
			<stop offset="100%" style="stop-color:#cbff36;stop-opacity:1" />
		</linearGradient>
	</defs>
	<g transform="matrix(6.123233995736766e-17,-1,1,6.123233995736766e-17,-0.0003676414490030311,483.01362466812134)">
		<path d="M477.043,219.205L378.575,48.677c-7.974-13.802-22.683-22.292-38.607-22.292H143.041c-15.923,0-30.628,8.49-38.608,22.292  L5.971,219.205c-7.961,13.801-7.961,30.785,0,44.588l98.462,170.543c7.98,13.802,22.685,22.293,38.608,22.293h196.926  c15.925,0,30.634-8.491,38.607-22.293l98.469-170.543C485.003,249.99,485.003,233.006,477.043,219.205z" fill="url(#grad1)" data-original="#000000" style="" class="" />
	</g>
	<g transform="scale(11) translate(6 6)">
		<path fill="#FFF" d="M18.19 26c-1.46 0-2.524-.344-3.192-1.03-.667-.688-1.001-1.429-1.001-2.223 0-.29.058-.535.175-.733a1.27 1.27 0 01.477-.47c.202-.114.45-.172.745-.172s.544.058.746.172c.202.115.36.271.477.47.117.198.175.443.175.733 0 .351-.085.637-.256.859a1.184 1.184 0 01-.606.435c.202.275.52.47.955.584.435.123.87.184 1.304.184a2.93 2.93 0 001.643-.481c.489-.321.85-.795 1.082-1.42.233-.627.35-1.337.35-2.131 0-.863-.128-1.6-.384-2.211-.249-.619-.618-1.077-1.107-1.375a2.99 2.99 0 00-1.584-.446c-.372 0-.838.152-1.397.458l-1.025.504v-.504l4.612-6.048h-6.382v6.277c0 .52.116.947.35 1.283.232.336.59.504 1.07.504.373 0 .73-.122 1.072-.367a3.76 3.76 0 00.885-.893.342.342 0 01.117-.15.236.236 0 01.151-.056c.086 0 .186.042.303.125a.619.619 0 01.163.424 2.92 2.92 0 01-.058.321c-.264.58-.63 1.023-1.095 1.329a2.748 2.748 0 01-1.537.458c-1.382 0-2.337-.267-2.865-.802-.528-.534-.792-1.26-.792-2.176v-6.277H8.5V9.986h3.26V7.33l-.744-.734V6h2.166l.815.412v3.574l8.431-.023.84.825-5.172 5.086a3.51 3.51 0 01.978-.23c.56 0 1.188.176 1.887.528.707.343 1.25.817 1.63 1.42.381.596.626 1.169.734 1.719a7.16 7.16 0 01.175 1.466 6.02 6.02 0 01-.629 2.726 4.037 4.037 0 01-1.91 1.878A6.291 6.291 0 0118.19 26z" />
	</g>
</svg>
