<?xml version="1.0"?>
<svg xmlns="http://www.w3.org/2000/svg" version="1.1" width="100" height="100" x="0" y="0" viewBox="0 0 483.013 483.013" xml:space="preserve">
	<defs>
		<linearGradient id="grad1" x1="0%" y1="0%" x2="100%" y2="0%">
			<stop offset="0%" style="stop-color:#25aae3;stop-opacity:1" />
			<stop offset="100%" style="stop-color:#66c3eb;stop-opacity:1" />
		</linearGradient>
	</defs>
	<g transform="matrix(6.123233995736766e-17,-1,1,6.123233995736766e-17,-0.0003676414490030311,483.01362466812134)">
		<path d="M477.043,219.205L378.575,48.677c-7.974-13.802-22.683-22.292-38.607-22.292H143.041c-15.923,0-30.628,8.49-38.608,22.292  L5.971,219.205c-7.961,13.801-7.961,30.785,0,44.588l98.462,170.543c7.98,13.802,22.685,22.293,38.608,22.293h196.926  c15.925,0,30.634-8.491,38.607-22.293l98.469-170.543C485.003,249.99,485.003,233.006,477.043,219.205z" fill="url(#grad1)" data-original="#000000" style="" class="" />
	</g>
	<g transform="scale(11) translate(6 6)">
		<path fill="#FFF" d="M27 16c0 6.075-4.925 11-11 11S5 22.075 5 16C5 9.924 9.925 5 16 5s11 4.925 11 11zm-3.77.346c.007-.125 0 0 0-.127 0-3.607-2.665-6.811-6.122-7.35v-2.1l-2.24.698V8.87c-3.455.538-6.102 3.52-6.102 7.125 0 3.69 2.77 6.73 6.344 7.165v2.068l2.24-.698v-1.446a7.23 7.23 0 005.441-4.68H20.47a5.08 5.08 0 01-4.48 2.685 5.094 5.094 0 01-5.077-4.726l12.318-.017zM11.25 14.13a5.093 5.093 0 014.74-3.229 5.095 5.095 0 014.737 3.23h-9.476z" />
	</g>
</svg>
