<?xml version="1.0"?>
<svg xmlns="http://www.w3.org/2000/svg" version="1.1" width="100" height="100" x="0" y="0" viewBox="0 0 483.013 483.013" xml:space="preserve">
	<defs>
		<linearGradient id="grad1" x1="0%" y1="0%" x2="100%" y2="0%">
			<stop offset="0%" style="stop-color:#21a5de;stop-opacity:1" />
			<stop offset="100%" style="stop-color:#63c0e7;stop-opacity:1" />
		</linearGradient>
	</defs>
	<g transform="matrix(6.123233995736766e-17,-1,1,6.123233995736766e-17,-0.0003676414490030311,483.01362466812134)">
		<path d="M477.043,219.205L378.575,48.677c-7.974-13.802-22.683-22.292-38.607-22.292H143.041c-15.923,0-30.628,8.49-38.608,22.292  L5.971,219.205c-7.961,13.801-7.961,30.785,0,44.588l98.462,170.543c7.98,13.802,22.685,22.293,38.608,22.293h196.926  c15.925,0,30.634-8.491,38.607-22.293l98.469-170.543C485.003,249.99,485.003,233.006,477.043,219.205z" fill="url(#grad1)" data-original="#000000" style="" class="" />
	</g>
	<g transform="scale(11) translate(6 6)">
		<path d="M21.49 16.575c.34.364.546.849.546 1.381 0 1.129-.928 2.044-2.072 2.044-1.143 0-2.07-.915-2.07-2.044 0-.532.206-1.017.544-1.381A.743.743 0 0117.243 16a.72.72 0 01.157-.45c-.369.334-.86.538-1.4.538s-1.031-.204-1.4-.538a.72.72 0 01.157.45c0 .403-.33.73-.74.73a.743.743 0 01-.455-.155c.338.364.545.849.545 1.381 0 1.129-.928 2.044-2.071 2.044-1.144 0-2.072-.915-2.072-2.044 0-.532.207-1.017.545-1.381A.743.743 0 019.314 16a.72.72 0 01.157-.45c-.369.334-.86.538-1.4.538-1.144 0-2.071-.915-2.071-2.044S6.927 12 8.071 12c1.144 0 2.071.915 2.071 2.044a2.02 2.02 0 01-.545 1.381.743.743 0 011.196.575.72.72 0 01-.157.45c.368-.334.86-.538 1.4-.538.54 0 1.03.204 1.4.538a.72.72 0 01-.158-.45.743.743 0 111.196-.575 2.022 2.022 0 01-.545-1.381c0-1.129.927-2.044 2.071-2.044s2.071.915 2.071 2.044a2.02 2.02 0 01-.545 1.381.743.743 0 011.196.575.72.72 0 01-.157.45c.368-.334.86-.538 1.4-.538.54 0 1.03.204 1.4.538a.72.72 0 01-.158-.45.743.743 0 111.196-.575 2.022 2.022 0 01-.545-1.381c0-1.129.927-2.044 2.071-2.044S26 12.915 26 14.044s-.927 2.044-2.071 2.044c-.54 0-1.031-.204-1.4-.538a.72.72 0 01.157.45c0 .403-.33.73-.74.73a.743.743 0 01-.455-.155z" fill="#fff" />
	</g>
</svg>
