<?xml version="1.0"?>
<svg xmlns="http://www.w3.org/2000/svg" version="1.1" width="100" height="100" x="0" y="0" viewBox="0 0 483.013 483.013" xml:space="preserve">
	<defs>
		<linearGradient id="grad1" x1="0%" y1="0%" x2="100%" y2="0%">
			<stop offset="0%" style="stop-color:#ecb244;stop-opacity:1" />
			<stop offset="100%" style="stop-color:#f1c97c;stop-opacity:1" />
		</linearGradient>
	</defs>
	<g transform="matrix(6.123233995736766e-17,-1,1,6.123233995736766e-17,-0.0003676414490030311,483.01362466812134)">
		<path d="M477.043,219.205L378.575,48.677c-7.974-13.802-22.683-22.292-38.607-22.292H143.041c-15.923,0-30.628,8.49-38.608,22.292  L5.971,219.205c-7.961,13.801-7.961,30.785,0,44.588l98.462,170.543c7.98,13.802,22.685,22.293,38.608,22.293h196.926  c15.925,0,30.634-8.491,38.607-22.293l98.469-170.543C485.003,249.99,485.003,233.006,477.043,219.205z" fill="url(#grad1)" data-original="#000000" style="" class="" />
	</g>
	<g transform="scale(11) translate(6 6)">
		<path fill="#FFF" fill-rule="nonzero" d="M15.096 19.846h6.297v3.35h-3.875c.064.958.097 1.847.161 2.804h-3.261v-2.77h-3.876c0-1.093-.129-2.187.065-3.213.097-.547.678-1.026 1.033-1.504a462.137 462.137 0 013.714-4.581c.485-.582.969-1.129 1.518-1.778h-6.04v-3.35h3.586V6h3.132v2.735h3.908c0 1.128.129 2.222-.065 3.248-.097.547-.678 1.026-1.065 1.504a462.138 462.138 0 01-3.714 4.581 37.083 37.083 0 01-1.518 1.778z" />
	</g>
</svg>
