<?xml version="1.0"?>
<svg xmlns="http://www.w3.org/2000/svg" version="1.1" width="100" height="100" x="0" y="0" viewBox="0 0 483.013 483.013" xml:space="preserve">
	<defs>
		<linearGradient id="grad1" x1="0%" y1="0%" x2="100%" y2="0%">
			<stop offset="0%" style="stop-color:#16203a;stop-opacity:1" />
			<stop offset="100%" style="stop-color:#395397;stop-opacity:1" />
		</linearGradient>
	</defs>
	<g transform="matrix(6.123233995736766e-17,-1,1,6.123233995736766e-17,-0.0003676414490030311,483.01362466812134)">
		<path d="M477.043,219.205L378.575,48.677c-7.974-13.802-22.683-22.292-38.607-22.292H143.041c-15.923,0-30.628,8.49-38.608,22.292  L5.971,219.205c-7.961,13.801-7.961,30.785,0,44.588l98.462,170.543c7.98,13.802,22.685,22.293,38.608,22.293h196.926  c15.925,0,30.634-8.491,38.607-22.293l98.469-170.543C485.003,249.99,485.003,233.006,477.043,219.205z" fill="url(#grad1)" data-original="#000000" style="" class="" />
	</g>
	<g transform="scale(11) translate(6 6)">
		<g fill="#FFF">
			<g opacity=".7">
				<path d="M15.445 17.082a11.72 11.72 0 00-4.085 2.006 5.52 5.52 0 004.6 2.392 5.52 5.52 0 005.456-4.508 15.52 15.52 0 00-2.917-.294 12.116 12.116 0 00-3.073.386" />
				<path d="M15.445 17.082a11.72 11.72 0 00-4.085 2.006 5.52 5.52 0 004.6 2.392 5.52 5.52 0 005.456-4.508 15.52 15.52 0 00-2.917-.294 12.116 12.116 0 00-3.073.386" />
				<path d="M23.136 12.4a8.013 8.013 0 01-7.176 11.574 7.976 7.976 0 01-3.56-.829l-2.852 1.84A10.985 10.985 0 0015.96 27C22.057 27 27 22.057 27 15.96a11.04 11.04 0 00-2.052-6.44l-1.812 2.88z" />
				<path d="M23.136 12.4a8.013 8.013 0 01-7.176 11.574 7.976 7.976 0 01-3.56-.829l-2.852 1.84A10.985 10.985 0 0015.96 27C22.057 27 27 22.057 27 15.96a11.04 11.04 0 00-2.052-6.44l-1.812 2.88z" />
			</g>
			<path d="M8.407 18.637a8.013 8.013 0 0111.16-9.835l2.851-1.84A11.04 11.04 0 007.11 22.556a13.294 13.294 0 0114.416-6.596 5.533 5.533 0 00-11.04.754 14.582 14.582 0 00-2.07 1.905" />
		</g>
	</g>
</svg>
