<?xml version="1.0"?>
<svg xmlns="http://www.w3.org/2000/svg" version="1.1" width="100" height="100" x="0" y="0" viewBox="0 0 483.013 483.013" xml:space="preserve">
	<defs>
		<linearGradient id="grad1" x1="0%" y1="0%" x2="100%" y2="0%">
			<stop offset="0%" style="stop-color:#49c1bf;stop-opacity:1" />
			<stop offset="100%" style="stop-color:#7fd3d2;stop-opacity:1" />
		</linearGradient>
	</defs>
	<g transform="matrix(6.123233995736766e-17,-1,1,6.123233995736766e-17,-0.0003676414490030311,483.01362466812134)">
		<path d="M477.043,219.205L378.575,48.677c-7.974-13.802-22.683-22.292-38.607-22.292H143.041c-15.923,0-30.628,8.49-38.608,22.292  L5.971,219.205c-7.961,13.801-7.961,30.785,0,44.588l98.462,170.543c7.98,13.802,22.685,22.293,38.608,22.293h196.926  c15.925,0,30.634-8.491,38.607-22.293l98.469-170.543C485.003,249.99,485.003,233.006,477.043,219.205z" fill="url(#grad1)" data-original="#000000" style="" class="" />
	</g>
	<g transform="scale(11) translate(6 6)">
		<g fill="#fff">
			<path d="M9 7.281l11.114 5.383 2.845-1.282L11.891 6z" fill-opacity=".304" />
			<path d="M20.114 12.651l2.845-1.281v2.865l-2.845 1.281zm0 13.284v-8.937l2.845-1.295v8.951z" fill-opacity=".646" />
			<path d="M9 7.284v2.897l7.693 3.737L9 17.728v2.856l11.114 5.373v-2.874l-7.548-3.671 7.548-3.881v-2.865z" />
		</g>
	</g>
</svg>
