<?xml version="1.0"?>
<svg xmlns="http://www.w3.org/2000/svg" version="1.1" width="100" height="100" x="0" y="0" viewBox="0 0 483.013 483.013" xml:space="preserve">
	<defs>
		<linearGradient id="grad1" x1="0%" y1="0%" x2="100%" y2="0%">
			<stop offset="0%" style="stop-color:#302c2c;stop-opacity:1" />
			<stop offset="100%" style="stop-color:#716767;stop-opacity:1" />
		</linearGradient>
	</defs>
	<g transform="matrix(6.123233995736766e-17,-1,1,6.123233995736766e-17,-0.0003676414490030311,483.01362466812134)">
		<path d="M477.043,219.205L378.575,48.677c-7.974-13.802-22.683-22.292-38.607-22.292H143.041c-15.923,0-30.628,8.49-38.608,22.292  L5.971,219.205c-7.961,13.801-7.961,30.785,0,44.588l98.462,170.543c7.98,13.802,22.685,22.293,38.608,22.293h196.926  c15.925,0,30.634-8.491,38.607-22.293l98.469-170.543C485.003,249.99,485.003,233.006,477.043,219.205z" fill="url(#grad1)" data-original="#000000" style="" class="" />
	</g>
	<g transform="scale(11) translate(6 6)">
		<path fill="#FFF" d="M15.496 27c-.27-.028-.54-.053-.81-.085a10.88 10.88 0 01-4.122-1.364c-.019-.01-.036-.025-.073-.05 2.206-1.65 4.402-3.29 6.61-4.94l.665.647c.37.362.742.72 1.105 1.087.09.09.155.089.26.035a7.149 7.149 0 002.728-2.39l.107-.158c.031.036.06.065.084.097.767 1.022 1.533 2.044 2.303 3.063.067.088.059.14-.012.22-1.783 2.026-3.999 3.274-6.67 3.701-.336.054-.677.074-1.016.111-.045.005-.09.017-.134.026h-1.025zm.97-22c.186.019.373.039.56.056 1.576.15 3.05.617 4.423 1.4.02.012.037.026.07.05l-6.718 4.819c-.089-.084-.175-.164-.26-.247-.472-.46-.946-.919-1.415-1.383-.075-.074-.132-.082-.226-.035a7.147 7.147 0 00-2.77 2.424l-.1.15-2.468-3.288c.249-.264.479-.527.728-.77 1.623-1.583 3.55-2.59 5.783-2.995.43-.078.869-.104 1.304-.155.049-.005.098-.017.146-.026h.942zM6.458 10.534l4.995 6.548-1.008 1.034c-.251.257-.5.517-.756.77-.072.072-.075.127-.031.215a7.134 7.134 0 002.423 2.77c.035.022.07.045.103.07.006.004.009.014.027.048L8.95 24.435C7 22.756 5.735 20.687 5.227 18.178c-.544-2.686-.103-5.224 1.232-7.644zm14.175 4.37l.918-.953c.256-.266.508-.535.77-.794.082-.081.081-.142.033-.238a7.137 7.137 0 00-2.45-2.798c-.037-.025-.073-.052-.136-.097l3.279-2.46c1.857 1.59 3.09 3.55 3.656 5.915.707 2.952.077 5.872-1.147 7.928l-4.923-6.503z" />
	</g>
</svg>
